<?xml version="1.0" encoding="utf-8"?>
<!-- Generator: Adobe Illustrator 28.4.1, SVG Export Plug-In . SVG Version: 6.00 Build 0)  -->
<svg version="1.1" id="Layer_1" xmlns:svgjs="http://svgjs.dev/svgjs"
	 xmlns="http://www.w3.org/2000/svg" xmlns:xlink="http://www.w3.org/1999/xlink" x="0px" y="0px" viewBox="0 0 1440 560"
	 style="enable-background:new 0 0 1440 560;" xml:space="preserve">
<style type="text/css">
	.st0{fill:none;stroke:#132E65;stroke-width:1.5;}
	.st1{fill:#132E65;}
	.st2{fill:none;}
	.st3{fill:url(#SVGID_1_);}
	.st4{fill:url(#SVGID_00000047776334550313965920000010093811655500149129_);}
	.st5{fill:url(#SVGID_00000140008352221123129960000008165437670753998488_);}
	.st6{fill:url(#SVGID_00000087391626719757408670000017323924726414315696_);}
	.st7{fill:url(#SVGID_00000088853644096988214110000004042799787646045346_);}
	.st8{fill:url(#SVGID_00000083772331478209829720000011050705957228004225_);}
	.st9{fill:url(#SVGID_00000110462119570907000480000000810842060152679082_);}
	.st10{fill:url(#SVGID_00000105398876942349101270000003402019812201940112_);}
	.st11{fill:#8B9AD9;}
</style>
<g>
	<path class="st0" d="M312.5,140L312.5,140"/>
	<path class="st0" d="M380.3,136.5l-67.9,3.4"/>
	<path class="st0" d="M295.6,53.6l16.9,86.3"/>
	<path class="st0" d="M420.2,226.6L312.5,140"/>
	<path class="st0" d="M295.6,53.6L295.6,53.6"/>
	<path class="st0" d="M407.9,16.7L295.6,53.6"/>
	<path class="st0" d="M420.2,226.6L420.2,226.6"/>
	<path class="st0" d="M486.4,230.4l-66.1-3.8"/>
	<path class="st0" d="M380.3,136.5l39.9,90.1"/>
	<path class="st0" d="M512.3,106.6l-92.1,120"/>
	<path class="st0" d="M502.9,43.5l-82.6,183.1"/>
	<path class="st0" d="M599.6,123L420.2,226.6"/>
	<path class="st0" d="M380.3,136.5L380.3,136.5"/>
	<path class="st0" d="M295.6,53.6l84.7,82.9"/>
	<path class="st0" d="M407.9,16.7l-27.6,119.8"/>
	<path class="st0" d="M407.9,16.7L407.9,16.7"/>
	<path class="st0" d="M502.9,43.5l-94.9-26.8"/>
	<path class="st0" d="M512.3,106.6L407.9,16.7"/>
	<path class="st0" d="M486.4,230.4L486.4,230.4"/>
	<path class="st0" d="M512.3,106.6l-26,123.8"/>
	<path class="st0" d="M512.3,106.6L512.3,106.6"/>
	<path class="st0" d="M502.9,43.5l9.5,63.1"/>
	<path class="st0" d="M599.6,123l-87.3-16.4"/>
	<path class="st0" d="M380.3,136.5l132-29.9"/>
	<path class="st0" d="M605.9,7.9l-93.5,98.7"/>
	<path class="st0" d="M502.9,43.5L502.9,43.5"/>
	<path class="st0" d="M628.5,206.2L628.5,206.2"/>
	<path class="st0" d="M697.8,243.4l-69.2-37.2"/>
	<path class="st0" d="M599.6,123l28.9,83.2"/>
	<path class="st0" d="M724.3,155.2l-95.7,51"/>
	<path class="st0" d="M486.4,230.4l142.2-24.2"/>
	<path class="st0" d="M599.6,123L599.6,123"/>
	<path class="st0" d="M605.9,7.9L599.6,123"/>
	<path class="st0" d="M605.9,7.9L605.9,7.9"/>
	<path class="st0" d="M502.9,43.5l103-35.6"/>
	<path class="st0" d="M727.1,7.8l-121.2,0"/>
	<path class="st0" d="M791.8,36.3L605.9,7.9"/>
	<path class="st0" d="M697.8,243.4L697.8,243.4"/>
	<path class="st0" d="M724.3,155.2l-26.5,88.2"/>
	<path class="st0" d="M824.7,216.6l-126.9,26.8"/>
	<path class="st0" d="M802.3,134.1L697.8,243.4"/>
	<path class="st0" d="M724.3,155.2L724.3,155.2"/>
	<path class="st0" d="M802.3,134.1l-78,21.1"/>
	<path class="st0" d="M727.1,7.8L727.1,7.8"/>
	<path class="st0" d="M791.8,36.3L727.1,7.8"/>
	<path class="st0" d="M802.3,134.1L727.1,7.8"/>
	<path class="st0" d="M824.7,216.6L824.7,216.6"/>
	<path class="st0" d="M802.3,134.1l22.4,82.5"/>
	<path class="st0" d="M924.7,219.1l-100-2.5"/>
	<path class="st0" d="M724.3,155.2l100.4,61.4"/>
	<path class="st0" d="M927.8,141.4l-103.1,75.2"/>
	<path class="st0" d="M910.5,325.2l-85.8-108.6"/>
	<path class="st0" d="M802.3,134.1L802.3,134.1"/>
	<path class="st0" d="M791.8,36.3l10.5,97.8"/>
	<path class="st0" d="M927.8,141.4l-125.5-7.3"/>
	<path class="st0" d="M924.7,219.1l-122.4-84.9"/>
	<path class="st0" d="M791.8,36.3L791.8,36.3"/>
	<path class="st0" d="M724.3,155.2l67.5-118.9"/>
	<path class="st0" d="M932,28.4l-140.2,7.9"/>
	<path class="st0" d="M927.8,141.4l-136-105.1"/>
	<path class="st0" d="M824.7,216.6L791.8,36.3"/>
	<path class="st0" d="M910.5,325.2L910.5,325.2"/>
	<path class="st0" d="M995.1,310.2l-84.6,15.1"/>
	<path class="st0" d="M924.7,219.1l-14.2,106.2"/>
	<path class="st0" d="M995.2,228l-84.7,97.3"/>
	<path class="st0" d="M1014.9,431.5L910.5,325.2"/>
	<path class="st0" d="M927.8,141.4l-17.3,183.8"/>
	<path class="st0" d="M924.7,219.1L924.7,219.1"/>
	<path class="st0" d="M995.2,228l-70.5-8.9"/>
	<path class="st0" d="M927.8,141.4l-3.1,77.7"/>
	<path class="st0" d="M927.8,141.4L927.8,141.4"/>
	<path class="st0" d="M1003.2,136.7l-75.5,4.8"/>
	<path class="st0" d="M995.2,228l-67.4-86.6"/>
	<path class="st0" d="M932,28.4L932,28.4"/>
	<path class="st0" d="M1029,30.9l-97-2.5"/>
	<path class="st0" d="M927.8,141.4l4.2-113"/>
	<path class="st0" d="M1003.2,136.7L932,28.4"/>
	<path class="st0" d="M802.3,134.1L932,28.4"/>
	<path class="st0" d="M993.2,520.5L993.2,520.5"/>
	<path class="st0" d="M1014.9,431.5l-21.6,89"/>
	<path class="st0" d="M1101,533.5l-107.8-13"/>
	<path class="st0" d="M1093.8,434.3l-100.6,86.3"/>
	<path class="st0" d="M995.1,310.2l-1.8,210.4"/>
	<path class="st0" d="M910.5,325.2l82.8,195.3"/>
	<path class="st0" d="M1014.9,431.5L1014.9,431.5"/>
	<path class="st0" d="M1093.8,434.3l-79-2.8"/>
	<path class="st0" d="M995.1,310.2l19.8,121.3"/>
	<path class="st0" d="M995.1,310.2L995.1,310.2"/>
	<path class="st0" d="M995.2,228l-0.1,82.2"/>
	<path class="st0" d="M924.7,219.1l70.4,91.1"/>
	<path class="st0" d="M1131.6,336.9l-136.5-26.7"/>
	<path class="st0" d="M1093.8,434.3l-98.7-124.1"/>
	<path class="st0" d="M995.2,228L995.2,228"/>
	<path class="st0" d="M1003.2,136.7l-8,91.3"/>
	<path class="st0" d="M1003.2,136.7L1003.2,136.7"/>
	<path class="st0" d="M1029,30.9L1029,30.9"/>
	<path class="st0" d="M1117.1,15.4L1029,30.9"/>
	<path class="st0" d="M1101,533.5L1101,533.5"/>
	<path class="st0" d="M1093.8,434.3l7.2,99.2"/>
	<path class="st0" d="M1209.9,531.6l-108.9,1.9"/>
	<path class="st0" d="M1014.9,431.5l86.1,102"/>
	<path class="st0" d="M1093.8,434.3L1093.8,434.3"/>
	<path class="st0" d="M1131.6,336.9L1131.6,336.9"/>
	<path class="st0" d="M1190.2,345.3l-58.6-8.5"/>
	<path class="st0" d="M1093.8,434.3l37.7-97.4"/>
	<path class="st0" d="M1191.2,222.5l-59.6,114.3"/>
	<path class="st0" d="M1106.7,136.8L1106.7,136.8"/>
	<path class="st0" d="M1196.1,134.9l-89.4,1.9"/>
	<path class="st0" d="M1003.2,136.7l103.4,0.1"/>
	<path class="st0" d="M1117.1,15.4L1117.1,15.4"/>
	<path class="st0" d="M1218.6,20.1l-101.6-4.7"/>
	<path class="st0" d="M1209.9,531.6L1209.9,531.6"/>
	<path class="st0" d="M1235.5,449.1l-25.7,82.4"/>
	<path class="st0" d="M1298.1,524.3l-88.2,7.2"/>
	<path class="st0" d="M1235.5,449.1L1235.5,449.1"/>
	<path class="st0" d="M1291.8,436.1l-56.3,13.1"/>
	<path class="st0" d="M1298.1,524.3l-62.6-75.2"/>
	<path class="st0" d="M1190.2,345.3l45.3,103.8"/>
	<path class="st0" d="M1190.2,345.3L1190.2,345.3"/>
	<path class="st0" d="M1296.3,311.4l-106.1,33.9"/>
	<path class="st0" d="M1191.2,222.5L1191.2,222.5"/>
	<path class="st0" d="M1196.1,134.9l-4.9,87.6"/>
	<path class="st0" d="M1295.9,253.7l-104.7-31.2"/>
	<path class="st0" d="M1106.7,136.8l84.5,85.7"/>
	<path class="st0" d="M1190.2,345.3l1-122.8"/>
	<path class="st0" d="M1196.1,134.9L1196.1,134.9"/>
	<path class="st0" d="M1218.6,20.1l-22.5,114.8"/>
	<path class="st0" d="M1117.1,15.4l79,119.5"/>
	<path class="st0" d="M1218.6,20.1L1218.6,20.1"/>
	<path class="st0" d="M1305.2,10.6l-86.6,9.5"/>
	<path class="st0" d="M1106.7,136.8l112-116.7"/>
	<path class="st0" d="M1387.9,32.7l-169.3-12.6"/>
	<path class="st0" d="M1298.1,524.3L1298.1,524.3"/>
	<path class="st0" d="M1291.8,436.1l6.3,88.2"/>
	<path class="st0" d="M1291.8,436.1L1291.8,436.1"/>
	<path class="st0" d="M1296.3,311.4l-4.5,124.7"/>
	<path class="st0" d="M1209.9,531.6l81.9-95.5"/>
	<path class="st0" d="M1296.3,311.4L1296.3,311.4"/>
	<path class="st0" d="M1295.9,253.7l0.4,57.7"/>
	<path class="st0" d="M1397.2,225l-101,86.4"/>
	<path class="st0" d="M1295.9,253.7L1295.9,253.7"/>
	<path class="st0" d="M1397.2,225l-101.3,28.7"/>
	<path class="st0" d="M1305.2,10.6L1305.2,10.6"/>
	<path class="st0" d="M1387.9,32.7l-82.7-22.1"/>
	<path class="st0" d="M1196.1,134.9l109.1-124.3"/>
	<path class="st0" d="M1428.4,535.4L1428.4,535.4"/>
	<path class="st0" d="M1435.5,418.7l-7.1,116.7"/>
	<path class="st0" d="M1435.5,418.7L1435.5,418.7"/>
	<path class="st0" d="M1291.8,436.1l143.7-17.4"/>
	<path class="st0" d="M1397.2,225L1397.2,225"/>
	<path class="st0" d="M1423.2,147.6l-25.9,77.4"/>
	<path class="st0" d="M1387.9,32.7l9.3,192.3"/>
	<path class="st0" d="M1435.5,418.7L1397.2,225"/>
	<path class="st0" d="M1423.2,147.6L1423.2,147.6"/>
	<path class="st0" d="M1387.9,32.7l35.2,114.9"/>
	<path class="st0" d="M1295.9,253.7l127.2-106.2"/>
	<path class="st0" d="M1305.2,10.6l118,136.9"/>
	<path class="st0" d="M1296.3,311.4l126.9-163.8"/>
	<path class="st0" d="M1196.1,134.9l227.1,12.7"/>
	<path class="st0" d="M1387.9,32.7L1387.9,32.7"/>
	<path class="st0" d="M1196.1,134.9l191.9-102.2"/>
	<ellipse transform="matrix(0.1666 -0.986 0.986 0.1666 122.428 424.7653)" class="st1" cx="312.5" cy="140" rx="3.4" ry="3.4"/>
	<circle class="st1" cx="295.6" cy="53.6" r="3.4"/>
	<circle class="st1" cx="420.2" cy="226.6" r="3.4"/>
	<circle class="st1" cx="380.3" cy="136.5" r="3.4"/>
	<circle class="st1" cx="407.9" cy="16.7" r="3.4"/>
	<circle class="st1" cx="486.4" cy="230.4" r="3.4"/>
	<circle class="st1" cx="512.3" cy="106.6" r="3.4"/>
	<circle class="st1" cx="502.9" cy="43.5" r="3.4"/>
	<circle class="st1" cx="628.5" cy="206.2" r="3.4"/>
	<circle class="st1" cx="599.6" cy="123" r="3.4"/>
	<circle class="st1" cx="605.9" cy="7.9" r="3.4"/>
	<circle class="st1" cx="697.8" cy="243.4" r="3.4"/>
	<circle class="st1" cx="724.3" cy="155.2" r="3.4"/>
	<circle class="st1" cx="727.1" cy="7.8" r="3.4"/>
	<circle class="st1" cx="824.7" cy="216.6" r="3.4"/>
	<circle class="st1" cx="802.3" cy="134.1" r="3.4"/>
	<circle class="st1" cx="791.8" cy="36.3" r="3.4"/>
	<circle class="st1" cx="910.5" cy="325.2" r="3.4"/>
	<circle class="st1" cx="924.7" cy="219.1" r="3.4"/>
	
		<ellipse transform="matrix(0.1602 -0.9871 0.9871 0.1602 639.543 1034.551)" class="st1" cx="927.8" cy="141.4" rx="3.4" ry="3.4"/>
	<circle class="st1" cx="932" cy="28.4" r="3.4"/>
	<circle class="st1" cx="993.2" cy="520.5" r="3.4"/>
	<circle class="st1" cx="1014.9" cy="431.5" r="3.4"/>
	<circle class="st1" cx="995.1" cy="310.2" r="3.4"/>
	<circle class="st1" cx="995.2" cy="228" r="3.4"/>
	<circle class="st1" cx="1003.2" cy="136.7" r="3.4"/>
	<circle class="st1" cx="1029" cy="30.9" r="3.4"/>
	<circle class="st1" cx="1101" cy="533.5" r="3.4"/>
	<circle class="st1" cx="1093.8" cy="434.3" r="3.4"/>
	<circle class="st1" cx="1131.6" cy="336.9" r="3.4"/>
	<circle class="st1" cx="1106.7" cy="136.8" r="3.4"/>
	<circle class="st1" cx="1117.1" cy="15.4" r="3.4"/>
	<circle class="st1" cx="1209.9" cy="531.6" r="3.4"/>
	<circle class="st1" cx="1235.5" cy="449.1" r="3.4"/>
	<circle class="st1" cx="1190.2" cy="345.3" r="3.4"/>
	<circle class="st1" cx="1191.2" cy="222.5" r="3.4"/>
	<circle class="st1" cx="1196.1" cy="134.9" r="3.4"/>
	<circle class="st1" cx="1218.6" cy="20.1" r="3.4"/>
	<circle class="st1" cx="1298.1" cy="524.3" r="3.4"/>
	<circle class="st1" cx="1291.8" cy="436.1" r="3.4"/>
	<circle class="st1" cx="1296.3" cy="311.4" r="3.4"/>
	<circle class="st1" cx="1295.9" cy="253.7" r="3.4"/>
	<circle class="st1" cx="1305.2" cy="10.6" r="3.4"/>
	<circle class="st1" cx="1428.4" cy="535.4" r="3.4"/>
	<circle class="st1" cx="1435.5" cy="418.7" r="3.4"/>
	<circle class="st1" cx="1397.2" cy="225" r="3.4"/>
	<circle class="st1" cx="1423.2" cy="147.6" r="3.4"/>
	<circle class="st1" cx="1387.9" cy="32.7" r="3.4"/>
	<path class="st2" d="M593.6,37.8L593.6,37.8"/>
	<path class="st2" d="M513,42.5l80.5-4.7"/>
	<path class="st2" d="M622.4,153.2L593.6,37.8"/>
	<path class="st2" d="M728.1,48.4L593.6,37.8"/>
	<path class="st2" d="M691.5,134.7L691.5,134.7"/>
	<path class="st2" d="M622.4,153.2l69.1-18.5"/>
	<path class="st2" d="M728.1,48.4l-36.6,86.3"/>
	<path class="st2" d="M789.3,139.1l-97.7-4.4"/>
	<path class="st2" d="M797,220.2l-105.4-85.5"/>
	<path class="st2" d="M593.6,37.8l97.9,96.9"/>
	<path class="st2" d="M901.9,230.2L901.9,230.2"/>
	<path class="st2" d="M994.6,246.2l-92.7-16"/>
	<path class="st2" d="M797,220.2l104.9,10"/>
	<path class="st2" d="M1008.3,308.6l-106.5-78.4"/>
	<path class="st2" d="M789.3,139.1l112.6,91.1"/>
	<path class="st2" d="M910.9,15.7L910.9,15.7"/>
	<path class="st2" d="M827,28l83.9-12.3"/>
	<path class="st2" d="M1023.4,26.9L910.9,15.7"/>
	<path class="st2" d="M985.2,107.2l-74.4-91.5"/>
	<path class="st2" d="M1093.1,116.1L1093.1,116.1"/>
	<path class="st2" d="M1131.2,35.3l-38.1,80.8"/>
	<path class="st2" d="M1092.2,214l0.9-98"/>
	<path class="st2" d="M1212.6,126.6L1212.6,126.6"/>
	<path class="st2" d="M1201.9,208.2l10.7-81.6"/>
	<path class="st2" d="M1233.5,38.5l-20.9,88"/>
	<path class="st2" d="M1321.2,134.3l-108.6-7.7"/>
	<path class="st2" d="M1233.5,38.5L1233.5,38.5"/>
	<path class="st2" d="M1296.7,22.1l-63.2,16.5"/>
	<path class="st2" d="M1131.2,35.3l102.3,3.2"/>
	<path class="st2" d="M1321.2,134.3l-87.7-95.8"/>
	<path class="st2" d="M1320.8,223.4L1320.8,223.4"/>
	<path class="st2" d="M1321.2,134.3l-0.4,89.1"/>
	<path class="st2" d="M1295,328.6l25.8-105.1"/>
	<path class="st2" d="M1436.9,217l-116.1,6.4"/>
	<path class="st2" d="M1201.9,208.2l118.9,15.2"/>
	<path class="st2" d="M1413.9,127.2l-93.1,96.3"/>
	<path class="st2" d="M1212.6,126.6l108.2,96.9"/>
	<path class="st2" d="M303.6,154.3L303.6,154.3"/>
	<path class="st2" d="M413.5,115.8l-109.8,38.5"/>
	<path class="st2" d="M282,32.8l21.6,121.5"/>
	<path class="st2" d="M380.6,19.4l-77,134.9"/>
	<path class="st2" d="M487.4,152.8l-183.8,1.6"/>
	<path class="st2" d="M282,32.8L282,32.8"/>
	<path class="st2" d="M380.6,19.4L282,32.8"/>
	<path class="st2" d="M413.5,115.8L282,32.8"/>
	<path class="st2" d="M513,42.5l-231-9.7"/>
	<path class="st2" d="M413.5,115.8L413.5,115.8"/>
	<path class="st2" d="M487.4,152.8l-73.9-36.9"/>
	<path class="st2" d="M380.6,19.4l32.9,96.5"/>
	<path class="st2" d="M380.6,19.4L380.6,19.4"/>
	<path class="st2" d="M513,42.5L380.6,19.4"/>
	<path class="st2" d="M487.4,152.8L380.6,19.4"/>
	<path class="st2" d="M593.6,37.8l-213-18.4"/>
	<path class="st2" d="M487.4,152.8L487.4,152.8"/>
	<path class="st2" d="M513,42.5l-25.6,110.3"/>
	<path class="st2" d="M622.4,153.2l-135-0.5"/>
	<path class="st2" d="M593.6,37.8l-106.2,115"/>
	<path class="st2" d="M513,42.5L513,42.5"/>
	<path class="st2" d="M622.4,153.2L622.4,153.2"/>
	<path class="st2" d="M728.1,48.4L622.4,153.2"/>
	<path class="st2" d="M513,42.5l109.4,110.7"/>
	<path class="st2" d="M728.1,48.4L728.1,48.4"/>
	<path class="st2" d="M797,220.2L797,220.2"/>
	<path class="st2" d="M789.3,139.1l7.7,81.1"/>
	<path class="st2" d="M728.1,48.4L797,220.2"/>
	<path class="st2" d="M622.4,153.2l174.5,67"/>
	<path class="st2" d="M789.3,139.1L789.3,139.1"/>
	<path class="st2" d="M827,28L827,28"/>
	<path class="st2" d="M728.1,48.4L827,28"/>
	<path class="st2" d="M789.3,139.1L827,28"/>
	<path class="st2" d="M691.5,134.7L827,28"/>
	<path class="st2" d="M1008.3,308.6L1008.3,308.6"/>
	<path class="st2" d="M994.6,246.2l13.7,62.4"/>
	<path class="st2" d="M1092.8,344.3l-84.5-35.6"/>
	<path class="st2" d="M1092.2,214l-83.9,94.6"/>
	<path class="st2" d="M994.6,246.2L994.6,246.2"/>
	<path class="st2" d="M1092.2,214l-97.6,32.2"/>
	<path class="st2" d="M1092.8,344.3l-98.2-98.1"/>
	<path class="st2" d="M985.2,107.2l9.4,139"/>
	<path class="st2" d="M985.2,107.2L985.2,107.2"/>
	<path class="st2" d="M1023.4,26.9l-38.2,80.3"/>
	<path class="st2" d="M1093.1,116.1l-107.9-8.9"/>
	<path class="st2" d="M1023.4,26.9L1023.4,26.9"/>
	<path class="st2" d="M1129,556.6L1129,556.6"/>
	<path class="st2" d="M1221.6,528.7l-92.6,28"/>
	<path class="st2" d="M1213.1,417L1129,556.6"/>
	<path class="st2" d="M1287.7,512.4L1129,556.6"/>
	<path class="st2" d="M1092.8,344.3l36.2,212.4"/>
	<path class="st2" d="M1008.3,308.6l120.7,248"/>
	<path class="st2" d="M1092.8,344.3L1092.8,344.3"/>
	<path class="st2" d="M1092.2,214l0.6,130.3"/>
	<path class="st2" d="M1092.2,214L1092.2,214"/>
	<path class="st2" d="M1201.9,208.2l-109.7,5.8"/>
	<path class="st2" d="M1131.2,35.3L1131.2,35.3"/>
	<path class="st2" d="M1023.4,26.9l107.8,8.4"/>
	<path class="st2" d="M1212.6,126.6l-81.4-91.3"/>
	<path class="st2" d="M985.2,107.2l146-71.9"/>
	<path class="st2" d="M1296.7,22.1l-165.5,13.2"/>
	<path class="st2" d="M1221.6,528.7L1221.6,528.7"/>
	<path class="st2" d="M1287.7,512.4l-66.1,16.3"/>
	<path class="st2" d="M1213.1,417l8.4,111.7"/>
	<path class="st2" d="M1388.9,428.2l-167.4,100.5"/>
	<path class="st2" d="M1419.4,514.6l-197.8,14.1"/>
	<path class="st2" d="M1213.1,417L1213.1,417"/>
	<path class="st2" d="M1295,328.6l-81.9,88.4"/>
	<path class="st2" d="M1287.7,512.4l-74.5-95.4"/>
	<path class="st2" d="M1092.8,344.3l120.4,72.7"/>
	<path class="st2" d="M1201.9,208.2L1201.9,208.2"/>
	<path class="st2" d="M1321.2,134.3l-119.3,73.9"/>
	<path class="st2" d="M1093.1,116.1l108.8,92.2"/>
	<path class="st2" d="M1295,328.6l-93.1-120.4"/>
	<path class="st2" d="M1287.7,512.4L1287.7,512.4"/>
	<path class="st2" d="M1388.9,428.2l-101.3,84.2"/>
	<path class="st2" d="M1295,328.6L1295,328.6"/>
	<path class="st2" d="M1429.5,334l-134.5-5.5"/>
	<path class="st2" d="M1388.9,428.2l-93.9-99.6"/>
	<path class="st2" d="M1321.2,134.3L1321.2,134.3"/>
	<path class="st2" d="M1413.9,127.2l-92.7,7.1"/>
	<path class="st2" d="M1296.7,22.1L1296.7,22.1"/>
	<path class="st2" d="M1403.9,16.6l-107.2,5.5"/>
	<path class="st2" d="M1321.2,134.3l-24.5-112.2"/>
	<path class="st2" d="M1419.4,514.6L1419.4,514.6"/>
	<path class="st2" d="M1388.9,428.2l30.4,86.4"/>
	<path class="st2" d="M1287.7,512.4l131.7,2.2"/>
	<path class="st2" d="M1388.9,428.2L1388.9,428.2"/>
	<path class="st2" d="M1429.5,334l-40.6,94.2"/>
	<path class="st2" d="M1429.5,334L1429.5,334"/>
	<path class="st2" d="M1436.9,217l-7.4,117"/>
	<path class="st2" d="M1436.9,217L1436.9,217"/>
	<path class="st2" d="M1413.9,127.2l23,89.8"/>
	<path class="st2" d="M1321.2,134.3l115.7,82.7"/>
	<path class="st2" d="M1295,328.6L1436.9,217"/>
	<path class="st2" d="M1413.9,127.2L1413.9,127.2"/>
	<path class="st2" d="M1403.9,16.6L1403.9,16.6"/>
	<path class="st2" d="M1413.9,127.2l-10.1-110.6"/>
	<path class="st2" d="M1321.2,134.3l82.7-117.7"/>
	
		<radialGradient id="SVGID_1_" cx="-228.9581" cy="817.212" r="0.3356" gradientTransform="matrix(50 0 0 50 12041.4805 -40822.8398)" gradientUnits="userSpaceOnUse">
		<stop  offset="0.1" style="stop-color:#FFFFFF"/>
		<stop  offset="0.2" style="stop-color:#1735B3"/>
		<stop  offset="1" style="stop-color:#000000"/>
	</radialGradient>
	<circle class="st3" cx="593.6" cy="37.8" r="16.8"/>
	
		<radialGradient id="SVGID_00000124871434245102064270000001422434037845310091_" cx="-229.9177" cy="816.2622" r="0.3356" gradientTransform="matrix(50 0 0 50 12187.4102 -40678.3984)" gradientUnits="userSpaceOnUse">
		<stop  offset="0.1" style="stop-color:#FFFFFF"/>
		<stop  offset="0.2" style="stop-color:#1735B3"/>
		<stop  offset="1" style="stop-color:#000000"/>
	</radialGradient>
	<circle style="fill:url(#SVGID_00000124871434245102064270000001422434037845310091_);" cx="691.5" cy="134.7" r="16.8"/>
	
		<radialGradient id="SVGID_00000164509027578067813150000009026302015915010720_" cx="-231.9785" cy="815.3264" r="0.3356" gradientTransform="matrix(50 0 0 50 12500.7998 -40536.0898)" gradientUnits="userSpaceOnUse">
		<stop  offset="0.1" style="stop-color:#FFFFFF"/>
		<stop  offset="0.2" style="stop-color:#1735B3"/>
		<stop  offset="1" style="stop-color:#000000"/>
	</radialGradient>
	<circle style="fill:url(#SVGID_00000164509027578067813150000009026302015915010720_);" cx="901.9" cy="230.2" r="16.8"/>
	
		<radialGradient id="SVGID_00000067237005508782589580000012347824693213394102_" cx="-232.0665" cy="817.4285" r="0.3356" gradientTransform="matrix(50 0 0 50 12514.1797 -40855.7617)" gradientUnits="userSpaceOnUse">
		<stop  offset="0.1" style="stop-color:#FFFFFF"/>
		<stop  offset="0.2" style="stop-color:#1735B3"/>
		<stop  offset="1" style="stop-color:#000000"/>
	</radialGradient>
	<circle style="fill:url(#SVGID_00000067237005508782589580000012347824693213394102_);" cx="910.9" cy="15.7" r="16.8"/>
	
		<radialGradient id="SVGID_00000008119946488548596990000001268905530832899735_" cx="-233.8519" cy="816.445" r="0.3356" gradientTransform="matrix(50 0 0 50 12785.6904 -40706.1992)" gradientUnits="userSpaceOnUse">
		<stop  offset="0.1" style="stop-color:#FFFFFF"/>
		<stop  offset="0.2" style="stop-color:#1735B3"/>
		<stop  offset="1" style="stop-color:#000000"/>
	</radialGradient>
	<circle style="fill:url(#SVGID_00000008119946488548596990000001268905530832899735_);" cx="1093.1" cy="116.1" r="16.8"/>
	
		<radialGradient id="SVGID_00000168814869006415283040000005559962682099934119_" cx="-235.0229" cy="816.342" r="0.3356" gradientTransform="matrix(50 0 0 50 12963.7705 -40690.5312)" gradientUnits="userSpaceOnUse">
		<stop  offset="0.1" style="stop-color:#FFFFFF"/>
		<stop  offset="0.2" style="stop-color:#1735B3"/>
		<stop  offset="1" style="stop-color:#000000"/>
	</radialGradient>
	<circle style="fill:url(#SVGID_00000168814869006415283040000005559962682099934119_);" cx="1212.6" cy="126.6" r="16.8"/>
	
		<radialGradient id="SVGID_00000060742683481464898420000015173028955528575161_" cx="-235.2277" cy="817.2045" r="0.3356" gradientTransform="matrix(50 0 0 50 12994.9102 -40821.6914)" gradientUnits="userSpaceOnUse">
		<stop  offset="0.1" style="stop-color:#FFFFFF"/>
		<stop  offset="0.2" style="stop-color:#1735B3"/>
		<stop  offset="1" style="stop-color:#000000"/>
	</radialGradient>
	<circle style="fill:url(#SVGID_00000060742683481464898420000015173028955528575161_);" cx="1233.5" cy="38.5" r="16.8"/>
	
		<radialGradient id="SVGID_00000180335557301510832310000002909699558571599530_" cx="-236.0828" cy="815.3929" r="0.3356" gradientTransform="matrix(50 0 0 50 13124.9404 -40546.2109)" gradientUnits="userSpaceOnUse">
		<stop  offset="0.1" style="stop-color:#FFFFFF"/>
		<stop  offset="0.2" style="stop-color:#1735B3"/>
		<stop  offset="1" style="stop-color:#000000"/>
	</radialGradient>
	<circle style="fill:url(#SVGID_00000180335557301510832310000002909699558571599530_);" cx="1320.8" cy="223.4" r="16.8"/>
	<circle class="st11" cx="303.6" cy="154.3" r="3.4"/>
	<circle class="st11" cx="282" cy="32.8" r="3.4"/>
	<circle class="st11" cx="413.5" cy="115.8" r="3.4"/>
	<circle class="st11" cx="380.6" cy="19.4" r="3.4"/>
	<circle class="st11" cx="487.4" cy="152.8" r="3.4"/>
	<circle class="st11" cx="513" cy="42.5" r="3.4"/>
	<circle class="st11" cx="622.4" cy="153.2" r="3.4"/>
	<circle class="st11" cx="728.1" cy="48.4" r="3.4"/>
	<circle class="st11" cx="797" cy="220.2" r="3.4"/>
	<circle class="st11" cx="789.3" cy="139.1" r="3.4"/>
	<circle class="st11" cx="827" cy="28" r="3.4"/>
	<circle class="st11" cx="1008.3" cy="308.6" r="3.4"/>
	<circle class="st11" cx="994.6" cy="246.2" r="3.4"/>
	<circle class="st11" cx="985.2" cy="107.2" r="3.4"/>
	<circle class="st11" cx="1023.4" cy="26.9" r="3.4"/>
	<circle class="st11" cx="1129" cy="556.6" r="3.4"/>
	<circle class="st11" cx="1092.8" cy="344.3" r="3.4"/>
	<circle class="st11" cx="1092.2" cy="214" r="3.4"/>
	<circle class="st11" cx="1131.2" cy="35.3" r="3.4"/>
	<circle class="st11" cx="1221.6" cy="528.7" r="3.4"/>
	<circle class="st11" cx="1213.1" cy="417" r="3.4"/>
	<circle class="st11" cx="1201.9" cy="208.2" r="3.4"/>
	<circle class="st11" cx="1287.7" cy="512.4" r="3.4"/>
	<circle class="st11" cx="1295" cy="328.6" r="3.4"/>
	<circle class="st11" cx="1321.2" cy="134.3" r="3.4"/>
	<circle class="st11" cx="1296.7" cy="22.1" r="3.4"/>
	<circle class="st11" cx="1419.4" cy="514.6" r="3.4"/>
	<circle class="st11" cx="1388.9" cy="428.2" r="3.4"/>
	<circle class="st11" cx="1429.5" cy="334" r="3.4"/>
	<circle class="st11" cx="1436.9" cy="217" r="3.4"/>
	<circle class="st11" cx="1413.9" cy="127.2" r="3.4"/>
	<circle class="st11" cx="1403.9" cy="16.6" r="3.4"/>
</g>
</svg>
