<?xml version="1.0" encoding="utf-8"?>
<!-- Generator: Adobe Illustrator 28.4.1, SVG Export Plug-In . SVG Version: 6.00 Build 0)  -->
<svg version="1.1" id="Layer_2_00000145750346117550700920000002687338339404796818_"
	 xmlns="http://www.w3.org/2000/svg" xmlns:xlink="http://www.w3.org/1999/xlink" x="0px" y="0px" viewBox="-1800 -100 3200.1 2000.8"
	 style="enable-background:new 0 0 3200.1 2000.8;" xml:space="preserve">
<style type="text/css">
	.st0{fill:#454545;opacity:0.3;}
	.st1{fill:none;}
	.st2{fill:#515151;}
</style>
<g id="object">
	<g>
		<g class="st0">
			<path class="st1" d="M1546.9,967.6c-0.5-3.5,0.2-7.3,2.2-10.5L1315,786.7c-2.2,2.6-5.1,4.3-8.2,5.1l39.2,219.3L1546.9,967.6
				L1546.9,967.6z"/>
			<path class="st1" d="M1106.7,1063l237.3-51.4l-39.2-219.4c-3.4,0.4-6.9-0.3-9.9-2.3l-193.1,265.5
				C1104.2,1057.4,1105.9,1060.1,1106.7,1063z"/>
			<path class="st1" d="M1510,1390.5c1.2-1.6,2.6-2.9,4.1-3.9L1371,1129.3c-3.1,1.4-6.6,1.8-9.9,1.1l-49.2,170.7l197.1,91.1
				C1509.3,1391.6,1509.6,1391,1510,1390.5L1510,1390.5z"/>
			<path class="st1" d="M1601.5,711.1l-283.2,63.4c0.4,2.3,0.2,4.7-0.5,7l247.7,96.4L1601.5,711.1z"/>
			<path class="st1" d="M1522.9,1384.1l29.6-324.1l-173,51.8c1,4.2,0.2,8.8-2.5,12.5c-1.2,1.6-2.6,2.9-4.1,3.9l143.1,257.3
				C1518.1,1384.6,1520.5,1384.1,1522.9,1384.1L1522.9,1384.1z"/>
			<path class="st1" d="M1565.1,879.9l-248-96.5c-0.3,0.6-0.6,1.2-1,1.7L1549,954.5L1565.1,879.9z"/>
			<path class="st1" d="M847.6,786.6c-0.2,0.3-0.5,0.6-0.7,0.9l235.6,267.6c2.8-2.2,6.3-3.3,9.8-3.2l24.6-274.1l-266.3-0.2
				C850.6,780.6,849.6,783.8,847.6,786.6L847.6,786.6z"/>
			<path class="st1" d="M1287.7,777.9l-168.8-0.2l-24.6,274.3c2,0.3,4,1.1,5.9,2.2l193.1-265.5C1289.9,785.9,1288,782,1287.7,777.9z
				"/>
			<path class="st1" d="M795.2,505.2L739.5,568l-62,69.9c1.3,0.5,2.6,1.1,3.7,2c1.9,1.3,3.3,3,4.4,4.9L818.1,625l-13-116.6
				c-3.3,0.1-6.7-0.8-9.6-2.9C795.4,505.4,795.3,505.3,795.2,505.2L795.2,505.2z"/>
			<path class="st1" d="M1287.7,775.9c0.2-2.8,1.1-5.6,2.9-8.1c0.5-0.8,1.2-1.4,1.8-2l-147.5-174.9c-2.8,2-6.2,3.1-9.5,3
				l-16.3,181.8L1287.7,775.9L1287.7,775.9z"/>
			<path class="st1" d="M1120.4,579.7c-0.1-1.4,0-2.8,0.2-4.2L819.2,498c-0.5,1.4-1.2,2.7-2.1,4c-2.5,3.4-6.1,5.5-10,6.1l13,116.5
				L1120.4,579.7L1120.4,579.7z"/>
			<path class="st1" d="M833.3,762.2l-15-135.2l-131.7,19.7c1.8,4.7,1.4,10.1-1.7,14.5l139.5,105.3C826.9,764,830,762.6,833.3,762.2
				z"/>
			<path class="st1" d="M823,768L683.6,662.7c-4,4.4-10.1,6-15.7,4.5l-62.2,173.9L820,780.7c-0.9-4.1-0.1-8.6,2.6-12.3
				C822.8,768.3,822.9,768.1,823,768L823,768z"/>
			<path class="st1" d="M848.3,769.5c1.1,1.8,1.8,3.9,2.1,6l266.6,0.2l16.3-182c-2.3-0.4-4.7-1.3-6.7-2.8c-1.3-0.9-2.3-2-3.2-3.2
				l-191,126.1L848.3,769.5L848.3,769.5z"/>
			<path class="st1" d="M835.3,762.1c3.1,0,6.2,1,8.9,2.9c1.1,0.8,2.1,1.8,2.9,2.8l260-171.6l15.3-10.1c-0.8-1.4-1.3-2.8-1.7-4.4
				l-300.4,45L835.3,762.1L835.3,762.1z"/>
			<path class="st1" d="M683.2,455.2l-14.6,182.1c2.2-0.5,4.6-0.6,6.8-0.1l49.2-55.4l69.1-78c-3.8-3.8-5.3-9.2-4.1-14.3L683.2,455.2
				L683.2,455.2z"/>
			<path class="st1" d="M1807.1,983.8l-252.5,75.7l-29.6,324.9c2,0.3,3.9,1,5.7,2.1l281.1-396C1809.5,988.6,1808,986.3,1807.1,983.8
				L1807.1,983.8z"/>
			<path class="st1" d="M1268.7,1443.7l40.8-141.5l-103.1-47.7c-0.3,0.6-0.7,1.2-1.1,1.7c-1.7,2.4-4,4.1-6.5,5.2l62.6,182.5
				C1263.7,1443.2,1266.3,1443.2,1268.7,1443.7L1268.7,1443.7z"/>
			<path class="st1" d="M1311.4,1303.1l-40.7,141.2c1.3,0.5,2.6,1.2,3.8,2c2.8,2.1,4.8,4.9,5.7,8.1l227.1-52.3
				c-0.4-2.7-0.2-5.4,0.8-8L1311.4,1303.1L1311.4,1303.1z"/>
			<path class="st1" d="M1816.9,993.3c-1.1-0.4-2.2-0.8-3.3-1.5l-0.7,0.2l-280.7,395.6c2.9,2.4,4.8,5.7,5.4,9.2l184.5-21.9
				L1816.9,993.3L1816.9,993.3z"/>
			<path class="st1" d="M1807.6,972.1c0.4-0.9,0.9-1.7,1.5-2.6c0.6-0.8,1.3-1.6,2-2.2L1603.4,712l-36,166.6L1807.6,972.1
				L1807.6,972.1z"/>
			<path class="st1" d="M1567,880.6l-16,74c5.3-5.5,13.9-6.4,20.2-1.8c4.1,3,6.3,7.6,6.3,12.2l228.8,11.6c0.1-0.9,0.3-1.8,0.6-2.7
				L1567,880.6z"/>
			<path class="st1" d="M1532.2,1411.5l58.3,81.9l111.3-77.7c-1.4-2.3-2.2-5-2.2-7.7l-161.8-6.9c-0.3,2.6-1.2,5.2-2.8,7.4
				C1534.2,1409.7,1533.2,1410.7,1532.2,1411.5L1532.2,1411.5z"/>
			<path class="st1" d="M1107.1,1065c0.2,1.3,0.2,2.7,0.1,4l242.3,42.8c0.5-1.9,1.3-3.7,2.5-5.4c2-2.8,4.8-4.7,7.9-5.7l-15.6-87.1
				L1107.1,1065L1107.1,1065z"/>
			<path class="st1" d="M1104.4,1076.3c-1.2,1.6-2.6,2.9-4.2,3.9l55.2,100.3l194.1-61.4c-0.4-1.5-0.5-3-0.4-4.6l-242.2-43.6
				C1106.4,1072.8,1105.6,1074.6,1104.4,1076.3L1104.4,1076.3z"/>
			<path class="st1" d="M1201.9,1234.7c0.8,0.6,1.4,1.2,2.1,1.8l148.7-111.2c-1.1-1.3-2-2.8-2.6-4.4l-193.7,61.3l28.5,51.7
				C1190,1230.9,1196.8,1230.9,1201.9,1234.7L1201.9,1234.7z"/>
			<path class="st1" d="M1805.3,978.6L1577.4,967c-0.3,2.5-1.2,5.1-2.8,7.3c-3.1,4.3-8,6.5-12.9,6.3l-7,76.6l251.8-75.5
				c-0.2-1-0.3-2.1-0.3-3.2L1805.3,978.6L1805.3,978.6z"/>
			<path class="st1" d="M1377.4,1107c0.6,1,1.2,2,1.6,3.1l173.8-52.1l7.1-77.4c-2.3-0.4-4.6-1.3-6.7-2.8c-1-0.7-1.8-1.5-2.6-2.4
				L1377.4,1107L1377.4,1107z"/>
			<path class="st1" d="M1346.3,1013.1l15.6,87.1c4-0.7,8.2,0.2,11.7,2.7c1,0.7,1.8,1.5,2.6,2.4l173.2-131.5c-0.9-1.3-1.5-2.8-2-4.3
				L1346.3,1013.1L1346.3,1013.1z"/>
			<path class="st1" d="M1310.1,1300.3l49.2-170.4c-1.3-0.5-2.6-1.2-3.8-2c-0.4-0.3-0.9-0.7-1.3-1L1205.3,1238
				c3.1,4.2,3.8,9.8,2,14.7L1310.1,1300.3L1310.1,1300.3z"/>
			<path class="st1" d="M1433.7,1586.4c4-4.4,10-6,15.5-4.5l62-156.6L1433.7,1586.4L1433.7,1586.4z"/>
			<path class="st1" d="M1430,1594.2l-88.3,183.6l94.6-168.5l-0.1-0.1C1431.2,1605.7,1429,1599.8,1430,1594.2L1430,1594.2z"/>
			<path class="st1" d="M1458.1,1588.3c1.7,2.7,2.6,5.8,2.5,8.9l203.8,20.5c0.4-2.3,1.3-4.5,2.7-6.5c0.8-1.1,1.7-2.1,2.7-2.9
				l-79.8-112.2L1458.1,1588.3L1458.1,1588.3z"/>
			<path class="st1" d="M1183.8,1259.7c-2.9-2.1-4.8-5-5.7-8.1l-367.3,82.3c0.6,3.9-0.3,8-2.8,11.5c-1.4,2-3.2,3.5-5.3,4.6
				l175.7,391.5c3.4-1.4,7.2-1.6,10.8-0.3l196.9-479.9C1185.3,1260.7,1184.5,1260.2,1183.8,1259.7L1183.8,1259.7z"/>
			<path class="st1" d="M1252.9,1449.7c1.7-2.4,4-4.1,6.5-5.2l-62.6-182.5c-2.9,0.8-6,0.7-9-0.3l-196.8,480c0.8,0.4,1.6,0.8,2.3,1.4
				c0.3,0.2,0.7,0.5,1,0.8l259.8-274.7C1249.2,1463.9,1248.5,1455.7,1252.9,1449.7L1252.9,1449.7z"/>
			<path class="st1" d="M1256.3,1471.2c-0.3-0.2-0.5-0.4-0.8-0.6l-259.8,274.7c4.8,5.3,5.4,13.4,1,19.4c-0.1,0.1-0.2,0.2-0.3,0.3
				l157.7,127.4c5.2-5.7,14-6.7,20.4-2c1.4,1.1,2.6,2.3,3.6,3.7l134.7-80.9c-2.8-5.1-2.6-11.5,1-16.5c2.3-3.2,5.7-5.2,9.3-6
				l-56.2-316.6C1263.4,1474.5,1259.6,1473.6,1256.3,1471.2L1256.3,1471.2z"/>
			<path class="st1" d="M1513.4,1412c-2.8-2.1-4.8-4.9-5.7-8.1l-227.1,52.3c0.6,3.9-0.2,8.1-2.8,11.6c-2.2,3.1-5.4,5.1-8.8,5.9
				l56.2,316.7c2.5-0.2,5.1,0.2,7.5,1.3l182.2-378.7C1514.4,1412.7,1513.9,1412.4,1513.4,1412L1513.4,1412z"/>
			<path class="st1" d="M1530.6,1412.7c-3.8,2.4-8.5,2.9-12.8,1.6l-66.6,168.3c1.1,0.4,2.1,1,3.1,1.7s1.9,1.6,2.7,2.5l132-92.2
				L1530.6,1412.7L1530.6,1412.7z"/>
			<path class="st1" d="M790.2,487.6c0.5-1.3,1.1-2.5,2-3.7c1.7-2.3,3.8-4,6.3-5L706.9,214c-1.4,0.4-2.9,0.6-4.3,0.6l-19.2,238.7
				L790.2,487.6L790.2,487.6z"/>
			<path class="st1" d="M1812.7,966.1c5.2-3.7,12.5-3.9,18,0.1c5.7,4.1,7.7,11.3,5.5,17.6l211.1-56.3c-0.6-2.8-0.3-5.8,0.8-8.6
				l-441.6-206.3L1812.7,966.1L1812.7,966.1z"/>
			<path class="st1" d="M1537.9,1398.7c0,0.2,0,0.3,0,0.5l161.8,6.9c0.3-2.6,1.2-5.2,2.8-7.4c3.6-4.9,9.6-7.1,15.2-6.1l3.9-15.6
				L1537.9,1398.7L1537.9,1398.7z"/>
			<path class="st1" d="M1703,1417.4l-111.3,77.7l79.8,112.1c2.9-1.8,6.3-2.6,9.7-2.2l3.5-21.2l26.9-161c-1.9-0.5-3.8-1.3-5.6-2.6
				C1704.9,1419.4,1703.9,1418.4,1703,1417.4L1703,1417.4z"/>
			<path class="st1" d="M1818.9,993.8l-94.6,380.8l258.3-30.6c-0.2-3.4,0.8-6.9,2.9-9.9c1.3-1.8,3-3.3,4.9-4.3l-163-336.9
				C1824.7,994,1821.8,994.3,1818.9,993.8L1818.9,993.8z"/>
			<path class="st1" d="M1719.7,1393c1.5,0.5,3,1.2,4.4,2.2c2.8,2.1,4.8,4.9,5.7,8.1l249.6-56.9l-255.7,30.3L1719.7,1393z"/>
			<path class="st1" d="M283.1,578.5c-0.5,1.8-1.3,3.6-2.4,5.2c-2,2.8-4.9,4.7-8,5.7l73.6,310.1c1.8-0.3,3.6-0.3,5.4,0l74.7-293.3
				L283.1,578.5L283.1,578.5z"/>
			<path class="st1" d="M283.5,576.5L427,604.1l50.9-199.9c-1.5-0.5-3-1.2-4.3-2.2c-0.7-0.5-1.3-1.1-1.9-1.7l-191.2,165
				C283,568.5,284,572.5,283.5,576.5L283.5,576.5z"/>
			<path class="st1" d="M656.9,650.4l-228.5-44l-74.7,293.5c1.5,0.5,3,1.2,4.3,2.2c0.8,0.6,1.6,1.3,2.2,2l299.4-242.8
				C657.4,658.1,656.5,654.2,656.9,650.4L656.9,650.4z"/>
			<path class="st1" d="M657.3,648.5c0.5-1.8,1.3-3.6,2.4-5.2c0.3-0.4,0.7-0.8,1-1.2l-170-239.4c-3.3,2-7.2,2.7-10.9,2l-50.9,199.8
				L657.3,648.5L657.3,648.5z"/>
			<path class="st1" d="M279.2,563.8l191.1-164.9c-2.3-3-3.3-6.8-3.1-10.5L240,355.6c-0.4,2.2-1.3,4.4-2.7,6.4c-2.2,3-5.2,5-8.5,5.8
				l37.4,191.5c3.8-0.5,7.7,0.4,11,2.8C278,562.6,278.6,563.2,279.2,563.8L279.2,563.8z"/>
			<path class="st1" d="M662.2,640.6c1.3-1.1,2.8-2,4.3-2.6l14.7-183.4L497,395.2c-0.5,1.2-1.1,2.3-1.9,3.4s-1.7,2.1-2.8,2.9
				L597,548.8L662.2,640.6z"/>
			<path class="st1" d="M497.6,393.3l183.8,59.2l19.1-238.2c-2.4-0.4-4.8-1.3-6.8-2.8c-0.7-0.5-1.3-1.1-1.9-1.7L494.9,380.2
				C497.8,384,498.7,388.8,497.6,393.3L497.6,393.3z"/>
			<path class="st1" d="M820.6,782.8L820.6,782.8L605,843.4l-9.9,27.8c1,0.4,2,1,3,1.7c2,1.5,3.5,3.3,4.6,5.4L820.6,782.8
				L820.6,782.8z"/>
			<path class="st1" d="M666.1,666.5c-1-0.4-2-1-3-1.7c-0.8-0.6-1.6-1.3-2.2-2L361.5,905.6c0.8,1.2,1.5,2.4,2,3.8l239.9-67.6
				L666.1,666.5L666.1,666.5z"/>
			<path class="st1" d="M826.1,790c-2-1.5-3.5-3.3-4.6-5.4l-218,95.5c1.7,4.7,1.1,10-2,14.3c0,0,0,0.1-0.1,0.1l385.5,325.7
				c1.8-2.1,4-3.6,6.4-4.6L840.5,792C835.8,793.7,830.4,793.1,826.1,790L826.1,790z"/>
			<path class="st1" d="M1082.8,1079.7c-6.9-5-8.4-14.7-3.4-21.6c0.5-0.7,1-1.2,1.6-1.8l-198-225l-37.4-42.5c-1,0.9-2.1,1.7-3.3,2.3
				L995.1,1215c3.8-0.9,7.9-0.4,11.4,1.7l77-136.6C1083.3,1080,1083,1079.9,1082.8,1079.7L1082.8,1079.7z"/>
			<path class="st1" d="M1098.4,1081.2c-4.1,1.9-9,2-13.2-0.1l-77,136.8c2.6,2,4.3,4.7,5.2,7.6l140-44.3L1098.4,1081.2
				L1098.4,1081.2z"/>
			<path class="st1" d="M1183.2,1235.2l-28.8-52.3l-140.5,44.5c0.2,1.2,0.3,2.4,0.2,3.7l163.5,14.2c0.3-2.5,1.2-4.9,2.8-7.1
				C1181.2,1237,1182.2,1236,1183.2,1235.2L1183.2,1235.2z"/>
			<path class="st1" d="M364,911.3c0,0.1,0,0.2,0.1,0.4l209.4-25.5c-0.2-3.4,0.8-7,2.9-9.9c3.9-5.4,10.7-7.5,16.7-5.7l9.5-26.4
				L364,911.3L364,911.3z"/>
			<path d="M710.5,1840.2c-6.9-5-16.5-3.5-21.5,3.4s-3.5,16.5,3.4,21.6s16.5,3.5,21.5-3.4S717.4,1845.2,710.5,1840.2z"/>
			<path d="M1318.1,2118.8c-6.9-5-16.5-3.5-21.6,3.4s-3.5,16.5,3.4,21.6s16.5,3.5,21.6-3.4S1325,2123.8,1318.1,2118.8z"/>
			<path d="M2071.4,912c-6.9-5-16.5-3.5-21.6,3.4c-0.4,0.5-0.7,1.1-1,1.7L1604,709.3l0.2-0.8l-1.2,0.3l-3.6-1.7l1.7,2.1l-283.2,63.3
				c-0.9-3.2-2.8-6-5.7-8.1c-5.6-4.1-13-3.8-18.2,0.1l-147.5-174.9c0.6-0.6,1.2-1.3,1.8-2c5-6.9,3.5-16.5-3.4-21.5
				s-16.5-3.5-21.6,3.4c-1,1.3-1.7,2.8-2.2,4.3l-301.4-77.5c1.2-5.8-1-12-6-15.6c-4-2.9-9-3.6-13.4-2.3l-91.5-264.9
				c2.5-1.1,4.8-2.8,6.5-5.1c5-6.9,3.5-16.5-3.4-21.6s-16.5-3.5-21.5,3.4c-4.1,5.6-3.8,13.1,0.2,18.4l-197,170.2
				c-0.6-0.6-1.2-1.1-1.9-1.7c-6.9-5-16.5-3.5-21.5,3.4c-1.3,1.8-2.2,3.8-2.6,5.9l-227.2-32.8c0.2-5-2-10-6.3-13.2
				c-6.9-5-16.5-3.5-21.6,3.4c-5,6.9-3.5,16.5,3.4,21.5c3.3,2.4,7.3,3.3,11,2.8l37.4,191.5c-3.3,0.9-6.4,2.8-8.5,5.8
				c-5,6.9-3.5,16.5,3.4,21.5c3.5,2.5,7.7,3.4,11.7,2.7l73.6,310.1c-3.1,1-5.9,2.8-8,5.7c-5,6.9-3.5,16.5,3.4,21.5
				s16.5,3.5,21.5-3.4c2.2-3,3.1-6.5,2.9-9.9l209.4-25.5c0.7,3.7,2.8,7.2,6.1,9.6c6.3,4.6,14.9,3.7,20.2-1.8l385.5,325.7l0.7-0.8
				l0,0c-5,6.9-3.5,16.5,3.4,21.6s16.5,3.5,21.5-3.4c1.4-1.9,2.2-3.9,2.7-6.1l163.6,14.2c0,0.8,0.1,1.6,0.2,2.3l-367.3,82.3
				c-0.9-3.2-2.8-6.1-5.7-8.1c-6.9-5-16.5-3.5-21.5,3.4s-3.5,16.5,3.4,21.6c4.3,3.2,9.8,3.7,14.5,2l175.7,391.5
				c-1.8,1.1-3.5,2.5-4.8,4.3c-5,6.9-3.5,16.5,3.4,21.6c6.2,4.5,14.7,3.7,20-1.6l157.8,127.5c-4.8,6.9-3.3,16.4,3.5,21.4
				c6.9,5,16.5,3.5,21.6-3.4c3.5-4.9,3.8-11.1,1.2-16.1l134.7-80.9c0.9,1.2,2,2.4,3.4,3.3c6.9,5,16.5,3.5,21.6-3.4
				s3.5-16.5-3.4-21.6c-0.1-0.1-0.1-0.1-0.2-0.1l102.6-182.8c6.7,3.6,15.1,1.8,19.7-4.5c1.5-2,2.3-4.2,2.7-6.5l203.8,20.5
				c-0.2,4.9,2,9.9,6.3,13c6.9,5,16.5,3.5,21.6-3.4s3.5-16.5-3.4-21.6c-1.7-1.2-3.6-2.1-5.6-2.6l30.4-182.2c5.3,0.5,10.7-1.7,14-6.3
				c2.5-3.5,3.4-7.6,2.8-11.5l253-57.7c0.9,3.1,2.8,6,5.7,8.1c6.9,5,16.5,3.5,21.6-3.4s3.5-16.5-3.4-21.6
				c-4.5-3.2-10.1-3.7-14.9-1.8l-163-336.9c1.9-1,3.5-2.5,4.9-4.3c0.4-0.5,0.7-1,1-1.6l212.7-56.7c1,2.9,2.8,5.6,5.5,7.5
				c6.9,5,16.5,3.5,21.6-3.4S2078.3,917.1,2071.4,912L2071.4,912z M1603.4,712.1l207.7,255.3c-0.7,0.7-1.4,1.4-2,2.2
				s-1.1,1.7-1.5,2.6l-240.2-93.5L1603.4,712.1L1603.4,712.1z M1537.7,1396.8c-0.7-3.5-2.5-6.8-5.4-9.2L1812.9,992l0.7-0.2
				c1.1,0.6,2.1,1.1,3.3,1.5l-94.7,381.5L1537.7,1396.8L1537.7,1396.8z M1537.8,1401.2l161.8,6.9c0.1,2.7,0.8,5.3,2.2,7.7
				l-111.3,77.7l-58.3-81.9c1-0.8,1.9-1.8,2.7-2.9C1536.6,1406.4,1537.6,1403.8,1537.8,1401.2L1537.8,1401.2z M1530.6,1386.4
				c-1.8-1.1-3.7-1.8-5.7-2.1l29.6-324.9l252.5-75.7c0.9,2.5,2.4,4.8,4.6,6.6L1530.6,1386.4L1530.6,1386.4z M1507.3,1402
				l-227.1,52.3c-0.9-3.1-2.8-6-5.7-8.1c-1.2-0.9-2.5-1.6-3.8-2l40.7-141.2l196.8,90.9C1507.1,1396.6,1506.8,1399.4,1507.3,1402
				L1507.3,1402z M1806.3,976.7l-228.8-11.6c-0.1-4.7-2.2-9.3-6.3-12.2c-6.3-4.6-14.9-3.7-20.2,1.8l16-74l239.9,93.4
				C1806.6,974.9,1806.4,975.8,1806.3,976.7z M1806.5,981.8l-251.8,75.5l7-76.6c4.9,0.1,9.8-2.1,12.9-6.3c1.6-2.2,2.6-4.7,2.8-7.3
				l227.9,11.6h0.9C1806.2,979.8,1806.3,980.8,1806.5,981.8L1806.5,981.8z M1553.1,977.8c2.1,1.5,4.3,2.4,6.7,2.8l-7.1,77.4
				l-173.8,52.1c-0.4-1.1-0.9-2.1-1.6-3.1l173.1-131.6C1551.2,976.3,1552.1,977.1,1553.1,977.8L1553.1,977.8z M1376.1,1105.3
				c-0.8-0.9-1.6-1.7-2.6-2.4c-3.5-2.6-7.7-3.4-11.7-2.7l-15.6-87.1l201-43.6c0.4,1.5,1.1,2.9,2,4.3L1376.1,1105.3L1376.1,1105.3z
				 M1359.9,1100.7c-3.1,0.9-5.9,2.8-7.9,5.7c-1.2,1.7-2,3.5-2.5,5.4l-242.3-42.8c0.2-1.3,0.1-2.7-0.1-4l237.2-51.4L1359.9,1100.7
				L1359.9,1100.7z M1205.3,1238l148.8-111.2c0.4,0.4,0.8,0.7,1.3,1c1.2,0.9,2.5,1.6,3.8,2l-49.2,170.4l-102.8-47.5
				C1209.1,1247.8,1208.4,1242.3,1205.3,1238L1205.3,1238z M1349.1,1114.5c-0.1,1.5,0.1,3.1,0.4,4.6l-194.1,61.4l-55.2-100.3
				c1.6-1,3-2.3,4.2-3.9c1.2-1.7,2-3.5,2.5-5.4L1349.1,1114.5L1349.1,1114.5z M1350.1,1121c0.6,1.6,1.5,3.1,2.6,4.4L1204,1236.5
				c-0.6-0.7-1.3-1.3-2.1-1.8c-5.2-3.8-11.9-3.8-17.1-0.7l-28.5-51.7L1350.1,1121L1350.1,1121z M1205.3,1256.3
				c0.4-0.6,0.8-1.1,1.1-1.7l103.1,47.7l-40.8,141.5c-2.4-0.5-5-0.5-7.3,0.2l-62.6-182.5C1201.3,1260.4,1203.6,1258.6,1205.3,1256.3
				L1205.3,1256.3z M1311.9,1301.1l49.2-170.7c3.3,0.7,6.8,0.3,9.9-1.1l143.1,257.3c-1.6,1-3,2.3-4.1,3.9c-0.4,0.6-0.8,1.1-1.1,1.7
				L1311.9,1301.1L1311.9,1301.1z M1372.8,1128.3c1.6-1,3-2.3,4.1-3.9c2.7-3.8,3.5-8.3,2.5-12.5l173-51.8l-29.6,324.1
				c-2.4-0.1-4.8,0.4-7,1.5L1372.8,1128.3L1372.8,1128.3z M1318.4,774.5l283.2-63.4l-36,166.8l-247.7-96.4
				C1318.5,779.2,1318.7,776.8,1318.4,774.5L1318.4,774.5z M1317.1,783.4l248,96.5l-16.1,74.6l-232.9-169.4
				C1316.5,784.6,1316.8,784,1317.1,783.4z M1315,786.7L1549.2,957c-2.1,3.2-2.8,7-2.2,10.5l-200.9,43.6l-39.2-219.3
				C1309.9,791.1,1312.8,789.4,1315,786.7L1315,786.7z M1294.9,789.9c3.1,1.9,6.6,2.7,9.9,2.3l39.2,219.4l-237.3,51.4
				c-0.8-2.9-2.5-5.6-5-7.6L1294.9,789.9L1294.9,789.9z M1100.1,1054.2c-1.8-1.2-3.8-1.9-5.9-2.2l24.6-274.3l168.8,0.2
				c0.3,4.1,2.2,8.1,5.5,10.9L1100.1,1054.2z M1092.3,1051.8c-3.5-0.1-7,1-9.8,3.2L846.9,787.4c0.2-0.3,0.5-0.6,0.7-0.9
				c2-2.8,3-6,2.9-9.1l266.3,0.2L1092.3,1051.8L1092.3,1051.8z M1144.9,590.9l147.5,174.9c-0.6,0.6-1.2,1.3-1.8,2
				c-1.8,2.5-2.7,5.2-2.9,8.1l-168.7-0.2l16.3-181.8C1138.8,593.9,1142.2,592.9,1144.9,590.9L1144.9,590.9z M1123.5,587.8
				c0.9,1.2,2,2.2,3.2,3.2c2.1,1.5,4.3,2.4,6.7,2.8l-16.3,182l-266.6-0.2c-0.3-2.1-1-4.2-2.1-6l84.2-55.6L1123.5,587.8z
				 M1122.4,586.1l-15.3,10.1L847.2,767.8c-0.8-1-1.8-2-2.9-2.8c-2.7-2-5.8-2.9-8.9-2.9l-15-135.4l300.4-45
				C1121.1,583.3,1121.6,584.7,1122.4,586.1L1122.4,586.1z M820.1,780.7l-214.3,60.4L668,667.2c5.5,1.6,11.7,0,15.7-4.5L823,768
				c-0.1,0.2-0.2,0.3-0.4,0.5C820,772.1,819.2,776.6,820.1,780.7L820.1,780.7z M793.7,503.9l-69.1,78l-49.2,55.4
				c-2.3-0.5-4.6-0.4-6.8,0.1l14.6-182.1l106.4,34.3C788.4,494.6,789.9,500.1,793.7,503.9L793.7,503.9z M684.9,661.1
				c3-4.4,3.5-9.8,1.7-14.5L818.3,627l15,135.2c-3.3,0.4-6.5,1.8-9,4.3L684.9,661.1L684.9,661.1z M817.1,502.1
				c0.9-1.2,1.6-2.6,2.1-4l301.4,77.5c-0.3,1.4-0.3,2.8-0.2,4.2l-300.4,45l-13-116.5C811,507.6,814.6,505.5,817.1,502.1L817.1,502.1
				z M805.1,508.4l13,116.6l-132.4,19.8c-1-1.9-2.5-3.6-4.4-4.9c-1.2-0.9-2.4-1.5-3.7-2l62-69.9l55.7-62.8c0.1,0.1,0.2,0.2,0.3,0.3
				C798.4,507.6,801.8,508.5,805.1,508.4L805.1,508.4z M706.9,214l91.5,264.9c-2.4,1.1-4.6,2.7-6.3,5c-0.8,1.2-1.5,2.4-2,3.7
				l-106.8-34.4l19.2-238.7C704,214.6,705.5,214.4,706.9,214L706.9,214z M691.8,209.9c0.6,0.6,1.2,1.1,1.9,1.7
				c2.1,1.5,4.5,2.4,6.8,2.8l-19.1,238.2l-183.8-59.2c1.1-4.5,0.2-9.3-2.7-13.1L691.8,209.9L691.8,209.9z M495.1,398.6
				c0.8-1.1,1.4-2.2,1.9-3.4l184.3,59.4L666.5,638c-1.5,0.6-3,1.5-4.3,2.6L597,548.8L492.4,401.5
				C493.4,400.7,494.3,399.7,495.1,398.6L495.1,398.6z M490.7,402.7l170,239.4c-0.3,0.4-0.7,0.8-1,1.2c-1.2,1.6-2,3.4-2.4,5.2
				l-228.4-44l50.9-199.8C483.6,405.4,487.5,404.7,490.7,402.7L490.7,402.7z M473.6,402c1.4,1,2.8,1.7,4.3,2.2L427,604.1
				l-143.5-27.6c0.5-4-0.5-8-3-11.2l191.1-164.9C472.2,401,472.9,401.5,473.6,402L473.6,402z M266.2,559.3l-37.4-191.5
				c3.3-0.9,6.4-2.9,8.5-5.8c1.4-2,2.3-4.1,2.7-6.4l227.2,32.8c-0.3,3.7,0.8,7.5,3.1,10.5L279.2,563.8c-0.6-0.6-1.2-1.2-1.9-1.7
				C274,559.7,270,558.8,266.2,559.3L266.2,559.3z M346.4,899.3l-73.6-310.1c3.1-1,5.9-2.8,8-5.7c1.2-1.6,2-3.4,2.4-5.2l143.4,27.6
				l-74.7,293.3C350,899.1,348.2,899,346.4,899.3L346.4,899.3z M360.3,904.1c-0.7-0.7-1.4-1.4-2.2-2c-1.4-1-2.8-1.7-4.3-2.2
				l74.7-293.5l228.5,44c-0.5,3.8,0.5,7.7,2.7,10.8L360.3,904.1L360.3,904.1z M361.5,905.6l299.4-242.8c0.7,0.7,1.4,1.4,2.2,2
				c0.9,0.7,1.9,1.2,3,1.7l-62.7,175.3l-239.9,67.6C363,908.1,362.4,906.8,361.5,905.6L361.5,905.6z M576.5,876.3
				c-2.2,3-3.1,6.5-2.9,9.9l-209.4,25.5c0-0.1,0-0.2-0.1-0.4l238.6-67.2l-9.5,26.4C587.1,868.8,580.4,870.9,576.5,876.3L576.5,876.3
				z M598,872.9c-0.9-0.7-1.9-1.2-3-1.7l9.9-27.8l215.6-60.8v0.1l-218,95.5C601.6,876.2,600,874.3,598,872.9L598,872.9z
				 M986.9,1220.2L601.3,894.5c0,0,0-0.1,0.1-0.1c3.1-4.3,3.7-9.7,2-14.3l218-95.5c1.1,2.1,2.6,3.9,4.6,5.4c4.3,3.1,9.7,3.7,14.4,2
				l152.8,423.7C990.8,1216.6,988.6,1218.1,986.9,1220.2L986.9,1220.2z M995.1,1215.1L842.3,791.2c1.2-0.6,2.3-1.3,3.3-2.3
				l37.4,42.5l198,225c-0.6,0.6-1.1,1.2-1.6,1.8c-5,6.9-3.5,16.5,3.4,21.6c0.2,0.2,0.4,0.3,0.7,0.4l-77,136.6
				C1003,1214.7,998.9,1214.2,995.1,1215.1L995.1,1215.1z M1013.4,1225.4c-0.9-2.9-2.7-5.6-5.2-7.6l77-136.8c4.2,2,9.1,2,13.2,0.1
				l55,99.9L1013.4,1225.4L1013.4,1225.4z M1177.6,1245.2l-163.5-14.2c0.1-1.2,0-2.5-0.2-3.7l140.5-44.5l28.8,52.3
				c-1,0.8-2,1.8-2.8,2.9C1178.8,1240.3,1177.9,1242.8,1177.6,1245.2L1177.6,1245.2z M978.4,1741.3l-175.6-391.5
				c2-1.1,3.8-2.6,5.3-4.6c2.5-3.4,3.4-7.6,2.8-11.5l367.3-82.3c0.9,3.2,2.8,6.1,5.7,8.1c0.7,0.5,1.5,1,2.3,1.4l-197,480.1
				C985.7,1739.8,981.8,1739.9,978.4,1741.3L978.4,1741.3z M994.3,1743.9c-0.3-0.3-0.6-0.5-1-0.8c-0.7-0.5-1.5-1-2.3-1.4
				l196.9-479.9c2.9,1,6.1,1,9,0.3l62.6,182.5c-2.5,1.1-4.8,2.8-6.5,5.2c-4.4,6.1-3.8,14.3,1.2,19.6L994.3,1743.9L994.3,1743.9z
				 M1313.9,1796.7c-3.6,5-3.8,11.4-1,16.5l-134.7,80.9c-1-1.4-2.2-2.7-3.6-3.7c-6.4-4.7-15.2-3.7-20.4,2L996.5,1765
				c0.1-0.1,0.2-0.2,0.3-0.3c4.4-6,3.8-14.1-1-19.4l259.8-274.7c0.2,0.2,0.5,0.4,0.8,0.6c3.2,2.4,7.1,3.2,10.8,2.8l56.2,316.6
				C1319.6,1791.4,1316.3,1793.5,1313.9,1796.7L1313.9,1796.7z M1332.7,1791.7c-2.4-1.1-5-1.5-7.5-1.3l-56.2-316.7
				c3.4-0.8,6.6-2.8,8.8-5.9c2.5-3.5,3.4-7.6,2.8-11.6l227.1-52.3c0.9,3.1,2.8,6,5.7,8.1c0.5,0.3,1,0.7,1.5,1L1332.7,1791.7
				L1332.7,1791.7z M1341.6,1777.8l88.3-183.6c-0.9,5.6,1.3,11.4,6.1,15l0.1,0.1L1341.6,1777.8L1341.6,1777.8z M1433.7,1586.4
				l77.5-161.1l-62,156.6C1443.7,1580.3,1437.7,1582,1433.7,1586.4L1433.7,1586.4z M1456.9,1586.7c-0.8-0.9-1.7-1.8-2.7-2.5
				s-2-1.3-3.1-1.7l66.6-168.3c4.3,1.4,9,0.8,12.8-1.6l58.3,81.9L1456.9,1586.7L1456.9,1586.7z M1667.1,1611.3
				c-1.5,2-2.3,4.2-2.7,6.5l-203.8-20.5c0.1-3.1-0.8-6.3-2.5-8.9l132-92.1l79.8,112.2C1668.9,1609.2,1667.9,1610.2,1667.1,1611.3
				L1667.1,1611.3z M1684.7,1583.8l-3.5,21.2c-3.3-0.3-6.8,0.4-9.7,2.2l-79.8-112.1l111.3-77.7c0.8,1.1,1.8,2,3,2.8
				c1.7,1.2,3.6,2.1,5.6,2.6L1684.7,1583.8L1684.7,1583.8z M1702.6,1398.7c-1.7,2.3-2.6,4.8-2.8,7.4l-161.8-6.9c0-0.2,0-0.3,0-0.5
				l183.8-21.8l-3.9,15.6C1712.2,1391.6,1706.2,1393.7,1702.6,1398.7L1702.6,1398.7z M1729.8,1403.3c-0.9-3.1-2.8-6-5.7-8.1
				c-1.4-1-2.9-1.7-4.4-2.2l4.1-16.3l255.7-30.3L1729.8,1403.3z M1990.4,1329.8c-1.9,1.1-3.5,2.5-4.9,4.3c-2.2,3-3.1,6.5-2.9,9.9
				l-258.3,30.6l94.6-380.8c2.9,0.5,5.8,0.2,8.5-0.9L1990.4,1329.8L1990.4,1329.8z M2047.3,927.5l-211.1,56.3
				c2.2-6.3,0.2-13.5-5.5-17.6c-5.5-4-12.8-3.8-18-0.1l-206.3-253.5L2048,918.9C2046.9,921.7,2046.7,924.7,2047.3,927.5z"/>
			<path d="M1032.5,2374.4c-6.9-5-16.5-3.5-21.5,3.4s-3.5,16.5,3.4,21.6s16.5,3.5,21.5-3.4S1039.4,2379.4,1032.5,2374.4z"/>
		</g>
		<g>
			<path class="st1" d="M915.8,665.5c1.2-0.5,2.5-0.7,3.8-0.7l13.3-172.4c-0.9-0.2-1.7-0.5-2.5-0.9l-76,120.9l58.2,55.1
				C913.6,666.6,914.6,665.9,915.8,665.5L915.8,665.5z"/>
			<path class="st1" d="M852.9,610.9l75.8-120.5c-0.8-0.6-1.5-1.3-2.1-2.1l-101.9,81.4c0.3,0.5,0.5,0.9,0.7,1.5
				c1.6,4.1,0.5,8.6-2.3,11.5L852.9,610.9L852.9,610.9z"/>
			<path class="st1" d="M823.6,568l102-81.5c-0.1-0.2-0.2-0.5-0.3-0.8c-0.3-0.9-0.5-1.8-0.7-2.7l-124.2,3.2l14,78
				C817.9,563.9,821.3,565.3,823.6,568L823.6,568z"/>
			<path class="st1" d="M924.6,481c0.2-2.2,1-4.3,2.3-6L777.3,332.2c-0.9,0.8-2,1.5-3.2,1.9c-0.3,0.1-0.7,0.3-1.1,0.4l26.9,149.8
				L924.6,481L924.6,481z"/>
			<path class="st1" d="M1144.3,579.8l-141.9-65.4l-76.9,151.9c1.6,1,3,2.5,3.9,4.3l214.7-84.2
				C1143.5,584.2,1143.6,581.9,1144.3,579.8L1144.3,579.8z"/>
			<path class="st1" d="M1184.7,801.1l-104.6,94c0.5,0.7,0.9,1.4,1.2,2.2c0.8,2.1,0.9,4.2,0.5,6.3l89.1,34.1l83.7-196
				c-0.8-0.4-1.5-1-2.2-1.6L1184.7,801.1z"/>
			<path class="st1" d="M941.8,473.1c0.5,0.4,0.9,0.8,1.4,1.2l77.2-60.6l42.9-33.7c-0.4-0.6-0.7-1.2-1-1.9c-0.6-1.6-0.8-3.2-0.7-4.7
				l-53.7-8.9L941.8,473.1L941.8,473.1z"/>
			<path class="st1" d="M944.4,487.7c-1.2,1.8-2.9,3.3-5.1,4.1c-1.3,0.5-2.5,0.7-3.8,0.7l-13.8,172.3c0.7,0.1,1.4,0.3,2.1,0.6
				l76.9-151.8L944.4,487.7L944.4,487.7z"/>
			<path class="st1" d="M1061.9,371.3c0.8-3.2,3.2-6,6.5-7.3c1.7-0.7,3.5-0.9,5.2-0.7l12.5-60.2l20.2-97.4c-0.5-0.1-1-0.4-1.5-0.6
				L1009,362.5L1061.9,371.3L1061.9,371.3z"/>
			<path class="st1" d="M1066.6,383.2c-0.8-0.5-1.5-1-2.1-1.7l-120.1,94.4c0.4,0.6,0.7,1.2,1,1.9c1.1,2.7,1,5.6-0.1,8.1l56.2,25.9
				L1066.6,383.2L1066.6,383.2z"/>
			<path class="st1" d="M778.7,330.7l149.5,142.9c0.9-0.8,2-1.5,3.2-1.9c2.9-1.1,6.1-0.9,8.7,0.4l65.7-108l-225.1-37.3
				C780.3,328.2,779.7,329.5,778.7,330.7L778.7,330.7z"/>
			<path class="st1" d="M1068.4,384.1l-65.1,128.6l141.8,65.3c1-1.8,2.6-3.3,4.5-4.2l-74.3-189.3
				C1073,385.1,1070.6,385,1068.4,384.1L1068.4,384.1z"/>
			<path class="st1" d="M930.2,678.3c-0.6,2.2-1.8,4.2-3.6,5.6l57.2,84.7l83,122.9c0.2-0.1,0.3-0.1,0.4-0.2c2.1-0.8,4.4-1,6.4-0.5
				l46.9-180.7L930.2,678.3z"/>
			<path class="st1" d="M1268.6,977.8l163.8,109.2c0.7-0.9,1.6-1.7,2.7-2.4l-49.3-97.8l-116-12.1
				C1269.5,975.8,1269.1,976.8,1268.6,977.8L1268.6,977.8z"/>
			<path class="st1" d="M1133.5,1025.4l36.6-85.7l-88.9-34.1c-0.8,2-2.2,3.7-4.1,4.9L1124,1024
				C1127.2,1022.9,1130.8,1023.5,1133.5,1025.4L1133.5,1025.4z"/>
			<path class="st1" d="M1078.2,383.2l52.3,2.2l-20.9-179.3c-0.4,0-0.9,0-1.3-0.1l-23.6,113.7l-9.1,43.9c3.1,0.9,5.7,3.2,6.9,6.4
				C1084.4,375,1082.5,380.5,1078.2,383.2L1078.2,383.2z"/>
			<path class="st1" d="M1435.9,1103.5l-97.4,153.8l142,104.9c1.1-1.2,2.5-2.2,4.1-2.9c0.4-0.2,0.8-0.3,1.1-0.4l-44-254.3
				C1439.6,1104.8,1437.6,1104.4,1435.9,1103.5L1435.9,1103.5z"/>
			<path class="st1" d="M1122.6,710.4l-47,181c1.2,0.5,2.3,1.3,3.2,2.2l172.3-154.9c-0.6-0.8-1-1.6-1.4-2.5
				c-0.6-1.6-0.8-3.2-0.7-4.8L1122.6,710.4L1122.6,710.4z"/>
			<path class="st1" d="M1144.9,588.3l-214.7,84.2c0.4,1.3,0.5,2.5,0.4,3.8l190.5,31.8l29.8-114.5
				C1148.3,592.7,1146.1,590.9,1144.9,588.3L1144.9,588.3z"/>
			<path class="st1" d="M1336.8,1256.1l97.4-153.7c-0.6-0.5-1.2-1-1.7-1.6l-150.7,103.7c0.2,0.4,0.5,0.9,0.6,1.3
				c1.3,3.3,0.9,6.8-0.8,9.6L1336.8,1256.1L1336.8,1256.1z"/>
			<path class="st1" d="M694.5,484.3c0.3,0.9,0.5,1.8,0.7,2.7l102.8-2.6l-26.9-149.5c-1.7,0.1-3.5-0.1-5-0.8l-75.8,145.1
				C692.2,480.3,693.7,482.1,694.5,484.3L694.5,484.3z"/>
			<path class="st1" d="M781,324.8l225.9,37.4l96.1-158.1c-1.4-1-2.5-2.3-3.3-3.8l-319,120.8C781,322.3,781.1,323.6,781,324.8
				L781,324.8z"/>
			<path class="st1" d="M911.3,668.9l-58-54.9l-54.7,87c1.6,1.1,3,2.6,3.8,4.5l106.7-28.1C908.6,674.3,909.4,671.2,911.3,668.9
				L911.3,668.9z"/>
			<path class="st1" d="M1063.4,893.9c0.5-0.5,1.1-1,1.7-1.4l-12.1-18L925,685c-0.4,0.2-0.8,0.4-1.2,0.6c-5.6,2.2-11.9-0.6-14-6.1
				c0-0.1,0-0.2-0.1-0.2l-106.5,28.1c0.7,2.6,0.3,5.2-0.8,7.5L1063.4,893.9L1063.4,893.9z"/>
			<path class="st1" d="M811.4,564.9c0.3-0.1,0.7-0.3,1.1-0.4l-14.1-78.3L695.3,489c-0.1,1.5-0.5,3-1.3,4.4l113,74.9
				C808.1,566.8,809.6,565.7,811.4,564.9L811.4,564.9z"/>
			<path class="st1" d="M1260.7,743.1l-0.8,218.6c4,0.3,7.7,2.8,9.3,6.8c0.5,1.3,0.8,2.7,0.7,4.1l114.7,12l-121.9-241.9
				C1262.1,743,1261.4,743.1,1260.7,743.1L1260.7,743.1z"/>
			<path class="st1" d="M1098.5,194.2c0.2-1.8,0.8-3.6,1.9-5.1l-200-170.5c-1,1-2.2,1.8-3.6,2.3c-2.3,0.9-4.7,1-7,0.3L823.4,191
				L1098.5,194.2L1098.5,194.2z"/>
			<path class="st1" d="M1676.4,1776.4c-1.2,2-3,3.6-5.3,4.5c-0.9,0.3-1.8,0.6-2.7,0.7l4.1,155.7c0.2,0,0.5,0,0.7,0l31.6-147.1
				L1676.4,1776.4L1676.4,1776.4z"/>
			<path class="st1" d="M1436.8,1083.7L1436.8,1083.7c5.1-2,10.7,0.1,13.3,4.7l162.8-74.2c-0.4-1.2-0.6-2.5-0.6-3.7L1388.1,987
				L1436.8,1083.7z"/>
			<path class="st1" d="M1620.9,1483.2c-1.2,1.7-2.8,3.1-4.9,3.9c-0.3,0.1-0.7,0.2-1,0.3l8.6,46.1l41.6,222l-14.1-255L1620.9,1483.2
				L1620.9,1483.2z"/>
			<path class="st1" d="M1672.2,1761.2c2.2,1.2,4,3.1,5,5.6c1,2.6,0.9,5.3,0.1,7.8l28,13.5l47-218.7L1672.2,1761.2L1672.2,1761.2z"
				/>
			<path class="st1" d="M1658.6,1764.1c1.2-1.4,2.7-2.6,4.5-3.3c0.3-0.1,0.7-0.2,1-0.3l-20.9-111.4l-30.2-161.2
				c-2.3,0.2-4.6-0.3-6.5-1.5l-119.3,165.3L1658.6,1764.1L1658.6,1764.1z"/>
			<path class="st1" d="M1262.3,1213.6c-0.4-1-0.6-2-0.7-3l-144.6-0.8l-6.6,102.2c2.6,0.4,4.9,1.7,6.6,3.7l146-100.7
				C1262.7,1214.6,1262.5,1214.1,1262.3,1213.6L1262.3,1213.6z"/>
			<path class="st1" d="M1387.7,1804.5c-0.7,0.8-1.4,1.5-2.3,2l66.7,103.2l43.2,66.8c0.6-0.4,1.2-0.7,1.9-1
				c3.5-1.4,7.3-0.8,10.2,1.2l61.3-79.7L1387.7,1804.5L1387.7,1804.5z"/>
			<path class="st1" d="M1653.3,1501.7l14.2,258.3c1,0,1.9,0.2,2.8,0.5l80-191.8c-2.2-1.2-4-3.1-5-5.6c-1.1-2.8-0.9-5.9,0.2-8.4
				L1653.3,1501.7L1653.3,1501.7z"/>
			<path class="st1" d="M802.8,201.8c-1.7,0.7-3.5,0.9-5.3,0.7l-23.7,109.6L820.4,193l-10.9-0.1
				C809.2,196.7,806.7,200.2,802.8,201.8z"/>
			<path class="st1" d="M1125.7,1045c-2.4-0.4-4.7-1.6-6.4-3.5l-218.1,160.4c0.3,0.5,0.6,1.1,0.8,1.6c0.4,1,0.6,2,0.7,3l212.4,1.2
				L1125.7,1045L1125.7,1045z"/>
			<path class="st1" d="M1172,940.4l-36.9,86.3c1,1,1.8,2.2,2.3,3.6c0.3,0.8,0.5,1.7,0.7,2.6l101.1-51.4l9.8-5l0,0
				c-0.9-2.2-0.9-4.6-0.4-6.7L1172,940.4L1172,940.4z"/>
			<path class="st1" d="M1265.1,1063.8l7.7,135.1c3.1,0.1,5.9,1.5,7.9,3.9l150.7-103.7c-0.2-0.4-0.5-0.9-0.6-1.3
				c-0.6-1.6-0.8-3.2-0.7-4.8L1265.1,1063.8L1265.1,1063.8z"/>
			<path class="st1" d="M1135.9,1041c-0.6,0.8-1.3,1.4-2.1,2l132.4,157.8c0.7-0.5,1.4-0.9,2.2-1.2c0.8-0.3,1.6-0.5,2.3-0.6
				l-7.7-135.6L1135.9,1041L1135.9,1041z"/>
			<path class="st1" d="M674.4,492.2c-0.4-1.1-0.7-2.2-0.7-3.3l-224-7.6l-15,134.7c2.8,0.5,5.4,2,7.1,4.5l232.8-127.9
				C674.5,492.4,674.4,492.3,674.4,492.2L674.4,492.2z"/>
			<path class="st1" d="M1249.3,967.9c1.1-2.4,3.2-4.4,5.8-5.4c0.9-0.4,1.8-0.6,2.8-0.7l0.8-218.7c-0.8-0.1-1.5-0.2-2.3-0.5
				l-83.7,195.9L1249.3,967.9L1249.3,967.9z"/>
			<path class="st1" d="M1263.1,982.6c-0.8,0.3-1.7,0.5-2.6,0.7l4.4,78.5l165.4,29.2c0.2-0.8,0.5-1.6,0.9-2.3l-163.8-109.2
				C1266.3,980.8,1264.8,981.9,1263.1,982.6L1263.1,982.6z"/>
			<path class="st1" d="M1652.7,1448.7c-0.8,0.3-1.6,0.5-2.4,0.6l2.8,50l93.4,53.5c0.3-0.4,0.6-0.8,1-1.2l-92.3-104.3
				C1654.4,1447.9,1653.6,1448.3,1652.7,1448.7L1652.7,1448.7z"/>
			<path class="st1" d="M1492.4,1379.5c-2,0.8-4.1,0.9-6.1,0.5l-18.3,62l133.7,31.6c0.3-1,0.8-2,1.5-2.9l-107.3-93.4
				C1495,1378.1,1493.8,1378.9,1492.4,1379.5L1492.4,1379.5z"/>
			<path class="st1" d="M1622.1,1473c1.1,2.8,0.9,5.9-0.2,8.4l29.1,16.7l-2.7-48.7c-2.3-0.1-4.5-0.9-6.3-2.3l-21.8,22.8
				C1621,1470.8,1621.7,1471.8,1622.1,1473L1622.1,1473z"/>
			<path class="st1" d="M447.7,481.2l-72-2.4c-0.4,3.3-2.4,6.3-5.4,8L429,616.6c1.2-0.5,2.5-0.7,3.7-0.7L447.7,481.2L447.7,481.2z"
				/>
			<path class="st1" d="M1479.2,1363.8L1337.3,1259l-78.7,124.2c1.3,1.1,2.3,2.5,3,4.2c0.3,0.9,0.6,1.8,0.7,2.6l215.3-20.6
				C1477.7,1367.4,1478.2,1365.4,1479.2,1363.8L1479.2,1363.8z"/>
			<path class="st1" d="M821.6,583.9c-0.7,0.5-1.4,0.9-2.2,1.2c-1.7,0.7-3.4,0.9-5,0.7l-19.3,113.7c0.7,0.1,1.3,0.3,1.9,0.6l55-87.5
				L821.6,583.9L821.6,583.9z"/>
			<path class="st1" d="M1250,978.3l-9.9,5l-101.9,51.8c-0.1,1.4-0.5,2.8-1.1,4l125.9,22.2l-4.4-78
				C1255.1,983.1,1251.8,981.3,1250,978.3L1250,978.3z"/>
			<path class="st1" d="M1152.8,594.1l-29.7,114.4l126.2,21.1c0.6-2.1,1.7-4,3.4-5.5l-92.8-131.3c-0.5,0.3-0.9,0.5-1.4,0.7
				C1156.6,594.3,1154.7,594.4,1152.8,594.1L1152.8,594.1z"/>
			<path class="st1" d="M1612.6,1008.5c0.2-1.2,0.7-2.4,1.4-3.5l-347.5-259.2L1387,984.9L1612.6,1008.5L1612.6,1008.5z"/>
			<path class="st1" d="M1154.3,572.6c1.5,0,2.9,0.2,4.3,0.8l93-180.8l-118.9-5L1154.3,572.6L1154.3,572.6z"/>
			<path class="st1" d="M1613.8,1016l-162.8,74.2c1.9,5.5-0.8,11.5-6.3,13.7c-0.4,0.2-0.8,0.3-1.1,0.4l44,254.3
				c1.3-0.1,2.5,0,3.7,0.4l127.1-338.6C1616.5,1019.4,1614.9,1018,1613.8,1016L1613.8,1016z"/>
			<path class="st1" d="M808.9,187.7c0.4,1,0.6,2.1,0.7,3.1l11.6,0.1L885,28l-80.4,154.6C806.5,183.8,808,185.5,808.9,187.7
				L808.9,187.7z"/>
			<path class="st1" d="M1119.4,191.4c1.7,4.4,0.4,9.1-2.9,12.1l135,184.1l-61.7-335.4c-1.9,0.2-3.7-0.2-5.4-0.9l-75.6,133.3
				C1113.3,184.3,1117.7,186.9,1119.4,191.4L1119.4,191.4z"/>
			<path class="st1" d="M1669,1938c0.5-0.2,1-0.3,1.5-0.4l-4.1-156c-1.8-0.1-3.5-0.7-5.1-1.7l-89.5,116.4l91.5,46.8
				C1664.5,1940.9,1666.4,1939,1669,1938L1669,1938z"/>
			<path class="st1" d="M630.3,334.1l85.8-73.2L654.2,187c-0.7,0.5-1.4,0.9-2.2,1.2c-1.5,0.6-3.1,0.8-4.6,0.7l-22.2,142.2
				C627.1,331.6,628.9,332.6,630.3,334.1z"/>
			<path class="st1" d="M1604.6,1469.1c1-0.9,2.2-1.7,3.5-2.2c3.7-1.5,7.8-0.7,10.7,1.6l21.8-22.8c-0.8-0.9-1.4-2-1.9-3.1
				c-1-2.4-1-5-0.2-7.3l-140.5-60.7c-0.2,0.4-0.5,0.8-0.7,1.1L1604.6,1469.1L1604.6,1469.1z"/>
			<path class="st1" d="M1659.7,1778.7c-1.2-1.1-2.1-2.4-2.7-4c-0.2-0.6-0.4-1.3-0.6-1.9l-266.2,26.2c-0.2,1.3-0.7,2.6-1.3,3.8
				l181.1,92.6L1659.7,1778.7L1659.7,1778.7z"/>
			<path class="st1" d="M1754.1,1569.8L1707,1789l71.8,34.8c1.2-2,3-3.6,5.3-4.5c0.6-0.2,1.1-0.4,1.7-0.5l-30.1-249
				C1755.2,1569.9,1754.6,1569.9,1754.1,1569.8L1754.1,1569.8z"/>
			<path class="st1" d="M1778,1833.4c-1-2.6-0.9-5.3-0.1-7.8l-71.4-34.6l-31.5,146.4c1.5,0.3,2.9,1,4.2,1.9l100.5-102.9
				C1779.1,1835.5,1778.5,1834.5,1778,1833.4L1778,1833.4z"/>
			<path class="st1" d="M1484.4,1652.1l-57.7-37.9c-1.1,1.4-2.6,2.5-4.4,3.2s-3.6,0.9-5.3,0.7l-34.1,169.1c1,0.3,2,0.8,2.9,1.5
				L1484.4,1652.1L1484.4,1652.1z"/>
			<path class="st1" d="M612.5,345.8l-122.2,32l130.3-25.5C617.1,351.7,614,349.3,612.5,345.8L612.5,345.8z"/>
			<path class="st1" d="M1420.2,1596.7l45.3-153.2l-203.9-48.1c-0.6,1.5-1.6,2.9-2.8,4l153.5,198.9c0.6-0.4,1.3-0.8,2-1.1
				C1416.3,1596.5,1418.3,1596.3,1420.2,1596.7L1420.2,1596.7z"/>
			<path class="st1" d="M1247.6,1381.2c1.5-0.6,3-0.8,4.5-0.7l18-160.2c-2.4-0.5-4.5-1.8-6.1-3.7l-146,100.7
				c0.2,0.4,0.5,0.9,0.7,1.3c1,2.6,1,5.3,0.1,7.7l123.6,59.4C1243.5,1383.8,1245.3,1382.1,1247.6,1381.2L1247.6,1381.2z"/>
			<path class="st1" d="M1077.8,385.2l73.7,187.9c0.2-0.1,0.5-0.1,0.8-0.2l-21.6-185.4L1077.8,385.2L1077.8,385.2z"/>
			<path class="st1" d="M1104.7,1312.5c1.2-0.5,2.4-0.7,3.7-0.7l6.6-102l-212.3-1.2c-0.1,1.1-0.4,2.1-0.8,3.1l197.7,105
				C1100.8,1314.9,1102.5,1313.4,1104.7,1312.5z"/>
			<path class="st1" d="M1662.6,1945l-92-47l-61.6,80.1c1,1,1.8,2.2,2.3,3.6c0.2,0.6,0.4,1.2,0.5,1.8l150.4-33.8
				C1662,1948.1,1662.1,1946.5,1662.6,1945L1662.6,1945z"/>
			<path class="st1" d="M1389.6,1793.5c0.5,1.2,0.7,2.4,0.7,3.6l265.9-26.2c0-1.8,0.4-3.6,1.3-5.1L1486,1653.2l-98.7,136.7
				C1388.3,1790.9,1389.1,1792.1,1389.6,1793.5L1389.6,1793.5z"/>
			<path class="st1" d="M312.9,710c0.2-0.1,0.4-0.1,0.6-0.2l-27.9-130.3l-264.8-87c-0.2,0.5-0.5,1-0.8,1.4l288.4,219.3
				C309.6,711.9,311.1,710.7,312.9,710L312.9,710z"/>
			<path class="st1" d="M21.4,490.7l263.7,86.6l-48.7-227.1c-3.7,0.4-7.4-1.1-9.7-4L20.4,483.1c0.2,0.4,0.4,0.8,0.5,1.2
				C21.7,486.4,21.9,488.6,21.4,490.7L21.4,490.7z"/>
			<path class="st1" d="M422.3,624.5l-134.6-44.2l27.6,129.1c3.6-0.5,7.2,0.9,9.6,3.6l98.8-80.4c-0.4-0.6-0.7-1.2-1-1.9
				C422,628.6,421.9,626.5,422.3,624.5L422.3,624.5z"/>
			<path class="st1" d="M680.5,819.2c1-0.4,2-0.6,3-0.7V593.8l-239.7,32.4c0.1,2.4-0.6,4.8-2,6.7l234.9,188.8
				C677.7,820.6,679,819.7,680.5,819.2L680.5,819.2z"/>
			<path class="st1" d="M984.2,1047.9l-19.1,1.7c0,4.3-2.6,8.4-6.9,10c-2.3,0.9-4.8,0.9-7,0.3l-53.6,135.8L984.2,1047.9
				L984.2,1047.9z"/>
			<path class="st1" d="M766.3,313.9c1.7-0.7,3.5-0.9,5.3-0.7l24-111.2c-1.6-0.5-3.1-1.4-4.3-2.6L719,261.1l45.2,53.9
				C764.8,314.6,765.5,314.2,766.3,313.9L766.3,313.9z"/>
			<path class="st1" d="M375,473.5c0.4,1.1,0.7,2.2,0.7,3.3l72.1,2.5l9.3-83.3c-1.9-0.4-3.6-1.3-5-2.5l-78.9,77.2
				C374,471.4,374.6,472.4,375,473.5L375,473.5z"/>
			<path class="st1" d="M463.4,395.4c-1.4,0.5-2.8,0.8-4.2,0.8l-9.3,83.2l223.8,7.6c0.1-0.8,0.3-1.5,0.5-2.2L469,390.4
				C467.8,392.6,465.9,394.4,463.4,395.4L463.4,395.4z"/>
			<path class="st1" d="M243.3,349.6l183.6,267.3l-58.4-129.3c-5.5,1.9-11.5-0.9-13.6-6.3c-1.5-3.9-0.6-8.2,2-11.1L243.3,349.6
				L243.3,349.6z"/>
			<path class="st1" d="M422.9,622.6c0.6-1.5,1.5-2.8,2.8-3.9L240.4,348.9c-0.4,0.2-0.9,0.5-1.3,0.6c-0.2,0.1-0.5,0.2-0.7,0.2
				L287.3,578L422.9,622.6L422.9,622.6z"/>
			<path class="st1" d="M469.8,388.5l205.3,94.3c1.2-2.1,3-3.7,5.4-4.7c2.7-1.1,5.6-1,8.1,0.1l75.8-145.1c-1.8-1.2-3.3-2.9-4.2-5.1
				c-0.1-0.3-0.2-0.6-0.3-0.9l-289.7,56.7C470.4,385.4,470.2,387,469.8,388.5L469.8,388.5z"/>
			<path class="st1" d="M683.5,499c-3.2-0.3-6.1-2-8-4.7L442.7,622.2c0.1,0.2,0.2,0.3,0.2,0.5c0.2,0.5,0.3,1,0.5,1.5l240-32.4
				L683.5,499L683.5,499z"/>
			<path class="st1" d="M790,197.9c-0.5-0.7-0.9-1.4-1.2-2.3c-0.5-1.3-0.7-2.6-0.7-3.9l-129.3-11.6c-0.4,2.1-1.4,4.1-3,5.7
				l61.9,73.9L790,197.9L790,197.9z"/>
			<path class="st1" d="M780,319.3l318.5-120.7l0.4-0.6c-0.2-0.6-0.2-1.2-0.3-1.8l-276-3.2l-47.5,121.4
				C777.2,315.4,778.9,317.1,780,319.3L780,319.3z"/>
			<path class="st1" d="M632.6,337.7c0.3,0.7,0.5,1.4,0.6,2.1l126.2-15.5c-0.1-3,1-5.9,3.1-7.9l-45.2-53.9l-85.8,73.2
				C632,336.3,632.3,337,632.6,337.7L632.6,337.7z"/>
			<path class="st1" d="M633.4,341.8c-0.1,3.6-1.9,7-5,9l114.2-22.4L633.4,341.8L633.4,341.8z"/>
			<path class="st1" d="M805.8,569.9l-113-74.9c-1.1,1.4-2.7,2.6-4.5,3.3c-1,0.4-2,0.6-3,0.7v92.5l119.1-16.1
				C804.5,573.5,804.9,571.6,805.8,569.9L805.8,569.9z"/>
			<path class="st1" d="M1114.9,204.6c-0.5,0.3-1,0.6-1.6,0.8s-1.1,0.4-1.7,0.5l20.9,179.6l118.7,5L1114.9,204.6L1114.9,204.6z"/>
			<path class="st1" d="M1485.5,1650.5l119.4-165.3c-0.5-0.4-0.9-0.8-1.3-1.3l-175.9,118.3c0.2,0.4,0.4,0.8,0.6,1.3
				c1.2,3.1,0.9,6.5-0.6,9.2L1485.5,1650.5z"/>
			<path class="st1" d="M1257.1,1382l78.7-124.2l-55.3-40.9c-1.1,1.2-2.5,2.2-4.1,2.9c-1.4,0.5-2.8,0.8-4.2,0.8l-18,160.3
				C1255.2,1381.1,1256.1,1381.5,1257.1,1382L1257.1,1382z"/>
			<path class="st1" d="M1484.5,1379.4c-2.7-1.1-4.9-3.2-6.1-6.1c-0.2-0.6-0.4-1.3-0.6-1.9l-215.4,20.6c0,0.5-0.1,0.9-0.2,1.4
				l203.9,48.1L1484.5,1379.4L1484.5,1379.4z"/>
			<path class="st1" d="M1426.6,1600.4l35.4-23.8l140.5-94.5c-0.2-0.4-0.4-0.8-0.6-1.2c-0.7-1.8-0.9-3.7-0.6-5.5l-133.8-31.6
				l-45.3,153.3C1423.9,1597.9,1425.4,1599,1426.6,1600.4L1426.6,1600.4z"/>
			<path class="st1" d="M1264.7,1202.1l-132.6-158c-0.2,0.1-0.5,0.2-0.7,0.3c-1.2,0.5-2.4,0.7-3.7,0.7l-10.6,162.7l144.5,0.8
				C1261.8,1206.2,1262.9,1203.8,1264.7,1202.1L1264.7,1202.1z"/>
			<path class="st1" d="M1063,913.3l-101.3,128.4c1.1,1.1,2,2.4,2.6,3.9c0.3,0.7,0.5,1.3,0.6,2l20.5-1.8L1063,913.3L1063,913.3z"/>
			<path class="st1" d="M782.5,714c-2.2-5.6,0.6-11.9,6.1-14c1.4-0.5,2.9-0.8,4.3-0.7l19.3-113.8c-0.3-0.1-0.7-0.2-1-0.3l-121,235
				c0.2,0.2,0.5,0.3,0.7,0.5l93.7-103.2C783.8,716.4,783,715.3,782.5,714L782.5,714z"/>
			<path class="st1" d="M950.5,1039.4c3.3-1.2,6.9-0.7,9.6,1.1l103.6-131.3c-1.1-1.1-2-2.4-2.6-3.9c-1.3-3.4-0.8-7,1-9.9
				L801.2,716.5c-1,1.3-2.2,2.4-3.8,3.2L950.5,1039.4L950.5,1039.4z"/>
			<path class="st1" d="M900,1200.3l218.1-160.4c-0.3-0.5-0.6-1.1-0.8-1.6c-0.3-0.7-0.4-1.3-0.6-2l-130.1,11.5l-88.4,151
				C898.9,1199.1,899.4,1199.7,900,1200.3L900,1200.3z"/>
			<path class="st1" d="M688.5,819.2l121-235.1c-1.9-1.2-3.4-3-4.3-5.2c-0.2-0.5-0.3-1-0.5-1.5l-119.4,16.1v224.9
				C686.5,818.6,687.5,818.8,688.5,819.2L688.5,819.2z"/>
			<path class="st1" d="M1122.1,1024.8l-46.8-113.4h-0.1c-2.9,1.1-5.9,0.9-8.5-0.3L988,1045.5l128.7-11.4
				C1116.6,1030.4,1118.6,1026.8,1122.1,1024.8L1122.1,1024.8z"/>
			<path class="st2" d="M1798.2,1825.5c-1.7-4.4-5.9-7-10.4-6.9l-30.1-249c0.6-0.1,1.1-0.3,1.7-0.5c5.6-2.2,8.3-8.5,6.1-14
				c-2.2-5.6-8.5-8.3-14-6.1c-0.9,0.3-1.7,0.8-2.4,1.3l-92.3-104.3c2.8-3,3.8-7.3,2.2-11.4c-2.2-5.6-8.5-8.3-14-6.1
				c-2.5,1-4.4,2.7-5.6,4.9l-140.5-60.7c0.8-2.3,0.7-4.9-0.2-7.3c-1-2.6-3-4.6-5.4-5.8l127.1-338.6c2.2,0.6,4.6,0.5,6.8-0.3
				c5.6-2.2,8.3-8.5,6.1-14s-8.5-8.3-14-6.1c-1.6,0.6-3,1.6-4.1,2.8L1264.8,742c4.9-2.5,7.1-8.4,5.1-13.6c-2.2-5.6-8.5-8.3-14-6.1
				c-0.5,0.2-1,0.4-1.4,0.7l-92.8-131.3c3.4-2.9,4.8-7.8,3.1-12.2c-0.9-2.2-2.4-4-4.3-5.2l93-180.8l1.6,2.2l-0.7-4l0.6-1.1h-0.8
				l-62.4-339c0.3-0.1,0.7-0.2,1-0.3c5.6-2.2,8.3-8.5,6.1-14s-8.5-8.3-14-6.1c-5.6,2.2-8.3,8.5-6.1,14c0.8,2.1,2.2,3.8,3.9,4.9
				l-76.4,134.8c-0.3,0.1-0.6,0.2-0.8,0.3c-1.4,0.5-2.6,1.4-3.6,2.3L901.7,17.1c2-2.9,2.6-6.7,1.2-10.2c-2.2-5.6-8.5-8.3-14-6.1
				s-8.3,8.5-6.1,14c0.9,2.2,2.4,4,4.2,5.1l-84.1,161.7c-2.5-1-5.3-1.1-8-0.1c-3.6,1.4-6,4.6-6.7,8.1L658.9,178
				c0-1.3-0.2-2.6-0.7-3.9c-2.2-5.6-8.5-8.3-14-6.1s-8.3,8.5-6.1,14c1.3,3.4,4.2,5.7,7.4,6.5l-22.2,142.2c-1.5-0.1-3.1,0.1-4.6,0.7
				c-5,2-7.7,7.2-6.6,12.3l-142.5,37.4c-2.2-5.5-8.5-8.2-14-6c-5.6,2.2-8.3,8.5-6.1,14c0.4,1,0.9,1.9,1.5,2.6L372.1,469
				c-2.9-2.5-7.1-3.3-11-1.8c-1,0.4-1.9,0.9-2.7,1.5l-115-122.3c2.6-3,3.5-7.2,2-11.1c-2.2-5.6-8.5-8.3-14-6.1s-8.3,8.5-6.1,14
				c0.2,0.4,0.4,0.8,0.6,1.2l-206.6,137c-2.9-3.6-7.9-5.1-12.4-3.3c-5.6,2.2-8.3,8.5-6.1,14s8.5,8.3,14,6.1c1.6-0.6,2.9-1.6,4-2.8
				l288.5,219.3c-1.5,2.7-1.8,6-0.6,9.2c2.2,5.6,8.5,8.3,14,6.1s8.3-8.5,6.1-14c-0.2-0.5-0.5-1.1-0.8-1.6l98.9-80.5
				c2.9,3.1,7.6,4.4,11.9,2.7c1.4-0.5,2.6-1.3,3.6-2.3l235,188.8c-1.9,2.8-2.4,6.5-1.1,9.9c2.2,5.6,8.5,8.3,14,6.1s8.3-8.5,6.1-14
				c-0.5-1.3-1.2-2.4-2.1-3.3L786,718.5c2.9,2.2,6.8,2.9,10.5,1.4l-0.9,0.4l153,319.8c-4.5,2.7-6.5,8.2-4.5,13.2
				c1,2.6,2.9,4.5,5.2,5.7l-54.5,137.9c-2.2-0.7-4.7-0.6-7,0.3c-5.6,2.2-8.3,8.5-6.1,14c2.2,5.6,8.5,8.3,14,6.1
				c2.2-0.8,3.9-2.3,5.1-4.2l197.7,105c-1.1,2.5-1.2,5.4-0.1,8.1c2.2,5.6,8.5,8.3,14,6.1c2.3-0.9,4.1-2.5,5.3-4.5l123.6,59.4
				c-0.9,2.4-0.9,5.1,0.1,7.7c2.2,5.6,8.5,8.3,14,6.1c0.6-0.2,1.1-0.5,1.7-0.8l153.5,199c-3,2.9-4.2,7.5-2.5,11.7
				c1.2,3.2,3.8,5.4,6.8,6.4l-34.1,169.1c-1.7-0.2-3.6,0-5.3,0.7c-5.6,2.2-8.3,8.5-6.1,14c2.2,5.6,8.5,8.3,14,6.1c0,0,0.1,0,0.1-0.1
				l72,111.4l38.1,58.9c-3.1,2.9-4.3,7.6-2.7,11.8c2.2,5.6,8.5,8.3,14,6.1c4.3-1.7,6.9-5.9,6.9-10.3l150.7-33.8
				c0.1,0.1,0.1,0.3,0.2,0.4c2.2,5.6,8.5,8.3,14,6.1c5.6-2.2,8.3-8.5,6.1-14c-0.5-1.3-1.3-2.5-2.2-3.4l100.5-102.9
				c2.9,2.4,7,3.2,10.8,1.7C1797.6,1837.3,1800.4,1831,1798.2,1825.5L1798.2,1825.5z M1507.4,1976.8c-2.9-2-6.7-2.6-10.2-1.2
				c-0.7,0.3-1.3,0.6-1.9,1l-43.2-66.8l-66.7-103.2c0.9-0.6,1.7-1.3,2.3-2l181,92.5L1507.4,1976.8L1507.4,1976.8z M1110.3,1311.9
				l6.6-102.2l144.6,0.8c0.1,1,0.3,2,0.7,3c0.2,0.5,0.4,0.9,0.7,1.3l-146,100.7C1115.3,1313.7,1112.9,1312.3,1110.3,1311.9
				L1110.3,1311.9z M902.7,1206.6c-0.1-1-0.3-2-0.7-3c-0.2-0.6-0.5-1.1-0.8-1.6l218.1-160.4c1.7,1.9,3.9,3.1,6.4,3.5l-10.6,162.8
				L902.7,1206.6L902.7,1206.6z M820.5,192.9L773.9,312l23.7-109.6c1.7,0.2,3.5,0,5.3-0.7c3.9-1.5,6.4-5.1,6.8-9L820.5,192.9z
				 M896.8,20.9c1.4-0.5,2.6-1.4,3.6-2.3l200.1,170.5c-1.1,1.5-1.7,3.3-1.9,5.1L823.4,191l66.4-169.8
				C892,21.9,894.5,21.8,896.8,20.9L896.8,20.9z M1612.3,1010.5c0,1.2,0.2,2.5,0.6,3.7l-162.8,74.2c-2.6-4.6-8.3-6.7-13.3-4.7l0,0
				l-48.7-96.7L1612.3,1010.5L1612.3,1010.5z M1673.1,1937.3c-0.2,0-0.5,0-0.7,0l-4.1-155.7c0.9-0.1,1.8-0.3,2.7-0.7
				c2.3-0.9,4.1-2.5,5.3-4.5l28.4,13.8L1673.1,1937.3L1673.1,1937.3z M1623.7,1533.5l-8.6-46.1c0.3-0.1,0.7-0.2,1-0.3
				c2.1-0.8,3.7-2.2,4.9-3.9l30.3,17.3l14.1,255L1623.7,1533.5L1623.7,1533.5z M1613.1,1487.8l30.2,161.2l20.9,111.4
				c-0.3,0.1-0.7,0.2-1,0.3c-1.8,0.7-3.4,1.9-4.5,3.3l-171.4-112.5l119.3-165.3C1608.5,1487.4,1610.8,1488,1613.1,1487.8
				L1613.1,1487.8z M1677.2,1774.6c0.9-2.4,1-5.2-0.1-7.8c-1-2.5-2.8-4.4-5-5.6l80-191.8l-47,218.7L1677.2,1774.6L1677.2,1774.6z
				 M1745.3,1563c1,2.5,2.8,4.4,5,5.6l-80,191.8c-0.9-0.3-1.9-0.4-2.8-0.5l-14.2-258.3l92.3,52.8
				C1744.4,1557.1,1744.2,1560.2,1745.3,1563L1745.3,1563z M1746.6,1552.8l-93.4-53.5l-2.8-50c0.8-0.1,1.6-0.3,2.4-0.6
				c0.9-0.3,1.7-0.8,2.4-1.3l92.3,104.3C1747.2,1552,1746.8,1552.4,1746.6,1552.8L1746.6,1552.8z M1642,1447.1
				c1.8,1.4,4,2.3,6.3,2.3l2.7,48.7l-29.1-16.7c1.2-2.6,1.3-5.6,0.2-8.4c-0.5-1.2-1.1-2.2-1.9-3.1L1642,1447.1L1642,1447.1z
				 M1601.8,1473.5l-133.7-31.6l18.3-62c2,0.4,4.1,0.2,6.1-0.5c1.3-0.5,2.5-1.3,3.5-2.2l107.3,93.4
				C1602.6,1471.5,1602.1,1472.5,1601.8,1473.5L1601.8,1473.5z M1262.3,1390c-0.1-0.9-0.3-1.8-0.7-2.6c-0.7-1.7-1.7-3.1-3-4.2
				l78.7-124.2l141.9,104.8c-1,1.7-1.6,3.6-1.6,5.6L1262.3,1390L1262.3,1390z M795,699.4l19.3-113.7c1.7,0.2,3.4,0,5-0.7
				c0.8-0.3,1.5-0.7,2.2-1.2l30.3,28.7l-55,87.5C796.2,699.8,795.6,699.6,795,699.4L795,699.4z M370.3,486.8c3-1.7,5-4.7,5.4-8
				l72,2.4l-15,134.7c-1.2,0-2.5,0.3-3.7,0.7L370.3,486.8L370.3,486.8z M434.6,616l15-134.7l224,7.6c0.1,1.1,0.3,2.2,0.7,3.3
				c0,0.1,0.1,0.2,0.2,0.4L441.8,620.5C440.1,618.1,437.5,616.5,434.6,616L434.6,616z M1430.7,1097.8c0.2,0.5,0.4,0.9,0.6,1.3
				l-150.7,103.7c-2-2.4-4.9-3.8-7.9-3.9l-7.7-135.1l164.9,29.1C1429.9,1094.5,1430.1,1096.2,1430.7,1097.8L1430.7,1097.8z
				 M1270.8,1199c-0.8,0.1-1.6,0.3-2.3,0.6c-0.8,0.3-1.5,0.7-2.2,1.2L1133.8,1043c0.8-0.6,1.5-1.3,2.1-2l127.2,22.5L1270.8,1199
				L1270.8,1199z M1137,1039.1c0.6-1.2,1-2.6,1.1-4l101.9-51.8l9.9-5c1.9,3,5.1,4.8,8.6,5l4.4,78L1137,1039.1L1137,1039.1z
				 M1249,976.5L1249,976.5l-9.8,5l-101.1,51.4c-0.1-0.9-0.3-1.7-0.7-2.6c-0.6-1.4-1.4-2.6-2.3-3.6l36.9-86.3l76.7,29.4
				C1248.1,971.9,1248.1,974.3,1249,976.5L1249,976.5z M1430.4,1091l-165.4-29.2l-4.4-78.5c0.9-0.1,1.7-0.3,2.6-0.7
				c1.8-0.7,3.2-1.8,4.3-3.1l163.8,109.2C1430.9,1089.4,1430.6,1090.2,1430.4,1091L1430.4,1091z M1258.7,743.1l-0.8,218.7
				c-0.9,0.1-1.9,0.3-2.8,0.7c-2.7,1-4.7,3-5.8,5.4l-76.6-29.3l83.7-195.9C1257.2,742.9,1257.9,743,1258.7,743.1L1258.7,743.1z
				 M1170.9,937.8l-89.1-34.1c0.4-2,0.3-4.2-0.5-6.3c-0.3-0.8-0.7-1.6-1.2-2.2l104.6-94l67.7-60.8c0.7,0.6,1.4,1.2,2.2,1.6
				L1170.9,937.8L1170.9,937.8z M1106.3,205.7l-20.2,97.4l-12.5,60.2c-1.7-0.2-3.5,0-5.2,0.7c-3.3,1.3-5.7,4.1-6.5,7.3l-52.9-8.8
				l95.7-157.4C1105.2,205.4,1105.7,205.6,1106.3,205.7L1106.3,205.7z M921.6,664.9l13.8-172.3c1.3,0,2.6-0.2,3.8-0.7
				c2.2-0.9,3.9-2.3,5.1-4.1l56.2,25.9l-76.9,151.8C923.1,665.2,922.3,665,921.6,664.9L921.6,664.9z M945.3,486
				c1-2.5,1.2-5.4,0.1-8.1c-0.3-0.7-0.6-1.3-1-1.9l120.1-94.4c0.6,0.7,1.3,1.2,2.1,1.7l-65.1,128.6L945.3,486L945.3,486z
				 M1061.6,373.3c-0.1,1.6,0.1,3.2,0.7,4.7c0.3,0.7,0.6,1.3,1,1.9l-42.9,33.7l-77.2,60.6c-0.4-0.4-0.9-0.8-1.4-1.2l66.1-108.7
				L1061.6,373.3L1061.6,373.3z M940.1,472c-2.6-1.3-5.8-1.5-8.7-0.4c-1.2,0.5-2.2,1.1-3.2,1.9L778.7,330.7c0.9-1.2,1.6-2.5,2-4
				l225.1,37.3L940.1,472L940.1,472z M774.2,334.1c1.2-0.5,2.2-1.1,3.2-1.9L926.9,475c-1.4,1.7-2.2,3.8-2.3,6l-124.5,3.2
				l-26.9-149.8C773.5,334.3,773.9,334.2,774.2,334.1L774.2,334.1z M924.6,483c0.1,0.9,0.3,1.8,0.7,2.7c0.1,0.3,0.2,0.5,0.3,0.8
				l-102,81.5c-2.3-2.6-5.7-4-9.1-3.8l-14-78L924.6,483L924.6,483z M825.5,571.1c-0.2-0.5-0.5-1-0.7-1.5l101.9-81.4
				c0.6,0.8,1.3,1.5,2.1,2.1L853,610.9l-29.8-28.3C826,579.7,827.1,575.2,825.5,571.1L825.5,571.1z M930.5,491.4
				c0.8,0.4,1.6,0.7,2.5,0.9l-13.3,172.4c-1.3,0-2.5,0.2-3.8,0.7c-1.2,0.5-2.3,1.1-3.2,2l-58.2-55.1L930.5,491.4L930.5,491.4z
				 M1067.2,891.3c-0.2,0.1-0.3,0.1-0.4,0.2l-83-122.9l-57.2-84.7c1.8-1.5,3-3.4,3.6-5.6l190.4,31.8l-46.9,180.7
				C1071.6,890.3,1069.4,890.4,1067.2,891.3z M929.5,670.7c-0.9-1.8-2.3-3.3-3.9-4.3l76.9-151.9l141.9,65.4
				c-0.7,2.1-0.8,4.4-0.2,6.6L929.5,670.7L929.5,670.7z M1145.2,578l-141.8-65.3l65.1-128.6c2.2,0.9,4.6,1,7,0.3l74.3,189.3
				C1147.7,574.7,1146.2,576.2,1145.2,578z M1082.5,370.1c-1.3-3.2-3.9-5.5-6.9-6.4l9.1-43.9l23.6-113.7c0.4,0,0.9,0.1,1.3,0.1
				l20.9,179.3l-52.3-2.2C1082.5,380.5,1084.4,375,1082.5,370.1L1082.5,370.1z M1099.7,200.3c0.8,1.6,2,2.9,3.3,3.8l-96.1,158.1
				L781,324.8c0.1-1.2,0-2.4-0.3-3.7L1099.7,200.3L1099.7,200.3z M771.2,334.8L798,484.3L695.2,487c-0.1-0.9-0.3-1.8-0.7-2.7
				c-0.9-2.2-2.4-4-4.2-5.1L766.1,334C767.7,334.7,769.4,334.9,771.2,334.8L771.2,334.8z M695.3,489l103.2-2.7l14.1,78.3
				c-0.4,0.1-0.7,0.2-1.1,0.4c-1.8,0.7-3.3,1.9-4.5,3.3l-113-74.9C694.7,492,695.1,490.5,695.3,489L695.3,489z M798.6,701l54.7-87
				l57.9,54.9c-1.8,2.4-2.7,5.4-2.2,8.5l-106.7,28.1C801.6,703.6,800.2,702.1,798.6,701L798.6,701z M803.1,707.4l106.5-28.1
				c0,0.1,0,0.2,0.1,0.2c2.2,5.6,8.5,8.3,14,6.1c0.4-0.2,0.8-0.4,1.2-0.6l127.9,189.5l12.1,18c-0.6,0.4-1.2,0.9-1.7,1.4l-261.1-179
				C803.4,712.6,803.8,709.9,803.1,707.4L803.1,707.4z M1081.2,905.6l88.9,34.1l-36.6,85.7c-2.7-1.9-6.3-2.4-9.6-1.3L1077,910.5
				C1078.9,909.3,1080.3,907.6,1081.2,905.6L1081.2,905.6z M1282.4,1205.7c-0.2-0.5-0.4-0.9-0.6-1.3l150.7-103.7
				c0.5,0.6,1.1,1.2,1.7,1.6l-97.4,153.7l-55.2-40.8C1283.3,1212.5,1283.7,1209,1282.4,1205.7L1282.4,1205.7z M1484.5,1359.3
				c-1.6,0.6-3,1.7-4.1,2.9l-142-104.9l97.4-153.8c1.8,0.9,3.8,1.3,5.8,1.2l44,254.3C1485.3,1359,1484.9,1359.1,1484.5,1359.3
				L1484.5,1359.3z M1435,1084.6c-1,0.7-1.9,1.4-2.7,2.4l-163.8-109.2c0.6-1,0.9-2.1,1.2-3.2l116,12.1L1435,1084.6L1435,1084.6z
				 M1270,972.7c0-1.4-0.2-2.7-0.7-4.1c-1.6-4-5.2-6.5-9.3-6.8l0.8-218.6c0.7-0.1,1.4-0.2,2-0.4l121.9,241.9L1270,972.7L1270,972.7z
				 M1249.6,736.3c0.4,0.9,0.8,1.8,1.4,2.5l-172.3,154.9c-0.9-0.9-2-1.7-3.2-2.2l47-181l126.4,21.1
				C1248.8,733.1,1249,734.7,1249.6,736.3L1249.6,736.3z M1121.1,708.2l-190.5-31.8c0.1-1.2,0-2.5-0.4-3.8l214.7-84.2
				c1.3,2.5,3.5,4.4,6,5.3L1121.1,708.2L1121.1,708.2z M1151.5,573l-73.7-187.9l52.8,2.2l21.6,185.4
				C1152,572.9,1151.8,573,1151.5,573z M1111.5,205.9c0.6-0.1,1.2-0.3,1.7-0.5s1.1-0.5,1.6-0.8l136.3,185.9l-118.7-5L1111.5,205.9
				L1111.5,205.9z M1098.5,196.2c0.1,0.6,0.2,1.2,0.3,1.8l-0.4,0.6L780,319.3c-1.1-2.2-2.8-3.9-4.9-4.9L822.6,193L1098.5,196.2
				L1098.5,196.2z M658.7,180.1L788,191.7c0,1.3,0.2,2.6,0.7,3.9c0.3,0.8,0.8,1.6,1.2,2.3l-72.3,61.7l-61.9-73.9
				C657.3,184.2,658.3,182.2,658.7,180.1L658.7,180.1z M791.3,199.5c1.2,1.2,2.7,2.1,4.3,2.6l-24,111.2c-1.7-0.2-3.5,0-5.3,0.7
				c-0.8,0.3-1.5,0.7-2.2,1.2l-45.2-53.9L791.3,199.5L791.3,199.5z M762.6,316.4c-2.1,2.1-3.2,5-3.1,7.9l-126.2,15.5
				c-0.1-0.7-0.3-1.4-0.6-2.1s-0.6-1.4-1-2l85.8-73.2L762.6,316.4L762.6,316.4z M633.4,341.8l109.2-13.4l-114.2,22.4
				C631.5,348.8,633.3,345.4,633.4,341.8L633.4,341.8z M759.9,327.1c0.1,0.3,0.2,0.6,0.3,0.9c0.9,2.2,2.4,4,4.2,5.1l-75.8,145.1
				c-2.5-1-5.4-1.1-8.1-0.1c-2.4,0.9-4.2,2.6-5.4,4.7l-205.3-94.3c0.5-1.5,0.6-3.1,0.4-4.7L759.9,327.1L759.9,327.1z M674.2,484.7
				c-0.2,0.7-0.4,1.5-0.5,2.2l-223.8-7.6l9.3-83.2c1.4,0,2.8-0.2,4.2-0.8c2.5-1,4.4-2.8,5.6-5L674.2,484.7L674.2,484.7z
				 M457.2,395.9l-9.3,83.3l-72.1-2.5c-0.1-1.1-0.3-2.2-0.7-3.3c-0.4-1.1-1-2-1.7-2.9l78.9-77.2
				C453.6,394.6,455.3,395.5,457.2,395.9L457.2,395.9z M354.8,481.4c2.1,5.4,8.1,8.2,13.6,6.3L426.8,617L243.3,349.6l113.5,120.6
				C354.2,473.2,353.3,477.4,354.8,481.4L354.8,481.4z M239.1,349.5c0.5-0.2,0.9-0.4,1.3-0.6l185.3,269.8c-1.2,1.1-2.1,2.4-2.8,3.9
				L287.3,578l-48.9-228.3C238.6,349.6,238.8,349.6,239.1,349.5L239.1,349.5z M443,622.7c-0.1-0.2-0.2-0.3-0.2-0.5l232.7-127.9
				c1.8,2.7,4.8,4.4,8,4.7v92.8l-240,32.4C443.3,623.7,443.2,623.2,443,622.7L443,622.7z M685.5,499c1-0.1,2-0.3,3-0.7
				c1.8-0.7,3.3-1.9,4.5-3.3l113,74.9c-0.9,1.7-1.4,3.6-1.3,5.6l-119.1,16.1L685.5,499L685.5,499z M804.8,577.5
				c0.1,0.5,0.3,1,0.5,1.5c0.9,2.2,2.4,4,4.3,5.2l-121,235.1c-1-0.4-2-0.6-3-0.7v-225L804.8,577.5L804.8,577.5z M690.3,820.1
				l121-235c0.3,0.1,0.7,0.2,1,0.3L793,699.2c-1.4,0-2.9,0.2-4.3,0.7c-5.6,2.2-8.3,8.5-6.1,14c0.5,1.3,1.2,2.4,2.1,3.3L691,820.6
				C690.7,820.4,690.5,820.3,690.3,820.1L690.3,820.1z M801.3,716.5l260.9,178.9c-1.8,2.8-2.3,6.5-1,9.9c0.6,1.5,1.5,2.8,2.6,3.9
				l-103.6,131.3c-2.8-1.8-6.3-2.3-9.6-1.1l-153-319.7C799,718.9,800.3,717.8,801.3,716.5L801.3,716.5z M964.3,1045.6
				c-0.6-1.5-1.5-2.8-2.6-3.9L1063,913.3l-77.6,132.5l-20.5,1.8C964.8,1047,964.6,1046.3,964.3,1045.6L964.3,1045.6z M1066.6,911.2
				c2.6,1.2,5.7,1.4,8.5,0.3h0.1l46.8,113.4c-3.5,1.9-5.5,5.6-5.5,9.4l-128.7,11.4L1066.6,911.2L1066.6,911.2z M1116.7,1036.2
				c0.1,0.7,0.3,1.3,0.6,2c0.2,0.6,0.5,1.1,0.8,1.6L900,1200.3c-0.5-0.6-1.1-1.1-1.8-1.6l88.4-151L1116.7,1036.2L1116.7,1036.2z
				 M1127.7,1045.1c1.2,0,2.4-0.3,3.7-0.7c0.2-0.1,0.5-0.2,0.7-0.3l132.6,158c-1.8,1.8-2.8,4.1-3.1,6.6l-144.5-0.8L1127.7,1045.1
				L1127.7,1045.1z M1272.1,1220.5c1.4,0,2.8-0.2,4.2-0.8c1.6-0.6,3-1.7,4.1-2.9l55.3,40.9l-78.7,124.2c-0.9-0.5-1.9-0.9-2.9-1.2
				L1272.1,1220.5L1272.1,1220.5z M1262.4,1392l215.4-20.6c0.1,0.7,0.3,1.3,0.6,1.9c1.1,2.9,3.4,5,6.1,6.1l-18.4,62.1l-203.9-48.1
				C1262.3,1393,1262.4,1392.5,1262.4,1392L1262.4,1392z M1467.5,1443.9l133.8,31.6c-0.2,1.8-0.1,3.7,0.6,5.5
				c0.2,0.4,0.4,0.8,0.6,1.2l-140.5,94.5l-35.4,23.8c-1.2-1.5-2.8-2.6-4.5-3.2L1467.5,1443.9L1467.5,1443.9z M1428.4,1603.4
				c-0.2-0.4-0.4-0.9-0.6-1.3l175.9-118.3c0.4,0.5,0.8,0.9,1.3,1.3l-119.4,165.3l-57.8-37.9
				C1429.3,1609.8,1429.6,1606.5,1428.4,1603.4z M1486,1653.2l171.5,112.5c-0.8,1.6-1.3,3.3-1.3,5.1l-265.9,26.2
				c0-1.2-0.3-2.4-0.7-3.6c-0.5-1.4-1.3-2.6-2.3-3.6L1486,1653.2L1486,1653.2z M1388.9,1802.9c0.7-1.2,1.1-2.5,1.3-3.8l266.2-26.2
				c0.1,0.6,0.3,1.3,0.6,1.9c0.6,1.6,1.6,2.9,2.7,4l-89.8,116.7L1388.9,1802.9L1388.9,1802.9z M1661.3,1780c1.5,1,3.2,1.5,5.1,1.7
				l4.1,156c-0.5,0.1-1,0.3-1.5,0.4c-2.6,1-4.5,2.9-5.7,5.1l-91.5-46.8L1661.3,1780L1661.3,1780z M1675.1,1937.5l31.5-146.4
				l71.4,34.6c-0.9,2.4-1,5.2,0.1,7.8c0.4,1.2,1.1,2.2,1.8,3.1l-100.5,102.9C1678.1,1938.5,1676.7,1937.8,1675.1,1937.5
				L1675.1,1937.5z M1785.8,1818.8c-0.6,0.1-1.1,0.3-1.7,0.5c-2.3,0.9-4.1,2.5-5.3,4.5L1707,1789l47.1-219.2
				c0.5,0.1,1.1,0.1,1.6,0.1L1785.8,1818.8L1785.8,1818.8z M1638.5,1435.2c-0.8,2.3-0.7,4.9,0.2,7.3c0.5,1.2,1.1,2.2,1.9,3.1
				l-21.8,22.8c-2.9-2.3-7-3.1-10.7-1.6c-1.3,0.5-2.5,1.3-3.5,2.2l-107.3-93.4c0.3-0.4,0.5-0.7,0.7-1.1L1638.5,1435.2L1638.5,1435.2
				z M1491.3,1358.9c-1.2-0.3-2.4-0.5-3.7-0.4l-44-254.3c0.4-0.1,0.8-0.2,1.1-0.4c5.4-2.1,8.2-8.2,6.3-13.7l162.8-74.2
				c1.1,1.9,2.8,3.4,4.7,4.4L1491.3,1358.9L1491.3,1358.9z M1613.9,1005c-0.7,1.1-1.1,2.3-1.4,3.5L1387,984.9l-120.5-239.2
				L1613.9,1005L1613.9,1005z M1252.7,724.1c-1.7,1.4-2.9,3.4-3.4,5.5l-126.2-21.1l29.7-114.4c1.9,0.3,3.8,0.1,5.7-0.6
				c0.5-0.2,1-0.4,1.4-0.7L1252.7,724.1L1252.7,724.1z M1158.6,573.4c-1.3-0.5-2.8-0.8-4.3-0.8l-21.6-185.1l118.9,5L1158.6,573.4
				L1158.6,573.4z M1184.3,51.2c1.7,0.8,3.5,1.1,5.4,0.9l61.7,335.4l-135-184.1c3.3-2.9,4.6-7.7,2.9-12.1c-1.8-4.5-6.1-7.1-10.7-6.9
				L1184.3,51.2L1184.3,51.2z M885,28l-63.8,163l-11.6-0.1c-0.1-1-0.3-2.1-0.7-3.1c-0.9-2.2-2.4-4-4.2-5.1L885,28L885,28z
				 M647.4,188.9c1.5,0.1,3.1-0.1,4.6-0.7c0.8-0.3,1.5-0.7,2.2-1.2l61.9,73.9l-85.8,73.2c-1.4-1.5-3.2-2.5-5.1-3L647.4,188.9
				L647.4,188.9z M612.5,345.8c1.5,3.5,4.6,5.9,8.1,6.5l-130.3,25.5L612.5,345.8L612.5,345.8z M226.7,346.2c2.3,2.9,6,4.4,9.7,4
				l48.7,227.1L21.4,490.7c0.5-2,0.4-4.3-0.5-6.4c-0.2-0.4-0.4-0.8-0.5-1.2L226.7,346.2L226.7,346.2z M20,494
				c0.3-0.5,0.5-0.9,0.8-1.4l264.8,87l27.9,130.3c-0.2,0.1-0.4,0.1-0.6,0.2c-1.8,0.7-3.3,1.8-4.4,3.2L20,494z M325,713
				c-2.4-2.7-6-4.1-9.6-3.6l-27.6-129.1l134.6,44.2c-0.4,2-0.3,4.1,0.5,6.2c0.3,0.7,0.6,1.3,1,1.9L325,713L325,713z M441.7,633
				c1.4-1.9,2.1-4.3,2-6.7l239.7-32.4v224.6c-1,0.1-2,0.3-3,0.7c-1.5,0.6-2.8,1.5-3.8,2.5L441.7,633L441.7,633z M958.2,1059.7
				c4.2-1.7,6.8-5.7,6.9-10l19.1-1.7l-86.6,147.8l53.6-135.8C953.5,1060.6,955.9,1060.6,958.2,1059.7L958.2,1059.7z M901.9,1211.7
				c0.4-1,0.7-2,0.8-3.1l212.3,1.2l-6.6,102c-1.2,0-2.5,0.3-3.7,0.7c-2.2,0.8-3.9,2.3-5.1,4.2L901.9,1211.7L901.9,1211.7z
				 M1118.8,1326.4c0.9-2.4,0.9-5.1-0.1-7.7c-0.2-0.5-0.4-0.9-0.7-1.3l146-100.7c1.6,1.9,3.7,3.2,6.1,3.7l-18,160.2
				c-1.5-0.1-3,0.1-4.5,0.7c-2.3,0.9-4.1,2.5-5.3,4.5L1118.8,1326.4L1118.8,1326.4z M1258.8,1399.4c1.2-1.1,2.2-2.5,2.8-4
				l203.9,48.1l-45.3,153.2c-1.9-0.3-3.9-0.2-5.9,0.6c-0.7,0.3-1.4,0.6-2,1.1L1258.8,1399.4L1258.8,1399.4z M1416.9,1618.1
				c1.7,0.2,3.6,0,5.3-0.7c1.8-0.7,3.3-1.8,4.4-3.2l57.7,37.9l-98.6,136.5c-0.9-0.6-1.9-1.1-2.9-1.5L1416.9,1618.1L1416.9,1618.1z
				 M1511.8,1983.5c-0.1-0.6-0.3-1.2-0.5-1.8c-0.5-1.4-1.3-2.6-2.3-3.6l61.6-80.1l92,47c-0.4,1.5-0.6,3.1-0.3,4.7L1511.8,1983.5
				L1511.8,1983.5z"/>
		</g>
	</g>
</g>
</svg>
