<svg height="512" width="512" xmlns="http://www.w3.org/2000/svg"><path d="m0 0c10.12308037 7.91910642 16.7131606 18.51439145 19.6015625 31.03515625 1.62536223 16.56278465-1.25901212 29.38898368-11 43-2.90677647 3.37869714-6.02441424 6.49566473-9.21484375 9.60546875-.85574112.85008133-1.71148224 1.70016266-2.59315491 2.57600403-2.70048421 2.67832671-5.41462083 5.34230257-8.12950134 8.00602722-1.84793152 1.82784002-3.69494562 3.65660804-5.54101562 5.48632813-4.49662258 4.45282923-9.00450073 8.89400337-13.52148438 13.32617187.87822418.01231155 1.75644836.02462311 2.6612854.03730774 2.42128604.03394326 4.84256064.06870974 7.26382446.10420227 1.92110675.02561 3.84229439.04786883 5.76354981.05706787 8.62315753.04304571 14.98310014 1.15977338 22.31134033 5.80142212l2.75 1.6875c5.74942949 5.90913587 9.36856529 12.79756094 9.38701439 21.04170322.00507454 1.20157763.01014908 2.40315527.0153774 3.64114434.00060169 1.3402196.00110077 2.68043924.00150836 4.02065891.00401444 1.41851959.00845263 2.83703803.01327955 4.25555509.01197362 3.90745796.01761579 7.81490357.02218116 11.72237629.00595318 4.21082007.01756381 8.42162534.02829051 12.63243544.02453168 10.17463169.03915288 20.34926828.05206006 30.52392045.00371157 2.87363668.00768484 5.74727287.01175267 8.62090906.02523765 17.84309924.04729183 35.68619923.05972815 53.52931237.00292972 4.13379641.00589138 8.26759278.00890541 12.40138913.00074605 1.02744248.0014921 2.05488497.00226076 3.11346208.01265157 16.64117827.04587139 33.28224964.08754107 49.92337795.04242721 17.08367145.06598876 34.16728819.07121332 51.25101219.00341337 9.59242139.01515974 19.18467578.04810274 28.77704531.02801255 8.17015297.03899458 16.3401047.02780453 24.51030196-.0051837 4.16739391-.00231894 8.33436649.02246555 12.50169908.02252456 3.81929642.02172841 7.63786965.00279612 11.457179-.00411445 2.02752386.01632205 4.05505232.03778689 6.08246673-.06912918 7.97639546-1.37162165 13.5490299-5.65006864 20.3065514-.556875.9075-1.11375 1.815-1.6875 2.75-6.66815754 6.48793706-13.8022692 9.40183963-22.96263981 9.38701439-.79062445.00265183-1.5812489.00530365-2.39583167.00803584-2.67154203.00771063-5.34303823.00825284-8.01459065.00884992-1.92586972.00401346-3.85173859.00845149-5.77760643.01327955-5.30985175.01198437-10.6196944.01761827-15.92955703.02218116-5.72003445.00594906-11.44005798.01756067-17.16008508.02829051-13.82316416.02454032-27.64633193.03915372-41.46951118.05206006-3.90302955.00371081-7.80605874.00768413-11.70908794.01175267-24.22690715.02523582-48.45381386.04730944-72.68073106.05972815-5.61367768.00292133-11.22735534.00588885-16.84103298.00890541-.69743013.00037091-1.39486026.00074181-2.11342464.00112396-22.60893802.0121537-45.21779816.04309442-67.82669961.08479756-23.901805.04400754-47.80355838.06970798-71.70540496.07509363-13.02972041.00341597-26.05931797.01519316-39.08900028.04810274-11.09613342.02797963-22.19211883.03900895-33.28828479.02780453-5.66199802-.00519196-11.32368597-.00226454-16.98563909.02246555-5.18484653.02245723-10.36915961.02177969-15.55401527.00279612-1.87424197-.00280492-3.74851984.00282582-5.62270398.01781294-17.847541.1339765-17.847541.1339765-26.18665355-5.63009469-.9075-.556875-1.815-1.11375-2.75-1.6875-5.74942949-5.90913587-9.36856529-12.79756094-9.38701439-21.04170322-.00507454-1.20157763-.01014908-2.40315527-.0153774-3.64114434-.00060169-1.3402196-.00110077-2.68043924-.00150836-4.02065891-.00401444-1.41851959-.00845263-2.83703803-.01327955-4.25555509-.01197362-3.90745796-.01761579-7.81490357-.02218116-11.72237629-.00595318-4.21082007-.01756381-8.42162534-.02829051-12.63243544-.02453168-10.17463169-.03915288-20.34926828-.05206006-30.52392045-.00371157-2.87363668-.00768484-5.74727287-.01175267-8.62090906-.02523765-17.84309924-.04729183-35.68619923-.05972815-53.52931237-.00292972-4.13379641-.00589138-8.26759278-.00890541-12.40138913-.00074605-1.02744248-.0014921-2.05488497-.00226076-3.11346208-.01265157-16.64117827-.04587139-33.28224964-.08754107-49.92337795-.04242721-17.08367145-.06598876-34.16728819-.07121332-51.25101219-.00341337-9.59242139-.01515974-19.18467578-.04810274-28.77704531-.02801255-8.17015297-.03899458-16.3401047-.02780453-24.51030196.0051837-4.16739391.00231894-8.33436649-.02246555-12.50169908-.02252456-3.81929642-.02172841-7.63786965-.00279612-11.457179.00411445-2.02752386-.01632205-4.05505232-.03778689-6.08246673.06912918-7.97639546 1.37162165-13.5490299 5.65006864-20.3065514.8353125-1.36125.8353125-1.36125 1.6875-2.75 4.35474253-4.23704678 11.15442992-9.24439904 17.45533204-9.25288641.83786852.05751202 1.67573703.11502404 2.53899551.17427885 1.45292478.09444232 1.45292478.09444232 2.93520158.19079256 1.06725502.07475477 2.13451004.14950954 3.23410612.2265296 2.35764827.1530422 4.71533862.30543694 7.07306385.45728874 1.2678687.0832395 2.5357374.16647899 3.84202636.2522409 39.79407303 2.57562235 79.62022517 4.10757217 119.48377454 5.07675576.85624134.02132669 1.71248267.04265338 2.59467071.06462634 110.9303771 6.16436181 110.9303771 6.16436181 206.47188562-41.16517401 6.85228294-6.69730267 13.01568489-13.92315665 18.99594367-21.39945233.52702578-.65594934 1.05405155-1.31189867 1.59704781-1.98772526 11.59238636-14.49980988 22.28405698-29.54183975 30.96786689-45.98313999 5.38476761-9.74508137 13.97764726-15.05800608 24.55617905-18.2439785 15.84568516-2.93310054 30.52861858-.8141339 43.96484375 8.3046875zm-57.3984375 26.03515625c1.43258772 3.27196452 3.18825316 5.43203956 5.71533203 7.94238281.76063751.76048645 1.52127503 1.5209729 2.30496216 2.3045044.82088104.81055847 1.64176208 1.62111694 2.48751831 2.45623779.84061981.83778992 1.68123962 1.67557983 2.54733276 2.53875732 2.68529475 2.67410199 5.37746129 5.34116492 8.06985474 8.00811768 1.82207155 1.81204062 3.64369177 3.62453518 5.46484375 5.4375 4.46482877 4.44278036 8.93531908 8.87980165 13.41015625 13.3125 7.05321995-3.32731977 12.56322234-10.1797956 15.3671875-17.4296875 2.32217168-9.43203067 1.17866772-17.60890332-3.6015625-26.0078125-2.51276733-3.64684816-5.01187095-6.22028157-8.765625-8.5625-.64453125-.40992188-1.2890625-.81984375-1.953125-1.2421875-15.28101439-8.20647069-30.65639797-.79854176-41.046875 11.2421875zm-19.89800984 19.76892853c-.55738371.56029655-1.11476742 1.12059311-1.68904155 1.69786834-.58888597.58803154-1.17777193 1.17606308-1.78450293 1.78191376-1.98929669 1.98763853-3.97497849 3.97885056-5.96072107 5.97003937-1.41863401 1.41891583-2.83748776 2.83761199-4.25654602 4.25610352-3.86569684 3.86540868-7.7282921 7.73390359-11.59036183 11.60293579-4.03146597 4.03769649-8.06574407 8.07258116-12.09973217 12.10775756-7.64473529 7.64784951-15.28691684 15.29824564-22.92819732 22.94954682-8.69680569 8.70796406-17.39643447 17.41310536-26.09630841 26.11800384-17.90201565 17.91248207-35.80046077 35.82852836-53.69657886 53.74690247 1.56555182 3.13110363 4.30840492 3.67665675 7.4375 5.125 16.47902151 7.98500445 26.13477624 20.51490103 33.5625 36.875 4.5534595-3.81202546 8.89419447-7.75033209 13.08079529-11.96054077.8542668-.85298516.8542668-.85298516 1.72579151-1.72320235 1.88773123-1.88609788 3.77189081-3.7757219 5.65605968-5.66537797 1.3604062-1.36068856 2.72103321-2.72115639 4.08186341-4.0814209 3.6793962-3.67911014 7.35570825-7.36128803 11.03146243-11.04403639 3.8472344-3.85349976 7.69731443-7.70415429 11.54708981-11.55511522 7.28329785-7.28640179 14.56404352-14.5753482 21.84386927-21.86521876 8.29064879-8.30183905 16.58414856-16.60082748 24.87788564-24.89958108 17.05489543-17.06533859 34.10621845-34.13424289 51.15518296-51.20550656-3.19284463-3.77432302-6.38244986-7.50725068-9.87817383-11.00756836-.69704544-.7001976-1.39409088-1.4003952-2.11225891-2.12181091-.73147751-.72945328-1.46295502-1.45890656-2.21659851-2.21046448-1.14900032-1.15043541-1.14900032-1.15043541-2.32121277-2.32411194-1.60646334-1.60713978-3.21417393-3.21303372-4.82307434-4.81773376-2.47455787-2.46915759-4.94367807-4.9436638-7.41235352-7.41870118-1.56413218-1.56347217-3.12857412-3.12663455-4.69335937-4.68945312-.74159866-.74362289-1.48319733-1.48724579-2.24726868-2.25340271-.68128463-.67813248-1.36256927-1.35626495-2.0644989-2.0549469-.9021801-.90098671-.9021801-.90098671-1.82258606-1.82017517-2.89604383-2.63497167-3.97614798.16603394-6.30662495 2.48729706zm-392.10199016 91.23107147c-4.11929492 6.15023777-3.41923155 13.10616423-3.38095093 20.28479004-.00345919 1.35811568-.00822551 2.71622855-.01418173 4.07433557-.01250386 3.72186486-.0063425 7.44349843.00295865 11.16536403.0067927 4.01778745-.00369182 8.03553535-.01193976 12.05331493-.01333718 7.86682889-.01045966 15.73357189-.00176208 23.60040414.0067762 6.39375469.00769355 12.78748533.00442855 19.18124258-.0004597.91012436-.00091939 1.82024872-.00139302 2.7579526-.00095918 1.84892216-.00193182 3.6978443-.00291778 5.54676643-.00855385 17.33579909.00128016 34.67155058.0174011 52.00734187.01340318 14.87367993.01107508 29.74728962-.00275628 44.62096828-.0160559 17.27392848-.02237469 34.54781526-.01316321 51.82175016.00095564 1.84210602.00189876 3.68421205.00282919 5.52631808.00046283.90634238.00092566 1.81268475.00140251 2.74649205.00258986 6.38579254-.00178102 12.77155862-.00884117 19.15734706-.00841529 7.78255246-.00613423 15.56501416.00984224 23.34755623.00788231 3.9704891.01097501 7.94082688.00105254 11.91131485-.00894828 3.63565712-.00401205 7.27102284.01193266 10.90665358.00493126 1.93606641-.00484757 3.8721531-.0151717 5.80819827-.0199749 8.71157725-.0199749 8.71157725 3.40123022 16.48188925 5.0299872 2.66316392 9.20590229 3.43427684 14.90083313 3.37752342 1.15368696.00654049 1.15368696.00654049 2.33068073.0132131 2.57445778.01093895 5.14837806.00054072 7.72283184-.00978559 1.86546509.0034571 3.73092814.00822201 5.59638691.01418173 5.1242372.01253244 10.24830694.00632936 15.37254477-.00295865 5.52699977-.00678094 11.05397053.00368599 16.58096456.01193976 10.82662791.01334972 21.65319347.01045406 32.47982383.00176208 8.79792933-.00677126 17.59584118-.00769568 26.39377236-.00442855 1.2514938.0004597 2.50298759.00091939 3.79240543.00139302 2.54227315.00095917 5.08454629.00193181 7.62681943.00291778 23.16682446.0083135 46.33361632-.00031238 69.50043328-.01602779 21.14792311-.01423679 42.29579203-.01296291 63.44371467.00138297 23.76066185.01606438 47.52129745.02237833 71.28196621.01316321 2.5329949-.00095566 5.0659898-.00189877 7.59898472-.00282919 1.24632794-.00046283 2.49265588-.00092566 3.77675133-.00140251 8.78879943-.00259181 17.57757965.00178522 26.36637611.00884117 10.70853754.00840807 21.41700909.0061494 32.12553906-.00984224 5.4651219-.00789199 10.93013373-.01095843 16.39525485-.00105254 5.00124048.00892807 10.00226868.00404512 15.00348985-.01193266 1.81080295-.00335579 3.62162376-.00163584 5.43241525.00562737 2.45931531.00910907 4.9179014-.00022033 7.37717855-.01416247 1.05716117.01053525 1.05716117.01053525 2.13567913.02128333 5.01680277-.05693046 8.39718127-1.08615129 12.765154-3.39880675 4.11929492-6.15023777 3.41923155-13.10616423 3.38095093-20.28479004.00345919-1.35811568.00822551-2.71622855.01418173-4.07433557.01250386-3.72186486.0063425-7.44349843-.00295865-11.16536403-.0067927-4.01778745.00369182-8.03553535.01193976-12.05331493.01333718-7.86682889.01045966-15.73357189.00176208-23.60040414-.0067762-6.39375469-.00769355-12.78748533-.00442855-19.18124258.0004597-.91012436.00091939-1.82024872.00139302-2.7579526.00095918-1.84892216.00193182-3.6978443.00291778-5.54676643.00855385-17.33579909-.00128016-34.67155058-.0174011-52.00734187-.01340318-14.87367993-.01107508-29.74728962.00275628-44.62096828.0160559-17.27392848.02237469-34.54781526.01316321-51.82175016-.00095564-1.84210602-.00189876-3.68421205-.00282919-5.52631808-.00069424-1.35951356-.00069424-1.35951356-.00140251-2.74649205-.00258986-6.38579254.00178102-12.77155862.00884117-19.15734706.00841529-7.78255246.00613423-15.56501416-.00984224-23.34755623-.00788231-3.9704891-.01097501-7.94082688-.00105254-11.91131485.00894828-3.63565712.00401205-7.27102284-.01193266-10.90665358-.00493126-1.93606641.00484757-3.8721531.0151717-5.80819827-.04205843-6.21291489-.16563432-11.08433994-3.40123022-16.48188925-5.17599942-3.12232786-10.24477725-3.63570655-16.203125-3.9609375-1.30842361-.07162605-1.30842361-.07162605-2.64328003-.1446991-2.80136933-.12570067-5.60011166-.20746582-8.40359497-.2693634-1.4194693-.03418533-1.4194693-.03418533-2.86761475-.06906128-11.37105835-.14346696-19.97745417.17309584-28.61578369 8.19747925-6.00933098 5.93680458-6.00933098 5.93680458-9.26660156 13.24658203.8544445.0154612.8544445.0154612 1.72615051.03123474 5.92090857.10805803 11.84166474.22265671 17.76237488.34107971 2.21057959.04335107 4.4211927.08502601 6.63183594.125 3.17482616.05769821 6.34948353.12139417 9.52416992.1862793.99070999.01671249 1.98141998.03342499 3.00215149.05064392.920728.01994522 1.84145599.03989044 2.79008484.06044006.81052322.01554429 1.62104645.03108857 2.45613098.04710389 2.10710144.15821838 2.10710144.15821838 5.10710144 1.15821838.98902706 2.96708117 1.12528069 4.88904588 1.12584114 7.98350525.00391162 1.55281221.00391162 1.55281221.00790227 3.13699436-.00334609 1.71140372-.00334609 1.71140372-.00675977 3.45738125.00155999 1.20917808.00311998 2.41835615.00472725 3.66417599.00330624 3.36231559.00210577 6.72457558-.00098622 10.08688783-.00225671 3.62376236.00122687 7.24751976.00397992 10.87128115.00445376 7.10132722.00348297 14.20264389.00058736 21.30397153-.00225557 5.76983182-.00256589 11.53966069-.00147618 17.30949283.00015323.82023428.00030646 1.64046857.00046434 2.48555845.00031971 1.6661302.00064393 3.33226041.00097259 4.99839061.00285364 15.63456667-.00043042 31.26912749-.00580037 46.9036932-.00446793 13.42410305-.00369197 26.84819746.00091876 40.27230036.00534781 15.57745411.00746057 31.15490308.00438774 46.73235798-.00031856 1.66010634-.00063293 3.32021268-.00094306 4.98031902-.00015428.81686954-.00030856 1.63373908-.00046751 2.47536225-.00086453 5.76494805.00059637 11.52989284.00294706 17.29484039.00280048 7.02259789.00205447 14.0451846-.00328075 21.06778121-.00263364 3.5851205-.00364773 7.17022234-.00035084 10.75534272.00351493 3.88083822-.00067332 7.76164566-.00568009 11.64248276.00223072 1.14093581.00446145 2.28187162.00675977 3.45738125-.00260775 1.03520814-.0052155 2.07041628-.00790227 3.13699436-.00016235.89641236-.0003247 1.79282473-.00049198 2.7164011-.12534916 2.26710415-.12534916 2.26710415-1.12534916 5.26710415-3.15015951 1.05005317-5.347996 1.12531837-8.65505219 1.12584114-1.18499414.00260775-2.36998829.0052155-3.59089136.00790227-1.96236988-.00334609-1.96236988-.00334609-3.9643836-.00675977-1.39875882.00115157-2.79751735.00273933-4.19627523.00472725-3.85257181.00418841-7.70511895.00210481-11.55769086-.00098622-4.1513744-.00225585-8.30274447.00122644-12.45411801.00397992-8.13605592.00445469-16.27210262.00348256-24.4081589.00058736-6.61031622-.00225521-13.22062984-.00256604-19.83094633-.00147618-.93957482.00015323-1.87914964.00030646-2.84719643.00046434-1.90852121.00031971-3.81704241.00064393-5.72556362.00097259-17.91077669.00285391-35.82154827-.00043084-53.73232412-.00580037-15.37981927-.00446796-30.759631-.003692-46.13945013.00091876-17.84517558.00534733-35.69034667.00746084-53.53552294.00438774-1.9016366-.00031856-3.8032732-.00063293-5.7049098-.00094306-.93572628-.00015428-1.87145256-.00030856-2.83553419-.00046751-6.60502444-.00086467-13.21004605.00059667-19.81507006.00294706-8.04550593.00279995-16.0910021.00205559-24.13650691-.00328075-4.10763847-.00263436-8.21526063-.00364652-12.32289899-.00035084-3.75640721.00296837-7.51278294.00136104-11.26918727-.00397756-2.01079186-.00165544-4.02158589.00162859-6.03237551.00505724-1.18499415-.00260775-2.3699883-.0052155-3.59089136-.00790227-1.02703616-.00016235-2.05407232-.0003247-3.11223078-.00049198-2.54282141-.12534916-2.54282141-.12534916-5.54282141-1.12534916-.98902706-2.96708117-1.12528069-4.88904588-1.12584114-7.98350525-.00260775-1.03520814-.0052155-2.07041628-.00790227-3.13699436.00223073-1.14093581.00446145-2.28187162.00675977-3.45738125-.00233999-1.81376711-.00233999-1.81376711-.00472725-3.66417599-.00330624-3.36231559-.00210577-6.72457558.00098622-10.08688783.00225671-3.62376236-.00122687-7.24751976-.00397992-10.87128115-.00445376-7.10132722-.00348297-14.20264389-.00058736-21.30397153.00225557-5.76983182.00256589-11.53966069.00147618-17.30949283-.00015323-.82023428-.00030646-1.64046857-.00046434-2.48555845-.00031971-1.6661302-.00064393-3.33226041-.00097259-4.99839061-.00285364-15.63456667.00043042-31.26912749.00580037-46.9036932.00446793-13.42410305.00369197-26.84819746-.00091876-40.27230036-.00534781-15.57745411-.00746057-31.15490308-.00438774-46.73235798.00031856-1.66010634.00063293-3.32021268.00094306-4.98031902.00023142-1.22530431.00023142-1.22530431.00046751-2.47536225.00086453-5.76494805-.00059637-11.52989284-.00294706-17.29484039-.00280048-7.02259789-.00205447-14.0451846.00328075-21.06778121.00263364-3.5851205.00364773-7.17022234.00035084-10.75534272-.00351493-3.88083822.00067332-7.76164566.00568009-11.64248276-.00334609-1.71140372-.00334609-1.71140372-.00675977-3.45738125.00260775-1.03520814.0052155-2.07041628.00790227-3.13699436.00016235-.89641236.0003247-1.79282473.00049198-2.7164011.12534916-2.26710415.12534916-2.26710415 1.12534916-5.26710415 3.25305459-1.08435153 5.50781358-1.08814112 8.92749023-1.03036499 1.23878907.01766922 2.47757813.03533844 3.75390625.05354309.66885224.01186277 1.33770447.02372555 2.02682496.0359478 3.67123984.06478678 7.34273127.11198312 11.01419067.16246223.78369398.01128127 1.56738796.02256253 2.37483025.03418565 10.0623898.14162177 20.12545176.19099029 30.1886444.24190617 9.78758925.04976769 19.57247971.12906514 29.35864449.30798411 7.77873271.14205477 15.55478071.21538308 23.33485508.21037996 4.11069051-.0002179 8.21484728.03198299 12.32404995.14745772 20.98192136.84551481 20.98192136.84551481 38.8313446-9.0546093 6.30597007-5.85279836 6.30597007-5.85279836 9.86521912-13.10889244-33.89505735-.06866713-67.7900974-.12152929-101.68520886-.15319599-4.00165901-.00375212-8.00331788-.00763508-12.00497669-.01159893-.79665797-.00078693-1.59331594-.00157386-2.41411506-.00238464-12.89924589-.01305379-25.79845166-.03670749-38.69767375-.06427883-13.23586655-.02805493-26.47171209-.04471806-39.70760715-.05080709-8.1672114-.00411626-16.33430943-.01711701-24.50148593-.04148392-6.26268605-.017733-12.52528566-.01961599-18.78799338-.01557364-2.56909572-.00082623-5.13819569-.00680552-7.70726586-.01829338-3.50533823-.01490739-7.01018986-.01134312-10.51553916-.00314713-1.01849331-.00873852-2.03698661-.01747705-3.08634335-.02648038-5.68795715.03599031-10.03013264.28537582-14.89179081 3.38724393zm120 37v266h309c0-87.78 0-175.56 0-266-46.99503721-4.361409-46.99503721-4.361409-64.88085938 7.5012207-2.32407521 2.49183654-4.65162815 4.99027854-6.7693634 7.65969277-2.31421401 2.91698945-4.77553532 5.62213281-7.31401062 8.34547996-4.45026077 4.82977301-8.73431035 9.77746663-12.97808838 14.78889466-7.557621 8.9154859-15.27826322 17.6746745-23.21392822 26.25549316-1.28211333 1.39368018-1.28211333 1.39368018-2.59012794 2.81551552-18.60930054 19.85842359-39.64839266 27.80085177-65.41919518 34.93428612-8.18986066 2.30818431-16.07495628 5.3949235-23.97757435 8.52921009-3.43780533 1.35922112-6.89219552 2.67417177-10.34513378 3.99442577-1.09868408.42369873-2.19736816.84739746-3.3293457 1.28393555-4.26817931 1.19613801-8.24064848 1.52159421-12.49487305.1418457-2.18459737-1.61822027-2.84462242-2.65112747-3.6875-5.25-.25798435-5.00983378.34804538-8.9349185 1.90844727-13.68774414.2033345-.62892654.406669-1.25785309.61616516-1.90583801.67094906-2.06714801 1.35628254-4.12921433 2.04179382-6.1915741.47739732-1.46156768.95385553-2.92344241 1.4294281-4.38560486 1.25582608-3.8529179 2.52377168-7.70173756 3.79450989-11.54975891 1.51373751-4.59122773 3.01338511-9.18707228 4.51454067-13.78242588 1.21457812-3.71642857 2.43303798-7.43147694 3.66095066-11.14352322 2.10319238-6.36786805 4.17442011-12.73368509 6.06712341-19.16822815.30127305-1.0086058.60254609-2.0172116.91294861-3.05638122.53072529-1.79434491 1.04524889-3.5936236 1.53775025-5.39883423 2.6182319-8.79106925 8.66058169-14.00836238 15.51634216-19.73008728 0-.33 0-.66 0-1-37.62 0-75.24 0-114 0zm117 31c-6.60019078 19.58907992-13.15751443 39.16846449-19 59 10.28436787-2.97087305 20.30166949-6.59801201 30.3527832-10.26977539 2.15347645-.78345462 4.30945265-1.56006949 6.46777344-2.33007813 3.12939192-1.11681165 6.25064665-2.25404688 9.37084961-3.39624023.96966202-.34179794 1.93932404-.68359589 2.93836975-1.03575134.88860214-.33036759 1.77720429-.66073517 2.69273377-1.00111389.78480239-.28407212 1.56960479-.56814423 2.37818908-.86082459 1.96987538-.96507764 1.96987538-.96507764 2.59140015-3.07852173.79142162-7.71887305-5.14151636-15.74380558-9.59288025-21.5198822-7.50392893-8.5568781-16.95264256-14.02328417-28.19921875-15.5078125z" transform="translate(492.398438 8.964844)"/><path d="m0 0c9.37726703 7.18844067 18.13564782 10.55938822 30 9.4375 6.33799738-1.61803372 11.72751772-4.10840594 17-8 3.73669172-2.75335179 6.50408226-3.52714544 11.06640625-3.36328125 3.07432058.57759962 4.79961544 2.16463693 6.93359375 4.36328125 1.74315858 3.48631716 1.56998681 7.19566946 1 11-2 2.6875-2 2.6875-5 5-.55816406.48082031-1.11632812.96164062-1.69140625 1.45703125-11.22053229 9.25283978-25.98993494 12.73935536-40.30859375 11.54296875-13.62157878-1.87178738-23.75250822-7.02420536-34.35131836-15.44726562-7.63419673-6.00527688-14.83621835-8.8728573-24.64868164-8.55273438-9.97143248 1.45960876-17.99542685 7.54177146-25.6875 13.6875-10.73257338 8.46112928-23.71392819 11.57259932-37.3125 10.3125-12.8319639-1.84854222-21.9879547-7.22387349-31.93115234-15.24291992-5.02312692-3.9505811-10.35375907-6.5856135-16.17041016-9.18676758-2.95563053-1.60129848-4.29178962-2.65166152-5.8984375-5.5703125-.53198011-4.787821-.72509014-6.86402545 1.875-10.9375 3.31851128-3.22090801 5.80948742-3.46919552 10.4296875-3.40234375 9.38590947 1.18344076 16.63110853 6.47380865 23.6953125 12.33984375 9.06142567 6.99024266 17.28267907 11.47354187 29 10 8.44567747-1.61307194 14.3420591-6.339883 20.94677734-11.49072266 22.80761671-17.56634966 48.88491195-15.04244046 71.05322266 2.05322266z" transform="translate(366 337.5625)"/><path d="m0 0c1.46021611.88003008 2.90215377 1.79208167 4.3125 2.75l2.75 1.6875c7.122739 7.32059286 9.56546377 15.09589098 9.64160156 25.04418945-.11787255 6.3787738-1.79272021 10.96966599-5.39160156 16.26831055-.556875.9075-1.11375 1.815-1.6875 2.75-7.32059286 7.122739-15.09589098 9.56546377-25.04418945 9.64160156-6.3787738-.11787255-10.96966599-1.79272021-16.26831055-5.39160156-.9075-.556875-1.815-1.11375-2.75-1.6875-7.122739-7.32059286-9.56546377-15.09589098-9.64160156-25.04418945.11787255-6.3787738 1.79272021-10.96966599 5.39160156-16.26831055.556875-.9075 1.11375-1.815 1.6875-2.75 9.58907116-9.32990707 24.65300223-13.08024362 37-7zm-22.6875 23.75c-.69847125 2.8396864-.69847125 5.1603136 0 8 1.98921886 2.9838283 3.38502568 4.60276841 6.9375 5.4765625 3.92313492.28234683 5.73362371-.25731164 9.0625-2.4765625 2.21925086-3.32887629 2.75890933-5.13936508 2.4765625-9.0625-.87379409-3.55247432-2.4927342-4.94828114-5.4765625-6.9375-5.81663203-1.43070385-9.60814906-.08777641-13 5z" transform="translate(86.6875 288.25)"/><path d="m0 0c1.63630371-.00717545 1.63630371-.00717545 3.30566406-.01449585 2.30307459-.00339778 4.60619749.00579592 6.90917969.02670288 3.52323042.02676487 7.04327481.00024546 10.56640625-.03173828 2.23959036.00330412 4.47917874.00971038 6.71875.01953125 1.5782959-.01518173 1.5782959-.01518173 3.18847656-.03067017 7.29546867.11679019 7.29546867.11679019 11.22314453 3.07998658 1.9901876 2.83066522 2.51687517 4.19098572 2.46337891 7.61474609.01289062.825.02578125 1.65.0390625 2.5-1.0139197 3.81710945-2.5013161 5.11389712-5.6640625 7.5-3.74670277.75143192-7.43886596.70072205-11.25.6640625-1.09086914.00478363-2.18173828.00956726-3.30566406.01449585-2.30307459.00339778-4.60619749-.00579592-6.90917969-.02670288-3.52323042-.02676487-7.04327481-.00024546-10.56640625.03173828-2.23959036-.00330412-4.47917874-.00971038-6.71875-.01953125-1.05219727.01012115-2.10439453.02024231-3.18847656.03067017-7.29546867-.11679019-7.29546867-.11679019-11.22314453-3.07998658-1.9901876-2.83066522-2.51687517-4.19098572-2.46337891-7.61474609-.01289062-.825-.02578125-1.65-.0390625-2.5 2.30079433-8.66181396 9.47687104-8.23560133 16.9140625-8.1640625z" transform="translate(59.25 425.335938)"/><path d="m0 0c1.63630371-.00717545 1.63630371-.00717545 3.30566406-.01449585 2.30307459-.00339778 4.60619749.00579592 6.90917969.02670288 3.52323042.02676487 7.04327481.00024546 10.56640625-.03173828 2.23959036.00330412 4.47917874.00971038 6.71875.01953125 1.5782959-.01518173 1.5782959-.01518173 3.18847656-.03067017 7.29546867.11679019 7.29546867.11679019 11.22314453 3.07998658 1.9901876 2.83066522 2.51687517 4.19098572 2.46337891 7.61474609.01289062.825.02578125 1.65.0390625 2.5-1.0139197 3.81710945-2.5013161 5.11389712-5.6640625 7.5-3.74670277.75143192-7.43886596.70072205-11.25.6640625-1.09086914.00478363-2.18173828.00956726-3.30566406.01449585-2.30307459.00339778-4.60619749-.00579592-6.90917969-.02670288-3.52323042-.02676487-7.04327481-.00024546-10.56640625.03173828-2.23959036-.00330412-4.47917874-.00971038-6.71875-.01953125-1.05219727.01012115-2.10439453.02024231-3.18847656.03067017-7.29546867-.11679019-7.29546867-.11679019-11.22314453-3.07998658-1.9901876-2.83066522-2.51687517-4.19098572-2.46337891-7.61474609-.01289062-.825-.02578125-1.65-.0390625-2.5 2.30079433-8.66181396 9.47687104-8.23560133 16.9140625-8.1640625z" transform="translate(59.25 385.335938)"/><path d="m0 0c1.63630371-.00717545 1.63630371-.00717545 3.30566406-.01449585 2.30307459-.00339778 4.60619749.00579592 6.90917969.02670288 3.52323042.02676487 7.04327481.00024546 10.56640625-.03173828 2.23959036.00330412 4.47917874.00971038 6.71875.01953125 1.5782959-.01518173 1.5782959-.01518173 3.18847656-.03067017 7.29546867.11679019 7.29546867.11679019 11.22314453 3.07998658 1.9901876 2.83066522 2.51687517 4.19098572 2.46337891 7.61474609.01289062.825.02578125 1.65.0390625 2.5-1.0139197 3.81710945-2.5013161 5.11389712-5.6640625 7.5-3.74670277.75143192-7.43886596.70072205-11.25.6640625-1.09086914.00478363-2.18173828.00956726-3.30566406.01449585-2.30307459.00339778-4.60619749-.00579592-6.90917969-.02670288-3.52323042-.02676487-7.04327481-.00024546-10.56640625.03173828-2.23959036-.00330412-4.47917874-.00971038-6.71875-.01953125-1.05219727.01012115-2.10439453.02024231-3.18847656.03067017-7.29546867-.11679019-7.29546867-.11679019-11.22314453-3.07998658-1.9901876-2.83066522-2.51687517-4.19098572-2.46337891-7.61474609-.01289062-.825-.02578125-1.65-.0390625-2.5 2.30079433-8.66181396 9.47687104-8.23560133 16.9140625-8.1640625z" transform="translate(59.25 222.335938)"/><path d="m0 0c1.63630371-.00717545 1.63630371-.00717545 3.30566406-.01449585 2.30307459-.00339778 4.60619749.00579592 6.90917969.02670288 3.52323042.02676487 7.04327481.00024546 10.56640625-.03173828 2.23959036.00330412 4.47917874.00971038 6.71875.01953125 1.5782959-.01518173 1.5782959-.01518173 3.18847656-.03067017 7.29546867.11679019 7.29546867.11679019 11.22314453 3.07998658 1.9901876 2.83066522 2.51687517 4.19098572 2.46337891 7.61474609.01289062.825.02578125 1.65.0390625 2.5-1.0139197 3.81710945-2.5013161 5.11389712-5.6640625 7.5-3.74670277.75143192-7.43886596.70072205-11.25.6640625-1.09086914.00478363-2.18173828.00956726-3.30566406.01449585-2.30307459.00339778-4.60619749-.00579592-6.90917969-.02670288-3.52323042-.02676487-7.04327481-.00024546-10.56640625.03173828-2.23959036-.00330412-4.47917874-.00971038-6.71875-.01953125-1.05219727.01012115-2.10439453.02024231-3.18847656.03067017-7.29546867-.11679019-7.29546867-.11679019-11.22314453-3.07998658-1.9901876-2.83066522-2.51687517-4.19098572-2.46337891-7.61474609-.01289062-.825-.02578125-1.65-.0390625-2.5 2.30079433-8.66181396 9.47687104-8.23560133 16.9140625-8.1640625z" transform="translate(59.25 182.335938)"/><path d="m0 0c2.8100346 1.79363911 4.50940468 3.01880935 6 6 .65753556 4.78122289.71680862 7.98803489-2.125 12-3.25100973 2.26157198-4.92009656 3-8.875 3-4.34986291-1.4499543-6.4325645-2.14884675-9-6-.73965025-4.59271203-.60961194-8.02462089 1.875-12 3.66311453-3.44763721 7.24401639-3.70129075 12.125-3z" transform="translate(177 316)"/></svg>