<svg enable-background="new 0 0 700 700" viewBox="0 0 700 700" xmlns="http://www.w3.org/2000/svg"><path d="m92.6 17.9h2.4 7.9 5.6 15.4 9.6 30c11.6 0 23.1 0 34.7-.1h26.8 16 15 5.5 7.5 2.2c4.6 0 7.9.8 11.8 3.4 1.9 2.7 2.3 4.9 2.3 8.2v2.5 2.8 2.9 9.6 6.7 14c0 6 0 11.9.1 17.9v13.8 6.6 9.2 2.7c0 4.3-.3 7.2-3 10.6-4 3.7-7 3.6-12.3 3.6-.7 0-1.3 0-2 0-2.2 0-4.4 0-6.7 0-1.5 0-3.1 0-4.6 0-4.1 0-8.1 0-12.2 0s-8.3 0-12.4 0c-8.1 0-16.3 0-24.4 0 .5 1.7.5 1.7 1 3.5 2.5 9 5 18.1 7.3 27.1.3 1 .5 2 .8 3 1.4 5.6 2.4 10.6 1.9 16.4-1.8 2.8-3 4.5-6 6-1.7.1-3.3.1-5 .1-1 0-2 0-3 0s-2.1 0-3.1 0c-1.6 0-1.6 0-3.2 0-2.6 0-5.1 0-7.7 0v18h183c-2-5.4-2-5.4-4-11-4.4-19.3-1.4-37.2 9-54 9.9-14.5 24-23.9 41-28 2.9-.1 2.9-.1 5 0 0-.8-.1-1.5-.1-2.3-.6-18 6-34.6 17.8-48.2 14-14.9 31.8-24.8 52.6-25.7 22.6-.6 42 6.5 58.6 22 12.2 11.8 20.9 28.9 21.5 46 0 4.1-.1 8.2-.2 12.3l3.8 1.1c19.8 6.7 34.4 21.8 44.2 39.9 10.6 21.7 11.8 45.6 4 68.3-4.4 12.1-11.1 21.4-20 30.7-.5.6-1.1 1.2-1.6 1.9-14.1 15.5-35.3 21.6-55.5 23.4-10.2.3-21.5-1.4-30.9-5.3v1.7c.1 13.8.2 27.6.2 41.4 0 6.7 0 13.4.1 20 0 6.4.1 12.9.1 19.3v7.4 10.3 3.1c0 4.4-.1 6.9-2.4 10.8-3.9 3.5-7.3 3-12.3 3-1.3 0-1.3 0-2.6 0-2.9 0-5.8 0-8.6 0-2.1 0-4.1 0-6.2 0-5.6 0-11.2 0-16.8 0-5.9 0-11.7 0-17.6 0-11.1 0-22.2 0-33.3 0-12.6 0-25.2 0-37.9 0-26 0-51.9 0-77.9-.1v56c12.5-.1 12.5-.1 25.2-.2 5.9 0 11.9-.1 17.8-.1 7.7 0 15.4-.1 23.1-.1 6.7-.1 13.5-.1 20.2-.1 2.6 0 5.1 0 7.7-.1h10.8c1.1 0 2.1 0 3.2-.1 4.5 0 7.2.2 11.1 2.4 2.8 4.8 2.5 9.3 2.5 14.8v3.6 11.6 8.1 16.9 19.6 18.8 8 11.2 3.4c-.1 7.5-.1 7.5-2.4 11.4-3.1 2.6-5.5 3-9.4 3-.9 0-1.7 0-2.6 0-1 0-1.9 0-2.9 0-1.5 0-1.5 0-3.1 0-3.4 0-6.8 0-10.3 0-2.4 0-4.9 0-7.3 0-6.7 0-13.3 0-20 0-4.2 0-8.3 0-12.5 0-11.5 0-23 0-34.5 0-.7 0-1.5 0-2.2 0-1.1 0-1.1 0-2.2 0-1.5 0-3 0-4.5 0-1.1 0-1.1 0-2.2 0-12 0-24 0-36.1 0-12.3 0-24.7 0-37 0-6.9 0-13.9 0-20.8 0-6.5 0-13 0-19.5 0-2.4 0-4.8 0-7.2 0-3.3 0-6.5 0-9.8 0-1 0-1.9 0-2.9 0-4.8 0-8.3-.1-12.1-3.4-2-3-2.3-5.4-2.3-9 0-1 0-2 0-3 0-1.1 0-2.2 0-3.3 0-1.2 0-2.3 0-3.5 0-3.8 0-7.6 0-11.4 0-2.6 0-5.3 0-7.9 0-5.6 0-11.1 0-16.7 0-6.4 0-12.8-.1-19.2 0-5.5-.1-11-.1-16.5 0-3.3 0-6.6 0-9.9 0-3.7 0-7.3 0-11 0-1.1 0-2.2 0-3.3.1-8.2.1-8.2 2.5-11.9 4.7-3.5 8.8-3.1 14.5-3h3.5c3.8 0 7.5.1 11.3.1h7.8c6.2 0 12.4.1 18.5.1 7.7.1 15.5.1 23.2.1 13.8.1 27.6.2 41.3.3 0-18.5 0-37 0-56-6.3 0-12.7.1-19.2.1-20.9.1-41.8.1-62.7.2-12.7 0-25.3.1-38 .1-11 0-22.1.1-33.1.1-5.8 0-11.7 0-17.5.1-5.5 0-11 0-16.5 0-2 0-4 0-6.1 0-2.8 0-5.5 0-8.3 0-.8 0-1.6 0-2.4 0-4.1-.1-5.9-.5-9.1-3.1-3.2-4.1-3.2-6.2-3.2-11.4 0-.7 0-1.4 0-2.1 0-2.4 0-4.8 0-7.2 0-1.7 0-3.4 0-5.1 0-4.6 0-9.3 0-13.9 0-2.9 0-5.8 0-8.7 0-9.1 0-18.1 0-27.2 0-10.5 0-20.9-.1-31.4 0-8.1 0-16.2 0-24.3 0-4.8 0-9.7 0-14.5 0-4.5 0-9.1 0-13.6 0-1.7 0-3.3 0-5 0-2.3 0-4.6 0-6.8 0-1.3 0-2.6 0-3.9.6-4.1 1.9-6.3 4.5-9.5 3.4-1.7 7.4-1.1 11.1-1.1h2.9 9.4 6.5 17.2 17.5 34.4c0-5.9 0-11.9 0-18-1.5 0-2.9.1-4.4.1-1.9 0-3.8.1-5.8.1-1 0-1.9.1-2.9.1-9.1.1-9.1.1-12.9-3.3-3.4-5.6-1.4-11.6 0-17.7.4-1.6.8-3.3 1.3-4.9.2-.9.4-1.8.7-2.7.7-2.8 1.4-5.5 2.1-8.3.5-1.9 1-3.8 1.4-5.7 1.2-4.6 2.3-9.2 3.5-13.8-.9 0-1.7 0-2.6 0-8 .1-16.1.1-24.1.1-4.1 0-8.3 0-12.4.1-4 0-8 .1-12 .1-1.5 0-3 0-4.6 0-2.1 0-4.3 0-6.4 0-1.8 0-1.8 0-3.7 0-3.6-.4-5.4-1.2-8.2-3.4-2.1-3.1-2.3-3.7-2.3-7.2 0-.9 0-1.7 0-2.6s0-1.9 0-2.8c0-1 0-2 0-3 0-3.3 0-6.5 0-9.8 0-2.3 0-4.5 0-6.8 0-4.8 0-9.5 0-14.3 0-6.1 0-12.2-.1-18.3 0-4.7 0-9.4 0-14.1 0-2.3 0-4.5 0-6.8 0-3.1 0-6.3 0-9.4 0-.9 0-1.9 0-2.8 0-4.2.2-6.5 2.4-10.1 3.4-3.2 7.4-2.8 12.3-2.8zm4.4 20.1v74h168c0-24.4 0-48.8 0-74-55.4 0-110.9 0-168 0zm362 36c-5.6 7.1-10.4 14.3-13 23-.2.7-.4 1.5-.7 2.2-1.6 6.5-1.5 12.9-1.3 19.5.2 7.4.2 7.4-2.1 10.2-3.5 2.5-7.5 2.5-11.6 2.9-14.4 1.6-24.2 7.7-33.6 18.7-7.7 10.3-10 21.7-8.8 34.4.9 4.5 2.2 8.8 4 13 .3.7.6 1.3.8 2 1.2 2.4 2.3 4.1 4.2 6 3.7 1.2 7.3 1 11.1.9h3.4c3.7 0 7.4-.1 11.1-.1h7.7c6.8 0 13.6 0 20.4-.1 10.9-.1 21.8-.1 32.6-.1 3.8 0 7.6-.1 11.4-.1h7c1.1 0 2.1 0 3.2-.1 4.7 0 7.1 0 11.1 2.8 1.9 2.8 2.5 4.1 2.5 7.4 0 .9 0 1.8.1 2.7v2.8 2.9c0 3.1.1 6.2.1 9.3 0 2.1 0 4.2.1 6.3.1 5.1.1 10.3.1 15.4 1.6.6 3.1 1.3 4.7 1.9.9.4 1.7.7 2.6 1.1 15.6 5.9 32.1 3.6 47.3-2.4 17.2-7.8 28.1-21.5 35.4-38.6 5.5-16 4.2-33.2-2.5-48.5-8.2-16.3-20.3-27.4-37.3-34.4-2.6-.8-5.2-1.6-7.9-2.2-2.9-1.2-3.7-2-5.1-4.8-.3-3.1-.1-6.2 0-9.4.3-17.5-4-31.7-15.6-45.2-9.8-10.1-23.7-16.6-37.9-16.9-16.3.2-32.2 5.1-43.5 17.5zm-284 58c-3.4 11.9-6.4 23.9-9 36h30c-.7-5.3-1.3-9.8-2.6-14.9-.3-1.2-.6-2.5-.9-3.8-.5-1.9-.5-1.9-1-3.8-.3-1.3-.7-2.6-1-3.9-.8-3.2-1.6-6.4-2.4-9.6-4.4 0-8.7 0-13.1 0zm-87 93v150h412c0-49.5 0-99 0-150-136 0-271.9 0-412 0zm94 244v37h224c0-12.2 0-24.4 0-37-73.9 0-147.8 0-224 0zm0 56v37h224c0-12.2 0-24.4 0-37-73.9 0-147.8 0-224 0z"/><path d="m400.1 242.7h3.7 4 4.1 8.6 11 8.5 6 3.7 3.3c3.4.4 5.2 1.3 7.9 3.4 1.7 2.8 2.3 4.9 2.3 8.2v2.5 2.8 2.9 9.6 6.7 14 17.9 13.8 6.6 9.2 2.8c0 4.8-.3 8-3.4 11.9-2.6 2.1-4.8 2.1-8 1.9-3.8-.6-5.7-1.7-8-4.9-1.3-3.8-1.1-7.3-1.1-11.2 0-.8 0-1.7 0-2.5 0-2.8 0-5.6 0-8.3 0-1.9 0-3.8 0-5.8 0-5.1 0-10.1 0-15.2 0-5.2 0-10.3 0-15.5 0-10.1 0-20.3 0-30.4-11.9 0-23.8 0-36 0v7.8c0 8.5.1 17 .1 25.6 0 5.2 0 10.3.1 15.5 0 5 .1 10 .1 15v5.7 8 2.4c0 4.6-.6 7.5-3.4 11.1-3.1 2.6-4.5 3-8.6 2.9-3.7-1-5.1-2-7.4-4.9-1.1-2.3-1.1-3.5-1.1-6 0-.8 0-1.7 0-2.5 0-.9 0-1.8 0-2.8s0-1.9 0-2.9c0-3.2 0-6.4 0-9.6 0-2.2 0-4.5 0-6.7 0-4.7 0-9.3 0-14 0-6 0-12-.1-18 0-4.6 0-9.2 0-13.8 0-2.2 0-4.4 0-6.6 0-3.1 0-6.2 0-9.3 0-.9 0-1.8 0-2.8 0-4.8.1-8.2 3.4-11.9 3.4-2.6 6.4-2.6 10.3-2.6z"/><path d="m232.1 242.6h3.6 3.9 4 8.5 10.8 8.3 5.9c11.2.1 11.2.1 15.9 4.5 1.1 2.3 1.1 3.5 1.2 6.1v2.6 2.8 3c0 3.3 0 6.6.1 9.8v3.4c0 5.9 0 11.8.1 17.7 0 6.1.1 12.2.1 18.3 0 4.7 0 9.4.1 14.1v6.8 9.5 2.8c0 4.5-.2 6.5-3 10.1-3.4 2.4-5.5 2.9-9.7 2.9-3.6-1.6-4.8-2.7-7-6-.2-2.8-.3-5.6-.2-8.4 0-.9 0-1.7 0-2.6 0-2.8 0-5.7 0-8.5 0-2 0-3.9 0-5.9 0-5.2 0-10.4 0-15.6 0-5.3 0-10.6 0-15.9 0-10.4.1-20.8.1-31.1-12.2 0-24.4 0-37 0v7.9c0 8.6.1 17.2.1 25.9 0 5.2 0 10.5.1 15.7 0 5 .1 10.1.1 15.1v5.8 8.1 2.4c0 4.6-.6 7.5-3.4 11.1-2.6 2.1-4.8 2.1-8 1.9-3.8-.6-5.7-1.7-8-4.9-.9-2.7-1.1-4.3-1.1-7 0-.8 0-1.6 0-2.5s0-1.8 0-2.7 0-1.9 0-2.9c0-3.1 0-6.3 0-9.4 0-2.2 0-4.4 0-6.5 0-4.6 0-9.1 0-13.7 0-5.9 0-11.7-.1-17.6 0-4.5 0-9 0-13.5 0-2.2 0-4.3 0-6.5 0-3 0-6 0-9.1 0-.9 0-1.8 0-2.7 0-4.7.2-8.1 3.4-11.8 3.8-3 6.6-3.5 11.2-3.5z"/><path d="m248.5 533.9h3.5 3.9 4.1 11.1 6.9 21.7c8.4 0 16.7 0 25.1-.1h19.4 11.6 10.9 5.9 3.6 3.1c3.5.6 5.2 2 7.8 4.5 1.8 3.6 1.4 7.5.4 11.2-2.2 2.8-4 3.5-7.4 4.8-4.3.4-8.6.4-13 .4-1.3 0-2.6 0-4 0-3.6 0-7.2 0-10.7 0-3.7 0-7.5 0-11.2 0-6.3 0-12.6 0-18.9 0-7.3 0-14.5 0-21.8 0-6.2 0-12.5 0-18.7 0-3.7 0-7.5 0-11.2 0-4.2 0-8.3 0-12.5 0-1.8 0-1.8 0-3.7 0-10.5-.1-10.5-.1-15.2-3.4-2.6-3.3-2.4-6.9-2-11 3.2-5.5 5.3-6.4 11.3-6.4z"/><path d="m248.5 477.9h3.5 3.9 4.1 11.1 6.9 21.7c8.4 0 16.7 0 25.1-.1h19.4 11.6 10.9 5.9 3.6 3.1c3.5.6 5.2 2 7.8 4.5 1.6 3.1 1.3 5.6 1 9-1.8 2.8-3.1 4.5-6 6-1.8.1-3.7.1-5.5.1-1.7 0-1.7 0-3.5 0-1.9 0-1.9 0-3.9 0-1.4 0-2.7 0-4.1 0-3.7 0-7.4 0-11.1 0-2.3 0-4.6 0-6.9 0-7.2 0-14.5 0-21.7 0-8.4 0-16.7 0-25.1.1-6.5 0-12.9 0-19.4 0-3.9 0-7.7 0-11.6 0-3.6 0-7.3 0-10.9 0-2 0-3.9 0-5.9 0-1.2 0-2.3 0-3.6 0-1 0-2 0-3.1 0-3.5-.6-5.2-2-7.8-4.5-1.6-3.1-1.3-5.6-1-9 3.4-5.2 5.5-6.1 11.5-6.1z"/><path d="m520.8 102.6c3.6.7 5.1 2.5 7.2 5.4 1.5 4.2.9 6.7-.8 10.6-.9 1.8-1.8 3.6-2.7 5.5-.5 1-1 2-1.5 3-1.1 2.2-2.2 4.3-3.2 6.5-1.8 3.5-3.5 7-5.2 10.5-2.7 5.5-5.4 11-8.2 16.5-1.6 3.1-3.1 6.3-4.7 9.5-1.5 3.1-3.1 6.2-4.6 9.4-.9 1.7-1.7 3.5-2.6 5.2-.8 1.6-.8 1.6-1.6 3.2-.5.9-.9 1.8-1.4 2.8-2 3.3-3.9 6-7.7 7-4.2 0-6.3-.2-9.8-2.7-2.3-3.4-2.9-4.8-3-8.9 1.2-3.5 2.8-6.8 4.5-10.1.7-1.5.7-1.5 1.5-3 1.1-2.2 2.2-4.3 3.2-6.5 1.8-3.5 3.5-7 5.2-10.5 2.7-5.5 5.4-11 8.2-16.5 1.6-3.1 3.1-6.3 4.7-9.5 1.5-3.1 3.1-6.2 4.6-9.4.9-1.7 1.7-3.5 2.6-5.2.5-1 1-2.1 1.6-3.2.5-.9.9-1.8 1.4-2.8 3.4-5.5 6-7.2 12.3-6.8z"/><path d="m119.7 336.8h2.4c2.6 0 5.2 0 7.9-.1h2.7c4.7 0 9.5 0 14.2-.1 4.9 0 9.8-.1 14.7-.1 3.8 0 7.5 0 11.3-.1h5.4 7.6 2.2c3.9 0 6.4.6 9.4 3 2.5 2.6 2.5 2.6 3.3 4.9-.2 5.1-.8 8.1-4.7 11.7-3.6 1.2-6.9 1.2-10.6 1.2-.8 0-1.5 0-2.3 0-2.6 0-5.1 0-7.7 0-1.3 0-1.3 0-2.6 0-4.6 0-9.2 0-13.9 0-4.8 0-9.5 0-14.3.1-3.7 0-7.3 0-11 0-1.8 0-3.5 0-5.3 0-2.5 0-4.9 0-7.4 0-.7 0-1.4 0-2.2 0-5-.1-7.9-1.3-11.8-4.5-1.6-3.2-1.5-6.5-1-10 3.8-5.8 6.9-6 13.7-6z"/><path d="m155.4 83.4h3.8 4.1 4.2 8.9 11.4 8.8 4.2 5.9 3.4c3.7.6 5.3 2 8 4.5 1.6 3.2 1.6 6.5 1 10-2.5 3.2-4.1 4.7-8 6-1.9.1-3.8.1-5.8.2-1.2 0-2.4 0-3.6 0-1.3 0-2.6 0-3.9 0s-2.6 0-4 0c-2.8 0-5.6 0-8.4 0-3.6 0-7.1 0-10.7.1-3.4 0-6.8 0-10.2 0-1.9 0-1.9 0-3.9 0-1.2 0-2.4 0-3.6 0-1 0-2.1 0-3.2 0-4.3-.6-7-2.3-9.7-5.6-1.5-3.8-1.2-5.9-.1-9.8 3.6-4.2 5.7-5.4 11.4-5.4z"/><path d="m542 122c3 2 5.4 4.5 8 7 .9.9.9.9 1.8 1.8 3.4 3.3 6.8 6.6 10.1 10 .6.6 1.1 1.1 1.7 1.7 2.6 2.8 2.9 5.5 2.8 9.3-.9 4.5-4.3 7.1-7.4 10.2-1.2 1.3-2.4 2.5-3.6 3.8-1.3 1.4-2.7 2.7-4 4.1-.6.7-1.3 1.3-2 2-6 6-6 6-10.4 7.1-3.9-.1-5.7-.8-8.9-3-2.5-3.6-2.7-5.4-2.6-9.7.9-4.3 3.8-6.6 7-9.4.6-.6 1.2-1.2 1.9-1.8 1.5-1.4 3.1-2.8 4.6-4.2-1.3-3.4-3.4-5.4-6.1-7.8-6.4-5.8-6.4-5.8-7.8-9.7-.2-4.2.6-6 3.2-9.5 4.2-3 6.7-3.4 11.7-1.9z"/><path d="m467 122c2.9 2 4.7 3.5 5.4 7 .2 3.4.2 6-1.7 8.9-1.7 1.8-3.4 3.5-5.3 5.1-.6.6-1.2 1.2-1.9 1.8-1.5 1.4-3.1 2.8-4.6 4.2 1.3 3.4 3.4 5.4 6.1 7.8 6.4 5.8 6.4 5.8 7.8 9.7.2 4.1-.6 6.1-3 9.5-3.2 2.2-5 3-8.9 3-4.5-1.9-7.5-4.2-10.9-7.6-1.3-1.3-1.3-1.3-2.7-2.7-.9-.9-1.8-1.8-2.7-2.8-.9-.9-1.8-1.8-2.8-2.8-7.7-7.8-7.7-7.8-8.4-12.8.2-5.8 3.5-8.5 7.5-12.4 1.2-1.3 2.4-2.5 3.6-3.8 1.3-1.4 2.7-2.7 4-4.1.6-.7 1.3-1.3 2-2 5.1-5 9.1-8.3 16.5-6z"/><path d="m322.3 336.8h2.7 2.9 3 6.3c3.2 0 6.4-.1 9.6-.1h6.1c1.4 0 1.4 0 2.9-.1 4.3 0 6.7.1 10.5 2.4 3 3.2 3.3 5.6 3.3 10.1-.6 3.4-2.7 5-5.4 7-2.3 1.1-3.6 1.1-6.1 1.2-1.3 0-1.3 0-2.6 0-.9 0-1.8 0-2.8 0-.9 0-1.9 0-2.8 0-2 0-4 0-6 0-3 0-6.1 0-9.1.1-1.9 0-3.9 0-5.8 0-.9 0-1.8 0-2.8 0-4.9 0-8.1-.2-12.1-3.4-2.6-3.4-2.4-6.8-2-11 2.9-4.6 4.8-6.1 10.2-6.2z"/><path d="m213 534c2.8 1.8 4.5 3.1 6 6 .7 7 .7 7-2.1 10.9-3.2 2.3-4.9 3.1-8.9 3.1-4-1.5-5.6-2.4-8-6-.5-3-.5-6 0-9 3.7-4.9 7-5.5 13-5z"/><path d="m214 478c2.5 1.9 3.6 3.2 5 6 .4 7.6.4 7.6-2 11-4 2.7-7.3 2.8-12 2-3.1-1.9-3.1-1.9-5-5-1-4.8-.7-7.9 1.9-12.1 4.1-2.5 7.4-2.9 12.1-1.9z"/></svg>