<svg height="512" width="512" xmlns="http://www.w3.org/2000/svg"><path d="m0 0c.99773437.88751953.99773437.88751953 2.015625 1.79296875.98226562.59748047.98226562.59748047 1.984375 1.20703125 2.52549796-.5830682 2.52549796-.5830682 5-2 .84820312-.41378906 1.69640625-.82757813 2.5703125-1.25390625.84304688-.43183594 1.68609375-.86367188 2.5546875-1.30859375 8.31561988-4.2589117 17.82552039-4.92482429 26.94140625-2.68359375 3.77628386 1.47015631 6.99528213 3.21369169 10.24609375 5.62109375.886875.53625 1.77375 1.0725 2.6875 1.625 3.55744048-1.1187292 6.81106081-2.86499292 10.125-4.5625 8.33378413-4.26821467 17.72099512-4.84160802 26.87109375-2.75390625 8.92667055 3.35620531 16.14406137 9.06990988 21.00390625 17.31640625.875 3 .875 3 1 5 1.4540625-.7425 1.4540625-.7425 2.9375-1.5 8.16275133-3.041025 19.35435353-2.92228053 27.5625.0625 10.07530825 4.91770998 16.41491153 11.68259018 20.56225586 22.10766602 1.06432614 3.77931376 1.19113825 7.24724675 1.13305664 11.13452148-.00424484 1.0859697-.00424484 1.0859697-.00857544 2.19387817-.01111619 2.29231923-.03620394 4.58423496-.06173706 6.87643433-.0100409 1.56249432-.01916481 3.12499482-.02734375 4.6875-.02194652 3.81265338-.05641612 7.62500848-.09765625 11.4375.77959076-.01110306 1.55918152-.02220612 2.36239624-.03364563 7.38433384-.10061819 14.76833045-.17652842 22.15317345-.22541523 3.7957286-.0259793 7.59088589-.06115921 11.38628578-.11813641 3.66996413-.05474281 7.33938242-.08431077 11.00972366-.09718895 1.39294771-.00916494 2.78586904-.02706039 4.17858124-.05426406 8.91476129-.16704072 15.34614397.66249768 22.90983963 5.52865028.9075.556875 1.815 1.11375 2.75 1.6875 5.58211241 5.73717109 9.33510453 12.60716045 9.44287109 20.63500977.01606293 1.0886586.03212586 2.1773172.04867554 3.29896545.04461022 4.99376237.08554189 9.98739259.10855103 14.98130798.01652331 2.62736898.04376475 5.25469368.08203125 7.88183594.05501708 3.79833178.07668534 7.59560944.09130859 11.39428711.02266937 1.16390762.04533875 2.32781525.06869507 3.5269928-.0198092 7.72009104-1.51673857 13.03884119-5.59213257 19.59410095-.556875.9075-1.11375 1.815-1.6875 2.75-6.11488143 5.94961436-13.03062506 9.38021979-21.52807617 9.36352539-1.28110153-.00007553-2.56220307-.00015106-3.88212586-.00022888-1.39842263-.00510664-2.79684487-.01032264-4.19526672-.01564026-1.43060761-.00186536-2.86121586-.00328871-4.29182434-.00428772-3.76307442-.00381586-7.52611016-.01363821-11.28916931-.02470398-3.84083534-.01023412-7.68167693-.01479793-11.52252198-.01983643-7.53452282-.0107209-15.0690138-.02778616-22.60351562-.04882812.01030998.93584427.01030998.93584427.02082825 1.89059448.02753169 2.86717954.04443605 5.73433112.061203 8.60159302.01099731.98121826.02199463 1.96243652.0333252 2.97338867.06885559 15.73186412-5.11180262 28.83557437-11.14196778 43.21264649-6.84392606 16.57895324-7.94906321 32.85157257-8.53588867 50.57177734-.04318359 1.23363281-.08636719 2.46726562-.13085938 3.73828125-.10478467 3.00382742-.20695602 6.0077185-.30664062 9.01171875 1.02480469-.05800781 2.04960937-.11601562 3.10546875-.17578125 1.36063136-.04691832 2.72131221-.09241627 4.08203125-.13671875.67353516-.04189453 1.34707031-.08378906 2.04101562-.12695312 3.75172202-.09150542 5.50166573.22535979 8.46739769 2.57858276 2.72090415 3.37841197 2.93163685 4.84306037 2.9390049 9.12307739.01409912 1.26177063.02819825 2.52354126.04272461 3.82354736-.00972066 1.39068964-.01996146 2.78137573-.03067016 4.17205811.00677816 1.47044965.01568242 2.94089081.02655029 4.41131592.02277688 3.98772785.01396409 7.97480827-.00189543 11.9625473-.01266753 4.17503848-.00091653 8.35002188.00693083 12.52506256.00909411 7.01100609-.00288496 14.02174876-.02670288 21.03271484-.02721101 8.10327071-.01839666 16.2059124.00913203 24.30916787.02269699 6.95983638.02588832 13.9194835.01280665 20.87934494-.00779134 4.15571209-.00884505 8.31112861.00768244 12.46682167.01445432 3.90727399.00440662 7.81373782-.02447128 11.72092438-.00660584 1.43306635-.00472154 2.86620101.00631332 4.29924011.01368319 1.95758869-.006527 3.91532657-.02840042 5.87284088-.00188513 1.09504852-.00377025 2.19009704-.00571251 3.31832886-.87517509 4.09470039-2.23952207 5.51172448-5.6292057 7.94387817-3.03589541.49220353-5.50848121.67723054-8.54003906.63491821-1.28743544.01169993-1.28743544.01169993-2.60087967.02363622-2.87533903.01994017-5.74935748.00414767-8.62470627-.01158177-2.06157199.00677521-4.12313793.0156778-6.18469238.02655029-5.59918532.02281112-11.19791044.0139493-16.79710388-.00189543-5.85666657-.01264948-11.71329346-.00092153-17.56996155.00693083-9.83568403.00909931-19.6711804-.00289885-29.50683594-.02670288-11.37510339-.02721167-22.7497587-.01839771-34.12485123.00913203-9.76234526.02268193-19.52455554.02589558-29.28691864.01280665-5.83242259-.00779949-11.66463451-.00882225-17.49704361.00768244-5.48307799.01443202-10.96557769.00444575-16.44859314-.02447128-2.01359089-.00661753-4.02723036-.00470181-6.040802.00631332-2.74650389.01364062-5.49114855-.00344187-8.23753357-.02840042-.79912433.01115361-1.59824867.02230722-2.4215889.03379882-3.89007108-.06869266-5.92356972-.52888711-9.11252021-2.81701148-2.36268194-3.35887761-2.63383436-5.03967782-2.64084816-9.11391258-.01409912-1.26177063-.02819825-2.52354126-.04272461-3.82354736.00972066-1.39068964.01996146-2.78137573.03067016-4.17205811-.00677816-1.47044965-.01568242-2.94089081-.02655029-4.41131592-.02277688-3.98772785-.01396409-7.97480827.00189543-11.9625473.01266753-4.17503848.00091653-8.35002188-.00693083-12.52506256-.00909411-7.01100609.00288496-14.02174876.02670288-21.03271484.02721101-8.10327071.01839666-16.2059124-.00913203-24.30916787-.02269699-6.95983638-.02588832-13.9194835-.01280665-20.87934494.00779134-4.15571209.00884505-8.31112861-.00768244-12.46682167-.01445432-3.90727399-.00440662-7.81373782.02447128-11.72092438.00660584-1.43306635.00472154-2.86620101-.00631332-4.29924011-.01368319-1.95758869.006527-3.91532657.02840042-5.87284088.00188513-1.09504852.00377025-2.19009704.00571251-3.31832886.84393906-3.94855573 2.50528709-5.46513864 5.6292057-7.94387817 2.8387401-.36771245 5.01820151-.48630804 7.8125-.3125.69287109.02255859 1.38574219.04511719 2.09960938.06835938 1.69690635.05851401 3.39268923.14818582 5.08789062.24414062-.80198485-27.89016428-2.43427048-47.09197698-23.2421875-67.33203125-1.57694355-1.55651842-3.15376258-3.11316299-4.73046875-4.66992187-2.44809019-2.40476766-4.89865742-4.80694174-7.35205078-7.20629883-12.70355257-12.44437456-22.83326098-23.67086726-30.67529297-39.79174805-.76195679.07629639-1.52391357.15259277-2.30895996.23120117-43.7812756 4.12838759-77.8758092-.14799145-117.06604004-20.98120117-.8822525-.46728516-1.764505-.93457031-2.67349243-1.41601562-8.83857126-4.70009996-17.60004157-9.53692053-26.23031616-14.61035157-.61241799-.35447204-1.22483597-.70894409-1.85581208-1.07415771-4.39316674-2.62922248-9.08129879-5.51780052-10.59975433-10.61431885-.00515625-.81597656-.0103125-1.63195312-.015625-2.47265625-.03609375-.81339844-.0721875-1.62679687-.109375-2.46484375 4.00129935-12.09483669 29.03820174-22.51154685 39.734375-28.47265625.81311897-.45487415 1.62623795-.90974831 2.46399689-1.37840652 35.24606067-19.46547711 69.83037216-21.12889433 109.03600311-20.18409348.69001697.01629865 1.38003393.03259729 2.0909605.04938984 17.86317003.43161078 35.70314931 1.22621574 53.5340395 2.38811016-.00888245-.64178192-.01776489-1.28356384-.0269165-1.9447937-.08891379-6.71655313-.14899976-13.43293739-.19281006-20.14993286-.02003947-2.5023478-.04727866-5.00464922-.08203125-7.50683594-.04885459-3.60949187-.07128864-7.21836129-.08886719-10.828125-.02064514-1.10769745-.04129028-2.2153949-.06256104-3.35665894-.0029168-10.23692494 2.88100334-18.25632405 9.39459229-26.17068481 12.52897369-12.43387712 31.13258338-13.48044276 46.05859375-5.04296875zm-31 20c-3.41662217 4.59476774-4.1293745 9.07205284-4.11352539 14.69848633.00007553.90055618.00015106 1.80111236.00022888 2.72895813.00516129.95851364.01032257 1.91702728.01564026 2.90458679.00141495.99174728.0028299 1.98349457.00428772 3.0052948.00558435 3.15842238.01813401 6.3167731.03086853 9.47517395.00501702 2.14518127.00957958 4.29036365.01367188 6.43554688.01015609 5.25070065.02973464 10.50124696.04882812 15.75195312h30c.04601247-6.28070253.08580837-12.56081571.10986328-18.84155273.01003235-2.13478584.02366136-4.26955801.04101563-6.40429688.02436999-3.07563658.03563209-6.15109082.04443359-9.22680664.01032257-.94819107.02064514-1.89638214.03128052-2.87330627.00111676-6.65643602-.13002041-12.23491524-4.66409302-17.46653748-4.61342383-3.93828863-7.15268413-4.6329588-13.0546875-4.50390625-3.70003163.46682642-5.76594947 1.84204205-8.5078125 4.31640625zm50 0c-3.41662217 4.59476774-4.1293745 9.07205284-4.11352539 14.69848633.00007553.90055618.00015106 1.80111236.00022888 2.72895813.00516129.95851364.01032257 1.91702728.01564026 2.90458679.00141495.99174728.0028299 1.98349457.00428772 3.0052948.00558435 3.15842238.01813401 6.3167731.03086853 9.47517395.00501702 2.14518127.00957958 4.29036365.01367188 6.43554688.01015609 5.25070065.02973464 10.50124696.04882812 15.75195312h30c.0691253-6.24431846.1287834-12.48729229.16479492-18.73168945.01502292-2.12113969.03544719-4.24224865.06152344-6.36328125.03667002-3.06086849.05347339-6.12132384.06665039-9.18237305.01548386-.9378685.03096771-1.875737.04692078-2.84202576.00151275-6.01016341-.67454689-11.42047417-3.33988953-16.88063049-4.70627611-4.59148889-8.06914724-5.35499181-14.45703125-5.28125-3.73477293.41306244-5.78238703 1.78999332-8.54296875 4.28125zm50 0c-3.94020509 5.2988965-4.12498188 10.4371073-4.14526367 16.88232422-.00335861.67223602-.00671723 1.34447204-.01017761 2.03707886-.00946176 2.21178052-.01145069 4.42348495-.01252747 6.63528442-.00321586 1.54550202-.00658018 3.09100374-.01008606 4.63650513-.00597929 3.23624374-.00784113 6.47246083-.00724792 9.70870971.00010156 4.13461717-.01354992 8.26906239-.03077221 12.40363884-.01115106 3.19143132-.01314605 6.38282146-.01261807 9.57427025-.00117546 1.52373599-.00557274 3.0474732-.01333237 4.57118988-.00986308 2.13674895-.00689729 4.27312977-.00089454 6.40988541-.00142502 1.21291717-.00285004 2.42583435-.00431824 3.67550659.37694145 5.28369413 1.1841952 9.23901865 4.68473816 13.27810669 4.61342383 3.93828863 7.15268413 4.6329588 13.0546875 4.50390625 3.70003163-.46682642 5.76594947-1.84204205 8.5078125-4.31640625 3.94020509-5.2988965 4.12498188-10.4371073 4.14526367-16.88232422.00335861-.67223602.00671723-1.34447204.01017761-2.03707886.00946176-2.21178052.01145069-4.42348495.01252747-6.63528442.00321586-1.54550202.00658018-3.09100374.01008606-4.63650513.00597929-3.23624374.00784113-6.47246083.00724792-9.70870971-.00010156-4.13461717.01354992-8.26906239.03077221-12.40363884.01115106-3.19143132.01314605-6.38282146.01261807-9.57427025.00117546-1.52373599.00557274-3.0474732.01333237-4.57118988.00986308-2.13674895.00689729-4.27312977.00089454-6.40988541.00142502-1.21291717.00285004-2.42583435.00431824-3.67550659-.37694145-5.28369413-1.1841952-9.23901865-4.68473816-13.27810669-4.61342383-3.93828863-7.15268413-4.6329588-13.0546875-4.50390625-3.70003163.46682642-5.76594947 1.84204205-8.5078125 4.31640625zm50 20c-3.50207005 4.70968041-4.11963499 9.29086875-4.14526367 15.04638672-.00637985.9780661-.01275971 1.9561322-.01933289 2.96383667-.00111282 1.04592316-.00222564 2.09184631-.00337219 3.16946411-.0033284 1.08612579-.0066568 2.17225159-.01008606 3.29129028-.00505623 2.29466327-.00740873 4.58933386-.00724792 6.88400269-.00218495 3.5002867-.02035055 7.00025736-.03930665 10.50048828-.00293453 2.23307184-.00491892 4.46614518-.00585937 6.69921875-.00718552 1.04187469-.01437103 2.08374939-.02177429 3.15719604.01322416 9.78373295.01322416 9.78373295 4.68974304 18.10061646 4.61342383 3.93828863 7.15268413 4.6329588 13.0546875 4.50390625 3.70003163-.46682642 5.76594947-1.84204205 8.5078125-4.31640625 3.49244138-4.69673151 4.11502569-9.27492349 4.16113281-15.01464844.00960755-.97161072.01921509-1.94322143.02911377-2.9442749.00637482-1.55947357.00637482-1.55947357.01287842-3.15045166.00855011-1.62207367.00855011-1.62207367.01727295-3.2769165.00943427-2.28626533.01597772-4.57254415.01983643-6.85882569.00969193-3.47843457.04072539-6.95627462.07226562-10.43457031.00653208-2.22655901.01178175-4.45312223.015625-6.6796875.0123468-1.03155212.0246936-2.06310425.03741455-3.12591553-.01896776-6.22053562-.5643911-11.86942966-3.36553955-17.51470947-4.70627611-4.59148889-8.06914724-5.35499181-14.45703125-5.28125-3.73477293.41306244-5.78238703 1.78999332-8.54296875 4.28125zm-270 55c1.65 5.28 3.3 10.56 5 16 2.66207579 15.97245475.06322888 28.81031336-5 44h46c.33-7.26.66-14.52 1-22 3.22600995-12.54559426 7.2386679-23.05877164 15.44921875-33.08984375 1.70207562-2.03549107 1.70207562-2.03549107 3.55078125-4.91015625-21.78 0-43.56 0-66 0zm77.921875 17.52734375c-9.95117272 12.8030332-13.02811942 28.45616956-11.484375 44.34765625 3.58427657 19.11941503 15.90979168 30.41117464 29.5 43.375 3.582591 3.45234405 7.15357851 6.916289 10.71484375 10.390625.84387268.82318726 1.68774536 1.64637451 2.55718994 2.49450684 7.86332624 7.76013813 14.752602 15.89248688 19.66546631 25.86486816.53367188 1.051875 1.06734375 2.10375 1.6171875 3.1875 7.09934195 17.95066772 4.94716198 32.06843083 5.5078125 52.8125h140c.33-13.86.66-27.72 1-42 2.23086127-13.31320434 6.13057745-24.71496142 11.43334961-37.04125977 5.90232506-13.83832024 6.74898655-25.42312733 7.56665039-40.95874023-34.65 0-69.3 0-105 0 1.44824354 7.27617686 1.44824354 7.27617686 3.11328125 14.50390625 1.38592477 6.94048321 1.1484407 13.99229113 1.0925293 21.03930664-.01845699 2.41343578-.02050778 4.82649064-.02026367 7.23999023-.00490933 1.53971687-.01073507 3.07943115-.01757813 4.61914063-.00111282.71872787-.00222565 1.43745575-.00337219 2.17796326-.0293747 3.07669234-.1839313 5.47769722-1.16459656 8.41969299-2.94826763.98275588-4.92652504 1.13414725-8 1.125-.86625.00257813-1.7325.00515625-2.625.0078125-2.375-.1328125-2.375-.1328125-5.375-1.1328125-2.34604677-7.46184107-2.23463239-14.79977892-2.3125-22.5625-.49238968-20.77209922-6.19628108-36.39144304-21.24072266-51.11132812-8.59912952-7.88229355-19.60768167-11.56028569-30.57177734-14.88867188-2.45901582-.82568788-3.87675481-1.43888258-5.9375-3.0625-1.456682-3.69026106-1.80599888-7.49069004-.9375-11.375 1.55444336-2.10498047 1.55444336-2.10498047 4-4 2.6749247-.39560333 4.95228701-.5581283 7.625-.5390625.7427417-.01179291 1.4854834-.02358582 2.25073242-.03573608 2.3749673-.03522408 4.74906095-.04441176 7.12426758-.05020142 18.29287322-.12863654 33.65048064-.56981151 47.7265625-13.7578125 3.71231922-4.27363209 8.2734375-10.73180189 8.2734375-16.6171875-9.94539743-.04657672-19.89076841-.0819969-29.83625317-.10362434-4.61931906-.01038609-9.23856286-.02444942-13.85783863-.04725457-4.46744324-.02191464-8.93481461-.0337285-13.40230751-.03887558-1.69462081-.00366263-3.3892382-.0108136-5.08382797-.02170562-20.62310773-.12714476-38.89566782 2.16648923-53.89789772 17.73880386zm238.078125-17.52734375c-.0825 1.93875-.165 3.8775-.25 5.875-.76043798 9.59401895-3.79924655 18.2334019-10.75 25.125-9.85678362 7.22402708-19.89952952 9.5293407-32 8-5.10745747-1.45288725-10.00857021-3.22855374-14.015625-6.79296875-.65484375-.39832031-1.3096875-.79664063-1.984375-1.20703125-2.52549796.5830682-2.52549796.5830682-5 2-.84820312.41378906-1.69640625.82757813-2.5703125 1.25390625-.84304688.43183594-1.68609375.86367187-2.5546875 1.30859375-8.422231 4.31351344-18.45524152 4.98283389-27.71484375 2.75390625-4.65849288-1.97310507-8.55760975-4.92251986-12.43359375-8.14453125-1.7924863-1.45267149-1.7924863-1.45267149-4.7265625-1.171875-1.81799935 1.56676536-1.81799935 1.56676536-3.625 3.625-8.5305054 8.74607773-18.04107157 12.4533217-29.375 16.375.39832031.45890625.79664063.9178125 1.20703125 1.390625.52980469.61359375 1.05960937 1.2271875 1.60546875 1.859375.52207031.60328125 1.04414063 1.2065625 1.58203125 1.828125 1.60546875 1.921875 1.60546875 1.921875 2.79413319 4.01192856 1.71947277 2.196619 1.71947277 2.196619 4.74172783 2.40213775 1.80994052-.00553075 1.80994052-.00553075 3.6564455-.01117324 1.00839879.00512655 1.00839879.00512655 2.03716928.01035666 2.2575164.00660007 4.51384939-.01543019 6.77125662-.03727317 1.61618522-.00112803 3.23237249-.00049549 4.84855652.00177002 4.39242304.00114983 8.78441104-.02240273 13.17673278-.05029583 4.58841581-.02496901 9.17684108-.02735209 13.76531434-.03210163 8.69107488-.01244304 17.38194901-.04528257 26.0729354-.08539796 9.89344429-.04467644 19.78689806-.06669435 29.68041808-.08678174 20.35373008-.04183442 40.70718489-.11520331 61.06077921-.20129442 0-19.8 0-39.6 0-60-8.58 0-17.16 0-26 0zm46 0v60c9.33529163.39674595 9.33529163.39674595 17-3 2.99309052-5.47227802 3.44425582-10.02429016 3.3984375-16.1875.00287018-.86133545.00574036-1.7226709.00869751-2.61010742.0020316-1.81193707-.00343465-3.62389653-.01602173-5.43579102-.01606692-2.75864133-.00012077-5.51581778.01904297-8.27441406-.00198259-1.76823237-.0058266-3.53646384-.01171875-5.3046875.00607269-.81686279.01214539-1.63372559.0184021-2.4753418-.06432909-5.29046778-.8630694-9.04309109-3.4168396-13.7121582-5.99616463-3.79349191-9.33325211-3-17-3zm-391.93041992 6.29492188c-1.00081101.50051879-2.00162201 1.00103759-3.03276062 1.51672363-1.61730766.82026672-1.61730766.82026672-3.26728821 1.65710449-1.65833611.83235168-1.65833611.83235168-3.35017395 1.68151855-2.9366673 1.47531482-5.87065818 2.95578548-8.80345154 4.43878174-2.99413656 1.51242049-5.99173041 3.01793466-8.98895264 4.52423096-5.87882392 2.95597111-11.7541712 5.91876344-17.62695312 8.88671875v2c7.03907891 3.5954772 14.08741987 7.17226261 21.14257812 10.73608398 2.40069936 1.21376368 4.7982557 2.43343606 7.19335938 3.65820313 3.43972153 1.75616577 6.88689823 3.49683977 10.3359375 5.23461914 1.07304382.55200577 2.14608765 1.10401154 3.25164795 1.67274475 1.00073547.50059433 2.00147095 1.00118866 3.03253174 1.51695252.87936218.44634292 1.75872436.89268585 2.66473388 1.35255432 2.66595237.92873365 3.80655503.93382868 6.37921143-.17115784 6.7359228-9.54565855 7.98896218-20.65105597 7-32-1.44286953-6.82016166-3.30392947-13.69798489-8-19-3.41852834 0-4.8991901.76785395-7.93041992 2.29492188zm145.93041992 213.70507812v120h180c0-39.6 0-79.2 0-120-59.4 0-118.8 0-180 0z" transform="translate(261 31)"/><path d="m0 0c1.30578003-.0131424 1.30578003-.0131424 2.63793945-.02655029 2.8711972-.021967 5.74084831-.00745105 8.61206055.00946045 1.99870092-.00336892 3.99739984-.00822216 5.99609375-.01449585 4.18639657-.00736767 8.37225929.00333094 12.55859375.02670288 5.36379489.02848753 10.72633889.01208302 16.09008789-.01786232 4.12647919-.01807571 8.25266224-.01231365 12.37915039.00063896 1.97754057.00333325 3.95510811-.0007502 5.93261719-.01239777 2.76520906-.01271314 5.52839828.00667422 8.29345703.03450394.81573486-.01012115 1.63146973-.02024231 2.47192383-.03067017 4.25733505.07930108 5.82650032.31940396 9.28344726 3.06182862 2.16673172 2.84151482 2.67468791 4.09203811 2.61962891 7.61581421.01933594 1.2375.01933594 1.2375.0390625 2.5-.9868546 3.7152173-2.66485466 5.12070357-5.6640625 7.5-2.91947356.72238332-5.753909.68414637-8.75.64697265-1.30578003.0131424-1.30578003.0131424-2.63793945.0265503-2.8711972.02196699-5.74084831.00745104-8.61206055-.00946045-1.99870092.00336891-3.99739984.00822216-5.99609375.01449585-4.18639657.00736767-8.37225929-.00333095-12.55859375-.02670289-5.36379489-.02848752-10.72633889-.01208301-16.09008789.01786232-4.12647919.01807571-8.25266224.01231365-12.37915039-.00063896-1.97754057-.00333324-3.95510811.0007502-5.93261719.01239777-2.76520906.01271314-5.52839828-.00667422-8.29345703-.03450394-1.22360229.01518173-1.22360229.01518173-2.47192383.03067017-4.25733505-.07930108-5.82650032-.31940396-9.28344726-3.06182861-2.16673172-2.84151483-2.67468791-4.09203811-2.61962891-7.61581421-.01289063-.825-.02578125-1.65-.0390625-2.5 2.02051977-7.60666266 7.69250692-8.23036974 14.4140625-8.14697266z" transform="translate(299.75 365.353027)"/><path d="m0 0c3.125 1.875 3.125 1.875 5 5 .98876625 5.02622846.7769173 8.70513784-1.875 13.125-4.41986216 2.6519173-8.09877154 2.86376625-13.125 1.875-3.125-1.875-3.125-1.875-5-5-.98876625-5.02622846-.7769173-8.70513784 1.875-13.125 4.41986216-2.6519173 8.09877154-2.86376625 13.125-1.875z" transform="translate(261 366)"/></svg>