<?xml version="1.0" encoding="UTF-8"?>
<svg version="1.1" xmlns="http://www.w3.org/2000/svg" width="512" height="512">
<path d="M0 0 C0.8772876 0.00087616 1.7545752 0.00175232 2.65844727 0.00265503 C17.28142497 0.05064768 31.35255694 0.96245054 45.625 4.375 C46.61274414 4.61105957 47.60048828 4.84711914 48.61816406 5.09033203 C94.41919405 16.4781803 135.96693386 43.96886808 163.625 82.375 C164.03379395 82.93413086 164.44258789 83.49326172 164.86376953 84.06933594 C195.98750099 127.05383249 207.57523807 181.32665719 199.67578125 233.5390625 C198.60987225 239.79848821 197.23109589 245.96713069 195.6875 252.125 C195.44692871 253.09614746 195.20635742 254.06729492 194.95849609 255.06787109 C192.64372764 263.65263611 192.64372764 263.65263611 188.625 266.375 C185.85793336 267.15864192 183.4194319 267.02074807 180.625 266.375 C178.0625 264.375 178.0625 264.375 176.625 261.375 C177.08192508 255.16900263 178.53075248 249.28221904 180 243.25 C182.65827 232.01849655 184.21181547 220.82923247 185.625 209.375 C173.745 209.375 161.865 209.375 149.625 209.375 C149.68300781 212.50742188 149.74101562 215.63984375 149.80078125 218.8671875 C149.83986668 221.92868523 149.87017435 224.9901543 149.8996582 228.05175781 C149.92467575 230.16614389 149.95870092 232.28044459 150.00219727 234.39453125 C150.06341332 237.44813192 150.09133792 240.50058139 150.11328125 243.5546875 C150.15199089 244.95374832 150.15199089 244.95374832 150.19148254 246.381073 C150.19440486 253.34669573 148.40199428 258.5132796 144.625 264.375 C142.2734375 266.62890625 142.2734375 266.62890625 140 267.9375 C139.24460937 268.39253906 138.48921875 268.84757812 137.7109375 269.31640625 C134.47436961 270.95893415 131.91434976 271.49901569 128.3371582 271.48852539 C127.47649246 271.48844986 126.61582672 271.48837433 125.7290802 271.48829651 C124.80399155 271.48313522 123.87890289 271.47797394 122.92578125 271.47265625 C121.97559616 271.4712413 121.02541107 271.46982635 120.0464325 271.46836853 C117.01008971 271.46276875 113.97382052 271.45021632 110.9375 271.4375 C108.87955836 271.43248497 106.82161556 271.42792207 104.76367188 271.42382812 C99.71741954 271.4127994 94.67122225 271.39553493 89.625 271.375 C89.42136841 272.43243408 89.42136841 272.43243408 89.21362305 273.51123047 C88.58517359 276.75852961 87.94888634 280.00424734 87.3125 283.25 C87.09916016 284.35859375 86.88582031 285.4671875 86.66601562 286.609375 C85.3411426 293.33261124 83.74614961 299.85760419 81.625 306.375 C82.35058105 306.48239502 83.07616211 306.58979004 83.82373047 306.70043945 C91.28805207 307.8662532 98.48473544 309.50227814 105.75 311.5625 C106.82660889 311.86349609 107.90321777 312.16449219 109.01245117 312.47460938 C116.58471849 314.64694889 123.91175949 317.20148127 131.14306641 320.32885742 C135.83552302 322.34286788 135.83552302 322.34286788 140.625 321.375 C142.16700653 319.99591849 142.16700653 319.99591849 143.47265625 318.19140625 C143.99029541 317.51932129 144.50793457 316.84723633 145.04125977 316.15478516 C145.58451904 315.42308105 146.12777832 314.69137695 146.6875 313.9375 C147.25460693 313.18774902 147.82171387 312.43799805 148.40600586 311.66552734 C153.04147554 305.42325864 157.14940217 298.91717264 161.02172852 292.17797852 C165.08749478 285.1942884 165.08749478 285.1942884 168.625 283.375 C172.02185818 283.49418801 174.56500615 283.79371305 177.5625 285.4375 C179.2886104 288.58511308 179.02322503 291.89961783 178.625 295.375 C177.2265625 298.7265625 177.2265625 298.7265625 175.25 302 C174.71524048 302.89005737 174.71524048 302.89005737 174.16967773 303.7980957 C165.95418911 317.22538989 156.15785113 329.51015918 145.5625 341.125 C144.85697998 341.90339233 144.85697998 341.90339233 144.13720703 342.69750977 C118.0092566 370.9287916 81.05463781 389.32719213 43.9375 397.8125 C42.95245483 398.04018066 42.95245483 398.04018066 41.94750977 398.27246094 C35.46530644 399.63271395 29.3792827 399.85543979 22.625 400.375 C22.625 412.255 22.625 424.135 22.625 436.375 C23.945 437.035 25.265 437.695 26.625 438.375 C29.5783984 442.16464154 29.96871626 444.94893997 29.8125 449.6875 C29.77189453 451.29044922 29.77189453 451.29044922 29.73046875 452.92578125 C29.69566406 453.73402344 29.66085937 454.54226563 29.625 455.375 C30.22973145 455.34881592 30.83446289 455.32263184 31.45751953 455.2956543 C34.22141097 455.19114184 36.984886 455.12650727 39.75 455.0625 C40.70132813 455.02060547 41.65265625 454.97871094 42.6328125 454.93554688 C47.24952608 454.8553956 50.59757745 454.80231765 54.3046875 457.76953125 C56.625 460.375 56.625 460.375 56.625 462.375 C57.19153353 462.37131283 57.75806705 462.36762566 58.34176826 462.36382675 C72.13843301 462.27541893 85.93504801 462.20951838 99.7319355 462.16775131 C106.40409324 462.146874 113.07600685 462.11855316 119.74804688 462.07324219 C126.18656296 462.0297906 132.62488239 462.00586395 139.06353378 461.99549103 C141.52034476 461.98809852 143.97714493 461.97366282 146.43387222 461.95207977 C149.8742832 461.92305603 153.31388089 461.91904372 156.75439453 461.92089844 C158.27893501 461.89932678 158.27893501 461.89932678 159.83427429 461.87731934 C165.75260714 461.91185789 169.10525042 462.45093746 173.625 466.375 C177.15371933 471.23389723 175.95246867 478.0914737 175.9375 483.8125 C175.95361328 485.04033203 175.96972656 486.26816406 175.98632812 487.53320312 C175.98697266 488.71720703 175.98761719 489.90121094 175.98828125 491.12109375 C175.99275269 492.74035767 175.99275269 492.74035767 175.99731445 494.39233398 C175.4236755 498.9878403 173.16319419 502.42650484 169.625 505.375 C166.79053104 506.31982299 165.06346452 506.49972504 162.12858582 506.49957275 C161.20757584 506.50213577 160.28656586 506.50469879 159.33764648 506.50733948 C158.32927734 506.50523972 157.3209082 506.50313995 156.28198242 506.50097656 C155.21828934 506.5028447 154.15459625 506.50471283 153.05867004 506.50663757 C150.74566579 506.51064478 148.43265758 506.51271671 146.11964989 506.51309967 C141.20476695 506.51651025 136.2900169 506.53786577 131.37518024 506.55833054 C122.22007318 506.59638426 113.06510725 506.62761348 103.90991211 506.62548828 C97.5455604 506.6247019 91.18169375 506.6480345 84.81746864 506.6873703 C82.39141329 506.69784345 79.96530204 506.69934474 77.53923607 506.69171906 C74.14435596 506.68211277 70.75094828 506.70325263 67.35620117 506.73144531 C66.35390472 506.72124863 65.35160828 506.71105194 64.31893921 506.70054626 C57.8241771 506.79727085 55.64283372 508.11557719 50.625 512.375 C47.34175012 513.11166932 44.12136647 513.05913405 40.76757812 513.02197266 C39.7912291 513.03073425 38.81488007 513.03949585 37.8089447 513.04852295 C34.59092386 513.07047732 31.37428411 513.05597756 28.15625 513.0390625 C25.91475156 513.04243175 23.67325489 513.04728528 21.4317627 513.05355835 C16.73769713 513.06092435 12.0441078 513.05023241 7.35009766 513.02685547 C1.33741599 512.99836851 -4.67414973 513.01477385 -10.68679047 513.04471779 C-15.31427395 513.06279774 -19.94149349 513.05702938 -24.56898499 513.04407883 C-26.78573235 513.04074678 -29.00250378 513.04482478 -31.21922302 513.05647659 C-34.31931911 513.06919619 -37.41761585 513.04979121 -40.51757812 513.02197266 C-41.43100479 513.03209381 -42.34443146 513.04221497 -43.28553772 513.05264282 C-47.86028327 512.97670758 -49.72531191 512.92548674 -53.32810974 509.87280273 C-57.74171309 506.25458561 -61.43857101 506.68847035 -66.98266602 506.76318359 C-68.0386499 506.75751877 -69.09463379 506.75185394 -70.18261719 506.74601746 C-73.66507698 506.73253811 -77.14649225 506.75344427 -80.62890625 506.7734375 C-83.05216688 506.76793747 -85.47542286 506.75981301 -87.89866638 506.74917603 C-94.27382018 506.72628836 -100.6486311 506.73051269 -107.02380371 506.74298096 C-117.23142064 506.76128787 -127.43883726 506.75137409 -137.64640617 506.71712112 C-141.21230597 506.71100881 -144.77777706 506.72428715 -148.34364319 506.73910522 C-150.5280061 506.73615766 -152.7123682 506.73250324 -154.89672852 506.72802734 C-155.88855637 506.73731766 -156.88038422 506.74660797 -157.90226746 506.75617981 C-164.00336157 506.72077116 -167.40946714 505.91688531 -172.125 501.875 C-175.96966161 497.26140606 -174.64341675 489.69633897 -174.6875 484.0625 C-174.73100586 482.22655273 -174.73100586 482.22655273 -174.77539062 480.35351562 C-174.85611169 468.93459 -174.85611169 468.93459 -170.375 464.375 C-167.39300655 462.55706969 -165.18920833 462.12656573 -161.71795654 462.13449097 C-160.32137314 462.13036697 -160.32137314 462.13036697 -158.89657593 462.12615967 C-157.88237579 462.13335022 -156.86817566 462.14054077 -155.82324219 462.14794922 C-154.74976532 462.14765717 -153.67628845 462.14736511 -152.57028198 462.14706421 C-149.02073087 462.14845797 -145.47138946 462.16402157 -141.921875 462.1796875 C-139.46136591 462.18341746 -137.00085534 462.18626451 -134.54034424 462.18826294 C-128.06302798 462.19590071 -121.58580135 462.21555053 -115.10852051 462.2376709 C-108.49944267 462.25812617 -101.89035036 462.26726398 -95.28125 462.27734375 C-82.31246175 462.2987962 -69.34373564 462.33254974 -56.375 462.375 C-56.08212097 461.75071609 -55.78924194 461.12643219 -55.48748779 460.48323059 C-54.12189449 457.89534999 -52.90571258 456.83383842 -50.375 455.375 C-47.90136719 455.03442383 -47.90136719 455.03442383 -45.171875 455.08203125 C-44.1921875 455.09169922 -43.2125 455.10136719 -42.203125 455.11132812 C-41.18734375 455.13646484 -40.1715625 455.16160156 -39.125 455.1875 C-38.09375 455.20103516 -37.0625 455.21457031 -36 455.22851562 C-33.45780208 455.26382393 -30.91666777 455.31313964 -28.375 455.375 C-28.42140625 454.57835937 -28.4678125 453.78171875 -28.515625 452.9609375 C-28.84731987 443.2233239 -28.84731987 443.2233239 -26.5625 439.6875 C-24.375 437.375 -24.375 437.375 -21.375 436.375 C-21.375 424.495 -21.375 412.615 -21.375 400.375 C-25.665 400.045 -29.955 399.715 -34.375 399.375 C-37.76960415 398.74886113 -41.03904466 398.08597689 -44.375 397.25 C-45.7038623 396.92286011 -45.7038623 396.92286011 -47.05957031 396.58911133 C-76.72260673 389.06348913 -103.95888305 376.27718478 -127.375 356.375 C-128.21675781 355.66214844 -129.05851562 354.94929688 -129.92578125 354.21484375 C-132.46674693 351.98993927 -134.92686351 349.70180028 -137.375 347.375 C-138.20402832 346.59479492 -138.20402832 346.59479492 -139.04980469 345.79882812 C-170.52960326 315.99366688 -191.40754676 276.20490328 -198.375 233.375 C-198.49069336 232.6840625 -198.60638672 231.993125 -198.72558594 231.28125 C-206.68160774 181.42036557 -194.367993 127.45776933 -165.3125 86.1875 C-132.55241708 41.21722952 -85.9010283 11.32995986 -30.96142578 1.78173828 C-20.63484875 0.22602092 -10.42635246 -0.02555479 0 0 Z M-31.375 32.375 C-32.25393233 33.43568891 -33.12079045 34.50647597 -33.9765625 35.5859375 C-34.62612915 36.40360596 -34.62612915 36.40360596 -35.28881836 37.23779297 C-36.50148187 38.7965665 -37.67950799 40.38210448 -38.85546875 41.96875 C-42.01913629 44.99017512 -44.0693118 45.20939661 -48.375 45.375 C-50.8125 44.9375 -50.8125 44.9375 -52.375 44.375 C-54.055 37.775 -54.055 37.775 -52.24609375 34.05078125 C-50.69487851 31.76089209 -49.0644519 29.56443289 -47.375 27.375 C-46.57273781 26.19463237 -45.77928864 25.00815947 -45 23.8125 C-44.46375 23.008125 -43.9275 22.20375 -43.375 21.375 C-50.26666145 22.5593759 -56.6657364 24.29716907 -63.1875 26.8125 C-64.08621826 27.15885498 -64.98493652 27.50520996 -65.91088867 27.86206055 C-85.28403307 35.5516879 -102.88336732 46.10820087 -118.875 59.4375 C-119.43380859 59.90285156 -119.99261719 60.36820313 -120.56835938 60.84765625 C-121.87965392 61.97594041 -123.13385197 63.16998128 -124.375 64.375 C-124.375 65.035 -124.375 65.695 -124.375 66.375 C-108.77943001 72.89504687 -92.08185988 77.76115981 -75.375 80.375 C-74.97667969 79.32699219 -74.57835937 78.27898437 -74.16796875 77.19921875 C-73.63322827 75.82015121 -73.09804898 74.44125377 -72.5625 73.0625 C-72.30146484 72.37220703 -72.04042969 71.68191406 -71.77148438 70.97070312 C-69.15064307 64.27299758 -69.15064307 64.27299758 -66.375 62.375 C-62.00793092 61.98508312 -60.06986103 61.91175931 -56.375 64.375 C-54.56045488 70.18154439 -56.00680314 73.79726254 -58.46484375 79.23828125 C-59.50562948 81.29458955 -59.50562948 81.29458955 -59.375 83.375 C-55.52168576 83.86118078 -51.667215 84.33756377 -47.8125 84.8125 C-46.21245117 85.01456055 -46.21245117 85.01456055 -44.58007812 85.22070312 C-29.72651557 87.03860183 -15.00656001 87.57847536 -0.0625 87.5625 C0.80985291 87.56256042 1.68220581 87.56262085 2.58099365 87.56268311 C22.04082651 87.54357216 41.40850044 86.65927447 60.625 83.375 C52.92845268 59.69331594 39.8681027 32.27055233 16.96875 19.9453125 C-1.52544683 10.95225525 -17.69926855 18.09529303 -31.375 32.375 Z M44.625 21.375 C44.98996582 21.84881104 45.35493164 22.32262207 45.73095703 22.81079102 C59.23180695 40.54495828 68.66687782 59.66579568 76.625 80.375 C101.79825343 75.5593371 101.79825343 75.5593371 125.625 66.375 C124.05654689 61.98125387 120.60972041 59.59064477 117.0625 56.8125 C116.39412109 56.2872876 115.72574219 55.7620752 115.03710938 55.22094727 C96.84436225 41.14775093 68.46187614 21.375 44.625 21.375 Z M-138.375 78.375 C-140.32280128 80.38772798 -142.02982582 82.36511981 -143.75 84.5625 C-144.27239258 85.22523926 -144.79478516 85.88797852 -145.33300781 86.57080078 C-163.38649222 110.03603972 -175.29540396 136.23940844 -181.25 165.1875 C-181.45326904 166.16396484 -181.65653809 167.14042969 -181.8659668 168.14648438 C-183.50366636 176.67472149 -183.82112441 184.51299052 -184.375 193.375 C-172.495 193.375 -160.615 193.375 -148.375 193.375 C-148.34921875 190.1471875 -148.3234375 186.919375 -148.296875 183.59375 C-148.25840486 180.44945755 -148.21326053 177.30532633 -148.16748047 174.16113281 C-148.13934633 171.98477951 -148.1180944 169.80832547 -148.10400391 167.63183594 C-148.08246994 164.49361882 -148.03576494 161.35660337 -147.984375 158.21875 C-147.98314636 157.25384644 -147.98191772 156.28894287 -147.98065186 155.2947998 C-147.86257451 149.78363938 -147.10971608 145.8299129 -144.32623291 141.03674316 C-143.21408205 139.22034047 -143.21408205 139.22034047 -142.375 136.375 C-140.75 135.375 -140.75 135.375 -138.375 134.375 C-137.37911865 133.8699292 -136.3832373 133.3648584 -135.35717773 132.84448242 C-130.73360172 130.87219719 -126.25157905 130.89836919 -121.28515625 130.86328125 C-120.34063095 130.84533005 -119.39610565 130.82737885 -118.42295837 130.80888367 C-115.42785 130.75501844 -112.43289881 130.72096142 -109.4375 130.6875 C-107.3977647 130.65430593 -105.35805008 130.61981435 -103.31835938 130.58398438 C-98.33735343 130.49930565 -93.35639217 130.43238128 -88.375 130.375 C-86.43892251 122.676126 -84.5340329 114.97085054 -82.6875 107.25 C-82.46255859 106.31929687 -82.23761719 105.38859375 -82.00585938 104.4296875 C-81.79380859 103.5428125 -81.58175781 102.6559375 -81.36328125 101.7421875 C-81.17290283 100.94925293 -80.98252441 100.15631836 -80.78637695 99.33935547 C-80.30667524 97.383239 -80.30667524 97.383239 -80.375 95.375 C-81.10275635 95.20484375 -81.8305127 95.0346875 -82.58032227 94.859375 C-121.26035593 85.72890798 -121.26035593 85.72890798 -133.46484375 79.26879883 C-135.47638611 78.16309157 -135.47638611 78.16309157 -138.375 78.375 Z M132.76953125 80.1328125 C118.55058697 85.45194104 104.37720886 89.81453365 89.625 93.375 C86.95720795 94.03724836 84.29114236 94.70613115 81.625 95.375 C82.00591797 97.06302734 82.00591797 97.06302734 82.39453125 98.78515625 C84.39126948 107.67945193 86.29942573 116.57758372 88.01171875 125.53125 C88.48673163 128.30563535 88.48673163 128.30563535 89.625 130.375 C90.88570313 130.3843457 92.14640625 130.39369141 93.4453125 130.40332031 C98.14960278 130.44337372 102.85324963 130.50917501 107.55712891 130.58251953 C109.58796892 130.61064035 111.61891657 130.63189886 113.64990234 130.64599609 C116.57965855 130.66754898 119.50813265 130.71426222 122.4375 130.765625 C123.33678223 130.76685364 124.23606445 130.76808228 125.16259766 130.76934814 C130.50343495 130.89176526 134.29059391 131.74962834 138.94018555 134.42376709 C140.77803134 135.5321466 140.77803134 135.5321466 143.625 136.375 C144.625 138 144.625 138 145.625 140.375 C146.1300708 141.35734619 146.6351416 142.33969238 147.15551758 143.35180664 C149.21051291 148.17115124 149.10265342 152.94957996 149.13671875 158.12109375 C149.15466995 159.13220718 149.17262115 160.14332062 149.19111633 161.18507385 C149.24502042 164.3941743 149.27905149 167.60312769 149.3125 170.8125 C149.3456906 172.99676516 149.38018186 175.18101098 149.41601562 177.36523438 C149.50316873 182.70184177 149.56340867 188.03779229 149.625 193.375 C161.505 193.375 173.385 193.375 185.625 193.375 C184.74177193 179.11967491 184.74177193 179.11967491 182.5 165.1875 C182.28118164 164.1257959 182.06236328 163.0640918 181.83691406 161.97021484 C175.48369029 132.4554811 162.39395911 105.24991022 142.625 82.375 C142.09003906 81.62089844 141.55507813 80.86679688 141.00390625 80.08984375 C140.32134766 79.24099609 140.32134766 79.24099609 139.625 78.375 C137.02787409 78.375 135.20189102 79.20722622 132.76953125 80.1328125 Z M-64.375 98.375 C-69.56977028 114.06498109 -69.56977028 114.06498109 -71.375 130.375 C-23.855 130.375 23.665 130.375 72.625 130.375 C71.84997921 123.05184283 71.84997921 123.05184283 70.46875 115.97265625 C70.25089844 115.06322266 70.03304687 114.15378906 69.80859375 113.21679688 C69.58300781 112.29962891 69.35742188 111.38246094 69.125 110.4375 C68.89941406 109.49326172 68.67382812 108.54902344 68.44140625 107.57617188 C67.38177021 102.85269809 67.38177021 102.85269809 65.625 98.375 C64.86058594 98.46064209 64.09617187 98.54628418 63.30859375 98.63452148 C59.74782494 99.03114442 56.18642703 99.42183326 52.625 99.8125 C50.82289063 100.01456055 50.82289063 100.01456055 48.984375 100.22070312 C33.04308302 101.9589823 17.27110314 102.57878308 1.25 102.5625 C0.3314624 102.56256042 -0.5870752 102.56262085 -1.53344727 102.56268311 C-16.56849236 102.54865179 -31.41499677 101.97116218 -46.375 100.375 C-47.30344727 100.27896484 -48.23189453 100.18292969 -49.18847656 100.08398438 C-54.25608429 99.55622076 -59.31716776 98.9892587 -64.375 98.375 Z M-130.9838028 148.13871765 C-132.50038776 150.57655477 -132.87710384 151.81816112 -132.88293457 154.66345215 C-132.89421387 155.51299973 -132.90549316 156.3625473 -132.91711426 157.23783875 C-132.90901733 158.16159805 -132.90092041 159.08535736 -132.89257812 160.03710938 C-132.8995874 161.01637894 -132.90659668 161.9956485 -132.91381836 163.0045929 C-132.93142948 166.24293336 -132.91976415 169.48040058 -132.90625 172.71875 C-132.90894401 174.96789722 -132.91282566 177.2170433 -132.91784668 179.46618652 C-132.92374597 184.18053269 -132.91516461 188.89457577 -132.89648438 193.60888672 C-132.87369493 199.65531286 -132.88681566 205.70102882 -132.91077423 211.74742889 C-132.92522035 216.39196129 -132.92063159 221.03632499 -132.91026306 225.68086243 C-132.90759251 227.91042667 -132.91087702 230.14000618 -132.92018127 232.36955261 C-132.93032702 235.48441199 -132.91487261 238.59811732 -132.89257812 241.71289062 C-132.90067505 242.63664993 -132.90877197 243.56040924 -132.91711426 244.51216125 C-132.90583496 245.36170883 -132.89455566 246.21125641 -132.88293457 247.08654785 C-132.88142647 247.82247414 -132.87991837 248.55840042 -132.87836456 249.3166275 C-132.09448321 252.52209713 -131.1288689 253.51320838 -128.375 255.375 C-124.96212245 255.97425639 -121.58365215 255.91411268 -118.1262207 255.88293457 C-116.54499279 255.89229451 -116.54499279 255.89229451 -114.93182087 255.90184355 C-111.38791568 255.91784018 -107.84469194 255.90514273 -104.30078125 255.89257812 C-101.76483762 255.89799625 -99.22889714 255.90511716 -96.69296265 255.91381836 C-90.51312139 255.93019216 -84.33353386 255.92775727 -78.15368915 255.9161678 C-73.13187232 255.90713941 -68.11010996 255.90590688 -63.08828735 255.91026306 C-62.373941 255.91087599 -61.65959466 255.91148893 -60.92360145 255.91212043 C-59.47248449 255.91339931 -58.02136755 255.91469617 -56.57025063 255.9160108 C-42.95858985 255.92742084 -29.34703676 255.91429627 -15.73539364 255.89280933 C-4.05238296 255.87493793 7.63046875 255.87804192 19.31347656 255.89648438 C32.87595265 255.91788363 46.43833431 255.92632217 60.00082493 255.91403532 C61.44664572 255.9127611 62.89246653 255.91150362 64.33828735 255.91026306 C65.049685 255.90964596 65.76108265 255.90902886 66.49403781 255.90839306 C71.51064581 255.90493731 76.52719399 255.91077331 81.54379272 255.92018127 C88.29403897 255.93256202 95.04393806 255.92376538 101.79417038 255.90060425 C104.27582677 255.89530211 106.75750836 255.89685646 109.23915482 255.90565491 C112.61852219 255.91653409 115.99691591 255.90293808 119.3762207 255.88293457 C120.36570552 255.89185746 121.35519033 255.90078034 122.37465954 255.90997362 C127.62445277 255.88636299 127.62445277 255.88636299 132.2338028 253.61128235 C133.75038776 251.17344523 134.12710384 249.93183888 134.13293457 247.08654785 C134.14421387 246.23700027 134.15549316 245.3874527 134.16711426 244.51216125 C134.15901733 243.58840195 134.15092041 242.66464264 134.14257812 241.71289062 C134.1495874 240.73362106 134.15659668 239.7543515 134.16381836 238.7454071 C134.18142948 235.50706664 134.16976415 232.26959942 134.15625 229.03125 C134.15894401 226.78210278 134.16282566 224.5329567 134.16784668 222.28381348 C134.17374597 217.56946731 134.16516461 212.85542423 134.14648438 208.14111328 C134.12369493 202.09468714 134.13681566 196.04897118 134.16077423 190.00257111 C134.17522035 185.35803871 134.17063159 180.71367501 134.16026306 176.06913757 C134.15759251 173.83957333 134.16087702 171.60999382 134.17018127 169.38044739 C134.18032702 166.26558801 134.16487261 163.15188268 134.14257812 160.03710938 C134.15472351 158.65147041 134.15472351 158.65147041 134.16711426 157.23783875 C134.15019531 155.96351738 134.15019531 155.96351738 134.13293457 154.66345215 C134.13142647 153.92752586 134.12991837 153.19159958 134.12836456 152.4333725 C133.34448321 149.22790287 132.3788689 148.23679162 129.625 146.375 C126.21212245 145.77574361 122.83365215 145.83588732 119.3762207 145.86706543 C118.32206876 145.86082547 117.26791681 145.8545855 116.18182087 145.84815645 C112.63791568 145.83215982 109.09469194 145.84485727 105.55078125 145.85742188 C103.01483762 145.85200375 100.47889714 145.84488284 97.94296265 145.83618164 C91.76312139 145.81980784 85.58353386 145.82224273 79.40368915 145.8338322 C74.38187232 145.84286059 69.36010996 145.84409312 64.33828735 145.83973694 C63.623941 145.83912401 62.90959466 145.83851107 62.17360145 145.83787957 C60.72248449 145.83660069 59.27136755 145.83530383 57.82025063 145.8339892 C44.20858985 145.82257916 30.59703676 145.83570373 16.98539364 145.85719067 C5.30238296 145.87506207 -6.38046875 145.87195808 -18.06347656 145.85351562 C-31.62595265 145.83211637 -45.18833431 145.82367783 -58.75082493 145.83596468 C-60.19664572 145.8372389 -61.64246653 145.83849638 -63.08828735 145.83973694 C-64.15538383 145.84066259 -64.15538383 145.84066259 -65.24403781 145.84160694 C-70.26064581 145.84506269 -75.27719399 145.83922669 -80.29379272 145.82981873 C-87.04403897 145.81743798 -93.79393806 145.82623462 -100.54417038 145.84939575 C-103.02582677 145.85469789 -105.50750836 145.85314354 -107.98915482 145.84434509 C-111.36852219 145.83346591 -114.74691591 145.84706192 -118.1262207 145.86706543 C-119.11570552 145.85814254 -120.10519033 145.84921966 -121.12465954 145.84002638 C-126.37445277 145.86363701 -126.37445277 145.86363701 -130.9838028 148.13871765 Z M-184.375 209.375 C-183.74918265 218.76226023 -183.12865311 227.39999489 -181.25 236.5 C-181.03118164 237.56621582 -180.81236328 238.63243164 -180.58691406 239.73095703 C-174.27400215 269.18099757 -161.16980468 294.99690085 -142.375 318.375 C-141.61960938 319.31988281 -140.86421875 320.26476562 -140.0859375 321.23828125 C-139.52132812 321.94339844 -138.95671875 322.64851563 -138.375 323.375 C-134.22433934 322.77357774 -130.56839083 321.35273987 -126.68408203 319.84765625 C-111.59208789 314.02720372 -96.064094 310.19217836 -80.375 306.375 C-80.62894531 305.24964844 -80.88289063 304.12429688 -81.14453125 302.96484375 C-83.14126948 294.07054807 -85.04942573 285.17241628 -86.76171875 276.21875 C-87.23673163 273.44436465 -87.23673163 273.44436465 -88.375 271.375 C-89.62522949 271.37089111 -90.87545898 271.36678223 -92.16357422 271.36254883 C-96.84187971 271.34062967 -101.51935936 271.2862086 -106.19726562 271.22241211 C-108.21443717 271.19934305 -110.23172727 271.18486267 -112.24902344 271.17944336 C-134.7027721 271.10726266 -134.7027721 271.10726266 -141.375 265.375 C-145.22208077 260.61060641 -147.45900115 256.09094136 -147.58032227 249.90356445 C-147.6102401 248.55250359 -147.6102401 248.55250359 -147.64076233 247.17414856 C-147.65747482 246.20531235 -147.67418732 245.23647614 -147.69140625 244.23828125 C-147.71218735 243.24370407 -147.73296844 242.24912689 -147.75437927 241.22441101 C-147.81979412 238.04551133 -147.8787224 234.86652866 -147.9375 231.6875 C-147.98069288 229.53319452 -148.02430742 227.37889746 -148.06835938 225.22460938 C-148.17626123 219.94149009 -148.27539491 214.65830833 -148.375 209.375 C-160.255 209.375 -172.135 209.375 -184.375 209.375 Z M-71.375 271.375 C-70.59997921 278.69815717 -70.59997921 278.69815717 -69.21875 285.77734375 C-68.89197266 287.14149414 -68.89197266 287.14149414 -68.55859375 288.53320312 C-68.33300781 289.45037109 -68.10742188 290.36753906 -67.875 291.3125 C-67.64941406 292.25673828 -67.42382812 293.20097656 -67.19140625 294.17382812 C-66.13177021 298.89730191 -66.13177021 298.89730191 -64.375 303.375 C-63.58029297 303.28935791 -62.78558594 303.20371582 -61.96679688 303.11547852 C-58.26991001 302.71919237 -54.57246713 302.32833355 -50.875 301.9375 C-49.62589844 301.80279297 -48.37679687 301.66808594 -47.08984375 301.52929688 C-31.36185297 299.87584143 -15.80176516 299.17053136 0 299.1875 C0.87151703 299.18743958 1.74303406 299.18737915 2.64096069 299.18731689 C17.38998463 299.20180232 31.94683364 299.85331151 46.625 301.375 C47.58873535 301.47103516 48.5524707 301.56707031 49.54541016 301.66601562 C54.90948368 302.20069527 60.26859842 302.76837139 65.625 303.375 C70.6052398 287.62484205 70.6052398 287.62484205 72.625 271.375 C25.105 271.375 -22.415 271.375 -71.375 271.375 Z M-59.375 318.375 C-51.2448763 343.39076524 -37.49338058 370.70367741 -13.2578125 383.4921875 C-3.96188979 387.41215491 5.28644244 386.87544505 14.625 383.375 C38.25541933 371.70525803 50.49843052 345.74407064 59.625 322.375 C59.97288413 321.04538896 60.30926517 319.71260996 60.625 318.375 C56.79265638 317.88770559 52.9589738 317.4117833 49.125 316.9375 C48.06667969 316.80279297 47.00835937 316.66808594 45.91796875 316.52929688 C31.03123871 314.70188391 16.22977317 314.17043983 1.25 314.1875 C0.42716522 314.18743958 -0.39566956 314.18737915 -1.24343872 314.18731689 C-20.74349963 314.20757474 -40.08838557 315.38334694 -59.375 318.375 Z M76.625 321.375 C76.36920166 322.01300537 76.11340332 322.65101074 75.84985352 323.30834961 C68.26369804 342.12924814 60.59531437 359.26052798 48.03125 375.27734375 C45.68873895 378.08459163 45.68873895 378.08459163 44.625 380.375 C72.87591372 376.2068324 106.01040551 358.23402496 125.625 337.375 C125.625 336.715 125.625 336.055 125.625 335.375 C109.50874226 329.50537422 93.53194377 324.4020074 76.625 321.375 Z M-124.375 335.375 C-117.8714956 351.84051982 -86.97927514 364.56331377 -72.375 371.375 C-63.00502843 375.42665288 -53.50585899 378.8802831 -43.375 380.375 C-44.179375 379.34375 -44.98375 378.3125 -45.8125 377.25 C-58.65569184 360.03529919 -67.80755948 341.41013453 -75.375 321.375 C-90.19541659 321.375 -111.10511324 328.74005662 -124.375 335.375 Z M-5.375 401.375 C-5.375 412.265 -5.375 423.155 -5.375 434.375 C-1.415 434.375 2.545 434.375 6.625 434.375 C6.625 423.485 6.625 412.595 6.625 401.375 C2.665 401.375 -1.295 401.375 -5.375 401.375 Z M-12.375 450.375 C-12.58466657 455.50493742 -12.58466657 455.50493742 -12.76293945 460.63598633 C-13.03353499 465.88395953 -13.03353499 465.88395953 -14.73046875 468.32421875 C-17.96944709 470.39377973 -20.96119708 470.54684188 -24.69921875 470.69140625 C-25.62565186 470.72951416 -26.55208496 470.76762207 -27.5065918 470.80688477 C-28.6800415 470.84998779 -29.85349121 470.89309082 -31.0625 470.9375 C-34.795625 471.081875 -38.52875 471.22625 -42.375 471.375 C-42.375 479.955 -42.375 488.535 -42.375 497.375 C-14.325 497.375 13.725 497.375 42.625 497.375 C42.625 488.795 42.625 480.215 42.625 471.375 C35.61031364 471.12602483 35.61031364 471.12602483 28.5949707 470.89697266 C27.71413818 470.8613623 26.83330566 470.82575195 25.92578125 470.7890625 C24.58253784 470.74193115 24.58253784 470.74193115 23.2121582 470.69384766 C20.37408176 470.34407623 18.18706153 469.63710756 15.625 468.375 C14.04017429 465.20534858 14.24647177 461.73755459 14.0625 458.25 C13.918125 455.65125 13.77375 453.0525 13.625 450.375 C5.045 450.375 -3.535 450.375 -12.375 450.375 Z M-158.375 478.375 C-158.375 482.335 -158.375 486.295 -158.375 490.375 C-125.375 490.375 -92.375 490.375 -58.375 490.375 C-58.375 486.415 -58.375 482.455 -58.375 478.375 C-91.375 478.375 -124.375 478.375 -158.375 478.375 Z M58.625 478.375 C58.625 482.335 58.625 486.295 58.625 490.375 C91.955 490.375 125.285 490.375 159.625 490.375 C159.625 486.415 159.625 482.455 159.625 478.375 C126.295 478.375 92.965 478.375 58.625 478.375 Z " fill="#000000" transform="translate(255.375,-0.375)"/>
<path d="M0 0 C5.2810232 0.83384577 7.29106963 3.8499363 10.34838867 7.96801758 C12.40768661 10.87591176 14.42817253 13.80736809 16.4375 16.75 C17.80978088 18.74356872 19.18217582 20.73705893 20.5546875 22.73046875 C21.21823242 23.69774902 21.88177734 24.6650293 22.56542969 25.66162109 C25.53846198 29.9801504 28.54767487 34.27308103 31.5625 38.5625 C31.5718457 37.51795654 31.58119141 36.47341309 31.59082031 35.3972168 C31.63068874 31.522271 31.69643741 27.64812186 31.77001953 23.77368164 C31.79824768 22.0967024 31.8194531 20.41958965 31.83349609 18.74243164 C31.85490125 16.33149782 31.90153426 13.92217216 31.953125 11.51171875 C31.95435364 10.76162033 31.95558228 10.01152191 31.95684814 9.23869324 C32.10329007 4.03637742 32.10329007 4.03637742 34.47338867 1.59057617 C38.05828631 -0.17359397 40.58945518 0.18411478 44.5625 0.5625 C46.75147716 1.97474333 47.33651718 2.85375403 48.11784363 5.30421448 C48.65914242 8.05331986 48.71302004 10.64217139 48.73950195 13.44506836 C48.75875481 15.22227516 48.75875481 15.22227516 48.77839661 17.03538513 C48.78578354 18.31148148 48.79317047 19.58757782 48.80078125 20.90234375 C48.808853 22.21658829 48.81692474 23.53083282 48.82524109 24.88490295 C48.84023694 27.66472238 48.85009105 30.44451653 48.85766602 33.22436523 C48.86874486 36.77986018 48.90317438 40.33473178 48.94283772 43.89000607 C48.97530005 47.28992696 48.9797808 50.68977985 48.98828125 54.08984375 C49.00578934 55.36391586 49.02329742 56.63798798 49.04133606 57.95066833 C49.03841049 59.13862503 49.03548492 60.32658173 49.0324707 61.55053711 C49.03833694 62.59326279 49.04420319 63.63598846 49.05024719 64.71031189 C48.43143972 68.32889818 47.13747306 69.98601677 44.5625 72.5625 C40.96982651 73.60764138 38.7310875 74.03736081 35.2265625 72.61328125 C31.33464608 69.61730453 29.03973915 65.83502957 26.375 61.75 C25.23300673 60.03823734 24.08976386 58.32730771 22.9453125 56.6171875 C22.37973633 55.76737305 21.81416016 54.91755859 21.23144531 54.04199219 C18.80516277 50.43735124 16.28892402 46.90084412 13.75 43.375 C13.32372314 42.78162842 12.89744629 42.18825684 12.45825195 41.5769043 C11.49474065 40.23751659 10.52892453 38.89978722 9.5625 37.5625 C9.54268066 38.41481201 9.52286133 39.26712402 9.50244141 40.14526367 C9.42410496 43.32308324 9.33740335 46.50053582 9.24511719 49.67797852 C9.20695712 51.05028581 9.17208204 52.42268871 9.140625 53.79516602 C9.09469318 55.7738229 9.03576363 57.75216442 8.9765625 59.73046875 C8.9451416 60.91922607 8.9137207 62.1079834 8.88134766 63.33276367 C8.45687178 67.63245075 7.63558286 70.48941714 4.5625 73.5625 C2.50390625 73.86328125 2.50390625 73.86328125 0.125 73.875 C-1.04869141 73.90013672 -1.04869141 73.90013672 -2.24609375 73.92578125 C-5.05531013 73.46008228 -5.74659271 72.84410882 -7.4375 70.5625 C-7.82518005 67.72303772 -7.82518005 67.72303772 -7.84155273 64.22680664 C-7.85423691 62.91857437 -7.86692108 61.6103421 -7.87998962 60.26246643 C-7.87793812 58.8325281 -7.87495004 57.40259085 -7.87109375 55.97265625 C-7.87565448 54.50678769 -7.88095972 53.04092128 -7.88697815 51.57505798 C-7.89591485 48.50250565 -7.89348025 45.43021315 -7.88354492 42.35766602 C-7.87205813 38.42196659 -7.8922582 34.48716477 -7.92146206 30.55158329 C-7.93981797 27.52406627 -7.93953285 24.49676456 -7.93382454 21.46920586 C-7.93367123 20.01834288 -7.93972391 18.56746541 -7.95211601 17.11665535 C-7.96700849 15.08701627 -7.95372797 13.05722967 -7.93920898 11.02758789 C-7.93904282 9.87303604 -7.93887665 8.71848419 -7.93870544 7.52894592 C-7.09814484 2.55398484 -4.87210147 0.79725297 0 0 Z " fill="#000000" transform="translate(237.4375,163.4375)"/>
<path d="M0 0 C1.23363281 -0.02384766 2.46726563 -0.04769531 3.73828125 -0.07226562 C12.66737829 -0.05803221 19.73560947 1.34379632 26.48046875 7.47705078 C35.47490545 16.80654514 36.87264706 27.75241894 36.6484375 40.19140625 C36.21849264 50.01841323 32.52986389 58.74236658 25.375 65.5625 C17.01260341 71.3646953 9.35820322 72.01796164 -0.625 72.5625 C-1.59308594 72.61792969 -2.56117188 72.67335938 -3.55859375 72.73046875 C-8.69346946 72.8945972 -12.20449868 72.50950088 -16.625 69.5625 C-17.98634441 66.83981119 -17.77479084 64.66372888 -17.80200195 61.61572266 C-17.81483719 60.36747711 -17.82767242 59.11923157 -17.84089661 57.8331604 C-17.84906338 56.46429846 -17.85650723 55.09543204 -17.86328125 53.7265625 C-17.86939454 52.69422548 -17.86939454 52.69422548 -17.87563133 51.64103317 C-17.8964887 47.99897308 -17.91079232 44.35695064 -17.92016602 40.71484375 C-17.93123551 36.95294301 -17.96564152 33.19163297 -18.00533772 29.42994118 C-18.03147958 26.53714903 -18.03985557 23.64449824 -18.04344749 20.75159836 C-18.04831912 19.36490256 -18.05994968 17.97821331 -18.07848549 16.59163284 C-18.10282229 14.65058881 -18.0994975 12.70925772 -18.0949707 10.76806641 C-18.10377007 9.11165634 -18.10377007 9.11165634 -18.11274719 7.42178345 C-16.53215763 -1.8439871 -7.31098668 -0.06373681 0 0 Z M-1.625 15.5625 C-1.625 29.0925 -1.625 42.6225 -1.625 56.5625 C8.62924694 56.61002778 8.62924694 56.61002778 16.75 51.25 C21.21438579 43.86659274 21.49817168 35.47094932 19.91015625 27.1171875 C18.25298801 21.95937393 15.7531471 19.45207709 11.375 16.5625 C6.97928955 15.05870432 3.21253517 15.5625 -1.625 15.5625 Z " fill="#000000" transform="translate(175.625,164.4375)"/>
<path d="M0 0 C2.49544417 1.46460629 4.9405587 2.9405587 7 5 C7.45933014 12.00478469 7.45933014 12.00478469 5.875 15.4375 C3.07982465 17.76681279 1.68043122 18.06691693 -2 18 C-3.63203795 17.24504367 -5.23462184 16.42494272 -6.8125 15.5625 C-11.57812417 12.9709219 -15.61063141 11.95298565 -21 13 C-21.99 13.66 -22.98 14.32 -24 15 C-23.81930873 16.95763178 -23.81930873 16.95763178 -23 19 C-21.16748263 20.15873913 -21.16748263 20.15873913 -18.84375 20.859375 C-17.56262329 21.31981201 -17.56262329 21.31981201 -16.25561523 21.78955078 C-15.34626221 22.10649902 -14.43690918 22.42344727 -13.5 22.75 C-4.30267046 26.18632924 2.0934056 29.79120747 8.0625 37.75 C10.0174217 44.52706189 10.20733221 51.44387255 7.0625 57.875 C3.54501333 63.41831711 -1.83401224 66.94467075 -8 69 C-20.17888627 69.85196337 -30.25056625 69.08845084 -40.1875 61.25 C-43.01080618 58.53800697 -44.59029476 56.7200669 -44.8125 52.75 C-44 49 -44 49 -42.4375 46.5 C-38.9268384 44.33959286 -37.07345904 44.32109016 -33 45 C-30.76856099 46.38234365 -28.80004411 47.89516268 -26.796875 49.58984375 C-23.72018473 52.00437676 -20.8428817 52.18178259 -17.0625 52.25 C-16.20785156 52.27578125 -15.35320312 52.3015625 -14.47265625 52.328125 C-11.53855522 51.93876562 -10.19299799 50.93350171 -8 49 C-8.17616532 46.5727756 -8.17616532 46.5727756 -9 44 C-10.79635558 42.51657008 -10.79635558 42.51657008 -13.1875 41.5625 C-14.0846875 41.14742187 -14.981875 40.73234375 -15.90625 40.3046875 C-18.10029452 39.37942125 -20.3107044 38.49253701 -22.53125 37.6328125 C-29.93398761 34.70651665 -35.83822815 32.06500101 -40 25 C-41.85895996 19.3335317 -41.89163211 13.27661465 -39.4375 7.8125 C-36.5498023 2.70035671 -32.63394704 -0.92881262 -27.1953125 -3.140625 C-17.80943148 -5.66494508 -8.49714187 -4.59937037 0 0 Z " fill="#000000" transform="translate(345,168)"/>
</svg>
