<svg height="512" width="512" xmlns="http://www.w3.org/2000/svg"><path d="m0 0c1.87365234-.05607422 1.87365234-.05607422 3.78515625-.11328125 10.45037864.63097582 17.08906277 6.44407062 24.08642578 13.6875 1.44226653 1.48967414 2.90959719 2.95065291 4.38232422 4.41015625 7.68016552 7.72750342 12.76201688 14.66725504 12.99609375 25.890625-.29326776 20.42400504-19.39745397 33.66371456-32.88183594 47.10449219-1.75401298 1.75209031-3.50779584 3.50441103-5.2613678 5.25694275-3.75471032 3.75156666-7.51090623 7.50163604-11.26844024 11.25037384-5.44067019 5.42802834-10.8780221 10.85937133-16.31451574 16.29158237-8.83446997 8.82742745-17.67080789 17.65298231-26.50870356 26.47697994-.52726336.52643555-1.05452671 1.05287109-1.59776774 1.59525922-3.74324051 3.73733913-7.48654809 7.47461107-11.22986898 11.21186969-4.28308885 4.27615586-8.56614419 8.55234529-12.84912109 12.82861328-.52782443.5269963-1.05564886 1.0539926-1.59946797 1.59695849-8.81287318 8.79916932-17.62376858 17.6003165-26.43326619 26.40286532-5.42128013 5.41681286-10.84432525 10.83184698-16.26970181 16.24455699-4.15603591 4.14658469-8.3095073 8.29573156-12.46205798 12.44580666-1.69904222 1.69717402-3.39894678 3.39348527-5.09978866 5.08885574-2.32676755 2.31951922-4.6503942 4.64214182-6.97330284 6.96552467-1.00287981.99748737-1.00287981.99748737-2.02601981 2.01512599-3.80079584 3.80907835-7.39628826 7.73758317-10.91382611 11.80910135-2.23442298 2.54980401-4.59060452 4.96152723-6.97810757 7.36788082-.49162402.49671184-.98324804.99342368-1.48976976 1.50518739-1.62012008 1.63560333-3.24362044 3.26780463-4.86724013 4.89993346-1.1738286 1.18338607-2.34748931 2.36693871-3.5209961 3.55064392-3.82872059 3.85986666-7.66278495 7.71439963-11.49780273 11.56800842-.65484446.65814178-1.30968892 1.31628356-1.98437715 1.99436903-6.18623859 6.21699147-12.3745173 12.43194554-18.56765055 18.64206934-7.89019479 7.91210653-15.77015777 15.83410558-23.63649577 23.76993334-5.55066896 5.59801587-11.1128844 11.18439397-16.68365061 16.76240993-3.3188538 3.3237903-6.63253701 6.65236684-9.93384666 9.99359095-3.10678028 3.14385298-6.22772871 6.272937-9.35969734 9.39169121-1.14032088 1.14037447-2.27560843 2.28581042-3.40513038 3.43688202-7.42356907 7.55745156-15.75369685 15.48119822-26.80024529 16.69655418-15.11613911-.4357202-22.47206503-5.40099749-32.8984375-15.7265625-1.15242188-1.06154297-1.15242188-1.06154297-2.328125-2.14453125-7.00319226-6.56215153-12.6960841-14.37908331-13.05273438-24.22070313-.0186914-.68384765-.03738281-1.36769531-.05664062-2.07226562-.04576172-.64904297-.09152344-1.29808594-.13867188-1.96679688-.20329486-9.18362456 4.84705307-17.05042632 10.90491856-23.58159971 2.98137891-3.08487696 6.0312256-6.09612793 9.09288418-9.10101747 1.37011833-1.36678262 2.73890233-2.73490391 4.10646057-4.10424805 3.69339658-3.69086185 7.40485306-7.36305757 11.11982417-11.03218555 3.89691557-3.85545458 7.77624011-7.72852766 11.65739751-11.59983349 7.3497532-7.32599727 14.71423174-14.63699588 22.08457142-21.94227576 10.80887556-10.71478414 21.59548954-21.45194232 32.38201279-32.18922067 1.59568531-1.58833667 3.19137789-3.17666604 4.7870779-4.76498795.77939849-.77584875 1.55879698-1.55169749 2.3618136-2.35105681 4.61690777-4.59488027 9.23807943-9.18541745 13.86318666-13.77204394 2.88065386-2.85717738 5.75937783-5.71629444 8.63782895-8.57569075 1.32970959-1.31989461 2.66032875-2.63887365 3.99194908-3.95684052 1.82568731-1.8071032 3.6481204-3.61743125 5.46989822-5.42847442.52025016-.5132446 1.04050031-1.02648919 1.57651562-1.55528665 2.77388274-2.76436105 5.40704634-5.60421509 7.96949154-8.56639457 3.45129747-3.98357938 7.08571995-7.73817754 10.81214714-11.46352386.69454035-.69821704 1.3890807-1.39643407 2.10466772-2.1158092 2.30655716-2.31748961 4.61660418-4.63146681 6.92671961-6.94540906 1.66309101-1.66936311 3.325994-3.33891355 4.98872375-5.00863648 5.43906512-5.4600033 10.88337513-10.91476171 16.32792664-16.36929321 1.8779433-1.88199343 3.75585312-3.76402025 5.63372993-5.64608002 7.80882616-7.82581533 15.6188981-15.65038423 23.43259144-23.47134018 2.02144085-2.02335038 4.04287626-4.0467062 6.06429386-6.0700798.50234752-.50283126 1.00469504-1.00566251 1.52226521-1.52373108 8.14885454-8.15716631 16.28914514-16.32282349 24.42592136-24.49203617 8.36841614-8.40150216 16.74435823-16.79544119 25.12773646-25.18201407 4.70115893-4.70332107 9.39877499-9.41009019 14.08842748-14.12488866 4.40798541-4.43124237 8.82536983-8.85289302 13.25013733-13.26737595 1.62077625-1.62028036 3.23814138-3.24398126 4.85179711-4.87135315 2.20566841-2.22336257 4.42337243-4.43399585 6.6444664-6.64193344.63338364-.64435289 1.26676728-1.28870577 1.91934436-1.9525845 6.8503222-6.75296716 13.83414047-10.0538997 23.51194531-10.24095798zm-6.76599121 24.31214905c-.69969406.63879152-1.39938812 1.27758304-2.12028504 1.93573189-3.65554716 3.46807737-7.24084102 6.99882249-10.79536437 10.57023429-.82046814.82032212-1.64093628 1.64064423-2.48626709 2.48582459-2.68599393 2.68668537-5.36843773 5.37688532-8.05084229 8.06715393-1.87164832 1.87351524-3.74349321 3.74683199-5.61560059 5.61988831-4.40749418 4.41058815-8.81243555 8.82371654-13.21643972 13.23778921-5.01865048 5.02987206-10.04017948 10.05686623-15.06193876 15.0836342-10.31977054 10.33019106-20.63596564 20.66394772-30.94977093 31.00009453.94463388 1.11081312 1.8905293 2.22055349 2.83694458 3.32984924.52660784.61810327 1.05321568 1.23620653 1.59578133 1.8730402 2.14838656 2.46344158 4.42895684 4.77075823 6.74696159 7.07445431.928125.92490234 1.85625 1.84980469 2.8125 2.80273437.96088159.95253037 1.92181976 1.90500366 2.8828125 2.85742188.98460919.97958237 1.968986 1.95939837 2.953125 2.93945312 2.38835703 2.3766494 4.77902712 4.75092044 7.171875 7.12304688 5.39880202-4.50645223 10.41766884-9.27483611 15.38208008-14.25268555.80735596-.80560363 1.61471191-1.61120727 2.4465332-2.44122314 2.64948201-2.64510517 5.29531845-5.29382211 7.94091797-7.94281006 1.84593842-1.84526445 3.69202523-3.69038045 5.53825378-5.53535461 3.85908304-3.85726994 7.71606641-7.71662994 11.57185364-11.57719422 4.45560178-4.4610582 8.91481532-8.91848184 13.37589151-13.3740651 4.30099966-4.29591628 8.59918475-8.59463701 12.89617842-12.89456016 1.82576169-1.82642951 3.65226855-3.65211442 5.47952652-5.47704696 2.54697648-2.54444463 5.09073847-5.09205944 7.63365746-7.64055825.75792343-.7558992 1.51584686-1.5117984 2.29673767-2.29060363.69100799-.69382782 1.38201599-1.38765564 2.09396362-2.10250855.60113523-.60151225 1.20227045-1.2030245 1.8216219-1.8227644 2.37258813-2.56865609 3.47368564-4.37040003 4.08528423-7.83612537-.81774085-5.54246577-3.67472764-7.95801336-7.5625-11.8125-.94904202-.97155825-1.89689139-1.94428248-2.84375-2.91796875-5.68341764-6.38913798-5.68341764-6.38913798-13.28125-9.58203125-4.07922057.52635104-4.71151151.8761425-7.57849121 3.49964905zm-106.19828796 105.65489197c-.77386551.77529052-1.54773102 1.55058105-2.345047 2.34936523-1.3172834 1.31266846-1.3172834 1.31266846-2.66117859 2.65185547-.96183197.96873675-1.92348195 1.93765422-2.88496399 2.90673828-.98891819.99011084-1.97820693 1.97985171-2.96784973 2.96923828-2.08031672 2.08188435-4.15722317 4.16709331-6.23161316 6.25488281-2.63975078 2.65659725-5.28589108 5.30670953-7.93445873 7.95451355-2.04825282 2.04852714-4.09387009 4.09966955-6.13865567 6.15165711-.97329106.97644366-1.94716286 1.95230884-2.92165756 2.92755127-1.37549867 1.3777072-2.7472976 2.75910509-4.11899757 4.14059448-.77784348.78165527-1.55568695 1.56331055-2.35710144 2.36865234-1.99251261 2.09754066-3.88946622 4.22032843-5.7756958 6.41067028-3.35542638 3.84347962-6.85593057 7.4905663-10.47372437 11.08598805-.63752046.63766932-1.27504091 1.27533863-1.93188017 1.93233126-2.11325026 2.11256189-4.23004092 4.22153861-6.34685213 6.3305319-1.52508464 1.52316339-3.04994023 3.04655616-4.57458496 4.57015991-3.2713364 3.26818607-6.54421719 6.53481469-9.81830788 9.80024147-5.17482446 5.16126843-10.34580232 10.32637919-15.51621055 15.49207115-10.96768616 10.95660552-21.93960462 21.90896836-32.91194153 32.86091614-11.86340861 11.84138887-23.72608649 23.68350432-35.58390731 35.53048915-5.14289465 5.13790543-10.28821933 10.27336125-15.43540138 15.40697139-3.19416137 3.18672015-6.38626588 6.37549444-9.57780587 9.56483972-1.48344838 1.48157123-2.96776345 2.96227523-4.4529934 4.44206047-2.02216361 2.0149814-4.04125089 4.03299562-6.05958747 6.05180931-.59249647.58890151-1.18499293 1.17780301-1.79544384 1.78455002-4.76386962 4.74762157-4.76386962 4.74762157-6.96986073 10.96927994.14036314 6.36312885 5.4254002 10.27026411 9.6875 14.4375.67675781.69996094 1.35351562 1.39992188 2.05078125 2.12109375 4.91775667 5.12753547 4.91775667 5.12753547 11.51171875 7.56640625 4.23753344-.1017305 6.12031381-1.82750467 9.15168762-4.67539978.87743677-.81991362 1.75487354-1.63982723 2.65889931-2.48458672 3.91590037-3.7677269 7.79991153-7.56098392 11.63741112-11.40861702.83877685-.83702453 1.67755371-1.67404907 2.54174804-2.53643798 2.73899098-2.7346324 5.47435806-5.47285571 8.20947266-8.21136475 1.91912838-1.91890492 3.8388554-3.83721063 5.75849915-5.75559998 4.0084853-4.00667532 8.01487878-8.01543319 12.0200653-12.02540588 4.61177932-4.61722712 9.22715967-9.23083112 13.84441156-13.84258515 3.98769263-3.98313685 7.97341112-7.96824124 11.95752203-11.9549607 2.36939947-2.37094777 4.73963998-4.74103591 7.11128014-7.10974365 2.64383039-2.64127727 5.28441116-5.28576231 7.92418862-7.93108941.77263687-.77061264 1.54527374-1.54122528 2.34132385-2.33518981 3.33375774-3.34668483 6.58439713-6.71396114 9.6620636-10.29858399 4.45891917-5.1688002 9.31060182-9.94157468 14.14407348-14.75660706 1.04556928-1.04528662 2.09091726-2.09079464 3.13606263-3.13650512 2.81544373-2.81572866 5.63394271-5.62838044 8.45303225-8.4404583 2.95396314-2.9476786 5.90506271-5.89822136 8.85647702-8.84845161 5.57931663-5.57621828 11.16117568-11.14988423 16.74396998-16.72262049 6.35994887-6.34874111 12.71703187-12.70034857 19.07388479-19.05218935 13.06730639-13.0568759 26.13817808-26.11017732 39.21142685-39.16110325-1.81392266-3.91319172-4.34035462-6.63014617-7.375-9.640625-.52513184-.52704529-1.05026367-1.05409058-1.59130859-1.59710693-1.10708024-1.10843735-2.21667471-2.21436853-3.32861329-3.31793213-1.70614787-1.69539895-3.40131859-3.40125204-5.09570312-5.10839844-1.07748392-1.07616308-2.15558767-2.15170601-3.234375-3.2265625-.50837402-.51242249-1.01674805-1.02484497-1.54052734-1.55279541-3.5632957-3.94404489-3.5632957-3.94404489-7.73625183-1.90203857z" transform="translate(341.0625 124.6875)"/><path d="m0 0c2.96518351 1.04043718 4.6152641 2.56260308 6.91210938 4.70410156 1.31000976 1.21888916 1.31000976 1.21888916 2.64648437 2.46240235 4.64252514 4.45278287 9.22083838 8.96373082 13.75976563 13.52197265.94905294.94547897 1.89827109 1.89079213 2.84765624 2.8359375 1.34384766 1.34578125 1.34384766 1.34578125 2.71484376 2.71875.80566406.80679199 1.61132812 1.61358399 2.44140624 2.44482422 3.8049271 4.05157721 4.42876764 6.54950796 4.32421876 11.89892578-.48320713 3.27890547-1.95622254 4.99418371-4.328125 7.2265625-3.67948782 1.83974391-7.00901621 1.85403013-11 1-2.29125977-1.65405273-2.29125977-1.65405273-4.62890626-3.87109375-.86898925-.81758789-1.73797851-1.63517578-2.63330078-2.47753906-.90347168-.87495117-1.80694336-1.74990234-2.73779296-2.65136719-.8996045-.86206054-1.79920899-1.72412109-2.72607422-2.61230468-2.75975441-2.66971429-5.48858395-5.3678793-8.21142578-8.07519532-.93134766-.91072265-1.86269532-1.82144531-2.82226563-2.75976562-.89267578-.88751953-1.78535156-1.77503907-2.70507813-2.68945313-.80042724-.79108154-1.60085449-1.58216308-2.4255371-2.39721679-3.27279143-3.82576858-5.10961914-6.9522041-5.10961914-12.02856446 1.18616182-4.07743129 2.76284135-5.75302697 6-8.4375 2.63513125-1.31756562 4.80236594-1.22461739 7.68164062-.81347656z" transform="translate(398.681641 233.186523)"/><path d="m0 0c2.87029869 1.79393668 4.49131638 2.98263276 6 6 .72649839 3.18014388.68287673 5.80883629 0 9-1.65405273 2.29125977-1.65405273 2.29125977-3.87109375 4.62890625-.81758789.86898926-1.63517578 1.73797852-2.47753906 2.63330078-.87495117.90347168-1.74990235 1.80694336-2.65136719 2.73779297-.86206055.89960449-1.72412109 1.79920898-2.61230469 2.72607422-2.66971428 2.75975441-5.3678793 5.48858394-8.07519531 8.21142578-.91072266.93134766-1.82144531 1.86269531-2.75976562 2.82226562-1.3312793 1.33901368-1.3312793 1.33901368-2.68945313 2.70507813-.79108154.80042725-1.58216309 1.60085449-2.3972168 2.42553711-3.82576857 3.27279143-6.95220409 5.10961914-12.02856445 5.10961914-4.20021886-1.22188185-5.84286649-2.48961349-8.4375-6-1.36446796-4.33419233-1.383446-6.21290224.61694336-10.3190918 2.36508201-3.92376366 5.31296187-7.01077882 8.57446289-10.20043945.5865184-.58464523 1.1730368-1.16929047 1.77732849-1.77165222 1.23111158-1.22443328 2.46579368-2.44528618 3.70387268-3.66267395 1.89503092-1.86369596 3.77901518-3.73801874 5.66137696-5.61450196 1.20185039-1.19268597 2.40430344-2.38476504 3.60742187-3.57617187.56255997-.55831009 1.12511993-1.11662018 1.70472717-1.69184875 5.42093211-5.32218434 8.8024512-7.27646016 16.35386658-6.16362z" transform="translate(428 78)"/><path d="m0 0c2.29125977 1.65405273 2.29125977 1.65405273 4.62890625 3.87109375.86898926.81758789 1.73797852 1.63517578 2.63330078 2.47753906.90347168.87495117 1.80694336 1.74990235 2.73779297 2.65136719 1.34940674 1.29309082 1.34940674 1.29309082 2.72607422 2.61230469 2.75975441 2.66971428 5.48858394 5.3678793 8.21142578 8.07519531.93134766.91072266 1.86269531 1.82144531 2.82226562 2.75976562 1.33901368 1.3312793 1.33901368 1.3312793 2.70507813 2.68945313.80042725.79108154 1.60085449 1.58216309 2.42553711 2.3972168 3.27279143 3.82576857 5.10961914 6.95220409 5.10961914 12.02856445-1.22188185 4.20021886-2.48961349 5.84286649-6 8.4375-4.33419233 1.36446796-6.21290224 1.383446-10.3190918-.61694336-3.92376366-2.36508201-7.01077882-5.31296187-10.20043945-8.57446289-.58464523-.5865184-1.16929047-1.1730368-1.77165222-1.77732849-1.22443328-1.23111158-2.44528618-2.46579368-3.66267395-3.70387268-1.86369596-1.89503092-3.73801874-3.77901518-5.61450196-5.66137696-1.19268597-1.20185039-2.38476504-2.40430344-3.57617187-3.60742187-.55831009-.56255997-1.11662018-1.12511993-1.69184875-1.70472717-6.4505894-6.5702736-6.4505894-6.5702736-6.53862-11.72886658.06803054-3.48089619.33139291-4.55522866 2.25-7.625 3.97110883-3.73751419 7.88020265-4.12233353 13.125-3z" transform="translate(245 78)"/><path d="m0 0c.825-.01289063 1.65-.02578125 2.5-.0390625 3.81710945 1.0139197 5.11389712 2.5013161 7.5 5.6640625.75143192 3.74670277.70072205 7.43886596.6640625 11.25.00478363 1.09086914.00956726 2.18173828.01449585 3.30566406.00339778 2.30307459-.00579592 4.60619749-.02670288 6.90917969-.02676487 3.52323042-.00024546 7.04327481.03173828 10.56640625-.00330412 2.23959036-.00971038 4.47917874-.01953125 6.71875.01012115 1.05219727.02024231 2.10439453.03067017 3.18847656-.11679019 7.29546867-.11679019 7.29546867-3.07998658 11.22314453-2.83066522 1.9901876-4.19098572 2.51687517-7.61474609 2.46337891-.825.01289063-1.65.02578125-2.5.0390625-3.81710945-1.0139197-5.11389712-2.5013161-7.5-5.6640625-.75143192-3.74670277-.70072205-7.43886596-.6640625-11.25-.00478363-1.09086914-.00956726-2.18173828-.01449585-3.30566406-.00339778-2.30307459.00579592-4.60619749.02670288-6.90917969.02676487-3.52323042.00024546-7.04327481-.03173828-10.56640625.00330412-2.23959036.00971038-4.47917874.01953125-6.71875-.01012115-1.05219727-.02024231-2.10439453-.03067017-3.18847656.11679019-7.29546867.11679019-7.29546867 3.07998658-11.22314453 2.83066522-1.9901876 4.19098572-2.51687517 7.61474609-2.46337891z" transform="translate(332 259.375)"/><path d="m0 0c1.63630371-.00717545 1.63630371-.00717545 3.30566406-.01449585 2.30307459-.00339778 4.60619749.00579592 6.90917969.02670288 3.52323042.02676487 7.04327481.00024546 10.56640625-.03173828 2.23959036.00330412 4.47917874.00971038 6.71875.01953125 1.5782959-.01518173 1.5782959-.01518173 3.18847656-.03067017 7.29546867.11679019 7.29546867.11679019 11.22314453 3.07998658 1.9901876 2.83066522 2.51687517 4.19098572 2.46337891 7.61474609.01289063.825.02578125 1.65.0390625 2.5-1.0139197 3.81710945-2.5013161 5.11389712-5.6640625 7.5-3.74670277.75143192-7.43886596.70072205-11.25.6640625-1.09086914.00478363-2.18173828.00956726-3.30566406.01449585-2.30307459.00339778-4.60619749-.00579592-6.90917969-.02670288-3.52323042-.02676487-7.04327481-.00024546-10.56640625.03173828-2.23959036-.00330412-4.47917874-.00971038-6.71875-.01953125-1.05219727.01012115-2.10439453.02024231-3.18847656.03067017-7.29546867-.11679019-7.29546867-.11679019-11.22314453-3.07998658-1.9901876-2.83066522-2.51687517-4.19098572-2.46337891-7.61474609-.01289063-.825-.02578125-1.65-.0390625-2.5 2.30079433-8.66181396 9.47687104-8.23560133 16.9140625-8.1640625z" transform="translate(428.25 169.335938)"/><path d="m0 0c1.63630371-.00717545 1.63630371-.00717545 3.30566406-.01449585 2.30307459-.00339778 4.60619749.00579592 6.90917969.02670288 3.52323042.02676487 7.04327481.00024546 10.56640625-.03173828 2.23959036.00330412 4.47917874.00971038 6.71875.01953125 1.5782959-.01518173 1.5782959-.01518173 3.18847656-.03067017 7.29546867.11679019 7.29546867.11679019 11.22314453 3.07998658 1.9901876 2.83066522 2.51687517 4.19098572 2.46337891 7.61474609.01289063.825.02578125 1.65.0390625 2.5-1.0139197 3.81710945-2.5013161 5.11389712-5.6640625 7.5-3.74670277.75143192-7.43886596.70072205-11.25.6640625-1.09086914.00478363-2.18173828.00956726-3.30566406.01449585-2.30307459.00339778-4.60619749-.00579592-6.90917969-.02670288-3.52323042-.02676487-7.04327481-.00024546-10.56640625.03173828-2.23959036-.00330412-4.47917874-.00971038-6.71875-.01953125-1.05219727.01012115-2.10439453.02024231-3.18847656.03067017-7.29546867-.11679019-7.29546867-.11679019-11.22314453-3.07998658-1.9901876-2.83066522-2.51687517-4.19098572-2.46337891-7.61474609-.01289063-.825-.02578125-1.65-.0390625-2.5 2.30079433-8.66181396 9.47687104-8.23560133 16.9140625-8.1640625z" transform="translate(208.25 169.335938)"/><path d="m0 0c.825-.01289062 1.65-.02578125 2.5-.0390625 3.81710945 1.0139197 5.11389712 2.5013161 7.5 5.6640625.75143192 3.74670277.70072205 7.43886596.6640625 11.25.00478363 1.09086914.00956726 2.18173828.01449585 3.30566406.00339778 2.30307459-.00579592 4.60619749-.02670288 6.90917969-.02676487 3.52323042-.00024546 7.04327481.03173828 10.56640625-.00330412 2.23959036-.00971038 4.47917874-.01953125 6.71875.01012115 1.05219727.02024231 2.10439453.03067017 3.18847656-.11679019 7.29546867-.11679019 7.29546867-3.07998658 11.22314453-2.83066522 1.9901876-4.19098572 2.51687517-7.61474609 2.46337891-.825.01289062-1.65.02578125-2.5.0390625-3.81710945-1.0139197-5.11389712-2.5013161-7.5-5.6640625-.75143192-3.74670277-.70072205-7.43886596-.6640625-11.25-.00478363-1.09086914-.00956726-2.18173828-.01449585-3.30566406-.00339778-2.30307459.00579592-4.60619749.02670288-6.90917969.02676487-3.52323042.00024546-7.04327481-.03173828-10.56640625.00330412-2.23959036.00971038-4.47917874.01953125-6.71875-.01012115-1.05219727-.02024231-2.10439453-.03067017-3.18847656.11679019-7.29546867.11679019-7.29546867 3.07998658-11.22314453 2.83066522-1.9901876 4.19098572-2.51687517 7.61474609-2.46337891z" transform="translate(332 39.375)"/><path d="m0 0c2.96042112 2.58249502 4.59480753 4.1801882 5.4453125 8 .20978357 3.69219084-.33735495 5.83086651-2.3203125 8.9375-2.89872935 2.81347261-3.74717779 3.02471778-7.875 3.4375-3.18509363-.05221465-5.11463972-.5374458-7.6875-2.4375-3.0740335-3.52389206-3.64408318-5.28725862-3.5625-9.9375 1.2812399-3.91908675 2.37452388-5.55932365 5.75-7.9375 4.03315844-1.31853257 6.19108767-1.3170729 10.25-.0625z" transform="translate(217 50)"/><path d="m0 0c3.125 1.875 3.125 1.875 5 5 .98876625 5.02622846.7769173 8.70513784-1.875 13.125-4.41986216 2.6519173-8.09877154 2.86376625-13.125 1.875-3.125-1.875-3.125-1.875-5-5-.98876625-5.02622846-.7769173-8.70513784 1.875-13.125 4.41986216-2.6519173 8.09877154-2.86376625 13.125-1.875z" transform="translate(337 340)"/><path d="m0 0c3.60185638 1.78935906 5.65271868 4.06029761 7.0625 7.875-.08208621 4.10431067-.99010426 6.5818718-3.0625 10.125-3.38927571 2.46492779-5.37591845 2.9890512-9.5625 3.0625-3.52784923-1.09042612-5.36968183-2.24019087-7.5546875-5.25-1.70320926-3.49685442-1.43378985-5.95565856-.8828125-9.8125 3.63889878-5.70094142 7.31851465-7.09085475 14-6z" transform="translate(456 290)"/><path d="m0 0c3.125 1.875 3.125 1.875 5 5 .98876625 5.02622846.7769173 8.70513784-1.875 13.125-4.41986216 2.6519173-8.09877154 2.86376625-13.125 1.875-3.125-1.875-3.125-1.875-5-5-.98876625-5.02622846-.7769173-8.70513784 1.875-13.125 4.41986216-2.6519173 8.09877154-2.86376625 13.125-1.875z" transform="translate(507 170)"/><path d="m0 0c3.125 1.875 3.125 1.875 5 5 .98876625 5.02622846.7769173 8.70513784-1.875 13.125-4.41986216 2.6519173-8.09877154 2.86376625-13.125 1.875-3.125-1.875-3.125-1.875-5-5-.98876625-5.02622846-.7769173-8.70513784 1.875-13.125 4.41986216-2.6519173 8.09877154-2.86376625 13.125-1.875z" transform="translate(167 170)"/><path d="m0 0c2.45928086 3.16193253 3.10459425 4.83302386 3.1875 8.8125-.77952684 3.27401274-1.84383352 4.83005412-4.125 7.3125-3.74024737 2.19536259-6.63314428 2.56157936-10.875 1.6875-2.8100346-1.79363911-4.50940468-3.01880935-6-6-.46776468-4.67764683-.72969391-7.6626117 2.25-11.4375 5.0209756-4.67863636 10.02785321-4.67972528 15.5625-.375z" transform="translate(459.8125 52.1875)"/><path d="m0 0c3.125 1.875 3.125 1.875 5 5 .98876625 5.02622846.7769173 8.70513784-1.875 13.125-4.41986216 2.6519173-8.09877154 2.86376625-13.125 1.875-3.125-1.875-3.125-1.875-5-5-.98876625-5.02622846-.7769173-8.70513784 1.875-13.125 4.41986216-2.6519173 8.09877154-2.86376625 13.125-1.875z" transform="translate(337)"/></svg>