<svg height="512" width="512" xmlns="http://www.w3.org/2000/svg"><path d="m0 0c.65564941-.00671722 1.31129883-.01343445 1.98681641-.02035522 2.16739482-.01899696 4.33448022-.02290508 6.50195312-.02505494 1.50831225-.00642713 3.01662324-.01315543 4.52493286-.02017212 3.16245412-.01197724 6.32479897-.01568041 9.48727417-.01449584 4.04765232.00020313 8.09460206-.02709039 12.14208794-.06154442 3.11588938-.02226537 6.23160964-.02629324 9.34757042-.02523613 1.49191457-.00235685 2.98383374-.01118521 4.47566986-.02666474 2.08985322-.01965278 4.17819129-.01382668 6.26807022-.00178909 1.78179153-.00427505 1.78179153-.00427505 3.59957886-.00863647 3.82471011.5979927 5.44366835 1.78472801 8.16262817 4.49447631 2.54087987 5.02731232 3.37055881 10.00943169 4.234375 15.53515625 1.81645383 14.50661316 1.81645383 14.50661316 9.05029297 26.48730469 5.56401192 2.79186571 11.54763925 3.55781889 17.65820312 4.41503906 5.00423887.92076077 9.44380938 2.90798745 14.05712891 5 .86133545.37616455 1.7226709.75232911 2.61010742 1.13989258 6.08080928 2.69785258 11.97757668 5.70500196 17.68676758 9.12353516 2.43805741 1.40451759 4.13329357 2.34409267 6.98364258 2.11889648 3.42369313-1.03211792 6.25599339-2.71781577 9.26245117-4.60107422.60967117-.37354614 1.21934235-.74709228 1.8474884-1.131958 1.93673865-1.18863066 3.86696391-2.38738408 5.79704285-3.586792 1.94216205-1.19706189 3.88558304-2.39205819 5.82917786-3.58679199 1.20645569-.74269303 2.41180816-1.48718177 3.61593628-2.23364258 5.39306317-3.33962492 8.98040312-4.80225722 15.36738586-3.67956543 1.8999176 1.2585907 1.8999176 1.2585907 3.72485352 2.9597168.68998077.63811615 1.37996154 1.2762323 2.09085083 1.9336853.72081756.69517731 1.44163513 1.39035462 2.18429565 2.1065979.72702118.70089753 1.45404236 1.40179505 2.20309448 2.12393189 2.37569071 2.32310418 4.72764834 4.66812437 7.07424927 7.02059936.8519545.85099778 1.703909 1.70199555 2.5816803 2.57878113 1.78528095 1.78460468 3.56931667 3.57045587 5.35215759 5.35749817 2.73901497 2.74441108 5.48337788 5.48339378 8.22827149 8.22192383 1.73795129 1.73861139 3.47559273 3.47753258 5.21289062 5.21679687.82281967.82079544 1.64563934 1.64159089 2.49339295 2.48725891 1.13236839 1.13709664 1.13236839 1.13709664 2.28761291 2.29716492.66648056.66727616 1.33296112 1.33455231 2.01963806 2.02204895 2.74396756 2.96920106 3.15134758 5.78519892 3.10462952 9.80778504-1.263924 6.49670217-5.48557874 12.18076043-8.93261719 17.74121093-.8038805 1.32964429-1.60598063 2.66036667-2.40625 3.9921875-2.66896009 4.42491902-5.35179831 8.83238496-8.21875 13.1328125.25904611 4.73803681 2.78731602 8.5234252 5.0625 12.5625 3.41684319 6.28099196 6.44199058 12.6221537 9.125 19.25.35102783.827417.70205567 1.65483399 1.0637207 2.50732422 1.79101372 4.41894177 2.93119423 8.314372 3.31518555 13.07861328.8868085 8.09055116.8868085 8.09055116 5.43359375 14.6015625 8.99821818 4.65551256 20.06756883 6.17074164 29.98504639 7.68501282 4.84044528.80227895 8.09305612 2.18275318 12.01495361 5.31498718 2.39546475 3.59319712 2.26306985 5.23089371 2.29052735 9.50341797.01007583.98347412.01007583.98347412.02035522 1.98681641.01899696 2.16739482.02290508 4.33448023.02505493 6.50195312.00642714 1.50831225.01315543 3.01662324.02017212 4.52493287.01197725 3.16245411.01568041 6.32479896.01449585 9.48727417-.00020313 4.04765231.02709039 8.09460206.06154442 12.14208793.02226536 3.11588938.02629324 6.23160964.02523613 9.34757042.00235685 1.49191457.01118521 2.98383374.02666473 4.47566986.01965278 2.08985322.01382669 4.17819129.0017891 6.26807022.00285003 1.18786103.00570007 2.37572205.00863647 3.59957886-.59803129 3.82495688-1.78486434 5.44319835-4.49447632 8.16262817-4.44701172 2.26354498-8.50446291 3.12741023-13.44078064 3.8123169-15.90827116 1.69061787-15.90827116 1.69061787-28.77796936 9.88104248-3.29219414 6.60496449-4.64329056 13.68454808-6.01806641 20.89111328-1.14116385 5.10712805-3.14608165 9.64539162-5.38818359 14.35302734-.36810791.81033692-.73621582 1.62067383-1.11547851 2.45556641-2.6280637 5.66670704-5.72541354 10.74145121-9.53295899 15.70849609-1.05379247 4.20383878.52670259 6.37724167 2.57714844 10.07519532 3.76958053 6.27395355 7.63489753 12.48687556 11.60839844 18.63378906 6.41423258 10.33228599 6.41423258 10.33228599 5.72985839 15.99023437-.76094362 2.60679984-1.79944167 3.88335282-3.62585449 5.88330079-.63462661.69586715-1.26925323 1.39173431-1.92311096 2.10868835-3.68702906 3.88825165-7.44391366 7.70042601-11.23753357 11.48457336-.85099777.8519545-1.70199554 1.703909-2.57878113 2.5816803-1.78460467 1.78528096-3.57045586 3.56931667-5.35749817 5.35215759-2.74441107 2.73901497-5.48339377 5.48337788-8.22192382 8.22827149-1.73861139 1.73795129-3.47753258 3.47559273-5.21679688 5.21289062-.82079544.82281968-1.64159088 1.64563935-2.48725891 2.49339295-.75806442.75491226-1.51612885 1.50982452-2.29716492 2.28761291-.66727615.66648056-1.3345523 1.33296112-2.02204895 2.01963806-2.97256234 2.74707388-5.79005912 3.14778591-9.81657409 3.10023499-6.45256151-1.24927413-12.08878132-5.43948052-17.60742188-8.86572266-1.31270358-.79543547-2.62649925-1.5890716-3.94140625-2.38085937-2.41414428-1.45754429-4.82181682-2.924579-7.22167969-4.40551758-1.01868164-.6273706-2.03736328-1.25474121-3.08691406-1.90112305-.90000732-.58966552-1.80001465-1.17933105-2.72729492-1.78686523-2.28347972-1.52812648-2.28347972-1.52812648-5.15161133-.63500977-3.44780698 1.57071557-6.75903596 3.31674943-10.05859375 5.171875-14.53965939 7.94236107-30.78362959 14.10846361-47.0625 17.25-.21914062.96035157-.43828125 1.92070313-.6640625 2.91015625-1.08311093 4.70359597-2.20534379 9.39746112-3.3359375 14.08984375-.23557617.98403809-.47115234 1.96807618-.71386719 2.9819336-.74728929 3.09319154-1.51440035 6.18089125-2.28613281 9.2680664-.35505615 1.48125367-.35505615 1.48125367-.71728515 2.99243164-1.29369121 5.09363505-2.40756057 8.97616782-6.28271485 12.75756836-2.82949436 1.41474718-5.22570596 1.15079316-8.38989258 1.17700196-.65550338.00657119-1.31100677.01314239-1.9863739.01991272-2.17275606.01973588-4.34544298.03139649-6.51826477.04136657-1.11320901.00611329-1.11320901.00611329-2.24890709.01235009-3.92850275.02086257-7.85697056.03516311-11.78551674.04453468-4.05548614.01106143-8.11042313.045457-12.16571521.0851717-3.12015832.02616104-6.24018573.03451966-9.36044407.03810978-1.49471875.00486781-2.98943157.01648748-4.48404312.03503799-2.09469628.02438115-4.18797125.02342939-6.28276635.01648522-1.78631584.00879936-1.78631584.00879936-3.60871887.01777649-3.83231-.58977208-5.45017105-1.76951552-8.1693573-4.4877472-3.32770077-6.93201143-4.81005092-14.66604908-6.64428711-22.1105957-.54654188-2.21539831-1.10197831-4.42843413-1.65844726-6.64135742-2.69726563-10.83688119-2.69726563-10.83688119-2.69726563-14.24804688-.92039062-.09152343-1.84078125-.18304687-2.7890625-.27734375-5.38094353-.77622742-10.44674757-2.56044589-15.5859375-4.28515625-1.05840088-.35425048-2.11680176-.70850097-3.20727539-1.07348632-11.76263905-4.03303198-23.21154417-8.92508852-33.65600586-15.74682618-1.80075944-.8496725-1.80075944-.8496725-3.68504238.17080403-2.01712139 1.17725047-3.43225544 2.33022121-5.06521702 3.98695659-.56176437.56479569-1.12352875 1.12959137-1.70231628 1.71150208-.60418762.61766235-1.20837525 1.23532471-1.83087158 1.8717041-.64615769.6522908-1.29231537 1.3045816-1.95805359 1.97663879-1.40224213 1.4165416-2.80223676 2.83531073-4.200243 4.25603295-2.22002576 2.25486919-4.44712213 4.50252414-6.67640495 6.74823952-6.33744078 6.38626944-12.6638291 12.78339946-18.98072815 19.18998718-3.86686089 3.92075169-7.74367175 7.83144032-11.62656975 11.73630714-1.47127188 1.48360948-2.93874908 2.97099287-4.40217972 4.4623375-13.69433986 13.95300942-26.13814503 24.54435882-46.63409233 24.77230262-13.81584658-.15365167-25.15490385-4.36022006-35.4765625-13.75390625-10.79736531-11.24876018-14.95236561-23.83162665-14.88696289-39.11499023.42716824-20.76417362 13.45124494-33.30539983 27.35961914-47.01782227 1.56028901-1.55281558 3.11968754-3.1065264 4.67823792-4.66108703 4.07640343-4.06123401 8.16467941-8.11030349 12.25566101-12.1568451 4.18365672-4.14251568 8.35581389-8.29657874 12.5289917-12.44964599 8.16920875-8.12649146 16.35102369-16.24016137 24.54101562-24.34570313-1.52535532-4.74814877-3.45985269-9.08019942-5.75-13.5-5.38202657-10.62627131-9.99200722-21.27969485-13.625-32.625-.39469482-1.22746948-.39469482-1.22746948-.79736328-2.47973632-.23960449-.77239014-.47920898-1.54478028-.72607422-2.34057618-.21317871-.68594238-.42635742-1.37188476-.64599609-2.07861328-.45556641-1.97607422-.45556641-1.97607422-.45556641-5.97607422-.62801514-.10521972-1.25603027-.21043945-1.90307617-.31884765-7.8844288-1.37188634-15.63958241-3.1456031-23.40942383-5.05615235-1.85334961-.43699218-1.85334961-.43699218-3.74414062-.8828125-13.6954138-3.37026912-13.6954138-3.37026912-17.94335938-9.7421875-.26742554-2.90866088-.26742554-2.90866088-.29052734-6.50341796-.01007584-.98347413-.01007584-.98347413-.02035523-1.98681641-.01899696-2.16739482-.02290507-4.33448023-.02505493-6.50195313-.00642713-1.50831224-.01315543-3.01662324-.02017212-4.52493286-.01197725-3.16245412-.01568041-6.32479897-.01449585-9.48727417.00020314-4.04765232-.02709039-8.09460206-.06154442-12.14208793-.02226536-3.11588938-.02629323-6.23160964-.02523613-9.34757042-.00235684-1.49191457-.01118521-2.98383374-.02666473-4.47566986-.01965278-2.08985322-.01382668-4.1781913-.00178909-6.26807022-.00285004-1.18786103-.00570008-2.37572205-.00863648-3.59957886.59785677-3.82384068 1.78242976-5.44684607 4.49447632-8.16262818 6.94636257-3.33862704 14.70317461-4.81079955 22.16552735-6.64428711 2.22617334-.54731886 4.45032694-1.10232778 6.6743164-1.65844726 10.86443642-2.69726563 10.86443642-2.69726563 13.16015625-2.69726563.20753906-.94617187.41507813-1.89234375.62890625-2.8671875 3.86499603-16.87585236 10.02240988-35.37324632 19.56884766-49.9633789 1.3541221-1.98781662 1.3541221-1.98781662 2.80224609-5.1694336-1.10048637-4.69674791-3.35195897-8.58487017-5.87890625-12.640625-.37213119-.60825622-.74426239-1.21651245-1.12767029-1.84320068-1.17964978-1.92560138-2.3674961-3.84598046-3.55592346-5.76617432-1.19013945-1.93556914-2.37859588-3.87216221-3.56663513-5.80902099-.73736511-1.20074285-1.47629395-2.40052714-2.21694946-3.59924317-3.32148972-5.38352383-4.77353273-8.97224377-3.65391541-15.34173584 1.2585907-1.8999176 1.2585907-1.8999176 2.9597168-3.72485351.63811615-.68998078 1.2762323-1.37996155 1.9336853-2.09085083.69517731-.72081757 1.39035462-1.44163513 2.1065979-2.18429566.70089752-.72702118 1.40179505-1.45404235 2.12393189-2.20309448 2.32310417-2.3756907 4.66812437-4.72764834 7.02059936-7.07424927.85099777-.85195449 1.70199555-1.70390899 2.57878113-2.58168029 1.78460468-1.78528096 3.57045586-3.56931668 5.35749817-5.3521576 2.74441107-2.73901496 5.48339377-5.48337788 8.22192383-8.22827148 1.73861139-1.73795129 3.47753258-3.47559273 5.21679687-5.21289063.82079544-.82281967 1.64159088-1.64563934 2.48725891-2.49339294.75806442-.75491226 1.51612885-1.50982452 2.29716492-2.28761292.66727615-.66648056 1.33455231-1.33296112 2.02204895-2.01963806 2.97367144-2.74809883 5.7930385-3.14779309 9.82096863-3.10023498 6.4305708 1.24693423 12.04634371 5.44141194 17.54052734 8.86572265 1.94396997 1.18571295 3.89123445 2.36585508 5.83906555 3.5452118 1.20406293.73180895 2.40527377 1.46834003 3.60299683 2.21047973 5.28214393 3.26016292 5.28214393 3.26016292 10.87043762 5.93180847 2.75017205-1.12207019 4.75144558-2.20012976 7.1875-3.8125 12.52318752-7.65003731 30.16224829-17.20199686 45.07202149-18.36352539 2.95961758-.43395526 4.41237903-.90453088 6.74047851-2.82397461 2.44143712-5.74359642 3.58985892-11.71222014 4.8125-17.8125.52853565-2.4887733 1.06830477-4.97441621 1.62101746-7.45793151.34014087-1.54251593.66502701-3.08850336.97195434-4.63796998 1.9000403-8.95140665 5.4711988-14.32025929 15.09794617-14.38212585zm5.49658203 20.29052734c-2.79490741 11.57424081-2.79490741 11.57424081-5.56347656 23.15478516-.35810528 1.46165743-.71709671 2.92309816-1.07714844 4.38427734-.26079346 1.11991333-.26079346 1.11991333-.52685547 2.26245118-1.18171494 4.73469607-2.75036595 8.30443567-5.83251953 12.19848632-2.671875 1.28515625-2.671875 1.28515625-5.75 2.0625-1.155.31453125-2.31.6290625-3.5.953125-1.2375.32484375-2.475.6496875-3.75.984375-18.35331476 5.34051373-36.50089289 12.07297305-52.375 22.9375-4.10820902 2.52490444-7.80371996 3.69396785-12.625 3.0625-5.25412534-2.29872701-10.02317367-5.27289572-14.875-8.3125-1.32943249-.8087759-2.66015366-1.61543752-3.9921875-2.41992187-4.42559736-2.68416697-8.82547577-5.39602031-13.1328125-8.26757813-3.14264844.33388554-4.81400433 1.43000527-7.0402832 3.60449219-.56350662.54436707-1.12701325 1.08873413-1.70759583 1.64959717-.59495773.59161926-1.18991546 1.18323852-1.80290222 1.79278564-.61820114.60821595-1.23640228 1.21643189-1.87333679 1.84307862-1.30243247 1.28725999-2.60083475 2.57860868-3.89546204 3.87371826-1.9876206 1.98104633-3.99797918 3.93687117-6.01049804 5.89257812-1.26253356 1.25373392-2.52365116 2.50889569-3.78320313 3.765625-.60507889.58352234-1.21015777 1.16704468-1.83357239 1.76824952-3.17308391 3.13030813-3.17308391 3.13030813-4.15739441 7.31207275 1.40120876 3.16952616 3.04959191 6.10990753 4.88549805 9.04077148.37354614.60967118.74709229 1.21934235 1.13195801 1.84748841 1.18863065 1.93673865 2.38738407 3.8669639 3.58679199 5.79704284 1.1970619 1.94216205 2.39205819 3.88558304 3.58679199 5.82917786.74269303 1.20645569 1.48718178 2.41180816 2.23364258 3.61593628 3.07002195 4.95768917 4.58883315 8.43992956 3.67956543 14.36738586-1.36143349 3.21151279-3.18601686 6.0665317-5.0625 9-9.13653259 15.0431553-15.8245168 31.17032041-20.0234375 48.296875-.16733642.67796631-.33467285 1.35593262-.50708008 2.05444336-.43868728 1.83254027-.84780197 3.67208946-1.25463867 5.51196289-1.43814141 3.91466968-2.93017176 5.47515315-6.15234375 8.13671875-2.93019984 1.23247528-5.92858633 1.95523684-9.01953125 2.67578125-.76163452.19154663-1.52326904.38309327-2.3079834.58044434-2.82359525.70466933-5.65476518 1.37870319-8.48498535 2.05627441-6.331875 1.546875-12.66375 3.09375-19.1875 4.6875v44c12.60625527 3.12502374 12.60625527 3.12502374 25.21948242 6.22167969 1.58725238.39904449 3.1742646.79904601 4.76098633 1.20019531.81650025.19545411 1.63300049.39090821 2.47424317.59228516 4.67231007 1.19608854 8.1253066 2.38740329 11.54528808 5.98583984 1.11499024 2.40332032 1.11499024 2.40332032 1.80859375 5.078125.26868897.98806641.53737793 1.97613282.81420899 2.99414063.26885009 1.04865234.53770019 2.09730469.81469726 3.17773437.59980891 2.18349343 1.20398797 4.36579101 1.8125 6.546875.29519531 1.0641211.59039063 2.12824219.89453125 3.22460938 3.53761028 12.3170221 8.92554777 23.66049386 14.85546875 34.97851562 4.10108887-1.62156024 6.83148167-4.5767703 9.859375-7.6640625.823862-.82810684.823862-.82810684 1.66436768-1.67294311 1.74685025-1.75801254 3.48660333-3.52286329 5.22625732-5.28799439 1.18573591-1.1957708 2.3719288-2.39108865 3.55859375-3.5859375 2.90245711-2.92446503 5.79857036-5.85508123 8.69140625-8.7890625-1.44172284-4.37672683-2.89589206-8.74513417-4.46484375-13.078125-11.84629404-33.12207965-12.58713732-69.72451176-.53515625-102.921875.24733887-.68416992.49467774-1.36833984.74951172-2.07324218 13.69319236-37.08250587 41.1439962-65.30851827 76.25048828-82.92675782 13.08799722-5.74493094 13.08799722-5.74493094 18.6875-4.3125 2.74835046 1.55987459 3.89229099 2.47208197 5.3125 5.3125.70126874 5.52249135.70126874 5.52249135 0 8-3.8651731 4.88717713-8.50780487 6.88998707-14.0625 9.3125-31.38627704 14.3077473-55.5665212 40.71940812-67.75 72.9375-10.55692652 29.75950852-10.48569045 62.1823952.8125 91.75 7.63951692 0 16.50557151-11.3559904 21.78295899-16.48535156 7.4854365-7.63903643 12.1501108-13.83746913 12.04443359-24.78149414-.34368571-5.1679561-.84809449-10.2913234-1.5144043-15.42749023-1.60249279-16.92492389 9.45576273-35.73154503 19.68701172-48.30566407.48984375-.64066406.9796875-1.28132812 1.484375-1.94140625 11.85513981-14.88552667 33.45800516-26.26347965 52.17822266-28.82714843 27.29942573-2.7031393 51.81668586 2.17984513 73.33740234 19.76855468.97839844.77214844 1.95679688 1.54429688 2.96484375 2.33984375 15.46269563 12.9811804 25.15893215 33.98960441 28.03515625 53.66015625 1.74765838 27.62746579-3.17164971 50.41831281-21 72-.61746094.82371094-1.23492187 1.64742188-1.87109375 2.49609375-12.65836938 14.88810051-33.88190697 25.17820866-53.12890625 27.50390625-2.1133412-.2511453-4.21877973-.57542879-6.3125-.95703125-10.26395811-1.32081661-20.31394903-2.5633448-29.07373047 3.89697266-9.57625898 7.9105921-17.75077016 17.48697355-25.61376953 27.06005859.79932473 2.139311.79932473 2.139311 2.7590332 2.74609375.75627686.22816407 1.51255372.45632813 2.29174805.69140625.84498047.25523438 1.68996094.51046875 2.56054688.7734375 1.33708007.39058594 1.33708007.39058594 2.70117187.7890625 1.27327149.39058594 1.27327149.39058594 2.57226563.7890625 22.397369 6.65368202 47.66206773 6.68495042 70.11523437.2109375.72928711-.20898925 1.45857422-.41797851 2.20996094-.63330078 34.67281868-10.32757986 61.58935906-34.46498383 78.66503906-65.92919922 3.93902606-7.56899138 6.92915712-15.1750401 9.125-23.4375.19464844-.69802734.38929688-1.39605468.58984375-2.11523437 9.00527809-33.34307213 3.27208922-68.69731974-13.62231445-98.45629883-16.11329454-27.23462724-39.93141908-44.2745221-68.18237305-57.3581543-1.78515625-1.0703125-1.78515625-1.0703125-3.78515625-4.0703125-.44726564-4.62174501-.63230179-6.8993265 1.6875-10.9375 2.6243069-2.34059804 3.87912503-2.65376488 7.3125-3.0625 20.81817724 2.73214526 41.34301584 20.31562435 56 34 1.22203125 1.12341797 1.22203125 1.12341797 2.46875 2.26953125 15.4853592 14.77479683 26.45111036 33.65021902 33.53125 53.73046875.22671387.63373536.45342774 1.26747071.68701172 1.92041016 9.02750442 25.63914354 11.27416821 56.60918032 4.31298828 83.07958984-.29003906 1.18335938-.58007812 2.36671875-.87890625 3.5859375-5.00883668 18.98747293-13.43867415 36.66018669-25.12109375 52.4140625-.90298828 1.24136719-.90298828 1.24136719-1.82421875 2.5078125-9.82966167 12.92142077-21.65953662 23.6063572-35.17578125 32.4921875-.85207031.60972657-1.70414062 1.21945313-2.58203125 1.84765625-29.68192153 20.52025757-71.00624691 26.77260863-106.24145508 21.07446289-10.57407528-2.0588072-20.77920926-5.47166369-30.9008789-9.11596679-2.74639074-.97291945-5.50958231-1.89083232-8.27563477-2.80615235-3.85155977 3.80223917-7.69659392 7.61091212-11.53564453 11.42578125-1.30778125 1.29770389-2.61734916 2.59360975-3.92871094 3.88769532-1.88115953 1.85698742-3.75586575 3.72027906-5.62939453 5.58496093-.88588806.87040421-.88588806.87040421-1.78967285 1.75839234-1.41066066 1.41026644-2.76918031 2.87234158-4.11657715 4.34317016v2c15.44988233 7.87905471 30.97423652 14.77975172 47.94335938 18.67578125.97259765.23074219 1.94519531.46148438 2.94726562.69921875.88204102.19335938 1.76408203.38671875 2.67285156.5859375 3.35876825 1.43235648 4.50575424 2.93381028 6.43652344 6.0390625 1.09664348 2.9532643 1.84530747 5.95822075 2.578125 9.01953125.19255371.76163453.38510742 1.52326905.58349609 2.3079834.71017936 2.82483255 1.39798235 5.65525281 2.08837891 8.48498535l4.75 19.1875h44c3.08523484-12.60503987 3.08523484-12.60503987 6.1315918-25.21948242.39614502-1.58734481.79360055-3.17436338 1.19262695-4.76098633.19033814-.81650024.38067627-1.63300048.57678223-2.47424316 1.3112331-5.12516009 2.75196028-8.21143307 7.09899902-11.54528809 2.62451172-1.11499023 2.62451172-1.11499023 5.4296875-1.80859375 1.03519776-.26868896 2.07039551-.53737793 3.13696289-.81420898 1.09175537-.2688501 2.18351074-.5377002 3.30834961-.81469727 19.04452658-5.02205762 36.79583483-12.45152059 53.28125-23.3125 3.66437756-1.61071541 6.92664309-1.74544747 10.84375-1.25 2.57524422 1.1176228 4.67585095 2.18039953 7.01953125 3.6484375.6252507.37258942 1.25050141.74517884 1.8946991 1.12905884 1.97637693 1.18300367 3.93702375 2.38961757 5.89826965 3.59750366 1.33432862.80367577 2.66960835 1.60577465 4.00585938 2.40625 4.44075718 2.66958693 8.86958212 5.34404433 13.18164062 8.21875 3.14264844-.33388554 4.81400433-1.43000527 7.0402832-3.60449218.56350663-.54436707 1.12701325-1.08873413 1.70759583-1.64959717.59495773-.59161926 1.18991547-1.18323853 1.80290222-1.79278565.92730171-.91232391.92730171-.91232391 1.87333679-1.84307861 1.30243247-1.28726 2.60083475-2.57860868 3.89546204-3.87371826 1.9876206-1.98104633 3.99797918-3.93687117 6.01049805-5.89257813 1.26253356-1.25373391 2.52365116-2.50889568 3.78320312-3.765625.60507889-.58352234 1.21015778-1.16704467 1.83357239-1.76824951 3.17308391-3.13030813 3.17308391-3.13030813 4.15739441-7.31207275-1.40120876-3.16952616-3.04959191-6.10990753-4.88549805-9.04077149-.37354614-.60967117-.74709228-1.21934234-1.13195801-1.8474884-1.18863065-1.93673865-2.38738407-3.8669639-3.58679199-5.79704285-1.1970619-1.94216204-2.39205819-3.88558304-3.58679199-5.82917785-.74269303-1.20645569-1.48718178-2.41180816-2.23364258-3.61593628-3.56567628-5.75810694-4.20618409-8.71373138-2.67956543-15.36738587 1.40605491-3.16553299 3.20347539-6.02014731 5.0625-8.9375 8.9189074-14.70328177 15.88264048-30.39129222 19.953125-47.15234375.16661133-.67522705.33322266-1.3504541.50488281-2.04614257.45061925-1.86924388.87231673-3.74539262 1.29199219-5.62182618 1.44460784-3.94415955 2.86631332-5.67356279 6.1875-8.2421875 12.08540875-4.56531705 25.58883579-6.89720894 38-10 0-14.52 0-29.04 0-44-11.62021422-2.83594392-11.62021422-2.83594392-23.24487305-5.65356445-1.46411121-.36091309-2.92807025-.72244433-4.3918457-1.0847168-.75172485-.17897827-1.50344971-.35795654-2.2779541-.54235839-4.12681863-1.03050957-7.64129191-2.10095555-11.08532715-4.71936036-1.25562475-2.73000991-2.17256578-5.14307877-3-8-.22896973-.78391113-.45793945-1.56782226-.69384765-2.37548828-.72487155-2.55750846-1.42183909-5.12172931-2.11865235-7.68701172-5.07211438-18.10634228-12.47531434-35.32616835-22.9375-50.99609375-1.81038884-4.26007123-2.33375391-7.4800707-1.25-11.94140625 2.64371786-5.34651111 5.8257419-10.30947389 9.0625-15.3125 1.30330286-2.03278676 2.600268-4.06875288 3.88267517-6.11479187.79509695-1.26693269 1.60260943-2.52617858 2.42373657-3.7763977 2.10028598-3.15352206 2.10028598-3.15352206 2.39004517-6.79786682-.83491584-2.1984545-1.72654149-3.36283131-3.3634491-5.03872681-.54436706-.56350662-1.08873413-1.12701324-1.64959716-1.70759582-.59161927-.59495774-1.18323853-1.18991547-1.79278565-1.80290223-.91232391-.92730171-.91232391-.92730171-1.84307861-1.87333679-1.28726-1.30243246-2.57860869-2.60083475-3.87371826-3.89546203-1.98104634-1.98762061-3.93687117-3.99797919-5.89257813-6.01049805-1.25373392-1.26253356-2.50889568-2.52365116-3.765625-3.78320313-.58352234-.60507888-1.16704468-1.21015777-1.76824951-1.83357238-3.13700516-3.176569-3.13700516-3.176569-7.32745361-4.15959168-3.13026403 1.39519636-5.90228143 3.05611017-8.77929688 4.92285156-1.21828816.77221348-2.43705362 1.54367437-3.65625 2.31445313-1.89896094 1.21183692-3.79341583 2.42938221-5.6796875 3.66088867-13.01188571 8.46078813-13.01188571 8.46078813-19.39501953 7.75097656-3.54372074-.97520317-6.4472197-2.58011443-9.53466797-4.54272461-1.40596544-.83470955-2.81356243-1.66667619-4.22265625-2.49609375-.70527832-.4213623-1.41055664-.84272461-2.13720703-1.27685547-16.5504598-9.77468988-34.85305096-15.70463932-53.46826172-20.24267578-3.19438471-1.20506728-4.55564642-2.24607023-6.609375-4.984375-.97286068-2.69496929-1.75098973-5.23455226-2.4375-8-.17853516-.67289062-.35707031-1.34578125-.54101562-2.0390625-2.43749843-9.29039804-4.69408514-18.65134055-7.02148438-27.9609375-14.52 0-29.04 0-44 0zm-29 183c-.66386719.63292969-1.32773437 1.26585938-2.01171875 1.91796875-9.17040918 9.33527048-15.71388406 24.49665149-16.0859375 37.49340821.01160156 1.13912841.02320313 2.27825683.03515625 3.45190429.00902344 1.15411377.01804688 2.30822754.02734375 3.49731446.01160156.87100341.02320313 1.74200683.03515625 2.63940429 4.47289499-1.44083059 8.94482779-2.88460791 13.41610718-4.33044433 1.63929259-.5297137 3.27879888-1.0587665 4.91851807-1.58715821 10.07117917-3.24631719 20.11455926-6.55950876 30.122406-9.99645996 2.82429436-.96391319 5.6488686-1.92700312 8.47344971-2.89007568 1.82623847-.62653511 3.65062082-1.25850898 5.47302246-1.89611816 2.5732693-.9000087 5.15237469-1.78109989 7.73321533-2.65911866 1.12460381-.40226303 1.12460381-.40226303 2.27192688-.81265258 6.42196205-2.15234424 13.06888347-3.00212938 19.59135437-.82797242 3.54937667 10.64813-1.22199307 20.94634282-4.6875 31.00390625-.58428528 1.73163337-1.16718993 3.46373313-1.7487793 5.19627381-1.52560678 4.53321697-3.06888805 9.06021243-4.616333 13.58601379-1.57850743 4.62579355-3.1415856 9.25678967-4.7052002 13.88763428-1.75388517 5.19422595-3.50907411 10.38794115-5.27807617 15.57704162-.40042008 1.17660691-.40042008 1.17660691-.80892944 2.37698365-.50048257 1.47003463-1.00215195 2.93966592-1.50518799 4.40882873-1.1561491 2.91731892-1.1561491 2.91731892-1.6499939 5.96331787 16.98894465.73984114 33.05810304-3.72798103 46.03613281-15.08276367 2.40392911-2.23205509 4.68631876-4.55572298 6.96386719-6.91723633.66386719-.63292968 1.32773438-1.26585937 2.01171875-1.91796875 11.7169868-11.92762925 16.21220644-28.89004884 16.36328125-45.08203125-.17578108-18.83996501-6.27698582-35.08595587-19.73828125-48.45703125-.87011719-.83917968-1.74023437-1.67835937-2.63671875-2.54296875-.63292969-.66386718-1.26585937-1.32773437-1.91796875-2.01171875-11.92762925-11.71698679-28.89004884-16.21220644-45.08203125-16.36328125-20.64613815.19263308-36.76611803 7.61636663-51 22.375zm41.28100586 50.78833008c-1.19786636.39073197-2.39573273.78146393-3.62989807 1.18403626-1.31222719.43196575-2.6243119.86436452-3.93626404 1.29716491-.98830716.3253602-.98830716.3253602-1.99658012.65729332-3.48419273 1.14749531-6.96706207 2.2989135-10.44897652 3.45330239-3.60387097 1.19389735-7.21218943 2.37371597-10.82169437 3.55045032-2.76923716.90569212-5.53489115 1.82195554-8.29967213 2.74115086-1.32917824.43980292-2.65971028.87553549-3.9915657 1.30716324-1.85927524.6036146-3.71317608 1.22370923-5.5667553 1.84459495-1.5864608.52295403-1.5864608.52295403-3.20497131 1.05647278-.78692734.3696135-1.57385468.73922699-2.3846283 1.12004089-1.38730869 4.16192607-.05703093 5.61876452 1.875 9.5 7.74028092 15.09022998 19.3869097 25.98117359 34.8828125 32.85546875 2.37984383.91309685 2.37984383.91309685 5.2421875-.35546875 1.221685-2.47668334 1.221685-2.47668334 2.17651367-5.58959961.40018845-1.1947142.8003769-2.3894284 1.21269226-3.62034606.42659764-1.31402127.85284347-2.6281568 1.27876282-3.94239808.44315625-1.3393127.88728643-2.6783035 1.33235169-4.01698303.93090378-2.80800632 1.85398491-5.61841674 2.7709198-8.43101501 1.17677818-3.60948504 2.36644213-7.2145423 3.56116771-10.81812191 1.13693275-3.43072946 2.26789617-6.86341615 3.3980608-10.29638005.21691183-.65752699.43382366-1.31505397.65730858-1.99250602.61123496-1.85681187 1.21768217-3.71519775 1.82389259-5.57365609.34624924-1.05843612.69249848-2.11687225 1.04924012-3.2073822.83319-2.39503729.83319-2.39503729.73908996-4.51161194-2.80006989 0-5.0552865.91694378-7.71899414 1.78833008zm-75.78641897 39.58800173c-.49901949.50193233-.99803898 1.00386466-1.51218027 1.52100706-.52763268.52677826-1.05526536 1.05355651-1.59888691 1.59629774-1.78200443 1.78034649-3.56039195 3.56426365-5.33884197 5.34816027-1.27085263 1.27113446-2.54192502 2.54204924-3.81320191 3.8127594-3.46281748 3.46252934-6.92253265 6.92814385-10.38172269 10.39429664-3.61105751 3.61728836-7.22492748 7.23176461-10.83850741 10.84653283-6.84787628 6.85099038-13.69319841 13.70452698-20.53761953 20.55896902-7.78993035 7.80108901-15.58268407 15.59935503-23.37568301 23.39737844-16.0358041 16.0462703-32.06803728 32.09610447-48.09794319 48.14826679 3.19490241 3.77854788 6.38624954 7.51257709 9.89404297 11.00756836 1.0504097 1.05029641 1.0504097 1.05029641 2.12203979 2.12181092.73461457.72945327 1.46922913 1.45890655 2.22610474 2.21046447.76837189.76695694 1.53674378 1.53391388 2.32839966 2.32411194 2.43244793 2.42689172 4.86836607 4.85026558 7.30441284 7.27354431 1.65908552 1.65406486 3.31794202 3.30835945 4.9765625 4.96289063 4.04683486 4.03586398 8.09672178 8.06864617 12.1484375 12.09960937 6.78315852-5.56498586 12.89960474-11.76581642 19.08569336-17.97216796 1.21262479-1.21290723 2.42547053-2.42559358 3.63851929-3.63807679 3.27651677-3.27623098 6.54995075-6.55552629 9.82282328-9.83539724 3.42682378-3.43309377 6.85649768-6.86333789 10.28586507-10.29389048 6.48643948-6.48954206 12.97032657-12.98162805 19.45329148-19.47464096 7.38377147-7.39496597 14.77039765-14.78707764 22.15726024-22.17895568 15.18868534-15.19912543 30.37379761-30.40181632 45.55654728-45.60687089-2.32505769-2.41032774-4.49628538-3.94459048-7.4375-5.5625-14.51279368-8.6189517-24.31809995-20.12099114-32.50390625-34.70703125-.34933594-.57105468-.69867187-1.14210937-1.05859375-1.73046875-2.01000298 0-3.16342179 2.04026045-4.50541311 3.37633181zm-145.24458689 144.87366819c-6.58115539 6.84536237-10.53435958 14.16204041-11 23.75.41348864 8.69287752 3.64191225 16.4994507 10.0625 22.5 1.78088765 1.34350435 1.78088765 1.34350435 3.6875 2.5.64453125.40992188 1.2890625.81984375 1.953125 1.2421875 6.66340639 3.57849603 13.65781362 3.8099242 21.046875 2.7578125 8.31468673-2.70894668 14.33972188-7.44073653 20-14-1.42999927-3.25763629-3.17756322-5.43035226-5.68359375-7.94238281-.75418213-.76048645-1.50836426-1.5209729-2.28540039-2.30450439-.81460693-.81055847-1.62921387-1.62111695-2.46850586-2.4562378-.83587646-.83778991-1.67175293-1.67557983-2.53295898-2.53875732-1.76617659-1.7675367-3.5348779-3.53255369-5.30590821-5.29522705-2.72010162-2.70937336-5.4293528-5.42926828-8.13769531-8.15039063-1.71550466-1.71418356-3.43162936-3.4277469-5.1484375-5.140625-.81460693-.81865539-1.62921387-1.63731079-2.46850586-2.48077392-.75418213-.74787781-1.50836426-1.49575562-2.28540039-2.26629639-.66459228-.6630011-1.32918457-1.3260022-2.01391601-2.00909424-3.26519971-2.76854463-4.73801616-.72264358-7.41967774 1.83428955z" transform="translate(234.503418 -.290527)"/><path d="m0 0c3.125 1.875 3.125 1.875 5 5 .98876625 5.02622846.7769173 8.70513784-1.875 13.125-4.41986216 2.6519173-8.09877154 2.86376625-13.125 1.875-3.125-1.875-3.125-1.875-5-5-.98876625-5.02622846-.7769173-8.70513784 1.875-13.125 4.41986216-2.6519173 8.09877154-2.86376625 13.125-1.875z" transform="translate(267 100)"/></svg>