<svg height="512" width="512" xmlns="http://www.w3.org/2000/svg"><path d="m0 0c17.66482211 12.70690913 32.45164675 31.25216759 38.3125 52.44140625.33019486 4.15537527.41094837 5.42716288-2.0625 8.875-2.9375 2.125-2.9375 2.125-6.5 2.75-3.4375-.625-3.4375-.625-5.4453125-2.6875-2.2753895-3.35508412-3.7971835-6.8248134-5.3046875-10.5625-9.30690347-21.95551398-24.7454736-37.03249657-46.6875-46.375-20.82569525-8.39120433-44.38486049-7.56184889-65 1-20.31313261 9.45197409-36.25625122 25.59553868-44.8125 46.375-4.13961389 11.76375127-5.35539109 22.74739386-5.6875 35.125-.72011591 26.34618565-7.86111221 48.3139155-26.5 67.5-.52722656.58910156-1.05445313 1.17820313-1.59765625 1.78515625-4.89850587 5.2994066-10.8223733 9.26563767-16.640625 13.4765625-16.12997434 11.69897313-29.99277455 25.68791065-41.76171875 41.73828125-.60714844.81210938-1.21429688 1.62421875-1.83984375 2.4609375-18.63308665 25.6917383-31.33159198 54.6361358-40.78515625 84.7890625-.35537842 1.12567383-.71075684 2.25134766-1.0769043 3.41113281-.3175122 1.04510742-.63502441 2.09021485-.9621582 3.16699219-.28311035.9271582-.5662207 1.85431641-.85791016 2.80957031-.70958769 2.49779691-.70958769 2.49779691.52197266 5.36230469 3.69266381-.5465719 6.00851134-1.41668684 8.9765625-3.66796875.74386963-.55679443 1.48773926-1.11358887 2.25415039-1.68725586.79011475-.60465088 1.58022949-1.20930176 2.39428711-1.83227539 1.6990676-1.27624292 3.39829094-2.55227852 5.09765625-3.828125 1.30541748-.98709961 1.30541748-.98709961 2.63720703-1.99414063 6.50016865-4.90007164 13.0725768-9.70349945 19.63867188-14.51464843 1.73320306-1.27780914 3.45263744-2.57425422 5.16943359-3.87402344 8.0177656-5.94357813 8.0177656-5.94357813 13.83203125-5.6015625 2.9375 1.3125 2.9375 1.3125 5 4 .64676937 5.70783889-.08416776 11.547936-.76318359 17.2265625-3.98717881 33.61458413 3.12399642 67.78922245 20.76318359 96.7734375.03963867-.92409668.07927734-1.84819336.12011719-2.80029297 1.08002954-24.08585212 3.02737259-47.51683738 8.81738281-71.01220703.22848633-.95551758.45697266-1.91103516.69238281-2.89550781 1.41529888-5.35555325 2.79243096-8.81037168 7.37011719-12.29199219 3.78454468-.70960213 5.46714413-.27801176 8.875 1.5 2.49618997 2.93669409 2.44295051 4.56022123 2.33837891 8.31884766-.34344736 3.51070787-1.39425737 6.77750252-2.46337891 10.11865234-6.71019529 22.87207743-7.74075138 46.40054303-8.75 70.0625.64791504.04898437 1.29583008.09796875 1.96337891.1484375 17.2308634 1.47975581 30.99856989 10.77661257 42.03662109 23.8515625 9.25170772 12.12738404 15.91291492 24.97076998 19 40 32.57321433 9.84590588 65.07372831 11.38561535 97.75390625.98828125 3.24609375-.98828125 3.24609375-.98828125 5.24609375-.98828125.061875-1.2375.12375-2.475.1875-3.75 1.6708329-14.62550992 11.36258753-28.44223603 20.8125-39.25.88751953-1.03060547.88751953-1.03060547 1.79296875-2.08203125 9.02757679-9.75902225 21.13248822-17.24771395 34.47265625-18.48046875 1.33466309-.12568359 1.33466309-.12568359 2.69628906-.25390625.67256836-.06058594 1.34513672-.12117188 2.03808594-.18359375-.85664709-19.54269701-1.86724528-38.82133012-6-58-.20077148-.93779297-.40154297-1.87558594-.60839844-2.84179687-8.45970643-38.19251134-27.38367345-79.41757643-61.39160156-101.15820313-20.47796172-12.42586394-42.99360086-16.99310904-66.5-11.4375-13.30698697 3.89814792-24.86478046 10.56986583-35.5 19.4375-.92296875.75925781-1.8459375 1.51851563-2.796875 2.30078125-11.08516365 9.5664336-19.12626627 20.96143029-26.41210938 33.5703125-2.50547364 4.28638109-4.95710723 7.87071678-8.79101562 11.12890625-3 .625-3 .625-6 0-2.875-2.125-2.875-2.125-5-5-.77770915-5.54819314 1.2043765-9.01121528 3.9375-13.625.40822998-.70366699.81645996-1.40733398 1.23706055-2.13232422 3.81502707-6.45146365 8.09291299-12.42907698 12.82543945-18.24267578.4630957-.56992676.92619141-1.13985352 1.40332031-1.72705078 19.21708916-23.48543933 44.68172138-41.3645424 75.45825196-44.87451172 28.36712907-2.53653347 54.73721675 7.00198075 76.53686523 24.90039063 38.08621253 32.22359684 58.13815181 82.80846263 62.6015625 131.70117187.88540288 11.65199753 1.44881974 23.32823856 2 35 1.27034049-2.3471666 2.53663231-4.69637623 3.80078125-7.046875.35485474-.65468262.70970947-1.30936523 1.07531738-1.98388672 14.84579912-27.6621323 19.26270914-59.20328206 15.59655762-90.13720703-1.47841652-13.52149514-1.47841652-13.52149514 1.58984375-17.51953125 3.85604726-1.72291473 5.84089326-1.2449205 9.9375-.3125 3.078125 1.79296875 3.078125 1.79296875 6.25 4.1875.58861816.43779785 1.17723633.8755957 1.78369141 1.32666016 1.29579191.96475262 2.58745163 1.93507374 3.87548828 2.91015625 2.20669039 1.66300558 4.43114549 3.29953405 6.66113281 4.93115234 12.867694 9.42261289 12.867694 9.42261289 19.05859375 14.20703125.72719238.5583252 1.45438477 1.11665039 2.20361328 1.69189453 1.37063753 1.05524147 2.73525992 2.11835748 4.09277344 3.19042969 3.3877531 2.60177295 4.6683312 3.55517578 9.07470703 3.55517578 1.67190589-5.01571766-.709309-9.57936008-2.25-14.5-.35916504-1.15258301-.71833008-2.30516602-1.08837891-3.49267578-12.41811751-38.84143315-31.15029034-75.53223018-59.66162109-105.00732422-.47405273-.49983398-.94810547-.99966797-1.43652344-1.51464844-8.19824191-8.63635772-17.01151478-15.76529849-26.66503906-22.71972656-21.91552599-15.96945305-34.27027408-35.62480788-39.5859375-62.203125-1.31567749-14.99872333-1.31567749-14.99872333 1.8125-19.875 3.42842618-2.01233711 4.9748583-2.50002952 8.875-1.6875 3.64596508 2.79958033 4.87155955 4.33237726 5.75 8.8984375.0994135 1.49120251.18194338 2.98360025.25 4.4765625 1.6647389 20.78497196 10.98015428 38.14644442 26.5078125 51.8359375 3.39885054 2.76498131 6.90940219 5.35874559 10.43359375 7.9609375 5.84573899 4.33017703 11.4032887 8.77094737 16.75 13.70703125 2.12354811 1.9510772 4.29535056 3.82077657 6.49609375 5.68359375 4.00972137 3.51646199 7.41290207 7.33519188 10.8125 11.4375.46035645.54269531.92071289 1.08539063 1.39501953 1.64453125 24.10744713 28.43871881 40.84423096 61.99514953 52.7918396 97.1477356.49450442 1.45440228.99248838 2.90762684 1.49420166 4.3595581 7.54913425 21.94459715 7.54913425 21.94459715 3.46737671 31.0630188-2.98326585 4.63725338-7.75370267 8.53056675-13.1484375 9.78515625-10.703511 1.189279-17.35619192-3.1793545-25.5625-9.5625-1.38611321-1.05938652-2.7728487-2.11795925-4.16015625-3.17578125-1.0521167-.8055835-1.0521167-.8055835-2.12548828-1.62744141-3.51835964-2.67210113-7.08404896-5.27876904-10.65185547-7.88427734-.65299072-.47767822-1.30598145-.95535645-1.97875977-1.44750977-1.50648031-1.10165071-3.0137625-2.20220476-4.52124023-3.30249023.02320313.98355469.04640625 1.96710938.0703125 2.98046875.57890518 35.56131818-7.11675259 71.08919138-27.0703125 101.01953125.56460937.24363281 1.12921875.48726563 1.7109375.73828125 14.64010249 8.06954454 23.75729732 27.27351095 29.2890625 42.26171875 2.1341864 8.67484002 1.38309169 16.13660268-3 24-8.76668303 12.13660575-24.7791614 16.82049672-38.81298828 19.54638672-5.35492692.76217667-10.71405611.67852154-16.11523438.69384765-2.03867947.00960962-4.07630658.04063893-6.11474609.07226563-17.7337449.14359961-35.00712774-3.94790679-48.95703125-15.3125-.44085938-.58523438-.88171875-1.17046875-1.3359375-1.7734375-1.73141639-1.54781442-1.73141639-1.54781442-4.7265625-1.06640625-3.78042338.73012894-7.51979347 1.66798325-11.25366211 2.60473633-30.32225889 7.59918341-61.44780585 7.73424802-91.50878906-1.2265625-5.55920069-1.61973007-5.55920069-1.61973007-11.17504883-.53833008-1.64245638 1.17086462-1.64245638 1.17086462-3.0625 2.6875-13.16354372 11.83016753-31.86914527 14.50450573-48.86572266 14.55273437-2.03867947.00960962-4.07630658.04063893-6.11474609.07226563-18.27563578.14798759-37.22582232-4.1280847-50.80078125-17.0703125-5.24568339-5.73425194-7.78364197-11.63724629-7.5-19.44921875 2.41394017-19.61326387 15.58893261-38.18582799 30.34375-50.79296875h2c-.556875-.94617188-1.11375-1.89234375-1.6875-2.8671875-18.55466901-31.95367077-25.71336783-64.34205401-25.3125-101.1328125-.94617188.71542969-1.89234375 1.43085938-2.8671875 2.16796875-7.56613026 5.70725621-15.16579232 11.36880548-22.8203125 16.95703125-.7532959.55582764-1.5065918 1.11165527-2.28271484 1.68432617-6.95054805 5.04803721-12.33193786 7.25138692-21.02978516 6.19067383-5.91285416-1.80670544-9.56355449-4.94640367-13-10-4.35443785-8.5109467-.7967953-18.54310606 1.96127319-27.0838623.75099328-2.26791266 1.51748427-4.53003541 2.28872681-6.7911377.26466064-.7851297.52932129-1.5702594.80200195-2.37918091 12.49459193-36.91214912 30.3151974-71.39883914 56.7253418-100.30050659 2.72629917-2.99940823 5.37152461-6.06587305 8.0078125-9.14453125 5.67620246-5.89644312 12.13008512-10.88422998 18.65234375-15.80078125 1.49617104-1.13791922 2.99226557-2.27593904 4.48828125-3.4140625 2.3067108-1.74911967 4.61643677-3.49389907 6.9296875-5.234375 15.95695444-12.13936982 26.92339445-29.43655066 29.89648437-49.50976563.65559018-6.18939074.67072697-12.43840834.84375-18.65576171.90815706-28.58630735 11.97302569-54.42743202 32.66601563-74.28369141 14.22325923-12.47832301 30.27467305-20.37764098 48.73828125-24.40234375.75732422-.1743457 1.51464844-.34869141 2.29492188-.52832031 26.804405-4.67383669 54.14859055 1.80274086 76.39257812 17.08691406zm-201.71484375 428.05859375c-7.48626382 9.04281373-17.06557932 22.19506427-15.97265625 34.3828125 2.85932008 6.37145296 9.43144818 9.13135552 15.5078125 11.71484375 19.0112535 6.99631141 42.73848055 7.7643728 61.4921875-.71484375 8.30427932-4.08356446 8.30427932-4.08356446 14-11 .7903014-12.05209633-8.049376-24.86281739-15.65234375-33.53515625-8.40143711-8.82081001-17.08887252-16.96870912-29.8515625-17.5859375-11.96755091.58058541-21.51811375 8.35488266-29.5234375 16.73828125zm227.63671875-.50390625c-7.77106612 9.1102547-15.4699346 20.75197702-17.125 32.82421875 1.17709614 4.70838456 4.72232409 7.54665408 8.609375 10.07421875 20.2648144 9.96973094 43.40246277 11.72819021 65.03125 4.80078125 7.3335644-2.67179589 13.4936096-6.24041439 17.875-12.8125.41642454-12.28452389-7.85176995-24.63741769-15.65234375-33.53515625-8.40143711-8.82081001-17.08887252-16.96870912-29.8515625-17.5859375-11.69499669.56736291-21.08949681 7.97303271-28.88671875 16.234375z" transform="translate(314.6875 17.558594)"/><path d="m0 0c2.51584775-.11980227 4.87228547.01442881 7.37890625.26171875 1.55654297.12761719 1.55654297.12761719 3.14453125.2578125 9.91371382 1.3302747 18.85506071 4.88292568 28.04296875 8.6796875.6448233.26462036 1.28964661.52924072 1.95401001.80187988 9.47503023 3.91608657 16.43802019 6.87632741 20.90536499 16.47546387 2.09480551 6.12129644 1.84204845 11.37385364-.37890625 17.3984375-3.33046716 6.29442712-8.86509407 11.03937977-13.91796875 15.94921875-1.0230071 1.01148894-2.04514903 2.02385369-3.06640625 3.03710937-4.8533167 4.79357981-9.79173271 9.44481845-14.97167969 13.8869629-2.55991785 2.26311049-4.8622113 4.72029274-7.21191406 7.20092773-7.17002575 7.26370324-12.11170994 9.7321925-22.375 9.84375-8.84469532-1.5035982-14.12910969-7.04601879-20.125-13.34375-4.84445786-5.01393121-9.68899225-9.88000586-14.98193359-14.4206543-3.74719999-3.28072663-7.28651404-6.76971371-10.83056641-10.2668457-.74958984-.72058594-1.49917969-1.44117188-2.27148437-2.18359375-5.63055995-5.56514683-9.31584781-10.37758195-9.41601563-18.62890625.18806861-5.94460349 1.83699256-10.96986845 5.5-15.6875 5.9422249-5.03797328 12.76079974-7.73021737 19.9375-10.625 1.20261475-.48637939 2.40522949-.97275879 3.64428711-1.47387695 9.76209783-3.84245102 18.61959799-6.1224238 29.03930664-7.1628418zm-27.18359375 24.26171875c-1.06541016.43828125-2.13082031.8765625-3.22851563 1.328125-6.37990078 2.28031151-6.37990078 2.28031151-11.20898437 6.671875.12614113 4.72969911 1.4132556 7.03155632 4.75390625 10.27734375.77279297.76119141 1.54558594 1.52238281 2.34179688 2.30664062.81404296.77666016 1.62808593 1.55332032 2.46679687 2.35351563.78697266.77279297 1.57394531 1.54558594 2.38476563 2.34179687 3.65316293 3.56281266 7.36287369 7.02625181 11.22851562 10.35742188 4.31592858 3.72340917 8.20967604 7.80399569 12.06640625 11.99609375 2.62398853 2.725891 4.27786729 4.20897678 7.93359375 5.4140625 3.27561226-.05436701 4.08233529-.41561091 6.38671875-2.671875 1.00740234-.96292969 1.00740234-.96292969 2.03515625-1.9453125.79277344-.80179688 1.58554687-1.60359375 2.40234375-2.4296875 1.03988304-1.03954442 2.08028367-2.07857124 3.12109375-3.1171875 1.7030193-1.70277061 3.40356536-3.40772731 5.09765625-5.11938477 2.86443828-2.887284 5.74198871-5.69040196 8.84375-8.32592773 3.56421348-3.05941071 6.99314393-6.24146407 10.375-9.5.53310791-.49508057 1.06621582-.99016113 1.61547852-1.50024414 3.39585261-3.32096434 4.67179263-5.68779392 4.94702148-10.43725586-3.3930226-2.91238297-6.49369474-4.85028822-10.640625-6.5078125-1.07121094-.42925781-2.14242187-.85851562-3.24609375-1.30078125-1.10988281-.43441406-2.21976562-.86882812-3.36328125-1.31640625-1.09441406-.44214844-2.18882812-.88429688-3.31640625-1.33984375-19.57309854-7.7589169-33.71952654-5.73282086-52.99609375 2.46484375z" transform="translate(253.621094 105.738281)"/><path d="m0 0c5.57062901 3.95996832 9.48957391 9.31858575 11 16 .35422375 3.10560249.49563288 6.18840574.5625 9.3125.02698975.78930908.05397949 1.57861816.08178711 2.3918457-.02766857 4.10856269-.09433048 5.70628411-2.98803711 8.80737305-3.24587674 1.81864564-4.99143559 2.11207945-8.65625 1.48828125-2.30275556-1.8670991-3.67823871-3.35647741-5-6-.19923419-3.24530365-.31832633-6.4886962-.42578125-9.73828125-.67748459-3.84829681-1.81886397-5.53118698-4.57421875-8.26171875-4.15388137-1.30770339-6.20483567-1.32112406-10.25.3125-3.34570137 3.26966271-4.02066487 5.86431728-5.01171875 10.34765625-.82696155 2.62089931-1.53035064 3.72276781-3.73828125 5.33984375-4.28535449.4761505-6.7296686.69868227-10.5-1.375-2.39368842-4.18895474-2.2618772-7.92563356-1.5-12.625 2.35156167-7.29309219 6.49223521-12.91847504 13-17 9.82278362-4.31093952 18.44489061-3.75644621 28 1z" transform="translate(307 70)"/><path d="m0 0c6.4405476 4.28698949 11.10829578 9.3955996 13 17 .65440159 4.67724928.88091978 8.45839038-1.5 12.625-3.54811156 1.95146136-6.54678352 2.2941635-10.5 1.375-3.19852679-2.69349624-4.10405282-5.09656977-4.875-9.0625-.73807654-3.38873402-1.11675396-3.92963749-3.8125-6.5-4.09050083-1.775123-6.07205313-1.7724555-10.3125-.4375-3.74979189 3.7228634-4.47113698 6.28621725-4.5625 11.5-.09462292 4.76454222-.56730605 7.6262908-3.4375 11.5-2.85324437 1.42662219-4.83454549 1.31033868-8 1-2.66015625-1.48046875-2.66015625-1.48046875-5-4-.74826733-2.88780268-.71271008-5.65595278-.625-8.625.02320313-1.21006714.02320313-1.21006714.046875-2.44458008.36743983-8.77880878 2.9885485-14.73120986 9.328125-20.86791992 9.04418957-7.22172576 19.83654284-7.7930034 30.25-3.0625z" transform="translate(233 69)"/></svg>