<svg height="512" width="512" xmlns="http://www.w3.org/2000/svg"><path d="m0 0c1.25697945-.01073296 1.25697945-.01073296 2.53935242-.02168274.91119095-.0026889 1.82238189-.00537781 2.76118469-.00814819.96641922-.0065712 1.93283844-.0131424 2.92854309-.01991272 3.19960105-.01971433 6.39915511-.03139412 9.59880066-.04136658 1.0956427-.00407553 2.1912854-.00815105 3.32012939-.01235008 5.80393281-.02085701 11.60784203-.03515797 17.4118042-.04453469 5.97381719-.01103805 11.9472592-.04540924 17.92094422-.08517169 4.61049557-.02624366 9.22090299-.03452723 13.83146667-.03810978 2.20064821-.00484924 4.40129292-.01641533 6.60186768-.035038 16.72781841-.13271434 29.88744221.60480938 42.85128784 12.45348549 11.25577837 12.31514574 12.61875388 25.34403712 12.53125 41.25.00270192 1.74772354.00659013 3.4954456.01159668 5.24316406.00586218 3.64435282-.00256097 7.28831068-.02136231 10.93261719-.02278773 4.63974458-.00964686 9.2785632.01428986 13.91827393.01454743 3.60344244.00981134 7.20667023-.00051117 10.81011963-.00264266 1.70939243.00051442 3.41880522.00991821 5.12817382.06445654 15.00436794-2.03157423 27.21452838-12.54518127 38.71765137-13.78376226 12.59806228-28.16490852 12.60733588-45.84375 12.53125-2.21854828.00269965-4.43709539.00658599-6.65563965.01159668-4.63296862.00587274-9.2656272-.00259608-13.89855957-.0213623-5.9108931-.02278781-11.82105946-.00965279-17.73192596.01428985-4.57621393.01451816-9.15225819.00982444-13.72847748-.00051117-2.17829476-.00265067-4.35660539.00054339-6.53488159.00991821-16.48075831.0553797-30.08598302-.7867741-42.76301575-12.54518127-8.22118106-8.58929364-11.96928211-18.13980083-12.03662109-29.8828125-.00817749-.79085495-.01635498-1.5817099-.02478028-2.39653015-.02479113-2.61521159-.04135907-5.23036889-.05578613-7.84565735-.00532368-.89705658-.01064735-1.79411316-.01613236-2.71835327-.02671171-4.75354151-.04608794-9.507057-.0605278-14.26065064-.01330376-3.91658059-.04109311-7.8326358-.08203125-11.74902343-.04958437-4.74443978-.07412178-9.4884055-.08119583-14.23309326-.006672-1.79875873-.02178705-3.59750857-.04589081-5.39611817-.19439081-15.39050783 2.53688673-26.82636084 13.2974968-38.38494873 6.90572762-6.66266888 16.80353046-11.22289187 26.49633789-11.27998352zm-14.04321289 31.26826477c-2.95594967 4.661678-3.44926528 8.63024888-3.48193359 14.11254883-.01007584 1.06446602-.01007584 1.06446602-.02035523 2.1504364-.01893624 2.33688945-.0229021 4.67349096-.02505493 7.01045227-.00643158 1.63278825-.0131602 3.26557535-.02017212 4.89836121-.01196225 3.42038136-.01568197 6.84066182-.01449585 10.26106262.00020299 4.36788514-.02708299 8.7351182-.06154442 13.10284901-.02231601 3.37249716-.02629167 6.74483865-.02523613 10.11740207-.0023495 1.60944996-.0111362 3.21890464-.02666473 4.8282814-.12910256 13.12780419-.12910256 13.12780419 6.19498825 24.42094994.54914062.44601563 1.09828125.89203125 1.6640625 1.3515625.54398437.46148438 1.08796875.92296875 1.6484375 1.3984375 5.43401163 3.37209418 10.79381971 3.51976023 16.97607422 3.5012207.88535431.00511094 1.77070862.01022187 2.68289184.01548767 2.91583081.01385726 5.83142419.01294204 8.74728394.01063538 2.03492317.00388924 4.06984553.00822438 6.10476685.01298523 4.26181674.00745404 8.52355063.00717697 12.78536987.00190735 5.44948759-.00579149 10.89863496.01113272 16.34806633.03434467 4.20201269.01476413 8.40394397.01560535 12.60597801.01249027 2.0085594.00051193 4.01712351.00572549 6.02565765.01581192 2.81427958.01239809 5.62790317.00555235 8.44217301-.00600624.82207947.00764374 1.64415893.01528748 2.4911499.02316285 7.54888903-.06819723 14.27273743-1.90106385 19.76715088-7.3954773 4.10141711-5.93042745 5.12104188-10.64524568 5.16113281-17.75292969.00496491-.6704837.00992981-1.3409674.01504517-2.0317688.01457254-2.21240273.02141615-4.42473371.02694702-6.63717651.00575644-1.54453532.01151411-3.08907064.01727295-4.63360596.01049669-3.23802013.01634775-6.47601554.01983642-9.71405029.00547538-4.13350029.02948831-8.26666963.05797196-12.40006638.01869757-3.19147547.0238358-6.38287244.02536392-9.57439804.00301211-1.5229218.01099155-3.04584269.02418518-4.56871032.07361983-9.15238765-.05176815-16.50788542-5.09775543-24.43729401-6.46838672-6.46838672-13.20495141-7.39854768-22.0065918-7.42700195-1.32518394-.0098568-1.32518394-.0098568-2.67713928-.01991272-2.92183014-.01969909-5.84360893-.03138883-8.76548767-.04136658-1.00009409-.00407553-2.00018818-.00815105-3.03058815-.01235008-5.29473348-.02084752-10.58944115-.03515426-15.88420677-.04453469-5.45622482-.01105422-10.91204069-.04544674-16.36812115-.08517169-4.20633396-.02620326-8.41257106-.03452351-12.61897945-.03810978-2.01054518-.00485731-4.02108628-.01644675-6.03155136-.035038-2.8215819-.02446756-5.64211341-.0234124-8.46376992-.01648521-.82162628-.01281006-1.64325256-.02562012-2.48977661-.03881836-8.60521501.07653841-15.26124815 2.92404659-20.72238159 9.62988281z" transform="translate(103.234619 276.852829)"/><path d="m0 0c1.25697945-.01073296 1.25697945-.01073296 2.53935242-.02168274.91119095-.0026889 1.82238189-.00537781 2.76118469-.00814819.96641922-.0065712 1.93283844-.0131424 2.92854309-.01991272 3.19960105-.01971433 6.39915511-.03139412 9.59880066-.04136658 1.0956427-.00407553 2.1912854-.00815105 3.32012939-.01235008 5.80393281-.02085701 11.60784203-.03515797 17.4118042-.04453469 5.97381719-.01103805 11.9472592-.04540924 17.92094422-.08517169 4.61049557-.02624366 9.22090299-.03452723 13.83146667-.03810978 2.20064821-.00484924 4.40129292-.01641533 6.60186768-.035038 16.72781841-.13271434 29.88744221.60480938 42.85128784 12.45348549 11.25577837 12.31514574 12.61875388 25.34403712 12.53125 41.25.00270192 1.74772354.00659013 3.4954456.01159668 5.24316406.00586218 3.64435282-.00256097 7.28831068-.02136231 10.93261719-.02278773 4.63974458-.00964686 9.2785632.01428986 13.91827393.01454743 3.60344244.00981134 7.20667023-.00051117 10.81011963-.00264266 1.70939243.00051442 3.41880522.00991821 5.12817382.06445654 15.00436794-2.03157423 27.21452838-12.54518127 38.71765137-13.78376226 12.59806228-28.16490852 12.60733588-45.84375 12.53125-2.21854828.00269965-4.43709539.00658599-6.65563965.01159668-4.63296862.00587274-9.2656272-.00259608-13.89855957-.0213623-5.9108931-.02278781-11.82105946-.00965279-17.73192596.01428985-4.57621393.01451816-9.15225819.00982444-13.72847748-.00051117-2.17829476-.00265067-4.35660539.00054339-6.53488159.00991821-16.48075831.0553797-30.08598302-.7867741-42.76301575-12.54518127-8.22118106-8.58929364-11.96928211-18.13980083-12.03662109-29.8828125-.00817749-.79085495-.01635498-1.5817099-.02478028-2.39653015-.02479113-2.61521159-.04135907-5.23036889-.05578613-7.84565735-.00532368-.89705658-.01064735-1.79411316-.01613236-2.71835327-.02671171-4.75354151-.04608794-9.507057-.0605278-14.26065064-.01330376-3.91658059-.04109311-7.8326358-.08203125-11.74902343-.04958437-4.74443978-.07412178-9.4884055-.08119583-14.23309326-.006672-1.79875873-.02178705-3.59750857-.04589081-5.39611817-.19439081-15.39050783 2.53688673-26.82636084 13.2974968-38.38494873 6.90572762-6.66266888 16.80353046-11.22289187 26.49633789-11.27998352zm-14.04321289 31.26826477c-2.95594967 4.661678-3.44926528 8.63024888-3.48193359 14.11254883-.01007584 1.06446602-.01007584 1.06446602-.02035523 2.1504364-.01893624 2.33688945-.0229021 4.67349096-.02505493 7.01045227-.00643158 1.63278825-.0131602 3.26557535-.02017212 4.89836121-.01196225 3.42038136-.01568197 6.84066182-.01449585 10.26106262.00020299 4.36788514-.02708299 8.7351182-.06154442 13.10284901-.02231601 3.37249716-.02629167 6.74483865-.02523613 10.11740207-.0023495 1.60944996-.0111362 3.21890464-.02666473 4.8282814-.12910256 13.12780419-.12910256 13.12780419 6.19498825 24.42094994.54914062.44601563 1.09828125.89203125 1.6640625 1.3515625.54398437.46148438 1.08796875.92296875 1.6484375 1.3984375 5.43401163 3.37209418 10.79381971 3.51976023 16.97607422 3.5012207.88535431.00511094 1.77070862.01022187 2.68289184.01548767 2.91583081.01385726 5.83142419.01294204 8.74728394.01063538 2.03492317.00388924 4.06984553.00822438 6.10476685.01298523 4.26181674.00745404 8.52355063.00717697 12.78536987.00190735 5.44948759-.00579149 10.89863496.01113272 16.34806633.03434467 4.20201269.01476413 8.40394397.01560535 12.60597801.01249027 2.0085594.00051193 4.01712351.00572549 6.02565765.01581192 2.81427958.01239809 5.62790317.00555235 8.44217301-.00600624.82207947.00764374 1.64415893.01528748 2.4911499.02316285 7.54888903-.06819723 14.27273743-1.90106385 19.76715088-7.3954773 4.10141711-5.93042745 5.12104188-10.64524568 5.16113281-17.75292969.00496491-.6704837.00992981-1.3409674.01504517-2.0317688.01457254-2.21240273.02141615-4.42473371.02694702-6.63717651.00575644-1.54453532.01151411-3.08907064.01727295-4.63360596.01049669-3.23802013.01634775-6.47601554.01983642-9.71405029.00547538-4.13350029.02948831-8.26666963.05797196-12.40006638.01869757-3.19147547.0238358-6.38287244.02536392-9.57439804.00301211-1.5229218.01099155-3.04584269.02418518-4.56871032.07361983-9.15238765-.05176815-16.50788542-5.09775543-24.43729401-6.46838672-6.46838672-13.20495141-7.39854768-22.0065918-7.42700195-1.32518394-.0098568-1.32518394-.0098568-2.67713928-.01991272-2.92183014-.01969909-5.84360893-.03138883-8.76548767-.04136658-1.00009409-.00407553-2.00018818-.00815105-3.03058815-.01235008-5.29473348-.02084752-10.58944115-.03515426-15.88420677-.04453469-5.45622482-.01105422-10.91204069-.04544674-16.36812115-.08517169-4.20633396-.02620326-8.41257106-.03452351-12.61897945-.03810978-2.01054518-.00485731-4.02108628-.01644675-6.03155136-.035038-2.8215819-.02446756-5.64211341-.0234124-8.46376992-.01648521-.82162628-.01281006-1.64325256-.02562012-2.48977661-.03881836-8.60521501.07653841-15.26124815 2.92404659-20.72238159 9.62988281z" transform="translate(103.234619 84.852829)"/><path d="m0 0c2.21854827-.00269965 4.43709539-.00658599 6.65563965-.01159668 4.63296862-.00587274 9.2656272.00259608 13.89855957.0213623 5.9108931.02278781 11.82105946.00965279 17.73192596-.01428985 4.57621393-.01451816 9.15225819-.00982444 13.72847748.00051117 2.17829476.00265067 4.35660539-.00054339 6.53488159-.00991821 16.48075831-.0553797 30.08598302.7867741 42.76301575 12.54518127 8.19182817 8.55862645 11.97792099 18.09766941 12.02075195 29.80688477.0065712.78270767.0131424 1.56541534.01991272 2.37184143.01969003 2.5875611.03138885 5.17506413.04136658 7.76268005.00407553.88727217.00815105 1.77454433.01235008 2.68870354.02084703 4.70052416.03515208 9.4010193.04453469 14.10157966.01103396 4.83277488.04540278 9.66508547.0851717 14.49769688.02627071 3.73460596.03452959 7.46910331.03810977 11.20379353.00484259 1.78002669.01638938 3.5600493.035038 5.33998489.14764692 15.03213626-1.94382192 26.87128067-12.41832924 38.3869915-7.21198649 6.97723829-17.07886709 11.92698925-27.26977539 11.98701477-1.25697945.01073296-1.25697945.01073296-2.53935242.02168274-.91119095.0026889-1.82238189.00537781-2.76118469.00814819-1.44962883.0098568-1.44962883.0098568-2.92854309.01991272-3.19960105.01971433-6.39915511.03139412-9.59880066.04136658-1.0956427.00407553-2.1912854.00815105-3.32012939.01235008-5.80393281.02085702-11.60784203.03515797-17.4118042.04453469-5.97381719.01103805-11.9472592.04540924-17.92094422.0851717-4.61049557.02624365-9.22090299.03452722-13.83146667.03810977-2.20064821.00484924-4.40129292.01641533-6.60186768.035038-16.72781841.13271434-29.88744221-.60480938-42.85128784-12.45348549-11.25577837-12.31514574-12.61875388-25.34403712-12.53125-41.25-.00270192-1.74772354-.00659013-3.4954456-.01159668-5.24316406-.00586218-3.64435282.00256097-7.28831068.0213623-10.93261719.02278773-4.63974458.00964687-9.2785632-.01428985-13.91827393-.01454743-3.60344244-.00981134-7.20667023.00051117-10.81011962.00264266-1.70939244-.00051442-3.41880523-.00991821-5.12817383-.06445654-15.00436794 2.03157423-27.21452837 12.54518127-38.71765137 13.78376226-12.59806228 28.16490852-12.60733588 45.84375-12.53125zm-30.84375 29.53125c-4.10141711 5.93042745-5.12104188 10.64524568-5.16113281 17.75292969-.00496491.6704837-.00992981 1.3409674-.01504517 2.0317688-.01457254 2.21240273-.02141615 4.42473371-.02694702 6.63717651-.00575644 1.54453532-.01151411 3.08907064-.01727295 4.63360596-.0104967 3.23802013-.01634775 6.47601554-.01983643 9.71405029-.00547537 4.13350029-.0294883 8.26666963-.05797195 12.40006638-.01869757 3.19147547-.0238358 6.38287244-.02536392 9.57439804-.00301211 1.5229218-.01099155 3.0458427-.02418518 4.56871032-.07361983 9.15238765.05176815 16.50788542 5.09775543 24.43729401 6.46838672 6.46838672 13.20495141 7.39854769 22.0065918 7.42700195 1.32518394.0098568 1.32518394.0098568 2.67713928.01991272 2.92183014.01969909 5.84360893.03138883 8.76548767.04136658 1.50014113.00611329 1.50014113.00611329 3.03058815.01235008 5.29473348.02084752 10.58944115.03515426 15.88420677.04453469 5.45622482.01105422 10.91204069.04544674 16.36812115.0851717 4.20633396.02620325 8.41257106.0345235 12.61897945.03810977 2.01054518.00485731 4.02108628.01644675 6.03155136.035038 2.8215819.02446756 5.6421134.0234124 8.46376992.01648521.82162628.01281006 1.64325256.02562012 2.48977661.03881836 6.6410573-.05906836 12.82605295-1.65109821 17.80478954-6.25890636 4.95498042-5.40637403 6.3557481-10.13690749 6.39952564-17.48352528.00671723-.70964401.01343445-1.41928802.02035523-2.1504364.01893624-2.33688945.0229021-4.67349095.02505493-7.01045227.00643158-1.63278825.0131602-3.26557535.02017212-4.89836121.01196225-3.42038136.01568197-6.84066182.01449585-10.26106262-.00020299-4.36788514.02708299-8.7351182.06154442-13.102849.02231601-3.37249717.02629167-6.74483866.02523613-10.11740208.0023495-1.60944996.0111362-3.21890464.02666473-4.8282814.12910256-13.12780419.12910256-13.12780419-6.19498825-24.42094994-.54914063-.44601562-1.09828125-.89203125-1.6640625-1.3515625-.54398437-.46148437-1.08796875-.92296875-1.6484375-1.3984375-5.43401163-3.37209418-10.79381971-3.51976023-16.97607422-3.5012207-.88535431-.00511093-1.77070862-.01022187-2.68289184-.01548767-2.91583081-.01385726-5.83142419-.01294204-8.74728394-.01063538-2.03492317-.00388924-4.06984553-.00822438-6.10476685-.01298523-4.26181674-.00745404-8.52355063-.00717697-12.78536987-.00190735-5.44948759.00579149-10.89863496-.01113272-16.34806633-.03434467-4.20201269-.01476413-8.40394397-.01560535-12.60597801-.01249027-2.0085594-.00051193-4.01712351-.00572549-6.02565765-.01581192-2.81427958-.01239809-5.62790317-.00555235-8.44217301.00600624-1.2331192-.01146561-1.2331192-.01146561-2.4911499-.02316284-7.54888903.06819722-14.27273743 1.90106384-19.76715088 7.39547729z" transform="translate(334.84375 276.46875)"/><path d="m0 0c2.21854827-.00269965 4.43709539-.00658599 6.65563965-.01159668 4.63296862-.00587274 9.2656272.00259608 13.89855957.0213623 5.9108931.02278781 11.82105946.00965279 17.73192596-.01428985 4.57621393-.01451816 9.15225819-.00982444 13.72847748.00051117 2.17829476.00265067 4.35660539-.00054339 6.53488159-.00991821 16.48075831-.0553797 30.08598302.7867741 42.76301575 12.54518127 8.19182817 8.55862645 11.97792099 18.09766941 12.02075195 29.80688477.0065712.78270767.0131424 1.56541534.01991272 2.37184143.01969003 2.5875611.03138885 5.17506413.04136658 7.76268005.00407553.88727217.00815105 1.77454433.01235008 2.68870354.02084703 4.70052416.03515208 9.4010193.04453469 14.10157966.01103396 4.83277488.04540278 9.66508547.0851717 14.49769688.02627071 3.73460596.03452959 7.46910331.03810977 11.20379353.00484259 1.78002669.01638938 3.5600493.035038 5.33998489.14764692 15.03213626-1.94382192 26.87128067-12.41832924 38.3869915-7.21198649 6.97723829-17.07886709 11.92698925-27.26977539 11.98701477-1.25697945.01073296-1.25697945.01073296-2.53935242.02168274-.91119095.0026889-1.82238189.00537781-2.76118469.00814819-1.44962883.0098568-1.44962883.0098568-2.92854309.01991272-3.19960105.01971433-6.39915511.03139412-9.59880066.04136658-1.0956427.00407553-2.1912854.00815105-3.32012939.01235008-5.80393281.02085702-11.60784203.03515797-17.4118042.04453469-5.97381719.01103805-11.9472592.04540924-17.92094422.0851717-4.61049557.02624365-9.22090299.03452722-13.83146667.03810977-2.20064821.00484924-4.40129292.01641533-6.60186768.035038-16.72781841.13271434-29.88744221-.60480938-42.85128784-12.45348549-11.25577837-12.31514574-12.61875388-25.34403712-12.53125-41.25-.00270192-1.74772354-.00659013-3.4954456-.01159668-5.24316406-.00586218-3.64435282.00256097-7.28831068.0213623-10.93261719.02278773-4.63974458.00964687-9.2785632-.01428985-13.91827393-.01454743-3.60344244-.00981134-7.20667023.00051117-10.81011962.00264266-1.70939244-.00051442-3.41880523-.00991821-5.12817383-.06445654-15.00436794 2.03157423-27.21452837 12.54518127-38.71765137 13.78376226-12.59806228 28.16490852-12.60733588 45.84375-12.53125zm-30.84375 29.53125c-4.10141711 5.93042745-5.12104188 10.64524568-5.16113281 17.75292969-.00496491.6704837-.00992981 1.3409674-.01504517 2.0317688-.01457254 2.21240273-.02141615 4.42473371-.02694702 6.63717651-.00575644 1.54453532-.01151411 3.08907064-.01727295 4.63360596-.0104967 3.23802013-.01634775 6.47601554-.01983643 9.71405029-.00547537 4.13350029-.0294883 8.26666963-.05797195 12.40006638-.01869757 3.19147547-.0238358 6.38287244-.02536392 9.57439804-.00301211 1.5229218-.01099155 3.0458427-.02418518 4.56871032-.07361983 9.15238765.05176815 16.50788542 5.09775543 24.43729401 6.46838672 6.46838672 13.20495141 7.39854769 22.0065918 7.42700195 1.32518394.0098568 1.32518394.0098568 2.67713928.01991272 2.92183014.01969909 5.84360893.03138883 8.76548767.04136658 1.50014113.00611329 1.50014113.00611329 3.03058815.01235008 5.29473348.02084752 10.58944115.03515426 15.88420677.04453469 5.45622482.01105422 10.91204069.04544674 16.36812115.0851717 4.20633396.02620325 8.41257106.0345235 12.61897945.03810977 2.01054518.00485731 4.02108628.01644675 6.03155136.035038 2.8215819.02446756 5.6421134.0234124 8.46376992.01648521.82162628.01281006 1.64325256.02562012 2.48977661.03881836 6.6410573-.05906836 12.82605295-1.65109821 17.80478954-6.25890636 4.95498042-5.40637403 6.3557481-10.13690749 6.39952564-17.48352528.00671723-.70964401.01343445-1.41928802.02035523-2.1504364.01893624-2.33688945.0229021-4.67349095.02505493-7.01045227.00643158-1.63278825.0131602-3.26557535.02017212-4.89836121.01196225-3.42038136.01568197-6.84066182.01449585-10.26106262-.00020299-4.36788514.02708299-8.7351182.06154442-13.102849.02231601-3.37249717.02629167-6.74483866.02523613-10.11740208.0023495-1.60944996.0111362-3.21890464.02666473-4.8282814.12910256-13.12780419.12910256-13.12780419-6.19498825-24.42094994-.54914063-.44601563-1.09828125-.89203125-1.6640625-1.3515625-.54398437-.46148437-1.08796875-.92296875-1.6484375-1.3984375-5.43401163-3.37209418-10.79381971-3.51976023-16.97607422-3.5012207-.88535431-.00511093-1.77070862-.01022187-2.68289184-.01548767-2.91583081-.01385726-5.83142419-.01294204-8.74728394-.01063538-2.03492317-.00388924-4.06984553-.00822438-6.10476685-.01298523-4.26181674-.00745404-8.52355063-.00717697-12.78536987-.00190735-5.44948759.00579149-10.89863496-.01113272-16.34806633-.03434467-4.20201269-.01476413-8.40394397-.01560535-12.60597801-.01249027-2.0085594-.00051193-4.01712351-.00572549-6.02565765-.01581192-2.81427958-.01239809-5.62790317-.00555235-8.44217301.00600624-1.2331192-.01146561-1.2331192-.01146561-2.4911499-.02316284-7.54888903.06819722-14.27273743 1.90106384-19.76715088 7.39547729z" transform="translate(334.84375 84.46875)"/></svg>