<svg height="512" width="512" xmlns="http://www.w3.org/2000/svg"><path d="m0 0c.825-.01289062 1.65-.02578125 2.5-.0390625 3.63315833.96505768 5.11454407 2.80231205 7.5 5.6640625.63923645 3.03096008.63923645 3.03096008.65942383 6.44262695.0196431 1.28095047.03928619 2.56190094.05952453 3.88166809-.00344294 1.38799682-.00742793 2.77599238-.01191711 4.16398621.01312209 1.42777103.0284279 2.85552352.04582214 4.2832489.03980457 3.74668699.05003737 7.49288788.05403138 11.23976135.00934022 3.82776595.04675917 7.65524731.08178711 11.48284912.06452923 7.50195562.0978073 15.00361999.11132812 22.50585938 11.81200553 6.24660651 23.65805309 12.42002481 35.55621338 18.50088501 4.25087331 2.17278773 8.49970553 4.34955891 12.74847412 6.52645874.83876678.42971603 1.67753357.85943207 2.54171753 1.3021698 10.32071485 5.29011386 20.61244348 10.63562342 30.90359497 15.98298645 5.18730066 2.69340611 10.37797414 5.38028736 15.56936646 8.0657959 1.79469611.92854526 3.5891128 1.85762891 5.3835144 2.78674316 5.94796672 3.07831473 11.90061033 6.14714016 17.86248779 9.19844055 2.98231024 1.52643163 5.96342446 3.05519248 8.94458008 4.58387757 1.42988713.73225755 2.86041003 1.4632752 4.29162598 2.19293213 22.15584281 11.29583696 22.15584281 11.29583696 25.19842529 15.85971069.18927055 2.68614922.26084524 5.26754821.24050903 7.95353699.00256328 1.22891062.00256328 1.22891062.00517834 2.48264771.00330326 2.75467684-.00772254 5.50911194-.01863659 8.26376647-.00056393 1.97086074-.0002479 3.9417219.00088501 5.9125824.00057521 5.35919216-.01120633 10.7182953-.02514791 16.07746673-.01247933 5.59741335-.01367565 11.19482861-.01605082 16.79225373-.00622301 10.60346044-.02264493 21.20687978-.04269898 31.8103221-.02233348 12.0699672-.033346 24.13993633-.04339087 36.20991904-.02092059 24.83252442-.0561125 49.66501233-.10064721 74.49750483 1.16580597.45645653 1.16580597.45645653 2.35516357.9221344 2.60998682 1.06366313 4.92191873 2.29995638 7.34796143 3.73020935.89033936.52400391 1.78067871 1.04800781 2.69799805 1.58789063.94012939.56009765 1.88025879 1.12019531 2.84887695 1.69726562 1.45369995.8652832 1.45369995.8652832 2.93676758 1.74804688 6.20356102 3.71225492 12.3875058 7.45499092 18.50073242 11.31445312.69963867.43175537 1.39927734.86351074 2.12011719 1.30834961 3.77938089 2.42562215 6.36791476 4.42772506 8.19238281 8.69165039 0 4.82843714-.32690093 6.9903514-3 11-4.07139589 2.71426392-7.21852236 2.65514494-12 2-2.82784819-1.0475829-5.23034671-2.54419381-7.75-4.1875-.70737305-.43763672-1.41474609-.87527344-2.14355469-1.32617188-2.38056332-1.47744931-4.74268662-2.98216008-7.10644531-4.48632812-2.81052246-1.75757601-5.62540609-3.50791573-8.44238281-5.25512695-1.84178812-1.14463128-3.67982983-2.2953176-5.51367188-3.45263672-.8446582-.52956299-1.6893164-1.05912598-2.55957031-1.60473633-.74540039-.47050781-1.49080078-.94101562-2.25878906-1.42578125-2.39166077-1.35586911-4.58799593-2.46969906-7.22558594-3.26171875-2.68211126 1.32846356-4.83596002 2.65300025-7.25 4.375-1.51447953 1.03033157-3.03018261 2.05886614-4.546875 3.0859375-.82693359.56686523-1.65386719 1.13373047-2.50585938 1.71777344-4.99958672 3.37589762-10.10668745 6.58500688-15.19726562 9.82128906-7.0762662 4.52061029-14.14427395 9.05308133-21.1875 13.625-7.35945918 4.77643331-14.76166874 9.48432319-22.16748047 14.18847656-5.50135236 3.49695406-10.98945029 7.01276793-16.45751953 10.56152344-9.00242908 5.84179365-18.04351467 11.62270735-27.0859375 17.40234375-3.93164368 2.51322129-7.8609336 5.03001699-11.78643799 7.55281067-1.71147353 1.09986836-3.42339281 2.19903959-5.13543701 3.29801941-2.14930622 1.37999559-4.29778926 2.76127438-6.4453125 4.14404297-15.77144502 10.11853675-15.77144502 10.11853675-20.98046875 9.7824707-5.30230506-1.30490003-9.73590028-4.60230416-14.25390625-7.5546875-1.4816064-.95598406-2.96338881-1.91169537-4.4453125-2.8671875-3.38317341-2.18883087-6.75774983-4.39037008-10.12890625-6.59765625-5.50842404-3.59993065-11.05662416-7.13527744-16.61328125-10.66015625-6.39213793-4.05734819-12.77430615-8.12805484-19.125-12.25-11.19359021-7.26373867-22.44458826-14.43794864-33.6875-21.625-24.11223632-15.41379002-24.11223632-15.41379002-31.92285156-20.46875-1.35993113-.87976739-2.72121093-1.75745437-4.08398438-2.6328125-3.58413636-2.30800682-7.12377323-4.66644026-10.63378906-7.0859375-.77085937-.52231201-1.54171875-1.04462402-2.3359375-1.58276367-1.47906305-1.00335495-2.94849929-2.02110056-4.40625-3.05517578-.66257813-.4456128-1.32515625-.89122559-2.0078125-1.3503418-.57782227-.40130127-1.15564453-.80260254-1.75097656-1.21606445-2.8185428-.92235814-4.26096405.08847009-6.85839844 1.3918457-1.68445719.94500104-3.34784718 1.92820938-4.9921875 2.94140625-.94536621.57991699-1.89073242 1.15983398-2.86474609 1.75732422-1.49394287.92256592-1.49394287.92256592-3.01806641 1.86376953-1.53841553.93803467-1.53841553.93803467-3.10791016 1.89501953-4.54835324 2.77498808-9.08029872 5.56546444-13.54833984 8.46826172-10.26566287 6.60097776-10.26566287 6.60097776-15.59375 6.94921875-4.62897509-1.04525244-6.24325834-1.92738751-8.875-5.875-.95570141-2.75400346-1.46506152-5.11034806-1-8 2.71498311-4.76473485 5.35632681-7.25373035 10.05859375-10.0234375.58499771-.34986969 1.16999542-.69973938 1.77272034-1.06021118 1.86158218-1.10973441 3.73326142-2.20089199 5.60618591-3.29135132 1.22144149-.72271189 2.44215112-1.44666217 3.66210938-2.171875 1.81854891-1.08049406 3.63802961-2.1590966 5.46200561-3.23040771 3.0827247-1.81180457 6.14423628-3.64981004 9.17715454-5.54400635.59651871-.37226715 1.19303742-.7445343 1.80763245-1.12808228 1.64462699-1.03070084 3.28567536-2.0671055 4.92649841-3.10385132 2.52709961-1.44677734 2.52709961-1.44677734 4.52709961-1.44677734-.00460896-1.0261375-.00921793-2.05227499-.01396656-3.10950756-.11093648-24.95385159-.193133-49.90767124-.2450943-74.86171722-.02579521-12.06754215-.0609711-24.13492153-.11813641-36.2023592-.04979439-10.51646193-.08208415-21.03280598-.0932452-31.54938251-.00652542-5.56988129-.02188971-11.13942533-.05820781-16.70919866-.03389664-5.24079507-.04441539-10.48111346-.03688813-15.72200775-.00137737-1.92493211-.01134742-3.8498799-.03048896-5.77471733-.02483945-2.62627598-.0189117-5.25074694-.00524521-7.87706375-.01456421-.76362545-.02912842-1.5272509-.04413396-2.31401652.05623807-3.99184193.48465123-5.68481558 3.05734521-8.8089779 2.16230077-1.73034403 4.10808219-3.15207415 6.56462383-4.40405941.74306396-.38476502 1.48612793-.76953003 2.25170898-1.16595459.79092041-.39737366 1.58184082-.79474732 2.39672852-1.2041626.83539307-.42943909 1.67078613-.85887817 2.53149414-1.30133057 1.74698502-.89678073 3.49612403-1.78937685 5.24731445-2.67791748 2.46001937-1.2485165 4.91394906-2.50808729 7.36572266-3.77270507 3.92493561-2.02305884 7.8547876-4.03631127 11.78668213-6.04580689 4.25087331-2.17278773 8.49970553-4.34955891 12.74847412-6.52645874.83876678-.42971603 1.67753357-.85943207 2.54171753-1.3021698 10.32071485-5.29011386 20.61244348-10.63562342 30.90359497-15.98298645 5.18759159-2.69355717 10.37852292-5.380655 15.57019043-8.06634521 1.19641875-.61892519 2.39278975-1.23794268 3.58911133-1.85705567 7.33196522-3.79420059 14.66940085-7.57756944 22.01257324-11.35003662 1.50635653-.77431541 3.01270424-1.54864799 4.51904297-2.32299805 2.89394878-1.48761729 5.78895676-2.97314581 8.68457031-4.45751953 1.33060594-.68376096 2.66117421-1.36759525 3.99169922-2.05151367 1.16128418-.59578857 2.32256836-1.19157715 3.51904297-1.80541992 1.11004394-.58628174 2.22008789-1.17256348 3.36376953-1.77661133.64611237-.20203537 1.29222473-.40407074 1.95791626-.61222839 2.28786451-.85872373 3.46892895-1.49871642 5.04208374-3.38777161.87330062-4.04382494.86312078-7.99651031.77248001-12.12263298-.04643131-2.1156218-.0507744-4.22773253-.04460525-6.34381294.00392632-3.7288245-.02949653-7.45622238-.07510376-11.18473816-.07243783-5.96362329-.11359316-11.92647121-.10676957-17.89053536-.00683734-2.07972383-.04507487-4.15727921-.08539962-6.23658561-.00295075-1.26803971-.00590149-2.53607941-.00894165-3.84254456-.0216774-1.67067787-.0216774-1.67067787-.04379273-3.37510681 1.10720609-5.6171464 4.9297596-8.71751816 10.59213257-8.62904358zm-17.3671875 96.8515625c-.65723053.33905365-1.31446106.6781073-1.99160767 1.0274353-2.17308541 1.12171027-4.34464615 2.2463395-6.51620483 3.3710022-1.51489096.78271274-3.02986572 1.56526331-4.54492188 2.34765625-10.11669715 5.22648978-20.22528166 10.4686966-30.33154296 15.71533203-9.60522732 4.98463279-19.22529953 9.94018438-28.8473816 14.8921814-10.93714465 5.62911419-21.86293991 11.2796007-32.77615356 16.95498657-5.51972214 2.86774971-11.0520826 5.70180067-16.625 8.46484375v2c2.32695964 1.63603899 2.32695964 1.63603899 5.359375 3.31640625.56699112.32793045 1.13398224.6558609 1.71815491.99372864 1.23558427.71386556 2.47306835 1.42445032 3.71217346 2.13218689 3.34876369 1.91359414 6.68301271 3.8522057 10.01889038 5.78814697 1.03099068.59714813 1.03099068.59714813 2.08280945 1.20635986 6.69778093 3.88691652 13.31405404 7.89910405 19.9210968 11.93817139 10.01855266 6.11712787 20.08540015 12.14689267 30.1875 18.125 9.69224899 5.73671117 19.36079693 11.508655 28.98260498 17.362854 1.74383867 1.06032281 3.48907514 2.11830841 5.23468018 3.17572022 5.27865171 3.20208109 10.5383864 6.42762055 15.75927734 9.72314453 1.37720215.85766968 1.37720215.85766968 2.78222656 1.73266602 1.68520526 1.05034396 3.36240094 2.11370607 5.02929688 3.19287109.73766601.45640869 1.47533203.91281738 2.23535156 1.38305664.62825684.39977051 1.25651367.79954102 1.90380859 1.21142578 3.02157379 1.04705184 5.00380243.52730499 8.07275391-.28173828 2.80958357-1.35153854 2.80958357-1.35153854 5.5859375-3.1484375 1.07894531-.66580078 2.15789062-1.33160156 3.26953125-2.01757812.85730713-.53814332.85730713-.53814332 1.73193359-1.08715821 2.46485408-1.54684574 4.94286129-3.07202532 7.4204712-4.59832763 1.31389076-.80942307 2.62715357-1.61986624 3.93981933-2.43127442 6.63004595-4.09247419 13.32863949-8.06580553 20.03747559-12.02734375 10.71431816-6.32745547 21.39063199-12.71228026 32.01483154-19.18988037 12.15718185-7.41029172 24.38460443-14.69801491 36.63790894-21.94812012 1.85961516-1.10134627 3.71756315-2.20546735 5.57546997-3.30969238 2.68156414-1.59252309 5.37312101-3.16679581 8.06933593-4.734375 1.38890503-.81498421 2.77774173-1.6300849 4.16650391-2.4453125.6568428-.37777588 1.31368561-.75555176 1.99043274-1.14477539 1.55412221-.91725635 3.06287943-1.91062908 4.56034851-2.91772461 0-.66 0-1.32 0-2-.80928955-.40202637-1.6185791-.80405273-2.45239258-1.21826172-27.23967137-13.54352055-27.23967137-13.54352055-38.87353515-19.73168945-8.143553-4.32254126-16.3472948-8.52691646-24.54907227-12.73754883-3.04564142-1.56366873-6.09124255-3.12741576-9.13671875-4.69140625-.75461517-.38751938-1.50923035-.77503876-2.28671265-1.17430115-4.95331927-2.54499965-9.90176138-5.09923554-14.84609985-7.66163635-.64412842-.3337413-1.28825684-.6674826-1.9519043-1.01133728-2.98871108-1.54889981-5.97667038-3.09921458-8.96362304-4.65150452-6.09563933-3.16088761-12.21305023-6.27128868-18.35717774-9.33666992-.73300575-.36608871-1.4660115-.73217743-2.22122955-1.10935974-1.78700856-.89243438-3.5742473-1.78440783-5.36153412-2.67628479-.00423194.55383771-.00846388 1.10767542-.01282406 1.67829609-.10326246 13.47025536-.21195565 26.94045745-.3265152 40.41062164-.0552351 6.51404454-.10865612 13.02809356-.15797519 19.54218579-.04763478 6.28290984-.09997738 12.56576422-.1556263 18.84860801-.02042755 2.40063222-.03913996 4.80127965-.05613327 7.20193863-.02403502 3.35462649-.05409102 6.70914778-.08560371 10.06371117-.00575547.99909393-.01151093 1.99818786-.0174408 3.02755737-.00978882.91285263-.01957764 1.82570526-.02966309 2.76622009-.00645255.79366376-.0129051 1.58732752-.01955318 2.4050417-.1386652 2.05581951-.1386652 2.05581951-1.1386652 5.05581951-2.94826763.98275588-4.92652504 1.13414725-8 1.125-1.299375.00386719-1.299375.00386719-2.625.0078125-2.375-.1328125-2.375-.1328125-5.375-1.1328125-.9363596-2.80907879-1.13457147-4.55229131-1.15821838-7.46086121-.01468323-1.36927894-.01468323-1.36927894-.02966309-2.76622009-.00575546-.99909393-.01151093-1.99818787-.0174408-3.02755737-.00989959-1.0538237-.01979919-2.1076474-.02999877-3.19340515-.03163602-3.48995197-.05638084-6.97991757-.08108521-10.46992493-.0205677-2.41710264-.04156413-4.83420166-.06297302-7.251297-.05523959-6.367112-.10464059-12.73425655-.15284729-19.10142517-.05020122-6.49508569-.10589449-12.990124-.16113282-19.48516846-.10760467-12.74800613-.20923098-25.49605271-.30664062-38.24414062-2.45091974 0-5.18769613 2.0956067-7.3671875 3.2265625zm-132.6328125 82.7734375v162c8.50114853-4.85779916 16.87178339-9.70551788 25.125-14.9375 9.55896642-6.01784383 19.17998036-11.92262692 28.84619141-17.76571655 6.05984845-3.66310338 12.11265047-7.33468741 18.11865234-11.08584595.94012939-.58700684 1.88025879-1.17401367 2.84887695-1.77880859 1.7158777-1.07447036 3.42949547-2.15256382 5.14013672-3.23535157 15.82132466-9.90797017 15.82132466-9.90797017 21.35864258-8.82177734 3.5625 1.625 3.5625 1.625 5.5625 3.875 1.47875801 4.06658453 1.70037704 7.05553942.03125 11.09375-2.96335145 3.8751519-6.70322348 5.77482779-10.90625 8.15625-1.82899195 1.06622256-3.65709027 2.13397926-5.484375 3.203125-.93908203.54591797-1.87816406 1.09183594-2.84570312 1.65429688-4.3522764 2.55783679-8.63611663 5.22215942-12.91992188 7.89257812-1.75892507 1.09275302-3.51804455 2.18519317-5.27734375 3.27734375-.90476074.56187012-1.80952148 1.12374023-2.74169922 1.70263672-5.17361035 3.20641776-10.35894194 6.39377566-15.54345703 9.58251953-1.61092529.99169189-1.61092529.99169189-3.25439453 2.00341797-5.18657916 3.19203721-10.3754822 6.38008334-15.57148743 9.55674744-2.4149209 1.47675993-4.82858809 2.95556184-7.24214172 4.43455505-1.71396714 1.04910512-3.42976757 2.09521322-5.14559937 3.14126587-1.54941284.94975708-1.54941284.94975708-3.13012695 1.91870117-.91330078.55800293-1.82660156 1.11600586-2.76757812 1.69091797-2.2853918 1.39009255-2.2853918 1.39009255-4.20117188 3.44189453.66829834.42708252 1.33659668.85416504 2.02514648 1.29418945 22.39094973 14.31199849 22.39094973 14.31199849 31.47485352 20.20581055 11.13217111 7.22034894 22.32039809 14.35341956 33.5 21.5 31.84838666 20.35913791 31.84838666 20.35913791 47.44921875 30.5625.92256592.60239502 1.84513184 1.20479004 2.7956543 1.82543945 1.80876484 1.18142718 3.61626278 2.36479671 5.42236328 3.55029297.81106201.52956299 1.62212402 1.05912598 2.45776367 1.60473633 1.08667969.71192505 1.08667969.71192505 2.1953125 1.43823242 1.49477174 1.10523248 1.49477174 1.10523248 2.6796875 1.01879883.58524564-23.33886065 1.02543861-46.67650468 1.2953043-70.02122593.12866703-10.84104811.30388056-21.67752635.59068203-32.5156393.2500097-9.45231226.41064763-18.9013159.46622604-28.35684246.0324782-5.00412998.10811273-9.9988008.29103905-14.99987942 1.58537013-20.0956308 1.58537013-20.0956308-5.08008957-38.22091484-5.87396638-5.05234771-12.34444495-8.09096985-19.57530785-10.7348423-4.13417692-1.59211743-7.7302764-3.79102511-11.44488525-6.17409325-1.22839432-.73310186-2.45915695-1.46226592-3.69335937-2.18554688-12.46942848-7.37388619-24.88677925-14.82593798-37.2553711-22.36767578-9.64487308-5.87433619-19.35439618-11.63670777-29.07672119-17.38174438-9.58490257-5.66567361-19.10197903-11.41921492-28.50360107-17.38632202-.77545166-.48823242-1.55090332-.97646485-2.34985352-1.47949219-.66563965-.42369873-1.3312793-.84739746-2.01708984-1.28393555-1.62793287-1.05057035-1.62793287-1.05057035-3.64697266-.8918457zm292.8046875 3.05078125c-1.09183594.66902344-2.18367187 1.33804688-3.30859375 2.02734375-.58797363.36287109-1.17594727.72574219-1.78173828 1.09960938-3.17222705 1.95706282-6.35368665 3.89900682-9.53466797 5.84179687-1.00199432.61254135-1.00199432.61254135-2.02423096 1.23745728-7.34473133 4.4826315-14.74874916 8.86384772-22.15545654 13.24301147-10.03768966 5.93928032-20.04188475 11.92823916-30 18-12.0209906 7.32860909-24.0942232 14.56907909-36.24315262 21.6840353-1.2523585.74706229-2.49463958 1.5115348-3.7215805 2.29964638-3.49751929 2.21012722-6.68844014 3.79362975-10.67009354 4.94525814-5.71391607 1.96803847-10.05413624 4.37827523-13.36517334 9.57106018-3.28658347 12.07463849-2.14944842 25.27615561-1.82509089 37.66449904.11296593 5.04307201.12313024 10.08635717.14445735 15.13049913.0558233 9.53894729.20334399 19.07415607.38429081 28.61146098.20159656 10.86287977.30025891 21.72594367.39051783 32.59023005.18786259 22.33650526.50420887 44.6696981.9058249 67.0033108 1.88990356-1.09436139 3.77878039-2.19049596 5.66723633-3.28735352 1.05198074-.61021499 2.10396148-1.22042999 3.18782043-1.84913635 4.70748917-2.78938381 9.26891119-5.78384951 13.83244324-8.80101013 2.01632937-1.3238275 4.03327829-2.64671174 6.05078125-3.96875 1.5461499-1.01320313 1.5461499-1.01320313 3.12353516-2.046875 5.15089677-3.3596638 10.33072003-6.67368433 15.51318359-9.984375 1.03213623-.6595166 2.06427246-1.3190332 3.12768555-1.99853516 2.10145451-1.34225616 4.2030992-2.68421461 6.30493164-4.0258789 5.39943204-3.4471137 10.7962144-6.89836609 16.19238281-10.35058594 1.05171387-.67281006 2.10342773-1.34562012 3.18701172-2.03881836 6.43074141-4.11650663 12.85107308-8.24838061 19.25292969-12.40966797 4.3347959-2.8133427 8.68894274-5.59513441 13.05224609-8.36401367 1.72333862-1.09560737 3.44651931-2.19146277 5.16967773-3.28735352 1.6819036-1.06781823 3.3664414-2.13148373 5.05102539-3.19506836 1.03060547-.65548828 2.06121094-1.31097656 3.12304688-1.98632812.92345215-.58458984 1.8469043-1.16917969 2.79833984-1.77148438 2.04674827-1.4143474 3.69303687-2.80598099 5.36572266-4.63476562-.46970215-.27972656-.9394043-.55945313-1.42333984-.84765625-13.81703736-8.23790772-27.53205634-16.63510568-41.22119141-25.08349609-4.4052329-2.7160902-8.81564419-5.42370771-13.22607422-8.13134766-4.29308083-2.63832844-8.58060494-5.28563032-12.86865234-7.93212891-2.80699068-1.72631187-5.6194302-3.44297997-8.43527222-5.15476989-2.77970546-1.69277661-5.55177443-3.39800071-8.32546997-5.1006012-1.54131592-.93017944-1.54131592-.93017944-3.11376953-1.87915039-.94214356-.58128662-1.88428711-1.16257324-2.85498047-1.76147461-.82951172-.50563477-1.65902344-1.01126953-2.51367188-1.53222656-2.2007954-1.72037008-3.05110504-2.97914106-4.01757812-5.57714844-.21170628-4.07181743.01317754-7.83043264 2.6875-11 3.93181005-1.70024218 7.01395962-2.44844993 11.13671875-1.0246582.94488281.50700439 1.88976562 1.01400879 2.86328125 1.53637695 1.04671875.55993652 2.0934375 1.11987305 3.171875 1.69677734 4.80107812 2.7386747 9.48665833 5.62318895 14.140625 8.60400391 2.09921992 1.32846852 4.19952647 2.65522114 6.30078125 3.98046875 1.09006348.68755371 2.18012695 1.37510742 3.30322266 2.08349609 5.81902681 3.65150515 11.70440808 7.19491246 17.58349609 10.74853516 9.27487674 5.60954363 18.52453639 11.2560573 27.71557617 17.00244141 6.29959308 3.92520771 12.67571732 7.62685479 19.09692383 11.37255859 0-53.46 0-106.92 0-162-2.98127195 0-4.6669468 1.49174278-7.1953125 3.05078125z" transform="translate(256 39.375)"/><path d="m0 0c3.125 1.875 3.125 1.875 5 5 .98876625 5.02622846.7769173 8.70513784-1.875 13.125-4.41986216 2.6519173-8.09877154 2.86376625-13.125 1.875-3.125-1.875-3.125-1.875-5-5-.98876625-5.02622846-.7769173-8.70513784 1.875-13.125 4.41986216-2.6519173 8.09877154-2.86376625 13.125-1.875z" transform="translate(507 438)"/><path d="m0 0c3.125 1.875 3.125 1.875 5 5 .98876625 5.02622846.7769173 8.70513784-1.875 13.125-4.41986216 2.6519173-8.09877154 2.86376625-13.125 1.875-3.125-1.875-3.125-1.875-5-5-.98876625-5.02622846-.7769173-8.70513784 1.875-13.125 4.41986216-2.6519173 8.09877154-2.86376625 13.125-1.875z" transform="translate(15 438)"/><path d="m0 0c3.125 1.875 3.125 1.875 5 5 .98876625 5.02622846.7769173 8.70513784-1.875 13.125-4.41986216 2.6519173-8.09877154 2.86376625-13.125 1.875-3.125-1.875-3.125-1.875-5-5-.98876625-5.02622846-.7769173-8.70513784 1.875-13.125 4.41986216-2.6519173 8.09877154-2.86376625 13.125-1.875z" transform="translate(261)"/></svg>