<svg height="512" width="512" xmlns="http://www.w3.org/2000/svg"><path d="m0 0c1.28701309-.01409912 2.57402618-.02819824 3.90003967-.04272461 1.41902514.00972073 2.83804679.01996152 4.25706482.03067017 1.50000571-.00677797 3.00000309-.01568211 4.49998474-.0265503 4.06829956-.02277923 8.1359646-.01396307 12.20427513.00189543 4.2591198.01266629 8.51818557.00091687 12.77730752-.00693083 7.15223944-.00909446 14.30422066.00288592 21.45642089.02670288 8.26686118.02721105 16.53310579.01839673 24.79995203-.00913202 7.09996153-.02269596 14.19973754-.02588883 21.29972363-.01280666 4.23954705.0077919 8.47880437.00884348 12.71833277-.00768244 3.98606259-.01445278 7.97133095-.0044093 11.95730781.02447128 1.46209266.00660665 2.92425226.00472019 4.38631821-.00631332 1.99700075-.01368002 3.99414773.00652424 5.99107551.02840042 1.11717156.00188513 2.23434311.00377026 3.38536835.00571251 4.05615128.85335462 5.52524242 2.33737234 7.99073029 5.6292057.6292057 2.99073029.6292057 2.99073029.63491821 6.37609864.01409912 1.28701309.02819824 2.57402618.04272461 3.90003967-.00972072 1.41902514-.01996152 2.83804679-.03067017 4.25706482.00677797 1.50000571.01568211 3.00000309.0265503 4.49998474.02277923 4.06829956.01396307 8.13596459-.00189543 12.20427513-.01266629 4.25911979-.00091687 8.51818556.00693083 12.77730751.00909446 7.15223944-.00288592 14.30422067-.02670288 21.4564209-.02721105 8.26686118-.01839673 16.53310579.00913202 24.79995203.02269596 7.09996153.02588883 14.19973754.01280666 21.29972362-.0077919 4.23954706-.00884348 8.47880438.00768244 12.71833277.01445278 3.9860626.0044093 7.97133096-.02447128 11.95730782-.00660665 1.46209265-.00472019 2.92425225.00631332 4.3863182.01368002 1.99700076-.00652424 3.99414773-.02840042 5.99107552-.00188513 1.11717155-.00377026 2.23434311-.00571251 3.38536835-.85335462 4.05615128-2.33737234 5.52524242-5.6292057 7.99073028-2.99073029.62920571-2.99073029.62920571-6.37609864.63491822-1.28701309.01409912-2.57402618.02819824-3.90003967.04272461-1.41902514-.00972073-2.83804679-.01996153-4.25706482-.03067017-1.50000571.00677796-3.00000309.01568211-4.49998474.02655029-4.06829956.02277923-8.13596459.01396307-12.20427513-.00189543-4.25911979-.01266628-8.51818556-.00091687-12.77730751.00693083-7.15223944.00909447-14.30422067-.00288591-21.4564209-.02670288-8.26686118-.02721105-16.53310579-.01839673-24.79995203.00913203-7.09996153.02269595-14.19973754.02588882-21.29972362.01280665-4.23954706-.0077919-8.47880438-.00884347-12.71833277.00768245-3.9860626.01445277-7.97133096.00440929-11.95730782-.02447129-1.46209265-.00660665-2.92425225-.00472018-4.3863182.00631333-1.99700076.01368002-3.99414773-.00652425-5.99107552-.02840042-1.11717155-.00188513-2.23434311-.00377026-3.38536835-.00571251-4.05615128-.85335463-5.52524242-2.33737235-7.99073028-5.62920571-.62920571-2.99073028-.62920571-2.99073028-.63491822-6.37609863-.01409912-1.28701309-.02819824-2.57402618-.04272461-3.90003967.00972073-1.41902514.01996153-2.83804679.03067017-4.25706482-.00677796-1.50000571-.01568211-3.00000309-.02655029-4.49998474-.02277923-4.06829956-.01396307-8.1359646.00189543-12.20427513.01266628-4.2591198.00091687-8.51818557-.00693083-12.77730751-.00909447-7.15223945.00288591-14.30422067.02670288-21.4564209.02721105-8.26686118.01839673-16.53310579-.00913203-24.79995203-.02269595-7.09996153-.02588882-14.19973754-.01280665-21.29972363.0077919-4.23954705.00884347-8.47880437-.00768245-12.71833277-.01445277-3.98606259-.00440929-7.97133095.02447129-11.95730781.00660665-1.46209266.00472018-2.92425226-.00631333-4.38631821-.01368002-1.99700075.00652425-3.99414773.02840042-5.99107551.00188513-1.11717156.00377026-2.23434311.00571251-3.38536835 1.39801049-6.64500062 5.64754131-8.61492034 12.00530434-8.6256485zm8.62390137 20.63491821v123h123c0-40.59 0-81.18 0-123-40.59 0-81.18 0-123 0z" transform="translate(94.376099 82.365082)"/><path d="m0 0c.84304688-.03996094 1.68609375-.07992187 2.5546875-.12109375 4.51546179.98132376 6.92687409 4.58075093 9.38452148 8.31567383.55502198.99410888 1.11004395 1.98821777 1.68188477 3.01245117.63365479 1.1235791 1.26730957 2.2471582 1.92016602 3.40478516.49368576.88863739.49368576.88863739.99734497 1.79522705 1.40182136 2.52320325 2.82159996 5.0361505 4.24012756 7.54998779.72735584 1.28950596 1.45376168 2.57954823 2.17922974 3.87011719 3.34613079 5.94926522 6.77646649 11.84755529 10.22953796 17.73535156 4.84284776 8.27437492 9.65278268 16.56687326 14.4375 24.875 5.37529679 9.33214134 10.78406667 18.64392322 16.21948242 27.94116211 3.07379621 5.2621135 6.13392743 10.53166913 9.17504883 15.81274414.64960693 1.12792969 1.29921387 2.25585937 1.96850586 3.41796875 1.28603417 2.23674922 2.569459 4.47500099 3.85009766 6.71484375 2.65948744 4.63709119 5.3279387 9.24554944 8.23217773 13.734375 7.08856726 10.97271371 7.08856726 10.97271371 6.859375 18.23046875-1.23636072 3.30096309-3.10467051 4.91105799-5.8046875 7.1484375-3.34992981.6292057-3.34992981.6292057-7.24926758.63491821-.71944951.00779996-1.43889902.01559991-2.18015003.02363622-2.40556215.01990968-4.80954038.00416115-7.21511364-.01158177-1.7266024.00677663-3.45319757.01568003-5.17977905.02655029-4.68602087.02279457-9.37149134.01395641-14.05752182-.00189543-4.90374359-.01265818-9.80744002-.00091911-14.71118546.00693083-8.23503074.0090968-16.46983728-.00289216-24.70483398-.02670288-9.52105966-.02721133-19.04158398-.01839719-28.56263066.00913203-8.17425557.02268919-16.34834998.02589208-24.52262687.01280665-4.88228411-.00779555-9.76431657-.00883323-14.64658451.00768244-4.59011522.01444275-9.1795402.00442683-13.76958084-.02447128-1.68462732-.00661189-3.36931272-.00471132-5.05391694.00631332-2.29996461.01366417-4.59771745-.00346675-6.89754104-.02840042-1.28678147-.00188513-2.57356293-.00377025-3.89933777-.00571251-4.21917317-.79247267-5.69790957-2.32694744-8.34992981-5.6292057-1.33140011-4.34500781-.62573074-8.48681326 1.09033203-12.63671875 1.54881872-2.86837668 3.22494095-5.61130635 4.97216797-8.36328125 1.29418176-2.12426146 2.58710792-4.24928829 3.87890625-6.375.6717627-1.09054688 1.34352539-2.18109375 2.03564453-3.3046875 3.27812975-5.38046881 6.3944786-10.851951 9.52294922-16.3203125 5.37612006-9.34035784 10.79260658-18.65642389 16.23046875-27.9609375 4.28175295-7.33190056 8.53151567-14.68180627 12.76953125-22.0390625 6.54943221-11.36633572 13.13423874-22.71126419 19.76513672-34.03027344 1.80634526-3.09208889 3.60103081-6.19076725 5.39501953-9.29003906 1.17552239-2.01837995 2.35129435-4.03661457 3.52734375-6.0546875.54092285-.94004883 1.0818457-1.88009766 1.63916016-2.84863281.50450683-.86206055 1.00901367-1.7241211 1.52880859-2.61230469.43981201-.75845215.87962402-1.5169043 1.33276367-2.29833984 2.52317456-3.58870277 5.03456921-4.19594702 9.18676758-4.30322266zm-.875 32.4375c-.37584229.65145996-.75168457 1.30291992-1.13891602 1.97412109-.53294677.92377442-1.06589355 1.84754883-1.61499023 2.79931641-.59949463 1.03914551-1.19898926 2.07829102-1.81665039 3.14892578-1.34676759 2.33435314-2.69359943 4.66866907-4.04052734 7.00292969-3.412689 5.91449192-6.82431008 11.82959144-10.23266602 17.74658203-6.02580348 10.45818858-12.06711313 20.90666347-18.15625 31.328125-5.04361799 8.6327337-10.06354046 17.27885075-15.0625 25.9375-.61939453 1.07185547-1.23878906 2.14371094-1.87695312 3.24804688-.58845704 1.02029296-1.17691407 2.04058593-1.78320313 3.09179687-.76969116 1.33405884-.76969116 1.33405884-1.55493164 2.69506836-2.27112683 3.99209693-4.4918961 8.01265908-6.72241211 12.02758789h130c-2.64-4.62-5.28-9.24-8-14-1.54809105-2.78851732-3.09062928-5.57905101-4.625-8.375-4.49253626-8.1324744-9.1549243-16.16043958-13.85009766-24.17724609-4.37205826-7.46526306-8.70823959-14.95033331-13.02490234-22.44775391-5.06020989-8.78439732-10.14161053-17.55602507-15.25-26.3125-.58458984-1.00224609-1.16917969-2.00449219-1.77148438-3.03710938-2.23498908-3.82769769-2.23498908-3.82769769-4.47851562-7.65039062-.51208008-.92449951-1.02416016-1.84899902-1.55175781-2.80151367-.71687989-1.08825073-.71687989-1.08825073-1.44824219-2.19848633-.66 0-1.32 0-2 0z" transform="translate(358.875 82.5625)"/><path d="m0 0c1.42033063 1.2007757 2.81480985 2.43254058 4.1875 3.6875 1.33804688 1.20076172 1.33804688 1.20076172 2.703125 2.42578125 10.02351865 9.46209206 16.79069911 20.53361882 21.296875 33.57421875.3196875.92296875.639375 1.8459375.96875 2.796875 6.01643687 21.05752903 2.38817109 43.69396733-7.90625 62.6484375-2.60506161 4.58769614-5.49978461 8.65774532-9.0625 12.5546875-.80050781.89203125-1.60101563 1.7840625-2.42578125 2.703125-9.46209206 10.02351865-20.53361882 16.79069911-33.57421875 21.296875-.92296875.3196875-1.8459375.639375-2.796875.96875-21.05752903 6.01643687-43.69396733 2.38817109-62.6484375-7.90625-4.58769614-2.60506161-8.65774532-5.49978461-12.5546875-9.0625-.89203125-.80050781-1.7840625-1.60101563-2.703125-2.42578125-10.02351865-9.46209206-16.79069911-20.53361882-21.296875-33.57421875-.3196875-.92296875-.639375-1.8459375-.96875-2.796875-6.01643687-21.05752903-2.38817109-43.69396733 7.90625-62.6484375 2.60506161-4.58769614 5.49978461-8.65774532 9.0625-12.5546875.80050781-.89203125 1.60101563-1.7840625 2.42578125-2.703125 9.46209206-10.02351865 20.53361882-16.79069911 33.57421875-21.296875.92296875-.3196875 1.8459375-.639375 2.796875-.96875 24.06615268-6.87604362 51.0392666-1.50552063 71.015625 13.28125zm-94.8203125 26.9140625c-11.58795357 14.19649723-14.56709118 29.8602721-12.9921875 47.7734375 2.28119085 15.58633561 11.4467801 28.02502192 23.4375 37.8125 14.1835247 10.44713691 30.38358418 13.40906155 47.67431641 10.87841797 15.51349074-3.05894315 28.10455313-12.8155538 37.36083984-25.38232422 9.37552803-14.17119454 12.1225403-30.69130383 8.8359375-47.359375-4.28409987-16.4014702-15.20856055-29.72854853-29.7109375-38.3828125-26.10542618-13.89814948-55.2262386-6.83042971-74.60546875 14.66015625z" transform="translate(211.8125 284.3125)"/><path d="m0 0c3.36337088 2.01802253 4.56537386 3.42587329 5.609375 7.20703125.42643884 3.98218623.11465947 6.78402254-2.25496864 10.08611298-.7202857.76044868-1.44057141 1.52089737-2.18268395 2.30438995-1.22933698 1.3063163-1.22933698 1.3063163-2.48350906 2.63902283-.88711041.91193618-1.77422081 1.82387237-2.68821335 2.76344299-1.32234209 1.36083458-1.32234209 1.36083458-2.67139816 2.74916077-2.96641128 3.01866002-5.95551815 6.0132158-8.95116043 9.00279235-1.13950849 1.14086697-2.27880488 2.2819458-3.41790772 3.42321778-3.06336722 3.06788477-6.12983881 6.13264816-9.19705915 9.19668007-3.219175 3.21662615-6.4358902 6.43571073-9.65300799 9.65439415-5.39292949 5.39474201-10.78794926 10.78738686-16.18417358 16.178833-6.23851009 6.23304988-12.4733836 12.46972003-18.7064184 18.70824481-5.36310023 5.3676345-10.72814192 10.73332263-16.0948193 16.09738063-3.20077852 3.19921997-6.40087848 6.39911083-9.59922541 9.60076189-3.00027284 3.00315676-6.00297231 6.00386574-9.0075798 9.00268555-1.10260895 1.10128499-2.20436464 2.20342501-3.30521011 3.30647278-1.50037944 1.50310466-3.00379319 3.00310687-4.50802994 4.50234985-.84096914.84059212-1.68193829 1.68118424-2.54839134 2.54724884-4.2642162 4.01527893-7.03981673 4.55035536-12.70249367 4.39305878-2.453125-.36328125-2.453125-.36328125-5.578125-2.23828125-2.75204768-4.58674614-3.16481503-7.93766749-1.875-13.125 1.64559364-2.29314423 1.64559364-2.29314423 3.82827759-4.59753418.81955799-.87087753 1.63911598-1.74175507 2.48350906-2.63902283.88711041-.91193618 1.77422081-1.82387237 2.68821335-2.76344299.88156139-.90722305 1.76312279-1.81444611 2.67139816-2.74916077 2.96641128-3.01866002 5.95551815-6.0132158 8.95116043-9.00279235 1.13950849-1.14086697 2.27880488-2.2819458 3.41790772-3.42321778 3.06336722-3.06788477 6.12983881-6.13264816 9.19705915-9.19668007 3.219175-3.21662615 6.4358902-6.43571073 9.65300799-9.65439415 5.39292949-5.39474201 10.78794926-10.78738686 16.18417358-16.178833 6.23851009-6.23304988 12.4733836-12.46972003 18.7064184-18.70824481 5.36310023-5.3676345 10.72814192-10.73332263 16.0948193-16.09738063 3.20077852-3.19921997 6.40087848-6.39911083 9.59922541-9.60076189 3.00027284-3.00315676 6.00297231-6.00386574 9.0075798-9.00268555 1.10260895-1.10128499 2.20436464-2.20342501 3.30521011-3.30647278 1.50037944-1.50310466 3.00379319-3.00310687 4.50802994-4.50234985 1.26145371-1.26088818 1.26145371-1.26088818 2.54839134-2.54724884 4.82342525-4.54184236 8.76155641-4.97666892 15.15561867-4.02977753z" transform="translate(424 286)"/><path d="m0 0c1.63630371-.00717545 1.63630371-.00717545 3.30566406-.01449585 2.30307459-.00339778 4.60619749.00579592 6.90917969.02670288 3.52323042.02676487 7.04327481.00024546 10.56640625-.03173828 2.23959036.00330412 4.47917874.00971038 6.71875.01953125 1.5782959-.01518173 1.5782959-.01518173 3.18847656-.03067017 4.47572868.07165012 7.30854546.25690069 11.22314453 2.53311158 2.75556536 4.73898689 2.55432512 9.01777978 2.50244141 14.41162109.00478363 1.09086914.00956726 2.18173828.01449585 3.30566406.00339778 2.30307459-.00579592 4.60619749-.02670288 6.90917969-.02676487 3.52323042-.00024546 7.04327481.03173828 10.56640625-.00330412 2.23959036-.00971038 4.47917874-.01953125 6.71875.01012115 1.05219727.02024231 2.10439453.03067017 3.18847656-.07165012 4.47572868-.25690069 7.30854546-2.53311158 11.22314453-4.73898689 2.75556536-9.01777978 2.55432512-14.41162109 2.50244141-1.09086914.00478363-2.18173828.00956726-3.30566406.01449585-2.30307459.00339778-4.60619749-.00579592-6.90917969-.02670288-3.52323042-.02676487-7.04327481-.00024546-10.56640625.03173828-2.23959036-.00330412-4.47917874-.00971038-6.71875-.01953125-1.05219727.01012115-2.10439453.02024231-3.18847656.03067017-4.47572868-.07165012-7.30854546-.25690069-11.22314453-2.53311158-2.75556536-4.73898689-2.55432512-9.01777978-2.50244141-14.41162109-.00478363-1.09086914-.00956726-2.18173828-.01449585-3.30566406-.00339778-2.30307459.00579592-4.60619749.02670288-6.90917969.02676487-3.52323042.00024546-7.04327481-.03173828-10.56640625.00330412-2.23959036.00971038-4.47917874.01953125-6.71875-.01012115-1.05219727-.02024231-2.10439453-.03067017-3.18847656.07165012-4.47572868.25690069-7.30854546 2.53311158-11.22314453 4.73898689-2.75556536 9.01777978-2.55432512 14.41162109-2.50244141zm3.75 20.6640625v20h20c0-6.6 0-13.2 0-20-6.6 0-13.2 0-20 0z" transform="translate(468.25 451.335938)"/><path d="m0 0c1.63630371-.00717545 1.63630371-.00717545 3.30566406-.01449585 2.30307459-.00339778 4.60619749.00579592 6.90917969.02670288 3.52323042.02676487 7.04327481.00024546 10.56640625-.03173828 2.23959036.00330412 4.47917874.00971038 6.71875.01953125 1.5782959-.01518173 1.5782959-.01518173 3.18847656-.03067017 4.47572868.07165012 7.30854546.25690069 11.22314453 2.53311158 2.75556536 4.73898689 2.55432512 9.01777978 2.50244141 14.41162109.00478363 1.09086914.00956726 2.18173828.01449585 3.30566406.00339778 2.30307459-.00579592 4.60619749-.02670288 6.90917969-.02676487 3.52323042-.00024546 7.04327481.03173828 10.56640625-.00330412 2.23959036-.00971038 4.47917874-.01953125 6.71875.01012115 1.05219727.02024231 2.10439453.03067017 3.18847656-.07165012 4.47572868-.25690069 7.30854546-2.53311158 11.22314453-4.73898689 2.75556536-9.01777978 2.55432512-14.41162109 2.50244141-1.09086914.00478363-2.18173828.00956726-3.30566406.01449585-2.30307459.00339778-4.60619749-.00579592-6.90917969-.02670288-3.52323042-.02676487-7.04327481-.00024546-10.56640625.03173828-2.23959036-.00330412-4.47917874-.00971038-6.71875-.01953125-1.05219727.01012115-2.10439453.02024231-3.18847656.03067017-4.47572868-.07165012-7.30854546-.25690069-11.22314453-2.53311158-2.75556536-4.73898689-2.55432512-9.01777978-2.50244141-14.41162109-.00478363-1.09086914-.00956726-2.18173828-.01449585-3.30566406-.00339778-2.30307459.00579592-4.60619749.02670288-6.90917969.02676487-3.52323042.00024546-7.04327481-.03173828-10.56640625.00330412-2.23959036.00971038-4.47917874.01953125-6.71875-.01012115-1.05219727-.02024231-2.10439453-.03067017-3.18847656.07165012-4.47572868.25690069-7.30854546 2.53311158-11.22314453 4.73898689-2.75556536 9.01777978-2.55432512 14.41162109-2.50244141zm3.75 20.6640625v20h20c0-6.6 0-13.2 0-20-6.6 0-13.2 0-20 0z" transform="translate(16.25 451.335938)"/><path d="m0 0c1.63630371-.00717545 1.63630371-.00717545 3.30566406-.01449585 2.30307459-.00339778 4.60619749.00579592 6.90917969.02670288 3.52323042.02676487 7.04327481.00024546 10.56640625-.03173828 2.23959036.00330412 4.47917874.00971038 6.71875.01953125 1.5782959-.01518173 1.5782959-.01518173 3.18847656-.03067017 4.47572868.07165012 7.30854546.25690069 11.22314453 2.53311158 2.75556536 4.73898689 2.55432512 9.01777978 2.50244141 14.41162109.00478363 1.09086914.00956726 2.18173828.01449585 3.30566406.00339778 2.30307459-.00579592 4.60619749-.02670288 6.90917969-.02676487 3.52323042-.00024546 7.04327481.03173828 10.56640625-.00330412 2.23959036-.00971038 4.47917874-.01953125 6.71875.01012115 1.05219727.02024231 2.10439453.03067017 3.18847656-.07165012 4.47572868-.25690069 7.30854546-2.53311158 11.22314453-4.73898689 2.75556536-9.01777978 2.55432512-14.41162109 2.50244141-1.09086914.00478363-2.18173828.00956726-3.30566406.01449585-2.30307459.00339778-4.60619749-.00579592-6.90917969-.02670288-3.52323042-.02676487-7.04327481-.00024546-10.56640625.03173828-2.23959036-.00330412-4.47917874-.00971038-6.71875-.01953125-1.05219727.01012115-2.10439453.02024231-3.18847656.03067017-4.47572868-.07165012-7.30854546-.25690069-11.22314453-2.53311158-2.75556536-4.73898689-2.55432512-9.01777978-2.50244141-14.41162109-.00478363-1.09086914-.00956726-2.18173828-.01449585-3.30566406-.00339778-2.30307459.00579592-4.60619749.02670288-6.90917969.02676487-3.52323042.00024546-7.04327481-.03173828-10.56640625.00330412-2.23959036.00971038-4.47917874.01953125-6.71875-.01012115-1.05219727-.02024231-2.10439453-.03067017-3.18847656.07165012-4.47572868.25690069-7.30854546 2.53311158-11.22314453 4.73898689-2.75556536 9.01777978-2.55432512 14.41162109-2.50244141zm3.75 20.6640625v20h20c0-6.6 0-13.2 0-20-6.6 0-13.2 0-20 0z" transform="translate(468.25 -.664063)"/><path d="m0 0c1.63630371-.00717545 1.63630371-.00717545 3.30566406-.01449585 2.30307459-.00339778 4.60619749.00579592 6.90917969.02670288 3.52323042.02676487 7.04327481.00024546 10.56640625-.03173828 2.23959036.00330412 4.47917874.00971038 6.71875.01953125 1.5782959-.01518173 1.5782959-.01518173 3.18847656-.03067017 4.47572868.07165012 7.30854546.25690069 11.22314453 2.53311158 2.75556536 4.73898689 2.55432512 9.01777978 2.50244141 14.41162109.00478363 1.09086914.00956726 2.18173828.01449585 3.30566406.00339778 2.30307459-.00579592 4.60619749-.02670288 6.90917969-.02676487 3.52323042-.00024546 7.04327481.03173828 10.56640625-.00330412 2.23959036-.00971038 4.47917874-.01953125 6.71875.01012115 1.05219727.02024231 2.10439453.03067017 3.18847656-.07165012 4.47572868-.25690069 7.30854546-2.53311158 11.22314453-4.73898689 2.75556536-9.01777978 2.55432512-14.41162109 2.50244141-1.09086914.00478363-2.18173828.00956726-3.30566406.01449585-2.30307459.00339778-4.60619749-.00579592-6.90917969-.02670288-3.52323042-.02676487-7.04327481-.00024546-10.56640625.03173828-2.23959036-.00330412-4.47917874-.00971038-6.71875-.01953125-1.05219727.01012115-2.10439453.02024231-3.18847656.03067017-4.47572868-.07165012-7.30854546-.25690069-11.22314453-2.53311158-2.75556536-4.73898689-2.55432512-9.01777978-2.50244141-14.41162109-.00478363-1.09086914-.00956726-2.18173828-.01449585-3.30566406-.00339778-2.30307459.00579592-4.60619749.02670288-6.90917969.02676487-3.52323042.00024546-7.04327481-.03173828-10.56640625.00330412-2.23959036.00971038-4.47917874.01953125-6.71875-.01012115-1.05219727-.02024231-2.10439453-.03067017-3.18847656.07165012-4.47572868.25690069-7.30854546 2.53311158-11.22314453 4.73898689-2.75556536 9.01777978-2.55432512 14.41162109-2.50244141zm3.75 20.6640625v20h20c0-6.6 0-13.2 0-20-6.6 0-13.2 0-20 0z" transform="translate(16.25 -.664063)"/><path d="m0 0c1.07030457-.00717545 1.07030457-.00717545 2.16223145-.01449585 1.50274877-.00338975 3.00557221.00574827 4.50817871.02670288 2.29253459.02678764 4.58017518.00023016 6.87255859-.03173828 1.46485449.00330427 2.92970595.00971089 4.39453125.01953125 1.02051453-.01518173 1.02051453-.01518173 2.06164551-.03067017 3.8283701.09366831 5.39179599.63137302 8.39880371 3.07998658 2.25298547 2.84478594 2.75161829 4.04242575 2.69580078 7.61474609.01289062.825.02578125 1.65.0390625 2.5-.97487658 3.67012359-2.73958589 5.11859172-5.6640625 7.5-2.7248538.50117036-4.81626441.70445211-7.53125.6640625-.71353638.00478363-1.42707275.00956726-2.16223145.01449585-1.50274877.00338975-3.00557221-.00574827-4.50817871-.02670288-2.29253459-.02678764-4.58017518-.00023016-6.87255859.03173828-1.46485449-.00330427-2.92970595-.00971089-4.39453125-.01953125-1.02051453.01518173-1.02051453.01518173-2.06164551.03067017-3.8283701-.09366831-5.39179599-.63137302-8.39880371-3.07998658-2.25298547-2.84478594-2.75161829-4.04242575-2.69580078-7.61474609-.01289062-.825-.02578125-1.65-.0390625-2.5 1.79627619-6.76245155 6.87339426-8.25811081 13.1953125-8.1640625z" transform="translate(95.53125 471.335938)"/><path d="m0 0c.825-.01289063 1.65-.02578125 2.5-.0390625 3.67012359.97487658 5.11859172 2.73958589 7.5 5.6640625.50117036 2.7248538.70445211 4.81626441.6640625 7.53125.00478363.71353638.00956726 1.42707275.01449585 2.16223145.00338975 1.50274877-.00574827 3.00557221-.02670288 4.50817871-.02678764 2.29253459-.00023016 4.58017518.03173828 6.87255859-.00330427 1.46485449-.00971089 2.92970595-.01953125 4.39453125.01012115.68034302.02024231 1.36068604.03067017 2.06164551-.09366831 3.8283701-.63137302 5.39179599-3.07998658 8.39880371-2.84478594 2.25298547-4.04242575 2.75161829-7.61474609 2.69580078-.825.01289063-1.65.02578125-2.5.0390625-3.67012359-.97487658-5.11859172-2.73958589-7.5-5.6640625-.50117036-2.7248538-.70445211-4.81626441-.6640625-7.53125-.00478363-.71353638-.00956726-1.42707275-.01449585-2.16223145-.00338975-1.50274877.00574827-3.00557221.02670288-4.50817871.02678764-2.29253459.00023016-4.58017518-.03173828-6.87255859.00330427-1.46485449.00971089-2.92970595.01953125-4.39453125-.01012115-.68034302-.02024231-1.36068604-.03067017-2.06164551.09366831-3.8283701.63137302-5.39179599 3.07998658-8.39880371 2.84478594-2.25298547 4.04242575-2.75161829 7.61474609-2.69580078z" transform="translate(482 325.375)"/><path d="m0 0c.825-.01289063 1.65-.02578125 2.5-.0390625 3.67012359.97487658 5.11859172 2.73958589 7.5 5.6640625.50117036 2.7248538.70445211 4.81626441.6640625 7.53125.00478363.71353638.00956726 1.42707275.01449585 2.16223145.00338975 1.50274877-.00574827 3.00557221-.02670288 4.50817871-.02678764 2.29253459-.00023016 4.58017518.03173828 6.87255859-.00330427 1.46485449-.00971089 2.92970595-.01953125 4.39453125.01012115.68034302.02024231 1.36068604.03067017 2.06164551-.09366831 3.8283701-.63137302 5.39179599-3.07998658 8.39880371-2.84478594 2.25298547-4.04242575 2.75161829-7.61474609 2.69580078-.825.01289063-1.65.02578125-2.5.0390625-3.67012359-.97487658-5.11859172-2.73958589-7.5-5.6640625-.50117036-2.7248538-.70445211-4.81626441-.6640625-7.53125-.00478363-.71353638-.00956726-1.42707275-.01449585-2.16223145-.00338975-1.50274877.00574827-3.00557221.02670288-4.50817871.02678764-2.29253459.00023016-4.58017518-.03173828-6.87255859.00330427-1.46485449.00971089-2.92970595.01953125-4.39453125-.01012115-.68034302-.02024231-1.36068604-.03067017-2.06164551.09366831-3.8283701.63137302-5.39179599 3.07998658-8.39880371 2.84478594-2.25298547 4.04242575-2.75161829 7.61474609-2.69580078z" transform="translate(30 325.375)"/><path d="m0 0c1.07030457-.00717545 1.07030457-.00717545 2.16223145-.01449585 1.50274877-.00338975 3.00557221.00574827 4.50817871.02670288 2.29253459.02678764 4.58017518.00023016 6.87255859-.03173828 1.46485449.00330427 2.92970595.00971089 4.39453125.01953125 1.02051453-.01518173 1.02051453-.01518173 2.06164551-.03067017 3.8283701.09366831 5.39179599.63137302 8.39880371 3.07998658 2.25298547 2.84478594 2.75161829 4.04242575 2.69580078 7.61474609.01289062.825.02578125 1.65.0390625 2.5-.97487658 3.67012359-2.73958589 5.11859172-5.6640625 7.5-2.7248538.50117036-4.81626441.70445211-7.53125.6640625-.71353638.00478363-1.42707275.00956726-2.16223145.01449585-1.50274877.00338975-3.00557221-.00574827-4.50817871-.02670288-2.29253459-.02678764-4.58017518-.00023016-6.87255859.03173828-1.46485449-.00330427-2.92970595-.00971089-4.39453125-.01953125-1.02051453.01518173-1.02051453.01518173-2.06164551.03067017-3.8283701-.09366831-5.39179599-.63137302-8.39880371-3.07998658-2.25298547-2.84478594-2.75161829-4.04242575-2.69580078-7.61474609-.01289062-.825-.02578125-1.65-.0390625-2.5 1.79627619-6.76245155 6.87339426-8.25811081 13.1953125-8.1640625z" transform="translate(95.53125 19.335938)"/><path d="m0 0c1.31484375-.00644531 2.6296875-.01289063 3.984375-.01953125 1.0199707.01571045 1.0199707.01571045 2.06054688.03173828 2.07542493.02679539 4.14544488.0002266 6.22070312-.03173828 1.97226562.00966797 1.97226562.00966797 3.984375.01953125 1.19882812.00563965 2.39765625.0112793 3.6328125.01708984 4.13341955.82481641 5.62854633 2.41089209 8.2421875 5.64697266.6640625 2.5.6640625 2.5.625 5 .01289063.825.02578125 1.65.0390625 2.5-.96885425 3.6474513-2.77786459 5.116386-5.6640625 7.5-3.2421875.64697266-3.2421875.64697266-6.875.6640625-1.31484375.00644531-2.6296875.01289063-3.984375.01953125-.67998047-.01047363-1.35996094-.02094727-2.06054688-.03173828-2.07542493-.02679539-4.14544488-.0002266-6.22070312.03173828-1.97226562-.00966797-1.97226562-.00966797-3.984375-.01953125-1.79824219-.00845947-1.79824219-.00845947-3.6328125-.01708984-4.13341955-.82481641-5.62854633-2.41089209-8.2421875-5.64697266-.6640625-2.5-.6640625-2.5-.625-5-.01289063-.825-.02578125-1.65-.0390625-2.5 1.72355432-6.48867507 6.36288427-8.1350079 12.5390625-8.1640625z" transform="translate(400.875 471.335938)"/><path d="m0 0c1.31484375-.00644531 2.6296875-.01289063 3.984375-.01953125 1.0199707.01571045 1.0199707.01571045 2.06054688.03173828 2.07542493.02679539 4.14544488.0002266 6.22070312-.03173828 1.97226562.00966797 1.97226562.00966797 3.984375.01953125 1.19882812.00563965 2.39765625.0112793 3.6328125.01708984 4.13341955.82481641 5.62854633 2.41089209 8.2421875 5.64697266.6640625 2.5.6640625 2.5.625 5 .01289063.825.02578125 1.65.0390625 2.5-.96885425 3.6474513-2.77786459 5.116386-5.6640625 7.5-3.2421875.64697266-3.2421875.64697266-6.875.6640625-1.31484375.00644531-2.6296875.01289063-3.984375.01953125-.67998047-.01047363-1.35996094-.02094727-2.06054688-.03173828-2.07542493-.02679539-4.14544488-.0002266-6.22070312.03173828-1.97226562-.00966797-1.97226562-.00966797-3.984375-.01953125-1.79824219-.00845947-1.79824219-.00845947-3.6328125-.01708984-4.13341955-.82481641-5.62854633-2.41089209-8.2421875-5.64697266-.6640625-2.5-.6640625-2.5-.625-5-.01289063-.825-.02578125-1.65-.0390625-2.5 1.72355432-6.48867507 6.36288427-8.1350079 12.5390625-8.1640625z" transform="translate(340.875 471.335938)"/><path d="m0 0c1.31484375-.00644531 2.6296875-.01289063 3.984375-.01953125 1.0199707.01571045 1.0199707.01571045 2.06054688.03173828 2.07542493.02679539 4.14544488.0002266 6.22070312-.03173828 1.97226562.00966797 1.97226562.00966797 3.984375.01953125 1.19882812.00563965 2.39765625.0112793 3.6328125.01708984 4.13341955.82481641 5.62854633 2.41089209 8.2421875 5.64697266.6640625 2.5.6640625 2.5.625 5 .01289063.825.02578125 1.65.0390625 2.5-.96885425 3.6474513-2.77786459 5.116386-5.6640625 7.5-3.2421875.64697266-3.2421875.64697266-6.875.6640625-1.31484375.00644531-2.6296875.01289063-3.984375.01953125-.67998047-.01047363-1.35996094-.02094727-2.06054688-.03173828-2.07542493-.02679539-4.14544488-.0002266-6.22070312.03173828-1.97226562-.00966797-1.97226562-.00966797-3.984375-.01953125-1.79824219-.00845947-1.79824219-.00845947-3.6328125-.01708984-4.13341955-.82481641-5.62854633-2.41089209-8.2421875-5.64697266-.6640625-2.5-.6640625-2.5-.625-5-.01289063-.825-.02578125-1.65-.0390625-2.5 1.72355432-6.48867507 6.36288427-8.1350079 12.5390625-8.1640625z" transform="translate(277.875 471.335938)"/><path d="m0 0c1.31484375-.00644531 2.6296875-.01289063 3.984375-.01953125 1.0199707.01571045 1.0199707.01571045 2.06054688.03173828 2.07542493.02679539 4.14544488.0002266 6.22070312-.03173828 1.97226563.00966797 1.97226563.00966797 3.984375.01953125 1.19882813.00563965 2.39765625.0112793 3.6328125.01708984 4.13341955.82481641 5.62854633 2.41089209 8.2421875 5.64697266.6640625 2.5.6640625 2.5.625 5 .01289063.825.02578125 1.65.0390625 2.5-.96885425 3.6474513-2.77786459 5.116386-5.6640625 7.5-3.2421875.64697266-3.2421875.64697266-6.875.6640625-1.31484375.00644531-2.6296875.01289063-3.984375.01953125-.67998047-.01047363-1.35996094-.02094727-2.06054688-.03173828-2.07542493-.02679539-4.14544488-.0002266-6.22070312.03173828-1.97226563-.00966797-1.97226563-.00966797-3.984375-.01953125-1.79824219-.00845947-1.79824219-.00845947-3.6328125-.01708984-4.13341955-.82481641-5.62854633-2.41089209-8.2421875-5.64697266-.6640625-2.5-.6640625-2.5-.625-5-.01289063-.825-.02578125-1.65-.0390625-2.5 1.72355432-6.48867507 6.36288427-8.1350079 12.5390625-8.1640625z" transform="translate(217.875 471.335938)"/><path d="m0 0c1.31484375-.00644531 2.6296875-.01289063 3.984375-.01953125 1.0199707.01571045 1.0199707.01571045 2.06054688.03173828 2.07542493.02679539 4.14544488.0002266 6.22070312-.03173828 1.97226563.00966797 1.97226563.00966797 3.984375.01953125 1.19882813.00563965 2.39765625.0112793 3.6328125.01708984 4.13341955.82481641 5.62854633 2.41089209 8.2421875 5.64697266.6640625 2.5.6640625 2.5.625 5 .01289063.825.02578125 1.65.0390625 2.5-.96885425 3.6474513-2.77786459 5.116386-5.6640625 7.5-3.2421875.64697266-3.2421875.64697266-6.875.6640625-1.31484375.00644531-2.6296875.01289063-3.984375.01953125-.67998047-.01047363-1.35996094-.02094727-2.06054688-.03173828-2.07542493-.02679539-4.14544488-.0002266-6.22070312.03173828-1.97226563-.00966797-1.97226563-.00966797-3.984375-.01953125-1.79824219-.00845947-1.79824219-.00845947-3.6328125-.01708984-4.13341955-.82481641-5.62854633-2.41089209-8.2421875-5.64697266-.6640625-2.5-.6640625-2.5-.625-5-.01289063-.825-.02578125-1.65-.0390625-2.5 1.72355432-6.48867507 6.36288427-8.1350079 12.5390625-8.1640625z" transform="translate(157.875 471.335938)"/><path d="m0 0c.825-.01289063 1.65-.02578125 2.5-.0390625 3.6474513.96885425 5.116386 2.77786459 7.5 5.6640625.64697266 3.2421875.64697266 3.2421875.6640625 6.875.00644531 1.31484375.01289063 2.6296875.01953125 3.984375-.01047363.67998047-.02094727 1.35996094-.03173828 2.06054688-.02679539 2.07542493-.0002266 4.14544488.03173828 6.22070312-.00644531 1.31484375-.01289063 2.6296875-.01953125 3.984375-.00563965 1.19882812-.0112793 2.39765625-.01708984 3.6328125-.82481641 4.13341955-2.41089209 5.62854633-5.64697266 8.2421875-2.5.6640625-2.5.6640625-5 .625-.825.01289063-1.65.02578125-2.5.0390625-3.6474513-.96885425-5.116386-2.77786459-7.5-5.6640625-.64697266-3.2421875-.64697266-3.2421875-.6640625-6.875-.00644531-1.31484375-.01289063-2.6296875-.01953125-3.984375.01047363-.67998047.02094727-1.35996094.03173828-2.06054688.02679539-2.07542493.0002266-4.14544488-.03173828-6.22070312.00966797-1.97226562.00966797-1.97226562.01953125-3.984375.00563965-1.19882812.0112793-2.39765625.01708984-3.6328125 1.14284924-5.7271841 4.80404811-8.9584832 10.64697266-8.8671875z" transform="translate(482 388.375)"/><path d="m0 0c.825-.01289063 1.65-.02578125 2.5-.0390625 3.6474513.96885425 5.116386 2.77786459 7.5 5.6640625.64697266 3.2421875.64697266 3.2421875.6640625 6.875.00644531 1.31484375.01289062 2.6296875.01953125 3.984375-.01047363.67998047-.02094727 1.35996094-.03173828 2.06054688-.02679539 2.07542493-.0002266 4.14544488.03173828 6.22070312-.00644531 1.31484375-.01289062 2.6296875-.01953125 3.984375-.00563965 1.19882812-.0112793 2.39765625-.01708984 3.6328125-.82481641 4.13341955-2.41089209 5.62854633-5.64697266 8.2421875-2.5.6640625-2.5.6640625-5 .625-.825.01289063-1.65.02578125-2.5.0390625-3.6474513-.96885425-5.116386-2.77786459-7.5-5.6640625-.64697266-3.2421875-.64697266-3.2421875-.6640625-6.875-.00644531-1.31484375-.01289063-2.6296875-.01953125-3.984375.01047363-.67998047.02094727-1.35996094.03173828-2.06054688.02679539-2.07542493.0002266-4.14544488-.03173828-6.22070312.00966797-1.97226562.00966797-1.97226562.01953125-3.984375.00563965-1.19882812.0112793-2.39765625.01708984-3.6328125 1.14284924-5.7271841 4.80404811-8.9584832 10.64697266-8.8671875z" transform="translate(30 388.375)"/><path d="m0 0c.825-.01289063 1.65-.02578125 2.5-.0390625 3.6474513.96885425 5.116386 2.77786459 7.5 5.6640625.64697266 3.2421875.64697266 3.2421875.6640625 6.875.00644531 1.31484375.01289063 2.6296875.01953125 3.984375-.01047363.67998047-.02094727 1.35996094-.03173828 2.06054688-.02679539 2.07542493-.0002266 4.14544488.03173828 6.22070312-.00644531 1.31484375-.01289063 2.6296875-.01953125 3.984375-.00563965 1.19882812-.0112793 2.39765625-.01708984 3.6328125-.82481641 4.13341955-2.41089209 5.62854633-5.64697266 8.2421875-2.5.6640625-2.5.6640625-5 .625-.825.01289063-1.65.02578125-2.5.0390625-3.6474513-.96885425-5.116386-2.77786459-7.5-5.6640625-.64697266-3.2421875-.64697266-3.2421875-.6640625-6.875-.00644531-1.31484375-.01289063-2.6296875-.01953125-3.984375.01047363-.67998047.02094727-1.35996094.03173828-2.06054688.02679539-2.07542493.0002266-4.14544488-.03173828-6.22070312.00966797-1.97226562.00966797-1.97226562.01953125-3.984375.00563965-1.19882812.0112793-2.39765625.01708984-3.6328125 1.14284924-5.7271841 4.80404811-8.9584832 10.64697266-8.8671875z" transform="translate(482 265.375)"/><path d="m0 0c.825-.01289063 1.65-.02578125 2.5-.0390625 3.6474513.96885425 5.116386 2.77786459 7.5 5.6640625.64697266 3.2421875.64697266 3.2421875.6640625 6.875.00644531 1.31484375.01289062 2.6296875.01953125 3.984375-.01047363.67998047-.02094727 1.35996094-.03173828 2.06054688-.02679539 2.07542493-.0002266 4.14544488.03173828 6.22070312-.00644531 1.31484375-.01289062 2.6296875-.01953125 3.984375-.00563965 1.19882812-.0112793 2.39765625-.01708984 3.6328125-.82481641 4.13341955-2.41089209 5.62854633-5.64697266 8.2421875-2.5.6640625-2.5.6640625-5 .625-.825.01289063-1.65.02578125-2.5.0390625-3.6474513-.96885425-5.116386-2.77786459-7.5-5.6640625-.64697266-3.2421875-.64697266-3.2421875-.6640625-6.875-.00644531-1.31484375-.01289063-2.6296875-.01953125-3.984375.01047363-.67998047.02094727-1.35996094.03173828-2.06054688.02679539-2.07542493.0002266-4.14544488-.03173828-6.22070312.00966797-1.97226562.00966797-1.97226562.01953125-3.984375.00563965-1.19882812.0112793-2.39765625.01708984-3.6328125 1.14284924-5.7271841 4.80404811-8.9584832 10.64697266-8.8671875z" transform="translate(30 265.375)"/><path d="m0 0c.825-.01289063 1.65-.02578125 2.5-.0390625 3.6474513.96885425 5.116386 2.77786459 7.5 5.6640625.64697266 3.2421875.64697266 3.2421875.6640625 6.875.00644531 1.31484375.01289063 2.6296875.01953125 3.984375-.01047363.67998047-.02094727 1.35996094-.03173828 2.06054688-.02679539 2.07542493-.0002266 4.14544488.03173828 6.22070312-.00644531 1.31484375-.01289063 2.6296875-.01953125 3.984375-.00563965 1.19882813-.0112793 2.39765625-.01708984 3.6328125-.82481641 4.13341955-2.41089209 5.62854633-5.64697266 8.2421875-2.5.6640625-2.5.6640625-5 .625-.825.01289063-1.65.02578125-2.5.0390625-3.6474513-.96885425-5.116386-2.77786459-7.5-5.6640625-.64697266-3.2421875-.64697266-3.2421875-.6640625-6.875-.00644531-1.31484375-.01289063-2.6296875-.01953125-3.984375.01047363-.67998047.02094727-1.35996094.03173828-2.06054688.02679539-2.07542493.0002266-4.14544488-.03173828-6.22070312.00966797-1.97226563.00966797-1.97226563.01953125-3.984375.00563965-1.19882813.0112793-2.39765625.01708984-3.6328125 1.14284924-5.7271841 4.80404811-8.9584832 10.64697266-8.8671875z" transform="translate(482 205.375)"/><path d="m0 0c.825-.01289063 1.65-.02578125 2.5-.0390625 3.6474513.96885425 5.116386 2.77786459 7.5 5.6640625.64697266 3.2421875.64697266 3.2421875.6640625 6.875.00644531 1.31484375.01289062 2.6296875.01953125 3.984375-.01047363.67998047-.02094727 1.35996094-.03173828 2.06054688-.02679539 2.07542493-.0002266 4.14544488.03173828 6.22070312-.00644531 1.31484375-.01289062 2.6296875-.01953125 3.984375-.00563965 1.19882813-.0112793 2.39765625-.01708984 3.6328125-.82481641 4.13341955-2.41089209 5.62854633-5.64697266 8.2421875-2.5.6640625-2.5.6640625-5 .625-.825.01289063-1.65.02578125-2.5.0390625-3.6474513-.96885425-5.116386-2.77786459-7.5-5.6640625-.64697266-3.2421875-.64697266-3.2421875-.6640625-6.875-.00644531-1.31484375-.01289063-2.6296875-.01953125-3.984375.01047363-.67998047.02094727-1.35996094.03173828-2.06054688.02679539-2.07542493.0002266-4.14544488-.03173828-6.22070312.00966797-1.97226563.00966797-1.97226563.01953125-3.984375.00563965-1.19882813.0112793-2.39765625.01708984-3.6328125 1.14284924-5.7271841 4.80404811-8.9584832 10.64697266-8.8671875z" transform="translate(30 205.375)"/><path d="m0 0c.825-.01289063 1.65-.02578125 2.5-.0390625 3.6474513.96885425 5.116386 2.77786459 7.5 5.6640625.64697266 3.2421875.64697266 3.2421875.6640625 6.875.00644531 1.31484375.01289063 2.6296875.01953125 3.984375-.01047363.67998047-.02094727 1.35996094-.03173828 2.06054688-.02679539 2.07542493-.0002266 4.14544488.03173828 6.22070312-.00644531 1.31484375-.01289063 2.6296875-.01953125 3.984375-.00563965 1.19882813-.0112793 2.39765625-.01708984 3.6328125-.82481641 4.13341955-2.41089209 5.62854633-5.64697266 8.2421875-2.5.6640625-2.5.6640625-5 .625-.825.01289063-1.65.02578125-2.5.0390625-3.6474513-.96885425-5.116386-2.77786459-7.5-5.6640625-.64697266-3.2421875-.64697266-3.2421875-.6640625-6.875-.00644531-1.31484375-.01289063-2.6296875-.01953125-3.984375.01047363-.67998047.02094727-1.35996094.03173828-2.06054688.02679539-2.07542493.0002266-4.14544488-.03173828-6.22070312.00966797-1.97226563.00966797-1.97226563.01953125-3.984375.00563965-1.19882813.0112793-2.39765625.01708984-3.6328125 1.14284924-5.7271841 4.80404811-8.9584832 10.64697266-8.8671875z" transform="translate(482 145.375)"/><path d="m0 0c.825-.01289063 1.65-.02578125 2.5-.0390625 3.6474513.96885425 5.116386 2.77786459 7.5 5.6640625.64697266 3.2421875.64697266 3.2421875.6640625 6.875.00644531 1.31484375.01289062 2.6296875.01953125 3.984375-.01047363.67998047-.02094727 1.35996094-.03173828 2.06054688-.02679539 2.07542493-.0002266 4.14544488.03173828 6.22070312-.00644531 1.31484375-.01289062 2.6296875-.01953125 3.984375-.00563965 1.19882813-.0112793 2.39765625-.01708984 3.6328125-.82481641 4.13341955-2.41089209 5.62854633-5.64697266 8.2421875-2.5.6640625-2.5.6640625-5 .625-.825.01289063-1.65.02578125-2.5.0390625-3.6474513-.96885425-5.116386-2.77786459-7.5-5.6640625-.64697266-3.2421875-.64697266-3.2421875-.6640625-6.875-.00644531-1.31484375-.01289063-2.6296875-.01953125-3.984375.01047363-.67998047.02094727-1.35996094.03173828-2.06054688.02679539-2.07542493.0002266-4.14544488-.03173828-6.22070312.00966797-1.97226563.00966797-1.97226563.01953125-3.984375.00563965-1.19882813.0112793-2.39765625.01708984-3.6328125 1.14284924-5.7271841 4.80404811-8.9584832 10.64697266-8.8671875z" transform="translate(30 145.375)"/><path d="m0 0c.825-.01289062 1.65-.02578125 2.5-.0390625 3.6474513.96885425 5.116386 2.77786459 7.5 5.6640625.64697266 3.2421875.64697266 3.2421875.6640625 6.875.00644531 1.31484375.01289063 2.6296875.01953125 3.984375-.01047363.67998047-.02094727 1.35996094-.03173828 2.06054688-.02679539 2.07542493-.0002266 4.14544488.03173828 6.22070312-.00644531 1.31484375-.01289063 2.6296875-.01953125 3.984375-.00563965 1.19882813-.0112793 2.39765625-.01708984 3.6328125-.82481641 4.13341955-2.41089209 5.62854633-5.64697266 8.2421875-2.5.6640625-2.5.6640625-5 .625-.825.01289062-1.65.02578125-2.5.0390625-3.6474513-.96885425-5.116386-2.77786459-7.5-5.6640625-.64697266-3.2421875-.64697266-3.2421875-.6640625-6.875-.00644531-1.31484375-.01289063-2.6296875-.01953125-3.984375.01047363-.67998047.02094727-1.35996094.03173828-2.06054688.02679539-2.07542493.0002266-4.14544488-.03173828-6.22070312.00966797-1.97226563.00966797-1.97226563.01953125-3.984375.00563965-1.19882813.0112793-2.39765625.01708984-3.6328125 1.14284924-5.7271841 4.80404811-8.9584832 10.64697266-8.8671875z" transform="translate(482 82.375)"/><path d="m0 0c.825-.01289062 1.65-.02578125 2.5-.0390625 3.6474513.96885425 5.116386 2.77786459 7.5 5.6640625.64697266 3.2421875.64697266 3.2421875.6640625 6.875.00644531 1.31484375.01289062 2.6296875.01953125 3.984375-.01047363.67998047-.02094727 1.35996094-.03173828 2.06054688-.02679539 2.07542493-.0002266 4.14544488.03173828 6.22070312-.00644531 1.31484375-.01289062 2.6296875-.01953125 3.984375-.00563965 1.19882813-.0112793 2.39765625-.01708984 3.6328125-.82481641 4.13341955-2.41089209 5.62854633-5.64697266 8.2421875-2.5.6640625-2.5.6640625-5 .625-.825.01289062-1.65.02578125-2.5.0390625-3.6474513-.96885425-5.116386-2.77786459-7.5-5.6640625-.64697266-3.2421875-.64697266-3.2421875-.6640625-6.875-.00644531-1.31484375-.01289063-2.6296875-.01953125-3.984375.01047363-.67998047.02094727-1.35996094.03173828-2.06054688.02679539-2.07542493.0002266-4.14544488-.03173828-6.22070312.00966797-1.97226563.00966797-1.97226563.01953125-3.984375.00563965-1.19882813.0112793-2.39765625.01708984-3.6328125 1.14284924-5.7271841 4.80404811-8.9584832 10.64697266-8.8671875z" transform="translate(30 82.375)"/><path d="m0 0c1.31484375-.00644531 2.6296875-.01289063 3.984375-.01953125 1.0199707.01571045 1.0199707.01571045 2.06054688.03173828 2.07542493.02679539 4.14544488.0002266 6.22070312-.03173828 1.97226562.00966797 1.97226562.00966797 3.984375.01953125 1.19882812.00563965 2.39765625.0112793 3.6328125.01708984 4.13341955.82481641 5.62854633 2.41089209 8.2421875 5.64697266.6640625 2.5.6640625 2.5.625 5 .01289063.825.02578125 1.65.0390625 2.5-.96885425 3.6474513-2.77786459 5.116386-5.6640625 7.5-3.2421875.64697266-3.2421875.64697266-6.875.6640625-1.31484375.00644531-2.6296875.01289062-3.984375.01953125-.67998047-.01047363-1.35996094-.02094727-2.06054688-.03173828-2.07542493-.02679539-4.14544488-.0002266-6.22070312.03173828-1.97226562-.00966797-1.97226562-.00966797-3.984375-.01953125-1.79824219-.00845947-1.79824219-.00845947-3.6328125-.01708984-4.13341955-.82481641-5.62854633-2.41089209-8.2421875-5.64697266-.6640625-2.5-.6640625-2.5-.625-5-.01289063-.825-.02578125-1.65-.0390625-2.5 1.72355432-6.48867507 6.36288427-8.1350079 12.5390625-8.1640625z" transform="translate(400.875 19.335938)"/><path d="m0 0c1.31484375-.00644531 2.6296875-.01289063 3.984375-.01953125 1.0199707.01571045 1.0199707.01571045 2.06054688.03173828 2.07542493.02679539 4.14544488.0002266 6.22070312-.03173828 1.97226562.00966797 1.97226562.00966797 3.984375.01953125 1.19882812.00563965 2.39765625.0112793 3.6328125.01708984 4.13341955.82481641 5.62854633 2.41089209 8.2421875 5.64697266.6640625 2.5.6640625 2.5.625 5 .01289063.825.02578125 1.65.0390625 2.5-.96885425 3.6474513-2.77786459 5.116386-5.6640625 7.5-3.2421875.64697266-3.2421875.64697266-6.875.6640625-1.31484375.00644531-2.6296875.01289062-3.984375.01953125-.67998047-.01047363-1.35996094-.02094727-2.06054688-.03173828-2.07542493-.02679539-4.14544488-.0002266-6.22070312.03173828-1.97226562-.00966797-1.97226562-.00966797-3.984375-.01953125-1.79824219-.00845947-1.79824219-.00845947-3.6328125-.01708984-4.13341955-.82481641-5.62854633-2.41089209-8.2421875-5.64697266-.6640625-2.5-.6640625-2.5-.625-5-.01289063-.825-.02578125-1.65-.0390625-2.5 1.72355432-6.48867507 6.36288427-8.1350079 12.5390625-8.1640625z" transform="translate(340.875 19.335938)"/><path d="m0 0c1.31484375-.00644531 2.6296875-.01289063 3.984375-.01953125 1.0199707.01571045 1.0199707.01571045 2.06054688.03173828 2.07542493.02679539 4.14544488.0002266 6.22070312-.03173828 1.97226562.00966797 1.97226562.00966797 3.984375.01953125 1.19882812.00563965 2.39765625.0112793 3.6328125.01708984 4.13341955.82481641 5.62854633 2.41089209 8.2421875 5.64697266.6640625 2.5.6640625 2.5.625 5 .01289063.825.02578125 1.65.0390625 2.5-.96885425 3.6474513-2.77786459 5.116386-5.6640625 7.5-3.2421875.64697266-3.2421875.64697266-6.875.6640625-1.31484375.00644531-2.6296875.01289062-3.984375.01953125-.67998047-.01047363-1.35996094-.02094727-2.06054688-.03173828-2.07542493-.02679539-4.14544488-.0002266-6.22070312.03173828-1.97226562-.00966797-1.97226562-.00966797-3.984375-.01953125-1.79824219-.00845947-1.79824219-.00845947-3.6328125-.01708984-4.13341955-.82481641-5.62854633-2.41089209-8.2421875-5.64697266-.6640625-2.5-.6640625-2.5-.625-5-.01289063-.825-.02578125-1.65-.0390625-2.5 1.72355432-6.48867507 6.36288427-8.1350079 12.5390625-8.1640625z" transform="translate(277.875 19.335938)"/><path d="m0 0c1.31484375-.00644531 2.6296875-.01289063 3.984375-.01953125 1.0199707.01571045 1.0199707.01571045 2.06054688.03173828 2.07542493.02679539 4.14544488.0002266 6.22070312-.03173828 1.97226563.00966797 1.97226563.00966797 3.984375.01953125 1.19882813.00563965 2.39765625.0112793 3.6328125.01708984 4.13341955.82481641 5.62854633 2.41089209 8.2421875 5.64697266.6640625 2.5.6640625 2.5.625 5 .01289063.825.02578125 1.65.0390625 2.5-.96885425 3.6474513-2.77786459 5.116386-5.6640625 7.5-3.2421875.64697266-3.2421875.64697266-6.875.6640625-1.31484375.00644531-2.6296875.01289062-3.984375.01953125-.67998047-.01047363-1.35996094-.02094727-2.06054688-.03173828-2.07542493-.02679539-4.14544488-.0002266-6.22070312.03173828-1.97226563-.00966797-1.97226563-.00966797-3.984375-.01953125-1.79824219-.00845947-1.79824219-.00845947-3.6328125-.01708984-4.13341955-.82481641-5.62854633-2.41089209-8.2421875-5.64697266-.6640625-2.5-.6640625-2.5-.625-5-.01289063-.825-.02578125-1.65-.0390625-2.5 1.72355432-6.48867507 6.36288427-8.1350079 12.5390625-8.1640625z" transform="translate(217.875 19.335938)"/><path d="m0 0c1.31484375-.00644531 2.6296875-.01289063 3.984375-.01953125 1.0199707.01571045 1.0199707.01571045 2.06054688.03173828 2.07542493.02679539 4.14544488.0002266 6.22070312-.03173828 1.97226563.00966797 1.97226563.00966797 3.984375.01953125 1.19882813.00563965 2.39765625.0112793 3.6328125.01708984 4.13341955.82481641 5.62854633 2.41089209 8.2421875 5.64697266.6640625 2.5.6640625 2.5.625 5 .01289063.825.02578125 1.65.0390625 2.5-.96885425 3.6474513-2.77786459 5.116386-5.6640625 7.5-3.2421875.64697266-3.2421875.64697266-6.875.6640625-1.31484375.00644531-2.6296875.01289062-3.984375.01953125-.67998047-.01047363-1.35996094-.02094727-2.06054688-.03173828-2.07542493-.02679539-4.14544488-.0002266-6.22070312.03173828-1.97226563-.00966797-1.97226563-.00966797-3.984375-.01953125-1.79824219-.00845947-1.79824219-.00845947-3.6328125-.01708984-4.13341955-.82481641-5.62854633-2.41089209-8.2421875-5.64697266-.6640625-2.5-.6640625-2.5-.625-5-.01289063-.825-.02578125-1.65-.0390625-2.5 1.72355432-6.48867507 6.36288427-8.1350079 12.5390625-8.1640625z" transform="translate(157.875 19.335938)"/></svg>