<?xml version="1.0"?>
<svg xmlns="http://www.w3.org/2000/svg" viewBox="0 0 32 32">
    <path d="M 11 4 C 9.333 4 8 5.333 8 7 C 8 8.4911658 9.0818048 9.6958959 10.5 9.9375 C 11.239177 10.143053 12.557738 10.584227 12.84375 11.15625 C 13.308573 11.992931 13.049015 12.955754 12.6875 13.8125 C 12.264502 14.446595 12 15.184872 12 16 C 12 18.2 13.8 20 16 20 C 18.2 20 20 18.2 20 16 C 20 13.948015 18.433372 12.181812 16.4375 12.03125 C 16.416289 12.024716 16.402083 12.004167 16.375 12 C 14.475 11.8 14.125 11.55 13.625 10.75 C 13.294512 10.22122 13.564772 8.9864866 13.78125 8.1875 C 13.825068 8.0832209 13.842963 7.9537911 13.875 7.84375 C 13.947719 7.597625 14 7.46875 14 7.46875 L 13.9375 7.5 C 13.965989 7.3327702 14 7.1758342 14 7 C 14 5.444 12.667 4.111 11 4 z M 21 4 C 19.333 4 18 5.333 18 7 C 18 8.667 19.333 10 21 10 C 22.667 10 24 8.667 24 7 C 24 5.444 22.667 4.111 21 4 z M 6 13 C 4.333 13 3 14.333 3 16 C 3 17.667 4.333 19 6 19 C 7.667 19 9 17.667 9 16 C 9 14.444 7.667 13.111 6 13 z M 26 13 C 24.333 13 23 14.333 23 16 C 23 17.667 24.333 19 26 19 C 27.667 19 29 17.667 29 16 C 29 14.444 27.667 13.111 26 13 z M 11 22 C 9.333 22 8 23.333 8 25 C 8 26.667 9.333 28 11 28 C 12.667 28 14 26.667 14 25 C 14 23.444 12.667 22.111 11 22 z M 21 22 C 19.333 22 18 23.333 18 25 C 18 26.667 19.333 28 21 28 C 22.667 28 24 26.667 24 25 C 24 23.444 22.667 22.111 21 22 z"/>
</svg>
