<svg height="512" width="512" xmlns="http://www.w3.org/2000/svg"><path d="m0 0c.8604744-.00671722 1.72094879-.01343445 2.60749817-.02035522 2.84915415-.01902301 5.69807326-.02290641 8.54728699-.02505494 1.97913714-.00642509 3.95827332-.01315323 5.93740844-.02017212 4.15109459-.01198364 8.30210589-.01567972 12.45321656-.01449584 5.31880025.00020321 10.63706632-.02709664 15.95573997-.06154442 4.0886677-.02223986 8.17720627-.02629401 12.26592827-.02523613 1.96081127-.00236044 3.92162585-.01120883 5.88237762-.02666474 2.74353022-.01960038 5.48590127-.01384541 8.22945023-.00178909.80952621-.01123901 1.61905243-.02247803 2.45310974-.03405762 3.78950538.04230793 5.99245182.36367742 9.217453 2.42526245 3.38401309 3.51012538 3.15197948 5.76707262 3.17759705 10.56121827.00493798.67141143.00987595 1.34282287.01496357 2.03458011.01541466 2.26018907.0237463 4.52034965.03214031 6.78057491.00957541 1.61604058.01958529 3.23207863.02999878 4.84811402.02709167 4.39641947.04807811 8.79284972.06800199 13.18930673.02183331 4.59113336.04923496 9.18223332.07605624 13.77333975.04996285 8.69807672.09488833 17.39617193.13802236 26.0942849.04934171 9.90072646.10427119 19.80141942.15967959 29.7021135.11387519 20.37033642.22070214 40.7407048.32291878 61.11110282.31436193-.6314241.62872387-1.2628482.95261192-1.91340637 1.43965352-2.89009605 2.88095842-5.77936556 4.32229042-8.66862488.49447128-.99326294.98894257-1.98652588 1.49839783-3.00988769 3.44804129-6.90790383 7.00771579-13.71101224 10.85169983-20.40808106.80558349-1.4228833.80558349-1.4228833 1.6274414-2.87451172 3.8149527-6.67815713 7.89945025-13.10043016 12.3334961-19.38330078 1.64839805-2.6165371 1.64839805-2.6165371 1.23828125-5.3515625-.75513547-2.19025072-1.56020864-4.35152604-2.38671875-6.515625-3.51635943-11.62835692-2.89148461-26.01543892 2.5625-36.875 3.83071935-6.59955536 8.77670608-12.17115278 13.94140625-17.75390625 1.62171643-1.76942495 3.13775237-3.55069914 4.62109375-5.43359375 2.5490226-2.94117993 5.25447565-5.38326108 8.2109375-7.90234375 2.38975594-2.05015904 4.71346575-4.16258779 7.0390625-6.28515625 31.35168361-28.24519057 31.35168361-28.24519057 39.75-28.125.72316406-.0103125 1.44632812-.020625 2.19140625-.03125 3.43124132.81156317 4.83887583 1.90945026 7.24609375 4.53125 1.40533951 3.40754742 2.19543281 6.90946021 3 10.5.24782226 1.05010254.49564453 2.10020508.75097656 3.18212891 16.46035224 71.59097004 16.46035224 71.59097004 3.49902344 94.56787109-6.1095214 9.3360657-13.8912334 18.18414518-25.25 20.75-.06469483.64098633-.12938965 1.28197266-.19604493 1.94238282-2.46937908 23.96887438-6.61849308 47.53473931-11.80395507 71.05761718l1.90625.59375c8.33980722 2.91390855 13.97193888 7.55739814 18.53125 15.15625 3.5746621 7.43529719 3.8360631 16.24153164 1.80859375 24.21484375-3.56858906 9.30632049-9.39581716 14.61001796-18.24609375 19.03515625-.00219984 1.57591101-.00219984 1.57591101-.00444413 3.1836586-.03663228 25.59067612-.09613084 51.18122174-.17945861 76.77178955-.03977043 12.37552985-.07217312 24.75099629-.08709336 37.1265831-.0130268 10.78944545-.04001791 21.57875126-.08361697 32.36811805-.02259146 5.71028445-.03829899 11.42039682-.03727078 17.13072992.00074796 5.38120323-.01725799 10.7620264-.04928399 16.14313125-.00847762 1.96871201-.01026354 3.93746675-.00463485 5.90618897.0421923 17.0340784-2.70953008 31.54294564-14.60497856 44.52214431-9.75753377 9.24912519-21.7521245 14.16490373-35.06230164 14.11508179-.8958957.00453111-1.79179141.00906223-2.71483546.01373065-2.99060041.01262162-5.98101817.01102505-8.9716422.00937116-2.14902479.00598671-4.29804744.01279259-6.44706726.02035522-5.83079529.01765438-11.66153186.0223552-17.49235129.02363157-3.64598647.00142268-7.29195807.00569453-10.93794084.01099444-12.72871535.01849966-25.45738883.02667084-38.18611717.02509689-11.84980813-.0012008-23.69943394.01988987-35.54919595.05148733-10.18539109.02618786-20.37072273.03687888-30.55614722.03560185-6.07796949-.00050896-12.155777.00513815-18.23371285.0263561-5.7202184.01942407-11.44012099.01947816-17.1603508.00496674-2.09290721-.00208413-4.18583441.00258904-6.2787075.01472092-17.61115908.09542999-31.75659957-2.34287529-45.17134857-14.81623841-10.44425241-11.21882614-14.364816-25.20052209-14.30775452-40.19798278-.00085443-.83085856-.00170885-1.66171711-.00258917-2.51775319-.0016404-2.76982579.00384292-5.53959034.0093183-8.30941051.0002822-1.99115497.00012348-3.98231005-.00044251-5.97346497-.00028666-5.39611674.0055889-10.79221121.01257396-16.18832278.00625535-5.64277065.00683906-11.28554182.00802541-16.9283154.00310687-10.68122754.0113116-21.36244483.02134949-32.04366785.0111811-12.161961.01667662-24.32392249.02169543-36.48588735.01044982-25.0142374.02803682-50.02846571.05032361-75.04269517-.94472168-.30019043-1.88944336-.60038086-2.86279297-.90966796-5.98062418-2.07855779-10.56013153-6.44312204-13.51220703-12.02783204-.57731004-1.33935927-1.12042767-2.69407868-1.625-4.0625-.23589844-.62648437-.47179688-1.25296875-.71484375-1.8984375-2.16614971-6.93734219-1.29596045-13.96274947.90234375-20.7890625 3.60861832-6.59506108 7.84185955-12.96970216 14.8125-16.3125 2.65288955-.72714407 5.32610378-1.35236566 8-2-.28770264-1.01731201-.57540528-2.03462402-.87182618-3.08276367-3.66329269-13.02993881-7.06214865-26.12357399-10.44067382-39.22973633-4.51989215-17.59317859-4.51989215-17.59317859-9.3125-35.11328125-.19208542-.68079116-.38417084-1.36158233-.58207703-2.06300354-.85391018-3.01677523-1.72125151-6.0287468-2.6085968-9.03587341-.29414795-1.02569092-.5882959-2.05138184-.89135742-3.1081543-.25241455-.85480957-.50482911-1.70961914-.76489258-2.59033203-1.29532659-6.81139371-.28435778-13.17092179 1.07666015-19.86743164.1707454-.8709581.34149079-1.7419162.51741028-2.63926697.56217266-2.85598055 1.13553784-5.70957036 1.70988465-8.56312561.39677099-1.99433196.79314237-3.98874347 1.18913269-5.98323059.82970823-4.16931023 1.66513761-8.33742365 2.50447082-12.50480652 1.07436854-5.33740583 2.13301487-10.677791 3.18724537-16.01920604.81419393-4.1148963 1.63737688-8.22795519 2.46321201-12.34052944.39404216-1.96857196.78513079-3.93773753 1.17319107-5.90749741.54337503-2.75173776 1.09898194-5.50073085 1.65779686-8.24936867.15752747-.81102173.31505494-1.62204346.47735596-2.4576416 1.18485617-5.73154086 2.43486472-9.85761815 7.51556397-13.24475098 2.0859375-.3359375 2.0859375-.3359375 4.375-.375.75023437-.02835937 1.50046875-.05671875 2.2734375-.0859375 5.15231821 1.00992284 8.25030404 5.33023583 11.3515625 9.2734375 3.73159777 4.6582779 7.57276098 9.19313217 11.5 13.6875 3.73451811 4.28172578 7.42460715 8.58333825 11 13 3.539653 4.36946176 7.18386186 8.63384362 10.875 12.875 4.22669962 4.85946869 8.44842478 9.72231444 12.625 14.625l2.5625 3 2.4375 3c.78890625.91942383 1.5778125 1.83884766 2.390625 2.78613282 3.90607846 5.53679591 5.13442711 12.1660287 6.796875 18.63574218.38648375 1.45997703.7742106 2.91962546 1.16308593 4.37896729 1.0273684 3.86996451 2.03675274 7.74440659 3.04266358 11.61999512.78095393 2.99788584 1.57377959 5.99255358 2.36766052 8.98703765 7.28451422 27.47733616 14.24364584 55.04014479 21.23908997 82.59212494.00238835-.98821778.0047767-1.97643556.00723743-2.99459934.05879345-24.04505057.13467537-48.09000092.22847748-72.1349411.04496634-11.62795321.08437913-23.25587574.11072063-34.88388729.02297323-10.13492215.0563638-20.26974726.10226602-30.40459246.02394121-5.36636675.04266415-10.73263735.04891234-16.0990563.00604672-5.05200943.02603189-10.10377279.05666161-15.15569115.0087868-1.85309579.01250148-3.70622374.01073265-5.55933952-.00165446-2.53331209.01506096-5.06587557.03626442-7.59908485-.00727136-1.0958447-.00727136-1.0958447-.01468963-2.21382767.07018233-5.09291991 1.05020608-8.52806356 3.41341705-12.95498032 3.83747931-2.55831954 6.98164829-2.29548436 11.43115234-2.29052734zm6.56884766 20.29052734v186h59c0-7.59 0-15.18 0-23-1.69769532-.06058593-3.39539063-.12117187-5.14453125-.18359375-2.22266502-.084405-4.44532081-.16905302-6.66796875-.25390625-1.11955078-.0393164-2.23910157-.07863281-3.39257813-.11914062-1.07314453-.04189453-2.14628906-.08378906-3.25195312-.12695313-1.48463745-.05498657-1.48463745-.05498657-2.99926758-.11108398-2.54370117-.20532227-2.54370117-.20532227-5.54370117-1.20532227-1.8258361-4.15043718-2.40958439-8.59337771-1.3125-13 .433125-.99.86625-1.98 1.3125-3 3.04763934-1.01587978 5.34718966-1.19804406 8.54296875-1.31640625 1.60971679-.06284179 1.60971679-.06284179 3.25195312-.12695312 1.11955078-.03931641 2.23910156-.07863281 3.39257813-.11914063 1.13115234-.04318359 2.26230468-.08636718 3.42773437-.13085937 2.79477587-.10613073 5.5897546-.2068946 8.38476563-.30664063 0-6.6 0-13.2 0-20-1.69769532-.06058593-3.39539063-.12117187-5.14453125-.18359375-2.22266502-.084405-4.44532081-.16905302-6.66796875-.25390625-1.11955078-.0393164-2.23910157-.07863281-3.39257813-.11914062-1.07314453-.04189453-2.14628906-.08378906-3.25195312-.12695313-.9897583-.03665771-1.97951661-.07331543-2.99926758-.11108398-2.54370117-.20532227-2.54370117-.20532227-5.54370117-1.20532227-1.8258361-4.15043718-2.40958439-8.59337771-1.3125-13 .433125-.99.86625-1.98 1.3125-3 3.04763934-1.01587978 5.34718966-1.19804406 8.54296875-1.31640625 1.07314453-.04189453 2.14628906-.08378906 3.25195312-.12695312 1.11955078-.03931641 2.23910156-.07863281 3.39257813-.11914063 1.13115234-.04318359 2.26230468-.08636718 3.42773437-.13085937 2.79477587-.10613073 5.5897546-.2068946 8.38476563-.30664063 0-6.6 0-13.2 0-20-1.69769532-.06058593-3.39539063-.12117187-5.14453125-.18359375-2.22266502-.084405-4.44532081-.16905302-6.66796875-.25390625-1.11955078-.0393164-2.23910157-.07863281-3.39257813-.11914062-1.07314453-.04189453-2.14628906-.08378906-3.25195312-.12695313-.9897583-.03665771-1.97951661-.07331543-2.99926758-.11108398-2.54370117-.20532227-2.54370117-.20532227-5.54370117-1.20532227-1.8258361-4.15043718-2.40958439-8.59337771-1.3125-13 .433125-.99.86625-1.98 1.3125-3 3.04763934-1.01587978 5.34718966-1.19804406 8.54296875-1.31640625 1.07314453-.04189453 2.14628906-.08378906 3.25195312-.12695312 1.11955078-.03931641 2.23910156-.07863281 3.39257813-.11914063 1.13115234-.04318359 2.26230468-.08636718 3.42773437-.13085937 2.79477587-.10613073 5.5897546-.2068946 8.38476563-.30664063 0-6.6 0-13.2 0-20-1.69769532-.06058593-3.39539063-.12117187-5.14453125-.18359375-2.22266502-.084405-4.44532081-.16905302-6.66796875-.25390625-1.11955078-.0393164-2.23910157-.07863281-3.39257813-.11914062-1.6097168-.0628418-1.6097168-.0628418-3.25195312-.12695313-.9897583-.03665771-1.97951661-.07331543-2.99926758-.11108398-2.54370117-.20532227-2.54370117-.20532227-5.54370117-1.20532227-1.8258361-4.15043718-2.40958439-8.59337771-1.3125-13 .433125-.99.86625-1.98 1.3125-3 3.04763934-1.01587978 5.34718966-1.19804406 8.54296875-1.31640625 1.07314453-.04189453 2.14628906-.08378906 3.25195312-.12695312 1.67932617-.05897461 1.67932617-.05897461 3.39257813-.11914063 1.13115234-.04318359 2.26230468-.08636718 3.42773437-.13085937 2.79477587-.10613073 5.5897546-.2068946 8.38476563-.30664063 0-7.59 0-15.18 0-23-19.47 0-38.94 0-59 0zm180 9c-10.3336297 7.72975154-19.79300634 16.15224975-29.0625 25.12548828-1.74147466 1.68485918-3.49417839 3.35698695-5.25 5.02685547-7.45707037 7.17125076-14.06067803 13.78335053-14.890625 24.4609375-.15451793 8.89765724 1.65729559 15.30038117 7.203125 22.38671875 6.47762599 6.46182691 13.01232752 9.82959619 22.1875 10.3125 5.48586642-.05495024 9.92104353-1.97872411 14.8125-4.3125l2.75-1.25c5.54669037-4.31409251 9.96657284-10.80879811 11.25-17.75 1.44077106-17.62943481-1.87536796-35.5948622-5.0625-52.875-.16209961-.89170898-.32419922-1.78341797-.49121094-2.70214843-.15887695-.81758789-.31775391-1.63517578-.48144531-2.47753907-.13801026-.71655761-.27602051-1.43311523-.41821289-2.17138672-.4666919-2.00566694-.4666919-2.00566694-2.54663086-3.77392578zm-298 9c-3.96 20.13-7.92 40.26-12 61 15.67010067 3.91752517 26.30683104 3.98673571 40.5625-3.4609375 4.24720232-2.68172711 7.84804679-6.04498123 11.4375-9.5390625-1.40839496-4.29445018-3.45854777-6.87046479-6.5625-10.125-3.38348759-3.60856544-6.64463947-7.27205266-9.75-11.125-4.24255409-5.25592707-8.6425743-10.36000688-13.08325196-15.44824218-.5242456-.60102539-1.04849121-1.20205079-1.58862304-1.82128907-.50595704-.57959472-1.01191407-1.15918945-1.53320313-1.75634765-1.46444597-1.70321434-2.88956528-3.43380965-4.31054687-5.17333985-1.07507813-1.26263672-1.07507813-1.26263672-2.171875-2.55078125-.33 0-.66 0-1 0zm48 69c-.66644532.44730469-1.33289063.89460938-2.01953125 1.35546875-17.55954247 11.51807751-33.39355939 14.13533151-53.98046875 13.64453125 2.8825748 12.58792719 6.0704676 25.07941761 9.375 37.5625.97580356 3.69743226 1.94955559 7.39540004 2.921875 11.09375.23566681.89634659.47133361 1.79269318.71414184 2.71620179 2.19183418 8.35943369 4.29734599 16.73895375 6.3263855 25.1395111.21092285.86359131.4218457 1.72718262.63916016 2.61694336.17611816.7329126.35223632 1.4658252.5336914 2.22094727.35395298 1.67325118.35395298 1.67325118 1.4897461 2.65014648 1.90243762.09391297 3.80838458.11743659 5.71313476.11352539 1.83178551-.00011329 1.83178551-.00011329 3.70057678-.00022888 1.34256531-.00510739 2.68513021-.0103234 4.02769471-.01564026 1.36620532-.00186425 2.73241132-.00328812 4.09861755-.00428772 3.60199315-.00382459 7.2039462-.01365435 10.80592346-.02470398 3.67309019-.01021539 7.34618683-.01479391 11.01928711-.01983642 7.21160686-.01073629 14.42318063-.02781199 21.63476563-.04882813-6.15603689-24.9252135-12.3390839-49.84450361-18.90515137-74.66543579-.521124-1.97137168-1.03992749-3.94335825-1.55639649-5.91595459-.71794402-2.73783696-1.44500388-5.47307334-2.17517089-8.20767212-.21091782-.80900253-.42183564-1.61800506-.6391449-2.45152282-1.10159467-4.28699217-1.10159467-4.28699217-3.72413635-7.75941468zm199 20c-12.62512081 18.8634158-22.40906991 39.4929936-32.3125 59.875-.54503174 1.11608643-1.09006348 2.23217286-1.65161133 3.38208008-.50297608 1.04696045-1.00595215 2.0939209-1.52416992 3.17260742-.43868409.909917-.87736817 1.81983399-1.32934571 2.75732422-1.33245765 3.17005515-2.23768809 6.50659094-3.18237304 9.81298828h56c5.83717971-25.85659009 5.83717971-25.85659009 10.5-51.9375.15952148-1.04462402.31904297-2.08924804.48339843-3.16552734.67509785-4.66877713 1.20874419-9.1654606 1.01660157-13.89697266-.96679688-.23074218-1.93359375-.46148437-2.9296875-.69921875-7.13431091-1.76521871-13.62855851-3.68566808-20.1171875-7.25-2.06659125-1.18359699-2.06659125-1.18359699-4.953125-2.05078125zm-256 102c-2.24196153 2.65053013-2.24196153 2.65053013-3 6 .58212376 3.81614467 1.12215756 6.12215756 3.875 8.875 3.63377155 1.92376141 6.89971147 2.25024163 10.97608852 2.25363446.98023146.00322444 1.96046292.00644889 2.97039837.00977105 1.07440355-.00154861 2.14880711-.00309721 3.25576836-.00469274 1.71492679.00339834 1.71492679.00339834 3.46449857.00686532 3.17376105.00524027 6.34748654.00598403 9.52125055.00480563 3.42269266-.00020392 6.84537685.00531388 10.26806557.01005757 6.70548048.00830866 13.41095217.01105493 20.11643737.01161238 5.44942493.000475 10.89884695.00252899 16.34827096.00570062 15.44554852.00880676 30.89109008.01341928 46.33664113.01266953 1.24917529-.00005994 1.24917529-.00005994 2.52358646-.00012108.83379857-.00004088 1.66759715-.00008176 2.52666235-.00012388 13.51788666-.0004066 27.03574548.00916626 40.55362408.02326224 13.87557503.014355 27.75113648.02127069 41.62671913.02040623 7.7919256-.00033225 15.58382202.00242705 23.37574094.01317805 6.63312466.00909342 13.26620689.01128977 19.89933508.00449058 3.3849159-.00327095 6.7696837-.00221997 10.15460283.00535325 3.66776384.0076762 7.33531191.00310406 11.00307083-.00463105 1.07217284.00514357 2.14434568.01028713 3.2490086.01558656.98283921-.0045988 1.96567842-.00919759 2.97830063-.01393575.84650665.00021737 1.6930133.00043474 2.56517166.00065869 4.12370013-.42668448 6.76012967-1.61553089 9.72425801-4.49954766 2.06261211-3.36129381 2.39972524-4.87232922 1.6875-8.75-1.7031342-2.89465496-3.59772467-5.50500691-6.86903114-6.65975451-2.35982588-.37678641-4.58596781-.468148-6.97647076-.47167325-1.4684971-.00576172-1.4684971-.00576172-2.9666608-.01163983-1.60955898.00129972-1.60955898.00129972-3.2516343.0026257-1.1418734-.00297112-2.2837468-.00594225-3.46022242-.0090034-3.84071507-.00869785-7.68139901-.01019617-11.52212316-.01168752-2.74781987-.00408919-5.49563645-.00963124-8.24345398-.01504516-7.47519973-.01357865-14.9503941-.0196072-22.42560411-.02401066-4.66756801-.002763-9.33513395-.00700043-14.00270056-.01150418-12.92344502-.01219163-25.84688837-.02249143-38.77033902-.02587509-1.24054459-.00032935-1.24054459-.00032935-2.5061507-.00066535-1.24350723-.00032742-1.24350723-.00032742-2.51213582-.00066145-1.67987194-.00044346-3.35974388-.00089003-5.03961581-.00133967-.83327396-.00022143-1.66654792-.00044286-2.5250726-.000671-13.50361544-.00394847-27.00717693-.02140445-40.51077153-.04468852-13.86428473-.02371306-27.72854238-.03617582-41.59284772-.03734193-7.7841825-.00091674-15.56829469-.00666891-23.35245783-.02481961-6.62795666-.01540031-13.25582128-.02052185-19.88379243-.0122619-3.38117617.00390672-6.76201626.00134411-10.14319464-.01105734-3.66715122-.01266268-7.33382516-.00687309-11.00097275.003582-1.06634715-.00805641-2.13269431-.01611281-3.23135501-.02441335-5.8379605.03898502-10.09234258.49373651-15.21339291 3.39190602zm17 37c-.04125 32.484375-.0825 64.96875-.125 98.4375-.01820801 10.25505616-.03641602 20.51011231-.05517578 31.07592774-.00668909 9.19672326-.00668909 9.19672326-.01071167 18.39344787-.00186244 4.09462657-.00935409 8.18920121-.02026368 12.28381348-.01374137 5.22687144-.01782684 10.45366763-.01499343 15.68055546-.00059229 1.9157989-.00454439 3.83160049-.01228571 5.74738384-.00999355 2.59417266-.00753304 5.1880555-.00207877 7.78223526-.00582533.74397569-.01165065 1.48795138-.01765251 2.25447178.05892093 10.47457752 2.73313924 18.40558908 9.9261303 26.13763332 8.14947276 7.55271504 17.94372632 8.36292321 28.69929504 8.34074402.81563579.00226556 1.63127158.00453112 2.4716236.00686532 2.71883926.00630373 5.4376282.00551298 8.15647393.00468559 1.95522628.00299375 3.91045197.00639678 5.86567688.01017761 5.3017439.00882212 10.60347165.01117736 15.90522218.01181578 3.31496719.00071151 6.62993029.00284774 9.94489646.00549722 11.57227654.00924744 23.14454156.01333563 34.71682167.01254845 10.77506626-.00060066 21.55008243.00995046 32.32513601.02574366 9.26136967.01308926 18.522723.01843965 27.78410184.01780093 5.5267697-.00025458 11.05349487.00257432 16.58025533.01317805 5.19976674.00970431 10.3994466.00974415 15.59921646.00248337 1.90346212-.00104294 3.80692971.00129967 5.71038246.00736046 19.45425737.20946818 19.45425737.20946818 36.57292939-8.25186921 6.07904734-6.19422929 9.31538622-13.66048366 9.38724231-22.32028961-.01310699-1.14367161-.01310699-1.14367161-.02647876-2.31044769.00385208-1.24458481.00385208-1.24458481.00778198-2.51431275.00493709-2.76890844-.01155746-5.53726373-.02796936-8.30612182-.00091962-2.02346021-.00051748-4.04692139.00109577-6.07038117.00067587-5.40718436-.01668189-10.8141686-.03783131-16.22130584-.01711464-5.07823298-.01789097-10.15641786-.02002716-15.23468018-.01572724-14.8408467-.05761084-29.68165636-.09631347-44.52246094-.061875-33.165-.12375-66.33-.1875-100.5-85.47 0-170.94 0-259 0z" transform="translate(220.431152 -.290527)"/><path d="m0 0c2.87029869 1.79393668 4.49131638 2.98263276 6 6 .10174994 1.76242089.13947154 3.52868278.14717102 5.29402161.0071553 1.12302017.01431061 2.24604034.02168274 3.40309143.00403336 1.85692978.00403336 1.85692978.00814819 3.75137329.0065712 1.29923904.0131424 2.59847809.01991272 3.93708801.01741453 3.57034518.02796298 7.14067696.03620553 10.71105409.00514921 2.23027649.01122498 4.46054881.01751113 6.69082236.01905337 6.97694139.03328418 13.95387218.04161197 20.93083459.00977396 8.05573607.03609675 16.11119747.07650089 24.16683674.03015228 6.22512241.04496712 12.45016606.04828012 18.67536008.00235153 3.71870535.01132469 7.43711732.03646118 11.15574438.0275937 4.14921061.02345236 8.29780701.01648521 12.4471035.01281006 1.23188049.02562012 2.46376098.03881836 3.73297119-.00694381 1.13147964-.01388763 2.26295929-.02104187 3.4287262.00238836.98095547.00477671 1.96191095.00723744 2.97259235-.6366966 3.47605999-2.08796998 5.16516315-4.49498463 7.70238018-3.47799665 1.73899832-7.205682 1.58979036-11 1-3.56715048-2.67536286-5.22949983-4.66552203-6-9-.09372214-1.76256063-.13480319-3.52824754-.14044189-5.29328918-.00571015-1.07239426-.01142029-2.14478852-.01730347-3.24967957-.00111786-1.17151611-.00223572-2.34303223-.00338745-3.55004883-.00496491-1.23779709-.00992981-2.47559418-.01504517-3.75090027-.01209796-3.39270269-.01956395-6.78534384-.02401066-10.17806077-.0029348-2.12142187-.00704037-4.2428384-.01150417-6.36425757-.01366815-6.64269797-.02333818-13.28538364-.02720189-19.92809469-.00447941-7.65832621-.02202459-15.31647383-.0510006-22.97474575-.02164154-5.92625935-.031705-11.85246855-.03304052-17.77876699-.00104625-3.53647956-.00691549-7.07279108-.02481961-10.60922891-.01959615-3.94730027-.01518184-7.89437861-.00868988-11.8417263-.00921479-1.16544342-.01842957-2.33088684-.02792359-3.53164673.03125629-6.06617749.28771472-10.65912002 3.3843689-15.94955444 4.01858595-2.6790573 7.27641721-2.69610694 12-2z" transform="translate(151 326)"/><path d="m0 0c2.87029869 1.79393668 4.49131638 2.98263276 6 6 .5811138 7.08958838.5811138 7.08958838-1.875 10.9375-3.48339365 3.38094089-6.16126432 3.46682349-10.86328125 3.40625-2.26171875-.34375-2.26171875-.34375-5.26171875-2.46875-2.26157198-3.25100973-3-4.92009656-3-8.875 2.77482949-8.32448847 6.63052566-10.23339622 15-9z" transform="translate(151 286)"/></svg>