<svg height="512" width="512" xmlns="http://www.w3.org/2000/svg"><path d="m0 0c1.22847656.3403125 2.45695312.680625 3.72265625 1.03125 19.24846095 5.89197978 35.74547051 16.09055964 50.27734375 29.96875.66257812.5878125 1.32515625 1.175625 2.0078125 1.78125 18.20263988 16.80243681 30.91295648 44.79015906 32.9921875 69.21875.31814037 8.33113924.19436891 16.66705605 0 25 1.41925781-.48339844 1.41925781-.48339844 2.8671875-.9765625 12.09697299-3.43284266 26.74079658-1.86905554 38.1328125 2.9765625.85335938.32742187 1.70671875.65484375 2.5859375.9921875 13.95742196 6.03207195 24.66476255 19.23813682 30.4140625 33.0078125 5.62734791 15.90134409 5.05202168 32.61588671-2 48-7.89609722 15.76804735-20.38736189 26.35214428-37 32-6.72309866 1.94110518-14.03600473 3.09898798-21 2-3.23462756-2.26423929-4.51756833-3.82407281-6-7.4375 0-3.52464508 1.15435056-5.59627769 3-8.5625 3.60804384-2.40536256 6.87697309-2.71063 11.0625-3.3125 11.66307599-1.8916416 21.49338233-6.24350237 28.66015625-16.04296875 1.57407732-2.49454514 2.96016733-5.00607506 4.27734375-7.64453125.51240234-1.01126953.51240234-1.01126953 1.03515625-2.04296875 3.57976597-8.60808839 3.59233738-20.76103365.33984375-29.45703125-.7408507-1.52573797-1.53293835-3.02769966-2.375-4.5-.43570312-.77730469-.87140625-1.55460938-1.3203125-2.35546875-6.145167-10.02367405-14.4636092-15.62349314-25.5625-19.26171875-11.56014929-2.0902115-22.10839503-.06098107-32.3671875 5.3046875-3.77148948 1.94771757-6.43716096 3.21518724-10.75 2.3125-2.8125-1.5625-2.8125-1.5625-5-4-1.20734566-5.26428671-.71538439-9.56817223.4375-14.75 5.15708167-26.26399018-.84730188-52.01731715-15.4375-74.25-2.81662203-3.84904932-5.80865929-7.45711745-9-11-1.04607422-1.16982422-1.04607422-1.16982422-2.11328125-2.36328125-12.89522724-13.64960982-30.72788002-23.19633348-48.88671875-27.63671875-1.30130859-.33644531-1.30130859-.33644531-2.62890625-.6796875-26.90720705-5.71827108-54.87422876.56010776-77.796875 15.1953125-5.77110001 3.88155772-10.70094034 8.54789846-15.57421875 13.484375-1.21816406 1.22009766-1.21816406 1.22009766-2.4609375 2.46484375-10.29857304 10.8433781-16.25591353 23.54122513-21.62109375 37.3125-1.41570325 3.48003548-2.43656255 5.78028299-5.23046875 8.34765625-3.85204181 1.25415315-5.76222701 1.03327728-9.6875-.125-2.60471677-1.63007602-5.05991248-3.40251459-7.53515625-5.22265625-11.88144299-8.56744304-26.19348521-10.16044227-40.46484375-8.77734375-13.35656315 2.42060691-25.46538769 9.4341172-34 20-8.99091706 13.12708943-12.26312417 26.22654198-11 42 .61590411 2.94344869 1.41688477 5.73387142 2.3125 8.6015625 1.08061078 3.76985806 1.2265288 6.49047868.6875 10.3984375-2.0625 3-2.0625 3-5 5-3.95781755.63607782-6.04671861.57196884-9.5-1.5-2.75505097-2.75505097-5.27517088-5.65826295-7.81640625-8.609375-6.5359307-7.33965303-15.71825401-11.29659222-25.41015625-12.26171875-12.55474164-.21385832-23.92823764 2.34740306-33.2734375 11.37109375-7.69038207 8.1481429-11.68970437 18.57667743-12.12890625 29.703125.45750451 11.70102448 4.47126057 21.35309031 12.25390625 30.046875 7.4973128 6.92562229 16.41367883 9.89488865 26.35522461 11.04980469 5.02672273.68606189 7.33792472 2.29871112 10.51977539 6.20019531 1.42001879 3.4612958 1.12942622 4.66996314-.25 8.1875-1.75 2.8125-1.75 2.8125-4.75 4.8125-13.4942375 2.1215803-28.21280548-3.23567507-39-11-13.25141718-10.25793157-22.06329059-24.21956768-24.40625-40.890625-1.77786544-16.72809758 1.93630041-32.25085381 12.3046875-45.609375 10.1389371-12.06118912 21.61275537-19.12979229 37.1015625-22.5 14.73876077-1.20795858 27.74692638.10682162 41 7-.0825-1.010625-.165-2.02125-.25-3.0625.12620217-17.95225918 10.36924597-35.8222874 22.5546875-48.296875 16.29787993-15.51683137 35.52724483-20.26926622 57.4375-19.98828125 11.94539599.43269925 22.93243204 4.38582724 33.2578125 10.34765625.10441406-.70253906.20882812-1.40507813.31640625-2.12890625 4.66582729-19.59647464 24.7560643-40.8859205 41.1484375-51.3671875.83660156-.49628906 1.67320312-.99257813 2.53515625-1.50390625 1.05316406-.65097656 2.10632813-1.30195313 3.19140625-1.97265625 27.43761125-16.60574657 62.63510677-22.80262726 93.80859375-14.02734375z" transform="translate(345 3)"/><path d="m0 0c1.78676062-.00339833 1.78676062-.00339833 3.60961741-.00686532 3.29834601-.00522982 6.59663744-.00598581 9.89498371-.00480563 3.56043111.00020431 7.12085412-.0053176 10.68128145-.01005757 6.97258358-.00830062 13.94515871-.01105457 20.91774682-.01161237 5.66864095-.00047544 11.33727911-.00253158 17.00591918-.00570063 16.07751985-.00880497 32.15503303-.01341962 48.23255531-.01266953.86644577.00003996 1.73289155.00007992 2.62559326.00012108.86750571.00004088 1.73501142.00008177 2.62880519.00012388 14.05824501.00040643 28.11646324-.00916267 42.17470051-.02326224 14.44066379-.01436866 28.88131451-.02126992 43.32198562-.02040623 8.10501449.0003318 16.2100009-.00240785 24.31500894-.01317805 6.90085722-.00911143 13.80167361-.01127496 20.70253424-.00449057 3.51907329.00326195 7.0380683.00333364 10.55713411-.00535325 3.81948777-.00933131 7.6388616-.00308048 11.45835495.00463104 1.10584861-.00514356 2.21169723-.01028713 3.3510564-.01558656 9.58283217.04272905 18.21326304.94171075 25.77630872 7.26282472 6.84307101 7.35895664 8.31224852 14.26488609 8.3359375 24.078125.00665679.9666156.01331359 1.9332312.02017211 2.92913818.01009877 2.04069118.01481789 4.08141521.01449585 6.12213135.00436095 3.09675587.04067681 6.19207126.07861329 9.28857422.00587144 1.99088059.00983864 3.98176789.01171875 5.97265625.01437103.91388489.02874206 1.82776977.04354858 2.76934814-.05311362 7.60298475-1.83638444 14.35696032-6.51229858 20.46112061-.69867188.59941406-1.39734375 1.19882812-2.1171875 1.81640625-.68320313.61746094-1.36640625 1.23492187-2.0703125 1.87109375-7.86337313 4.74211777-16.20717033 5.12615784-25.1772461 5.07235718-1.21022009.00467997-2.42044018.00935994-3.6673336.01418173-3.33314761.00984448-6.66578282.00637122-9.99889851-.00295866-3.60470179-.00681831-7.20936045.00370446-10.81405353.01193977-7.05127504.01330998-14.10245405.01047183-21.15373278.00176208-5.73290273-.00678694-11.46577862-.00768891-17.19868422-.00442856-.81726479.0004597-1.63452959.0009194-2.47655999.00139303-1.66047936.00095922-3.3209587.00193186-4.98143804.00291778-15.55471002.00854588-31.10936692-.00126764-46.66406822-.0174011-13.33427681-.01340246-26.66847525-.01107414-40.00275064.00275628-15.50067496.01607-31.00130342.0223668-46.50198555.01316321-1.65422502-.00095561-3.30845006-.00189872-4.96267509-.0028292-1.22072947-.00069424-1.22072947-.00069424-2.46612013-.0014025-5.72317806-.00258563-11.44632652.00177189-17.16949999.00884116-6.97871007.00843099-13.95731897.00610135-20.93601751-.00984223-3.55773309-.00786128-7.11529775-.01101115-10.67302943-.00105254-3.86277289.0106486-7.72527254-.00210279-11.58803558-.01704025-1.11577108.00669216-2.23154217.01338433-3.3811245.02027928-9.46432064-.07086489-18.1779635-1.34831598-25.08959388-8.24571263-5.99896876-6.79914251-7.65778514-13.99691873-7.53074646-22.84301758-.00241196-.98315186-.00482392-1.96630371-.00730896-2.97924805.00097281-2.06392479.01422989-4.12787753.03929138-6.19165039.03434111-3.13405246.02061872-6.26528314.0012207-9.39941406.0068993-2.018241.01657244-4.03647482.02929688-6.0546875-.00495987-.92321045-.00991974-1.8464209-.01502991-2.79760742.1328538-7.44893743 1.78946583-14.34955907 6.47596741-20.29223633 9.77143237-7.82112611 18.58091317-8.74844961 30.85188293-8.73136902zm-16.74641418 21.13371277c-2.58404909 3.87607363-2.32375541 7.14971734-2.3359375 11.6484375-.0066568.84954254-.0133136 1.69908508-.02017212 2.57437134-.01012345 1.79712764-.01481712 3.59429285-.01449585 5.39144897-.00436756 2.74379786-.04067319 5.48597957-.07861328 8.22949219-.00586944 1.74739034-.00983799 3.49478831-.01171875 5.2421875-.01437104.8178598-.02874207 1.6357196-.04354859 2.47836304.03165134 3.96460167.22174948 5.97586822 2.34579468 9.43032836 3.22578996 2.99667935 5.84831489 3.13083462 10.07414055 3.13679886 1.02004116.00384115 2.04008232.00768229 3.09103381.01163984 1.12400778-.00086649 2.24801556-.00173297 3.40608418-.00262571 1.19143274.00297113 2.38286547.00594225 3.61040223.0090034 3.31284434.00718787 6.62563684.00985991 9.93848527.01059747 3.57063432.00184948 7.14125738.00939623 10.71188521.01613522 7.8098248.01358758 15.61964447.01960855 23.42947912.02401066 4.87475649.0027614 9.749511.00699853 14.62426615.01150417 13.49215381.01219265 26.98430602.02249234 40.47646522.02587509.86367932.00021957 1.72735863.00043913 2.61721004.00066535 1.29864483.00032742 1.29864483.00032742 2.6235249.00066145 1.75441142.00044347 3.50882284.00089003 5.26323426.00133967 1.30537718.00033215 1.30537718.00033215 2.63712562.000671 14.10641603.00394942 28.21278044.02140783 42.31917653.04468853 14.47671004.02369939 28.95339417.03617519 43.43012394.03734192 8.13065872.00091749 16.26125018.00668861 24.3918904.02481961 6.92228332.01538187 13.84447857.02053277 20.76677572.0122619 3.53277149-.00391318 7.06536555-.00294459 10.59811534.01105735 3.82765663.01503229 7.65506202.00689226 11.48273849-.00358201 1.11954634.00805641 2.23909267.01611281 3.39256466.02441335 1.02525665-.00658984 2.0505133-.01317969 3.10683834-.01996922 1.32525281.00089563 1.32525281.00089563 2.6772784.00180936 3.10138966-.46554253 4.95933715-1.54432751 7.48985303-3.37374616 2.58097834-3.87146751 2.34176303-7.15309919 2.37109375-11.6484375.00902847-.84954254.01805694-1.69908508.027359-2.57437134.01450466-1.7971138.02338978-3.59428044.02708435-5.39144897.01189067-2.74407356.06106601-5.4858937.11157227-8.22949219.00946519-1.74738487.01669977-3.49478354.02148438-5.2421875.02929847-1.2267897.02929847-1.2267897.05918884-2.47836304-.03381718-4.2885334-.22951185-5.94037664-2.9651947-9.43032837-3.60417744-2.72477805-6.14487538-3.13055736-10.53400898-3.13679886-1.01245767-.00384114-2.02491534-.00768229-3.06805355-.01163983-1.11554376.00086648-2.23108752.00173296-3.38043564.0026257-1.18256007-.00297112-2.36512013-.00594224-3.58351535-.0090034-3.2881107-.00718773-6.57616916-.00985989-9.86428398-.01059746-3.54406838-.00184954-7.08812541-.00939636-10.63218725-.01613522-7.75204253-.01358784-15.5040799-.0196087-23.25613236-.02401066-4.83925224-.00276158-9.67850248-.00699877-14.51775336-.01150417-13.3952163-.01219311-26.790431-.02249244-40.18565273-.02587509-.85749253-.00021957-1.71498506-.00043914-2.59846221-.00066535-.85955786-.00021828-1.71911572-.00043656-2.60472079-.00066145-1.7418258-.00044347-3.4836516-.00089003-5.2254774-.00133968-.86400791-.00022143-1.72801583-.00044286-2.61820581-.000671-14.00227622-.00394861-28.00450043-.02140439-42.00675655-.04468852-14.37162374-.0237057-28.74322136-.03617549-43.11486497-.03734192-8.07088708-.00091719-16.14170636-.00668045-24.21257478-.02481961-6.87211592-.01539043-13.7441431-.02052772-20.61627297-.0122619-3.50656744.00391025-7.01295613.00295884-10.51950164-.01105735-3.8011106-.01264346-7.60175947-.00688362-11.40286637.003582-1.1088516-.0080564-2.21770319-.01611281-3.36015636-.02441334-5.49332334.03548056-9.68018088.14326247-14.35070484 3.39190602z" transform="translate(121.746414 220.866287)"/><path d="m0 0c1.81533013-.00701996 1.81533013-.00701996 3.6673336-.01418173 3.33314761-.00984448 6.66578282-.00637122 9.99889851.00295865 3.60470179.00681832 7.20936045-.00370446 10.81405353-.01193976 7.05127504-.01330998 14.10245405-.01047184 21.15373278-.00176208 5.73290273.00678694 11.46577862.00768891 17.19868422.00442855.8172648-.0004597 1.63452959-.0009194 2.47655999-.00139303 1.66047936-.00095921 3.32095871-.00193185 4.98143804-.00291777 15.55471002-.00854588 31.10936692.00126764 46.66406823.0174011 13.3342768.01340245 26.66847524.01107414 40.00275063-.00275628 15.50067496-.01607 31.00130342-.0223668 46.50198555-.01316321 1.65422503.0009556 3.30845006.00189871 4.9626751.00282919 1.22072946.00069424 1.22072946.00069424 2.46612012.00140251 5.72317806.00258563 11.44632652-.00177189 17.16949999-.00884117 6.97871008-.00843098 13.95731897-.00610135 20.93601752.00984223 3.55773308.00786129 7.11529774.01101116 10.67302942.00105255 3.86277289-.0106486 7.72527254.00210278 11.58803558.01704025 1.11577109-.00669217 2.23154217-.01338433 3.3811245-.02027929 9.46421731.07086413 18.17823781 1.34819554 25.08959389 8.24584997 6.00992102 6.81112167 7.65756304 14.01739586 7.53074646 22.8780365.00241195.98552353.00482391 1.97104706.00730896 2.98643493-.00097275 2.06812088-.01422803 4.13626967-.03929139 6.2042389-.03437861 3.14503328-.02060922 6.28726082-.0012207 9.43237304-.00689814 2.0214962-.01657023 4.04298523-.02929687 6.06445313.00495987.92837173.00991974 1.85674347.0150299 2.81324768-.13966977 7.83176604-2.44929684 13.51567712-6.70643615 20.02659607-7.56155391 7.23279069-15.40322953 8.48360807-25.55126953 8.38491821-1.24288851.00779995-2.48577702.01559991-3.76632882.02363622-3.42466894.01641361-6.84795345.01061644-10.27253627-.00493109-3.70289174-.0113609-7.40566666.00617255-11.10853482.01989961-7.2438352.02218668-14.48741079.01745172-21.73125601.00293679-5.88928554-.0113103-11.77849854-.01281541-17.66779184-.00738092-1.25920153.00114925-1.25920153.00114925-2.54384148.00232172-1.70557537.00159869-3.41115072.00321976-5.11672604.00486295-15.97822613.01424412-31.95630862-.00211418-47.93451119-.02900183-13.69817636-.02233758-27.39614084-.01845708-41.09431338.00459381-15.92259901.02678169-31.84507226.03727896-47.76769066.02193868-1.69916087-.00159268-3.39832177-.00316454-5.09748268-.00471533-.83593252-.00077137-1.67186504-.00154275-2.53312886-.0023375-5.87949078-.0043099-11.75890154.00295421-17.63837993.01473527-7.16908266.0140499-14.33789174.01017298-21.50694322-.01640372-3.65504236-.01310497-7.30962923-.01834803-10.9646678-.00175424-3.96803132.01774179-7.93532328-.00349855-11.90332794-.02840042-1.14689867.01115361-2.29379734.02230722-3.47545052.03379881-8.15538776-.09912964-14.93130975-1.81723547-21.11419296-7.3947525-6.54003103-6.80752566-7.55342538-14.72508751-7.55537605-23.76615202-.00761353-.98598175-.01522705-1.9719635-.02307129-2.98782349-.01075518-2.07581056-.01367287-4.15167503-.00915528-6.22750854.00097173-3.15180991-.04069196-6.30117779-.08496093-9.45263672-.00520853-2.02733873-.00789517-4.05468583-.0078125-6.08203125-.01639527-.92948456-.03279053-1.85896912-.04968262-2.81661988.09131323-8.7764465 3.10910322-15.66824176 9.33093262-21.87869262 7.20248895-6.49980711 17.54479056-6.49827237 26.68505859-6.44345093zm-15.37255859 21.38095093c-2.58097834 3.87146751-2.34176304 7.15309919-2.37109375 11.6484375-.00902848.84954254-.01805695 1.69908508-.02735901 2.57437134-.01450466 1.7971138-.02338978 3.59428043-.02708435 5.39144897-.01189066 2.74407356-.06106601 5.48589369-.11157227 8.22949219-.00946519 1.74738487-.01669977 3.49478354-.02148437 5.2421875-.01953232.8178598-.03906464 1.6357196-.05918885 2.47836303.00607773.7707486.01215546 1.5414972.01841736 2.33560181-.00507065.67267914-.01014129 1.34535828-.0153656 2.03842163.98728868 3.31115553 2.70136709 5.32213598 5.61473084 7.06167603 3.92705938.76053139 7.81544948.67416609 11.80493164.63491821 1.81421369.01169993 1.81421369.01169993 3.66507816.02363622 3.35441066.016498 6.70742229.01055592 10.06174803-.00493109 3.61835919-.01130642 7.23659555.00614561 10.8549304.01989961 7.08710012.02224467 14.17393563.01742585 21.26104617.00293679 5.75929985-.01128745 11.51852549-.01282529 17.27783322-.00738092 1.2290788.00114925 1.2290788.00114925 2.48298747.00232172 1.66451569.00159861 3.32903137.00321967 4.99354702.00486295 15.61179991.0142611 31.22345307-.00214084 46.83522892-.02900183 13.39850222-.02233913 26.79678785-.01845911 40.19528615.00459381 15.55554872.02675167 31.11096878.03729579 46.66653729.02193868 1.65842595-.00159276 3.31685191-.00316462 4.9752779-.00471533.81599814-.00077137 1.63199628-.00154275 2.47272164-.0023375 5.753041-.00431891 11.50600047.00297364 17.25902885.01473527 7.01014884.01401655 14.02001771.0102431 21.03013444-.01640372 3.57743164-.01314988 7.15439635-.01827132 10.73182463-.00175424 3.87590677.01762465 7.75104729-.00340473 11.62692643-.02840042 1.13374589.01115361 2.26749177.02230722 3.4355936.03379881 6.34428917.06471541 6.34428917.06471541 11.56788445-3.0803858 1.76443592-2.53514419 2.42819423-3.63255936 2.4325571-6.6566906.01253311-.76429321.02506623-1.52858642.03797913-2.31604004-.01325821-.81158569-.02651642-1.62317138-.04017639-2.45935058.00361793-1.27006897.00361793-1.27006897.00730896-2.5657959-.00097691-1.78524472-.01433325-3.57052031-.03929139-5.35559082-.03431823-2.72647408-.02065047-5.4497064-.0012207-8.17626953-.00689879-1.73829499-.01657148-3.47658165-.02929687-5.21484375.0074398-1.21737854.0074398-1.21737854.0150299-2.45935059-.08152087-3.93436089-.31401231-5.95165965-2.42933654-9.37463379-3.21863257-3.00576101-5.84214028-3.13522973-10.06754876-3.14119339-1.53006174-.00576171-1.53006174-.00576171-3.09103381-.01163983-1.12400778.00086648-2.24801556.00173296-3.40608418.0026257-1.19143274-.00297112-2.38286547-.00594224-3.61040223-.0090034-3.31284434-.00718787-6.62563683-.0098599-9.93848526-.01059747-3.57063433-.00184948-7.14125739-.00939623-10.71188522-.01613521-7.8098248-.01358758-15.61964447-.01960855-23.42947912-.02401066-4.87475649-.0027614-9.749511-.00699854-14.62426615-.01150417-13.49215381-.01219265-26.98430602-.02249235-40.47646522-.02587509-.86367932-.00021957-1.72735863-.00043914-2.61721004-.00066536-.86576322-.00021827-1.73152643-.00043655-2.6235249-.00066144-1.75441142-.00044347-3.50882284-.00089004-5.26323425-.00133968-.87025146-.00022143-1.74050292-.00044286-2.63712563-.000671-14.10641603-.00394941-28.21278044-.02140782-42.31917653-.04468852-14.47671004-.02369939-28.95339417-.03617519-43.43012394-.03734192-8.13065872-.0009175-16.26125018-.00668862-24.3918904-.02481961-6.92228331-.01538187-13.84447857-.02053277-20.76677572-.0122619-3.53277149.00391318-7.06536555.00294458-10.59811534-.01105735-3.82765662-.0150323-7.65506202-.00689226-11.48273849.003582-1.11954634-.0080564-2.23909267-.01611281-3.39256465-.02441335-1.53788499.00988477-1.53788499.00988477-3.10683835.01996923-1.32525281-.00089563-1.32525281-.00089563-2.6772784-.00180936-3.10138966.46554253-4.95933715 1.54432751-7.48985302 3.37374616z" transform="translate(120.372559 425.619049)"/><path d="m0 0c1.05240832-.00445784 2.10481664-.00891569 3.18911612-.01350862 1.74028318.00027655 1.74028318.00027655 3.51572359.00055868 1.84416899-.00551504 1.84416899-.00551504 3.72559392-.01114148 3.41913516-.00912984 6.83822231-.0137372 10.25736511-.01638931 3.685233-.00390237 7.37045209-.01348081 11.05567622-.02221287 8.90357593-.01976723 17.807153-.02983134 26.71074539-.03872779 4.19282781-.00438282 8.38565434-.00974968 12.57848114-.01498887 13.93821895-.0170132 27.87643711-.03150706 41.81466484-.03874874 3.61747934-.0019099 7.23495867-.00383023 10.85243798-.00578594.89910836-.00048374 1.79821672-.00096748 2.72457079-.00146588 14.56285264-.00829913 29.12562311-.03363366 43.68843988-.0661148 14.95133416-.03307576 29.90262657-.05108264 44.85399751-.05427762 8.39461665-.00216471 16.7891135-.01090757 25.18369448-.03646117 7.14982241-.02171415 14.29949593-.02975396 21.44934757-.02003322 3.64673209.00454279 7.29315702.00266015 10.93984692-.01676144 3.95767975-.02089539 7.91493716-.01064 11.87265778.00253295 1.14680445-.01096924 2.2936089-.02193849 3.47516501-.03324013 8.23571555.06616682 14.55002004 1.48591536 20.86452615 6.95848733.721875.845625 1.44375 1.69125 2.1875 2.5625.721875.804375 1.44375 1.60875 2.1875 2.4375 4.17236117 5.89885545 4.1440467 11.89894485 4.18359375 18.859375.00902847.98881164.01805695 1.97762329.02735901 2.99639892.01447118 2.08775827.02338143 4.17556157.02708435 6.2633667.01187318 3.16941131.06107126 6.33685967.11157226 9.50585938.00946827 2.03644891.01670137 4.07290969.02148438 6.109375.01953232.93575866.03906464 1.87151733.05918884 2.83563232-.05530174 8.19675408-2.7973456 14.36621655-7.80528259 20.80499268-8.1233981 6.31819852-15.25866868 7.9212004-25.41957092 7.81568908-1.85314046.01064158-1.85314046.01064158-3.74371809.02149815-3.4038099.01448554-6.80621361.00675116-10.20991868-.01072294-3.68036811-.01342872-7.36063397.00208264-11.04099214.01382196-7.19939365.01833959-14.39851516.00988928-21.59790022-.00808822-5.85258339-.01404802-11.70509311-.01791408-17.55769174-.01455773-.83420569.00047744-1.66841138.00095489-2.52789603.0014468-1.6948671.00102636-3.38973418.00208173-5.08460124.00316576-14.97290133.00855948-29.94567159-.00808403-44.91854102-.03782903-14.51795964-.02884075-29.0357305-.03591753-43.55371094-.02050782-15.82333353.01677233-31.64657753.02078626-47.46991342.00328964-1.68818983-.00184432-3.37637968-.00367905-5.06456953-.00550407-.83054502-.00091209-1.66109003-.00182418-2.51680308-.00276391-5.84387751-.00559858-11.68771122-.00230459-17.53158636.00430886-7.12406868.00774246-14.24795176.00094768-21.37198311-.02417504-3.63258005-.01247339-7.26487146-.01866803-10.89746231-.00745833-3.9420286.01193465-7.88356194-.0072597-11.82555389-.02944947-1.71304442.01236115-1.71304442.01236115-3.4606958.02497202-8.18413247-.08499813-13.84735353-1.97952152-20.76939148-6.22713571-4.92273214-5.05947471-8.33773732-11.62945422-8.42700195-18.73291016-.01283524-.89167877-.02567047-1.78335754-.03889466-2.70205688-.00738693-.96247651-.01477386-1.92495301-.02238464-2.91659546-.00807175-.99542816-.01614349-1.99085633-.02445984-3.01644898-.01383623-2.10989646-.02456045-4.21981526-.03242493-6.32974243-.01715694-3.2066578-.06104119-6.41226944-.10522461-9.61865234-.01013229-2.05337786-.01864671-4.10676447-.02539062-6.16015625-.01750809-.95033112-.03501617-1.90066223-.05305481-2.87979126.02471842-7.69368391 2.17689615-13.20483676 6.16633606-19.70614624 5.32116712-5.1773518 11.94817772-8.36965017 19.3729496-8.38422108zm-7.0604496 23.13422108c-.7334502 2.05343666-.7334502 2.05343666-.64697266 4.16015625-.0157608.78431396-.0315216 1.56862793-.04776001 2.37670898.01012116.83345947.02024231 1.66691895.03067017 2.52563477-.00478363.86890869-.00956726 1.73781738-.01449585 2.63305664-.0033939 1.83229386.00577291 3.6646487.02670288 5.49682617.02677524 2.79922937.00023744 5.59444952-.03173828 8.39355469.00330419 1.78386298.00971062 3.56772348.01953125 5.3515625-.01012116.83345947-.02024231 1.66691894-.03067017 2.52563476.01576081.78431397.03152161 1.56862793.04776001 2.37670899.00596695 1.02661743.00596695 1.02661743.01205445 2.07397461 1.00929236 3.31628099 2.70771196 5.34014302 5.63491821 7.08618164 3.92961955.75859697 7.82006617.66983424 11.81166077.62818908 1.21018136.00709439 2.42036272.01418878 3.66721624.02149815 3.35635104.01456096 6.71129201.00668221 10.06753987-.01072294 3.62037523-.01336347 7.24064318.0020593 10.86100805.01382196 7.09078504.01838815 14.1812947.00985682 21.27207119-.00808822 5.7616898-.01401925 11.5233048-.01792027 17.28501003-.01455773.81967458.00047744 1.63934917.00095489 2.48386238.0014468 1.66508142.00102631 3.33016283.00208167 4.99524422.00316576 14.72628905.00856929 29.45244503-.00811594 44.1787017-.03782903 14.29530425-.02884325 28.59041682-.03591878 42.88574219-.02050782 15.56175833.01675322 31.12342564.02080578 46.68518633.00328964 1.65868887-.00184442 3.31737775-.00367914 4.97606665-.00550407.81613885-.00091209 1.6322777-.00182418 2.47314803-.00276391 5.75650068-.00561047 11.51295699-.00229351 17.26945527.00430886 7.0127109.00772378 14.02523297.00101511 21.03790576-.02417504 3.57927058-.01251684 7.15824687-.0186154 10.73752873-.00745833 3.8761744.01185459 7.75183855-.00717465 11.62797547-.02944947 1.13665873.00824077 2.27331746.01648154 3.44442039.02497202 1.03596579-.01104768 2.07193158-.02209537 3.13929028-.03347784.89494849-.00119148 1.78989699-.00238296 2.71196514-.00361055 3.15897762-.66451857 4.35274989-2.05795068 6.38900131-4.50254732 1.62162324-3.24324648 1.16306279-6.80359846 1.16796875-10.3671875.0033284-.83113312.0066568-1.66226624.01008606-2.51858521.00506735-1.7602381.00740838-3.52048581.00724792-5.2807312.00218288-2.69075415.02033042-5.38109597.03930664-8.07177734.0029347-1.70963402.00491899-3.41926998.00585938-5.12890625.01077827-1.20642655.01077827-1.20642655.02177429-2.43722534.03551683-5.43458669.03551683-5.43458669-2.25224304-10.19558716-3.26933747-2.17955831-4.19315061-2.2518152-7.97791863-2.26006222-1.03397474-.00706559-2.06794948-.01413118-3.13325679-.02141088-1.13957157.00241508-2.27914314.00483017-3.45324719.00731843-1.20776694-.00523667-2.41553389-.01047335-3.65989983-.01586872-3.35850151-.01243559-6.71679393-.01584277-10.07530415-.01540309-3.61972818-.00164574-7.239418-.01470764-10.85912585-.02619279-7.91726038-.02286729-15.83449398-.03077233-23.7517829-.03582644-4.94176334-.00325476-9.88351887-.00977585-14.8252778-.01700139-13.67744509-.01956752-27.35488292-.03597106-41.03234291-.03887653-.87554976-.00018757-1.75109952-.00037514-2.65318109-.0005684-1.77501431-.00036625-3.55002862-.00072995-5.32504294-.00109111-.88114086-.00018281-1.76228172-.00036562-2.67012383-.00055397-.88221391-.00018055-1.76442783-.0003611-2.6733755-.00054712-14.30045552-.00354292-28.60076058-.03057197-42.9011639-.06795077-14.67559826-.03805316-29.35112179-.05744589-44.02677049-.05774815-8.24248806-.00058521-16.4847966-.00911852-24.72723854-.03799766-7.01748415-.02447388-14.03472331-.03182393-21.05223857-.01675247-3.58149083.00718525-7.16249751.00624305-10.74393452-.0164106-3.88034488-.02430956-7.75999361-.00999944-11.64038468.00821304-1.70266519-.01979995-1.70266519-.01979995-3.43972766-.0399999-6.34026071.06826363-9.65022909.28893754-13.37866223 5.65473074z" transform="translate(110.06045 323.865779)"/><path d="m0 0c.69001022-.0060911 1.38002044-.01218221 2.09094006-.01845789 2.31157464-.01664604 4.6225994-.01185211 6.93422168-.00705481 1.65748671-.0073394 3.31496829-.01592525 4.97244263-.02566528 4.50206657-.0222378 9.00395023-.02514557 13.50606418-.02325249 3.7575623.0001196 7.51508569-.00843984 11.27263719-.01677751 8.86406558-.01924204 17.72803698-.0221149 26.59211772-.0153594 9.1466811.00664253 18.29295911-.01623018 27.43955845-.05331373 7.85149753-.03067859 15.70286526-.04205907 23.55442154-.03816319 4.69006691.00206932 9.37982015-.00343993 14.06983036-.02789259 4.41031494-.02223444 8.81997364-.02041719 13.23029137-.00007248 1.61852844.00341589 3.23710078-.00170399 4.85556984-.01598358 2.21023089-.01815501 4.41822647-.00547562 6.62838936.01494217 1.85468981-.00106876 1.85468981-.00106876 3.7468481-.00215912 4.13887927.79579542 5.62564102 2.39594118 8.24340153 5.62361908.90738141 3.02648335.46433133 4.7496807 0 8-1.87015094 2.43119623-3.28138345 3.64069172-6 5-2.19305842.10307087-4.38932715.13954657-6.58479309.14717102-.68421782.00367669-1.36843564.00735338-2.07338733.01114148-2.30380738.01105565-4.60756969.01488384-6.91139966.01868945-1.64733525.0062632-3.29466907.01290988-4.94200134.01991272-4.48354045.01742231-8.96707023.02796498-13.45063615.03620553-2.79980905.00514725-5.59961476.01122309-8.39942145.01751113-8.75601677.01905499-17.51202508.03328581-26.2680586.04161197-10.11476931.00977642-20.22932001.03610515-30.34401226.07650089-7.8132192.0301358-15.62637565.04496555-23.43965185.04828012-4.66883305.00235328-9.33743265.01134962-14.00620347.03646118-4.39212766.02324166-8.7838675.02752981-13.17604065.01723862-1.61208446-.00049642-3.22418775.00585517-4.83621407.01955604-2.20127868.01766227-4.40115698.01064237-6.60243606-.00253296-1.84752476.00358253-1.84752476.00358253-3.73237324.00723744-3.86179307-.59118745-5.51242197-1.73575093-8.23337078-4.49498463-1.06239754-3.32884563-1.17727187-5.30702815-.3125-8.6875 2.98528767-5.25979256 6.37543771-5.68941216 12.17576599-5.70690918z" transform="translate(129.863266 357.605591)"/><path d="m0 0c.67453043-.00382555 1.34906087-.00765109 2.04403162-.01159257 2.25310298-.01029284 4.50594936-.00634503 6.75906897-.00236922 1.6182224-.00434849 3.23644274-.00953209 4.85466003-.01548767 4.39041871-.0133852 8.78075131-.01396931 13.17118645-.0114367 3.66564581.00106983 7.33127421-.00381387 10.99691629-.00860542 8.6468853-.01109309 17.29372716-.01153342 25.94061613-.00548584 8.92109106.00604336 17.84202454-.00628085 26.76308871-.02757007 7.66042302-.01760878 15.32079584-.02361858 22.98123836-.02036225 4.57483598.00181383 9.1495595-.00083349 13.72437716-.01471454 4.30103047-.01256231 8.60181493-.01064947 12.90284156.00241089 1.57821104.00236865 3.15643931-.00037927 4.73463059-.00862313 2.15495765-.0104449 4.30908628-.00238594 6.46401405.01031113 1.80849552-.00025161 1.80849552-.00025161 3.65352631-.00050831 4.47154168.52723353 7.03851954 2.23511092 10.17813873 5.37473011.63515229 5.53489848.63515229 5.53489848 0 8-2.61807355 3.24345258-4.10882025 4.82870733-8.2590189 5.62641239-1.24383422.00058631-2.48766844.00117262-3.7691946.0017767-1.04348064.01064158-1.04348064.01064158-2.1080417.02149814-2.32502107.01756637-4.64836724-.00051545-6.97336394-.01858371-1.66911072.00513935-3.33821602.01242074-5.00730896.02168274-4.52895799.01851899-9.05732751.00557302-13.58626103-.0140903-4.73870939-.01638104-9.47738136-.0075745-14.21610713-.00248075-7.95676581.00452113-15.91329655-.01135114-23.87001038-.03929138-9.20179106-.03206301-18.40315839-.03203199-27.60497957-.01478523-8.85003953.01585699-17.69992356.00913758-26.54995627-.00793702-3.76749429-.00687629-7.53486415-.00583216-11.30235672.00154496-4.43491899.00765449-8.86935499-.00443567-13.30419159-.03184891-1.62860492-.00689332-3.25725488-.00697165-4.88585853.00021553-2.221248.00867393-4.44099824-.00722355-6.66212082-.02944946-1.24345719-.00280692-2.48691439-.00561384-3.7680521-.00850582-3.72414123-.60162671-4.88207231-1.53535062-7.13317776-4.50615788-1.21861894-3.73709808-1.16658838-5.51874468.125-9.25 3.45296023-5.06434167 7.90627283-5.00082015 13.70666504-5.01069641z" transform="translate(131.831665 459.739304)"/><path d="m0 0c1.25213036-.00058631 2.50426071-.00117262 3.79433441-.0017767.69888289-.00709438 1.39776578-.01418877 2.11782694-.02149814 2.34193968-.01760304 4.68222462.00053429 7.02414084.01858372 1.67881527-.005138 3.35762515-.01241837 5.03642272-.02168274 4.56000624-.0185377 9.11942889-.00556067 13.67941094.0140903 4.76941181.01636835 9.53878613.00757614 14.30821419.00248074 8.00981992-.00452299 16.01940647.0113616 24.0291748.03929138 9.2636854.03205286 18.52694986.03203686 27.79066515.01478523 8.90716826-.01585742 17.81418203-.00913659 26.72134352.00793702 3.79261379.00687708 7.58510398.00583131 11.37771606-.00154495 4.46527317-.00765468 8.93006663.00443628 13.39525795.0318489 1.63989208.00689356 3.27982888.00697141 4.9197197-.00021553 2.23662456-.0086735 4.47176149.00722303 6.70826149.02944947 1.25213035.00280692 2.50426071.00561384 3.79433441.00850582 3.73708535.60019105 4.89555971 1.52373378 7.15158844 4.50615787 1.21861894 3.73709808 1.16658838 5.51874468-.125 9.25-2.19824791 3.22409694-3.20360281 3.64626311-6.875 4.75-3.16252136.25168228-3.16252136.25168228-6.79370117.25396729-1.00567033.00467997-1.00567033.00467997-2.03165722.00945449-2.23929374.0079567-4.47831475.00166556-6.71761036-.00463272-1.60836953.0027109-3.21673782.00627239-4.82510376.01062012-4.36356783.0091145-8.72704103.00558361-13.0906105-.00075817-4.56740448-.00506483-9.13480087-.0003672-13.70220566.00277233-7.67001805.00363823-15.33999757-.00115571-23.01000977-.01068115-8.86652939-.01088427-17.73296681-.0073586-26.59949398.00365281-7.61371205.00907694-15.22739642.01035616-22.84111213.00512266-4.54686205-.00311745-9.09368086-.00353519-13.64054013.00307298-4.27472615.00577874-8.54933374.00176687-12.82404709-.00978851-1.56853285-.00264376-3.13707568-.00188634-4.70560455.00252533-2.14166872.00546816-4.28295794-.00139385-6.42460251-.01136017-1.19828934-.00075405-2.39657867-.00150811-3.63117981-.00228501-3.86727864-.30776883-6.69959555-1.34365936-9.97502136-3.37668228-1.57933767-2.49369106-1.59823594-4.84002199-1.68359375-7.7421875 1.02838144-4.42123043 3.20309201-6.87581438 7.64768219-7.75922489z" transform="translate(123.151588 255.373588)"/><path d="m0 0c2.5641867.67157271 4.21543141 1.75553563 6.04797363 3.66645813 2.51317477 4.383386 1.80767012 9.94362162 1.79187012 14.84916687.01512131 1.25809982.03024261 2.51619965.04582214 3.81242371.03565917 3.33270331.05003522 6.6641077.05403138 9.99690246.00934578 3.40552269.04676808 6.81072612.08178711 10.21606445.06292959 6.67253311.09780194 13.34477188.11132812 20.01757813.61488281-.62648437 1.22976563-1.25296875 1.86328125-1.8984375.80824219-.81726563 1.61648438-1.63453125 2.44921875-2.4765625 1.20076172-1.21816406 1.20076172-1.21816406 2.42578125-2.4609375 2.92919966-2.80272299 4.55508246-4.08554736 8.63671875-4.5390625 4.26285745.44098525 5.78271476 1.19832827 8.625 4.375 1.24231888 3.57166677 1.28581025 5.29081288-.13061523 8.80541992-2.18239863 3.72948753-4.70768536 6.43034817-7.77954102 9.43286133-.56810898.56623581-1.13621796 1.13247162-1.72154236 1.71586609-1.19421084 1.18752305-2.39199692 2.3714605-3.59315491 3.55195618-1.84245911 1.81112727-3.67386757 3.63287379-5.5036621 5.45678711-1.16408983 1.15492588-2.32878239 2.30924463-3.49414063 3.46289062-.54898453.54473465-1.09796906 1.0894693-1.66358948 1.65071106-3.30979242 3.24752761-5.00744709 4.72595284-9.61375427 5.54850769-5.83388695-.16608931-8.90721849-3.92903398-12.80371094-7.90234375-2.06589298-2.09800531-4.16628168-4.15912405-6.26660156-6.22265625-3.22629727-3.1852388-6.44806441-6.37463464-9.6484375-9.5859375-1.0199707-1.0216626-1.0199707-1.0216626-2.06054688-2.06396484-3.27189838-3.51794069-4.23844476-6.00691194-4.09570312-10.84228516.375-2.0078125.375-2.0078125 2.4375-5.0078125 2.9375-2 2.9375-2 6.25-2.75 5.26493926 1.0708351 7.9954361 4.00464858 11.6875 7.75 1.33279562 1.33387083 2.66606102 2.66727259 4 4 .00808685-.67794113.01617371-1.35588226.02450562-2.05436707.086064-7.05669397.18556886-14.11310765.29287719-21.16950988.03828064-2.63341566.07313508-5.26688343.10449219-7.90039063.0456697-3.78558988.10366226-7.5708212.1640625-11.35620117.01155121-1.17725143.02310242-2.35450287.03500366-3.56742859.01986969-1.1007637.03973938-2.2015274.06021118-3.33564758.01332367-.96596604.02664734-1.93193207.04037476-2.9271698.30400861-2.93589029.93122871-5.06538294 2.2784729-7.68928528 3.16818756-2.11212504 5.13219252-2.33156464 8.8671875-2.55859375z" transform="translate(325.867188 110.441406)"/><path d="m0 0c3.14319701 2.04133828 5.68588203 4.6079057 8.30371094 7.27734375 2.06589298 2.09800531 4.16628168 4.15912405 6.26660156 6.22265625 3.22629727 3.1852388 6.44806441 6.37463464 9.6484375 9.5859375 1.0199707 1.0216626 1.0199707 1.0216626 2.06054688 2.06396484 3.32324399 3.57314742 4.15668941 6.02288566 4.04882812 10.91259766-.50067548 2.95636953-1.97306414 4.2058376-4.328125 5.9375-3.01778937 1.50889469-4.62322637 1.50026276-8 1-4.46648972-3.12654281-8.15829399-7.15729588-12-11-.00586624.67794113-.01173248 1.35588226-.01777649 2.05436707-.0639393 7.05677828-.14836096 14.11310074-.24467468 21.16950988-.03325208 2.63340241-.06128307 5.26687614-.08398438 7.90039063-.03353974 3.78570953-.08585765 7.57076531-.1418457 11.35620117-.00958488 1.76587715-.00958488 1.76587715-.0193634 3.56742859-.01979416 1.1007637-.03958832 2.2015274-.0599823 3.33564758-.01110306.96596604-.02220612 1.93193207-.03364563 2.9271698-.61252978 4.13131184-2.48490274 6.7754606-5.39872742 9.68928528-6.82375664.78305404-6.82375664.78305404-10.59130859-1.72509766-4.13929488-4.31946938-3.13372371-10.64301057-3.11572266-16.23193359-.01512131-1.25809982-.03024261-2.51619965-.04582214-3.81242371-.03565917-3.33270331-.05003522-6.6641077-.05403138-9.99690246-.00934578-3.40552269-.04676808-6.81072612-.08178711-10.21606446-.06292959-6.6725331-.09780194-13.34477187-.11132812-20.01757812-.61488281.62648437-1.22976562 1.25296875-1.86328125 1.8984375-.80824219.81726563-1.61648437 1.63453125-2.44921875 2.4765625-.80050781.81210938-1.60101563 1.62421875-2.42578125 2.4609375-2.92919966 2.80272299-4.55508246 4.08554736-8.63671875 4.5390625-4.28868479-.44365705-5.80155008-1.13633686-8.625-4.375-1.0671837-3.66844398-1.55745978-5.84680096.13061523-9.33886719 2.29077575-3.2609972 4.95345712-6.01280068 7.77954102-8.80175781.56810898-.56765076 1.13621796-1.13530151 1.72154236-1.72015381 1.19534951-1.19234124 2.39311568-2.38226412 3.59315491-3.56988525 1.84038078-1.82204299 3.67255219-3.6520433 5.5036621-5.48339844 1.16424133-1.15932858 2.32893905-2.31819904 3.49414063-3.4765625.54898453-.5478717 1.09796906-1.09574341 1.66358948-1.66021729 4.39418858-4.33929534 7.7997114-6.49021224 14.11375427-4.94915771z" transform="translate(192 111)"/><path d="m0 0c4.75982924 2.62772498 7.04616381 6.26349144 8.75 11.375.8257554 5.98082837.07105939 10.32670878-3.4609375 15.26953125-3.86148811 4.34172394-7.69146155 5.94692744-13.4765625 6.29296875-5.37569103-.24546534-9.09395432-1.9597189-13.0625-5.5625-3.89911614-4.33969424-4.64405804-8.84032689-4.3828125-14.5703125.83887033-5.32425862 3.15419927-8.4768854 7.4453125-11.8046875 6.05658689-3.35045232 11.88371593-3.83964853 18.1875-1z" transform="translate(383.25 249.625)"/><path d="m0 0c3.83084349 2.61193874 6.65161815 5.67823629 8.75 9.875.5072965 5.55531248.76260422 10.41830236-1.6875 15.5-3.64373188 3.9391696-6.81752799 7.15383134-12.36328125 7.703125-6.75154626.13992842-10.68739033-1.04410696-15.69921875-5.828125-3.34818352-4.40264392-4.65726775-9.2508955-3.94140625-14.7421875 1.58355614-5.84243692 4.61161664-9.40021911 9.69140625-12.6328125 5.1671159-1.72237197 10.10599758-1.65561622 15.25.125z" transform="translate(385.25 351.125)"/><path d="m0 0c4.06671584 3.38892987 6.33876654 6.24070306 6.86328125 11.640625.17184116 6.4756984-.15253788 10.41350513-4.23828125 15.546875-4.96881907 3.95477436-9.03564921 4.64731807-15.34765625 4.37890625-4.66439678-.6663424-7.87376252-2.18151537-10.9296875-5.95703125-2.90772423-4.59441124-4.29639914-9.22215501-3.31640625-14.6875 1.58847019-5.71092853 3.62476215-8.51914757 8.59375-11.734375 6.24986397-3.05548905 12.36295718-2.41618966 18.375.8125z" transform="translate(387.375 454.8125)"/><path d="m0 0c1.63388672-.00386719 1.63388672-.00386719 3.30078125-.0078125 1.69189453.01160156 1.69189453.01160156 3.41796875.0234375 1.12792969-.00773437 2.25585938-.01546875 3.41796875-.0234375 1.08925781.00257813 2.17851562.00515625 3.30078125.0078125 1.4840332.00338379 1.4840332.00338379 2.99804688.00683594 3.86668447.35953382 6.73845601 1.28609348 9.59570312 3.94628906 1.72312029 3.35555003 1.70958089 5.59267365 1.1875 9.3125-2.62050149 3.37140722-4.10616774 4.83160437-8.34985352 5.63110352-1.8706311-.00108765-1.8706311-.00108765-3.77905273-.00219727-.67151596.00241196-1.34303192.00482391-2.03489685.00730896-1.41282587-.0009753-2.82569146-.0142938-4.23829651-.03929138-2.15830473-.03439044-4.31252782-.02063051-6.47094727-.00122071-1.37697048-.00689731-2.75393044-.01656869-4.13085937-.02929687-1.24595947-.01087646-2.49191895-.02175293-3.77563477-.03295898-3.7735705-.62506646-4.94179355-1.51981703-7.22045898-4.53344727-1.21861894-3.73709808-1.16658838-5.51874468.125-9.25 3.20774116-4.70468704 7.2194169-5.00322831 12.65625-5.015625z" transform="translate(322.78125 459.734375)"/><path d="m0 0c1.28068359-.00257813 2.56136719-.00515625 3.88085938-.0078125.99978881.00628418.99978881.00628418 2.01977539.01269531 2.03017193.0106864 4.05945546.0001054 6.08959961-.01269531 1.28197265.00257813 2.56394531.00515625 3.88476562.0078125 1.1748999.00225586 2.3497998.00451172 3.56030273.00683594 2.95764597.24943151 4.6128075.64585539 7.06860352 2.25878906 2.30567313 3.22794238 2.32369432 6.11566819 2 10-.84519345 2.53558035-1.43765218 3.6353596-3.68188477 5.09057617-5.05207071 1.98198667-10.90271789 1.2354072-16.25561523 1.22192383-1.27552734.01611328-2.55105469.03222656-3.86523437.04882812-1.2291211.00064454-2.45824219.00128907-3.72460938.00195313-1.68210571.00447144-1.68210571.00447144-3.39819336.0090332-3.46455023-.41955365-5.32017292-1.25322819-8.07446289-3.37231445-1.85868914-4.10460518-2.34637101-6.03380718-.8125-10.3125 3.22135992-4.77649919 5.84698634-4.9426284 11.30859375-4.953125z" transform="translate(321.496094 357.734375)"/><path d="m0 0c.67151596-.00241196 1.34303192-.00482391 2.03489685-.00730896 1.41282587.0009753 2.82569146.0142938 4.23829651.03929138 2.15830473.03439044 4.31252782.02063051 6.47094726.0012207 1.37697049.00689732 2.75393045.0165687 4.13085938.02929688 1.24595947.01087646 2.49191895.02175293 3.77563477.03295898 3.77354571.62506235 4.94720625 1.51422451 7.22045898 4.53344727.96874011 3.25219893 1.13205095 5.36908992.4375 8.6875-2.07376353 3.33605438-3.72141986 3.92437694-7.4375 5.3125-4.17248761.43738718-8.30821796.41861392-12.5.375-1.11503906.01160156-2.23007812.02320313-3.37890625.03515625-10.37028336-.03708087-10.37028336-.03708087-15.12109375-3.41015625-2.50031654-3.75047482-2.53603554-5.55856266-2-10 3.69209784-4.76591074 6.18561602-5.63236187 12.12890625-5.62890625z" transform="translate(316.128906 255.371094)"/></svg>