<?xml version="1.0" encoding="UTF-8"?>
<svg version="1.1" xmlns="http://www.w3.org/2000/svg" width="512" height="512">
<path d="M0 0 C0 82.5 0 165 0 250 C-91.41 250 -182.82 250 -277 250 C-277 181.03 -277 112.06 -277 41 C-258.61890175 37.55354408 -258.61890175 37.55354408 -249.52490234 36.1966095 C-248.48373733 36.03887123 -247.44257231 35.88113297 -246.36985683 35.71861476 C-242.94228989 35.20005908 -239.51412617 34.68557055 -236.0859375 34.17114258 C-233.60394368 33.79655106 -231.12198563 33.42172247 -228.64006042 33.04667664 C-222.63742005 32.1403669 -216.63437379 31.23679524 -210.63109094 30.33475427 C-205.75107737 29.60148098 -200.87120379 28.86728311 -195.99142456 28.13245201 C-182.12648552 26.04468376 -168.26118456 23.95934296 -154.39540756 21.87714712 C-153.65084592 21.76533749 -152.90628427 21.65352787 -152.13916016 21.53833008 C-151.02094161 21.37040979 -151.02094161 21.37040979 -149.88013279 21.19909718 C-137.7707939 19.38051182 -125.66234695 17.55606057 -113.554286 15.72898797 C-101.09263081 13.84862826 -88.63032212 11.97265499 -76.16732025 10.10124129 C-69.18157992 9.05218766 -62.19612111 8.00133636 -55.21136475 6.94574928 C-48.6522963 5.95453311 -42.09233395 4.96940262 -35.53173256 3.98837471 C-33.12560947 3.62760318 -30.71978623 3.26482531 -28.314291 2.8998909 C-25.03005886 2.40196514 -21.74481992 1.91130348 -18.45922852 1.42243958 C-17.03393861 1.20372506 -17.03393861 1.20372506 -15.57985497 0.98059207 C-14.69249468 0.85007314 -13.80513439 0.7195542 -12.8908844 0.58508015 C-11.75561986 0.414367 -11.75561986 0.414367 -10.59742069 0.24020511 C-7.07905275 -0.08516766 -3.53338088 0 0 0 Z M-23.97864723 21.54660797 C-24.81516087 21.66852682 -25.65167451 21.79044566 -26.51353705 21.91605902 C-27.43764801 22.05224221 -28.36175897 22.1884254 -29.31387329 22.32873535 C-30.29155115 22.47165968 -31.26922902 22.61458402 -32.27653348 22.76183939 C-35.57339174 23.24415803 -38.86994442 23.72853447 -42.16650391 24.21289062 C-44.52143074 24.55783695 -46.87637604 24.90265721 -49.2313385 25.24736023 C-54.9757064 26.08851009 -60.71987951 26.93098049 -66.46396972 27.77402437 C-73.14606611 28.75466465 -79.82839877 29.73369011 -86.51074712 30.71261173 C-98.42822769 32.45849094 -110.34552004 34.20565147 -122.26269531 35.95361328 C-133.84104758 37.65187514 -145.41948814 39.34953306 -156.99804688 41.04638672 C-158.07901772 41.20480563 -158.07901772 41.20480563 -159.18182635 41.36642492 C-165.45014531 42.28505695 -171.71847099 43.20364314 -177.98679733 44.12222481 C-204.99146852 48.07964112 -231.99569712 52.04006931 -259 56 C-259 113.75 -259 171.5 -259 231 C-179.47 231 -99.94 231 -18 231 C-18 161.7 -18 92.4 -18 21 C-20.05962386 21 -21.94053049 21.24782646 -23.97864723 21.54660797 Z " fill="#000000" transform="translate(511,0)"/>
<path d="M0 0 C91.41 0 182.82 0 277 0 C277 80.52 277 161.04 277 244 C267.99997642 244 267.99997642 244 263.86977673 243.37809849 C262.45878445 243.1700198 262.45878445 243.1700198 261.01928729 242.95773751 C259.50482255 242.72530379 259.50482255 242.72530379 257.95976257 242.48817444 C256.86881894 242.32553791 255.77787531 242.16290138 254.65387279 241.99533647 C251.00886522 241.45047438 247.36518048 240.89723219 243.72143555 240.34399414 C241.10453998 239.95103536 238.48757876 239.55853984 235.87052917 239.16661072 C229.50776451 238.21262754 223.14595872 237.2523915 216.78445806 236.29001958 C209.37652232 235.16958187 201.96765601 234.05535817 194.5587462 232.94138294 C181.34304169 230.95410329 168.12819352 228.96118614 154.91381836 226.96508789 C142.08794221 225.0276794 129.26147298 223.09426128 116.43432617 221.1652832 C115.24821193 220.98691157 115.24821193 220.98691157 114.03813579 220.80493648 C113.24876421 220.6862288 112.45939263 220.56752112 111.6461007 220.44521624 C97.04159958 218.24893046 82.43763114 216.04912138 67.83392739 213.84754025 C62.66766249 213.06877499 57.50124574 212.29102215 52.33478355 211.51356697 C46.04393108 210.56683359 39.75339123 209.61805238 33.46323409 208.66670973 C30.25295796 208.18121445 27.04251838 207.69685161 23.83181 207.21422195 C20.35593242 206.69156707 16.8805673 206.16563095 13.40531921 205.6388092 C12.38452245 205.48608411 11.36372568 205.33335902 10.31199569 205.1760059 C9.38437291 205.03467903 8.45675013 204.89335216 7.50101757 204.74774265 C6.69844845 204.62661187 5.89587933 204.50548108 5.06898993 204.38067967 C3 204 3 204 0 203 C0 136.01 0 69.02 0 0 Z M18 19 C18 74.77 18 130.54 18 188 C60.63173251 194.39912688 60.63173251 194.39912688 103.26367188 200.796875 C109.00382655 201.6581919 114.74397986 202.51951798 120.48413086 203.38085938 C121.20361151 203.48882103 121.92309215 203.59678269 122.66437525 203.70801592 C134.29502656 205.45326684 145.92560005 207.19903589 157.55614512 208.94499469 C169.48334961 210.7354758 181.41063699 212.52540388 193.33800226 214.31481361 C200.70373592 215.41987996 208.06940379 216.52538278 215.43498934 217.63143587 C221.07341675 218.47808315 226.71195912 219.32396272 232.35054588 220.16954803 C234.67063447 220.5176028 236.99068497 220.86591152 239.31069565 221.21448517 C242.46316918 221.68809578 245.61577488 222.16081633 248.76841736 222.63330078 C249.69933211 222.77337492 250.63024686 222.91344906 251.58937114 223.05776787 C255.27972927 223.71240914 255.27972927 223.71240914 259 224 C259 156.35 259 88.7 259 19 C179.47 19 99.94 19 18 19 Z " fill="#000000" transform="translate(234,268)"/>
<path d="M0 0 C0 68.97 0 137.94 0 209 C-71.61 209 -143.22 209 -217 209 C-217 150.26 -217 91.52 -217 31 C-164.61948986 23.22599251 -164.61948986 23.22599251 -142.69335938 19.98046875 C-127.5450501 17.73815481 -112.39690299 15.49478176 -97.24975586 13.24462891 C-86.21891006 11.60596952 -75.18754481 9.97086091 -64.15554005 8.34002161 C-58.31372102 7.47631025 -52.47217834 6.61081792 -46.6312542 5.74107361 C-41.13349638 4.92248587 -35.63505638 4.10864804 -30.1360569 3.29844475 C-28.11819948 3.0002863 -26.10059727 2.70039469 -24.08327484 2.39863777 C-21.32758293 1.98669898 -18.57103798 1.58102389 -15.81419373 1.17687988 C-14.61912985 0.99595079 -14.61912985 0.99595079 -13.39992326 0.81136656 C-12.65447285 0.7033813 -11.90902244 0.59539603 -11.14098263 0.48413849 C-10.50571052 0.38996785 -9.8704384 0.2957972 -9.21591562 0.19877291 C-6.1555174 -0.0757521 -3.07268633 0 0 0 Z M-32.10377502 21.94236755 C-32.79549409 22.0437508 -33.48721316 22.14513404 -34.19989341 22.2495895 C-36.50571738 22.58862464 -38.81057264 22.93383561 -41.11547852 23.27905273 C-42.77319984 23.52410183 -44.43097723 23.76877193 -46.08880615 24.01309204 C-50.58303544 24.67655338 -55.07644769 25.34540425 -59.56972241 26.01529574 C-64.27414635 26.71580211 -68.97926988 27.41157824 -73.68431091 28.10792542 C-81.58416159 29.27779666 -89.48352594 30.45090501 -97.38256836 31.6262207 C-107.51966019 33.13452594 -117.65751274 34.6376519 -127.79562473 36.13908291 C-136.51485506 37.43040693 -145.23375683 38.72394416 -153.95259356 40.01792264 C-156.75391119 40.43359448 -159.55526899 40.84899472 -162.35663033 41.26437187 C-166.75873595 41.91726108 -171.16063509 42.57152581 -175.56237793 43.22685623 C-177.17761312 43.46714237 -178.79291155 43.70700381 -180.40827751 43.94640923 C-182.61343189 44.27331006 -184.81834781 44.60177462 -187.02320862 44.9306488 C-188.25707086 45.11408561 -189.49093309 45.29752241 -190.7621851 45.48651791 C-193.51962242 45.92381736 -196.26231931 46.45246386 -199 47 C-199 94.52 -199 142.04 -199 191 C-139.6 191 -80.2 191 -19 191 C-19 134.9 -19 78.8 -19 21 C-23.62379619 21 -27.5761725 21.27084305 -32.10377502 21.94236755 Z " fill="#000000" transform="translate(218,43)"/>
<path d="M0 0 C71.61 0 143.22 0 217 0 C217 66.33 217 132.66 217 201 C200.91854966 199.85132498 200.91854966 199.85132498 193.60977173 198.74082947 C192.76884865 198.61746847 191.92792557 198.49410748 191.06151998 198.36700827 C188.2988835 197.96047013 185.53740692 197.54656333 182.77587891 197.13256836 C180.77390583 196.83640816 178.77186421 196.54071091 176.76976013 196.24543762 C171.37543095 195.44855082 165.98207482 194.6452505 160.58887911 193.84073329 C154.93736503 192.99881844 149.2849654 192.16289117 143.63265991 191.3263092 C132.9475023 189.74390919 122.26314365 188.15618091 111.57906663 186.56650311 C97.12879481 184.41677323 82.67729301 182.27534462 68.2258606 180.13343334 C45.4829004 176.76237558 22.74159448 173.38028859 0 170 C0 113.9 0 57.8 0 0 Z M18 19 C18 63.55 18 108.1 18 154 C56.6864942 160.02094752 56.6864942 160.02094752 95.40234375 165.83984375 C96.79067775 166.04504572 98.17900424 166.25029841 99.56732368 166.45559883 C106.77125463 167.5208306 113.97545825 168.58419531 121.17993164 169.64575195 C127.83586767 170.62654326 134.49109817 171.61203107 141.14605898 172.59941572 C146.9503823 173.46036703 152.75518975 174.31799977 158.5603829 175.1730662 C161.99082301 175.67841117 165.42105328 176.18508423 168.85078239 176.6952343 C172.63032063 177.25655197 176.41061983 177.81243431 180.19116211 178.36694336 C181.3051387 178.53361008 182.4191153 178.70027679 183.56684875 178.87199402 C184.59549042 179.02174683 185.62413208 179.17149963 186.6839447 179.32579041 C187.57125747 179.45681121 188.45857023 179.58783201 189.37277126 179.72282314 C192.23411782 180.02469981 195.12277327 180 198 180 C198 126.87 198 73.74 198 19 C138.6 19 79.2 19 18 19 Z " fill="#000000" transform="translate(1,268)"/>
</svg>
